<?xml version="1.0" encoding="UTF-8"?>
<svg xmlns="http://www.w3.org/2000/svg" xmlns:xlink="http://www.w3.org/1999/xlink" width="50px" height="50px" viewBox="0 0 50 50" version="1.1">
<defs>
<filter id="alpha" filterUnits="objectBoundingBox" x="0%" y="0%" width="100%" height="100%">
  <feColorMatrix type="matrix" in="SourceGraphic" values="0 0 0 0 1 0 0 0 0 1 0 0 0 0 1 0 0 0 1 0"/>
</filter>
<mask id="mask0">
  <g filter="url(#alpha)">
<rect x="0" y="0" width="50" height="50" style="fill:rgb(0%,0%,0%);fill-opacity:0.980392;stroke:none;"/>
  </g>
</mask>
<clipPath id="clip1">
  <rect x="0" y="0" width="50" height="50"/>
</clipPath>
<g id="surface5" clip-path="url(#clip1)">
<path style=" stroke:none;fill-rule:evenodd;fill:rgb(92.54902%,29.411765%,13.72549%);fill-opacity:1;" d="M 24.5625 -0.046875 C 24.820312 -0.046875 25.082031 -0.046875 25.34375 -0.046875 C 25.503906 0.03125 25.617188 0.160156 25.683594 0.34375 C 25.75 1.578125 25.75 2.816406 25.683594 4.054688 C 25.195312 4.574219 24.707031 4.574219 24.21875 4.054688 C 24.152344 2.816406 24.152344 1.578125 24.21875 0.34375 C 24.285156 0.160156 24.398438 0.03125 24.5625 -0.046875 Z M 24.5625 -0.046875 "/>
</g>
<mask id="mask1">
  <g filter="url(#alpha)">
<rect x="0" y="0" width="50" height="50" style="fill:rgb(0%,0%,0%);fill-opacity:0.968627;stroke:none;"/>
  </g>
</mask>
<clipPath id="clip2">
  <rect x="0" y="0" width="50" height="50"/>
</clipPath>
<g id="surface8" clip-path="url(#clip2)">
<path style=" stroke:none;fill-rule:evenodd;fill:rgb(93.72549%,36.862745%,12.54902%);fill-opacity:1;" d="M 17.140625 3.953125 C 17.425781 4.011719 17.683594 4.125 17.921875 4.296875 C 18.917969 5.261719 19.941406 6.1875 20.996094 7.078125 C 21.421875 7.820312 21.226562 8.308594 20.410156 8.546875 C 20.226562 8.515625 20.046875 8.46875 19.875 8.398438 C 18.777344 7.339844 17.65625 6.3125 16.503906 5.320312 C 16.21875 4.621094 16.429688 4.167969 17.140625 3.953125 Z M 17.140625 3.953125 "/>
</g>
<mask id="mask2">
  <g filter="url(#alpha)">
<rect x="0" y="0" width="50" height="50" style="fill:rgb(0%,0%,0%);fill-opacity:0.968627;stroke:none;"/>
  </g>
</mask>
<clipPath id="clip3">
  <rect x="0" y="0" width="50" height="50"/>
</clipPath>
<g id="surface11" clip-path="url(#clip3)">
<path style=" stroke:none;fill-rule:evenodd;fill:rgb(92.54902%,27.843137%,14.117647%);fill-opacity:1;" d="M 32.664062 3.953125 C 33.449219 4.121094 33.691406 4.574219 33.398438 5.320312 C 32.246094 6.3125 31.125 7.339844 30.03125 8.398438 C 29.3125 8.691406 28.855469 8.460938 28.664062 7.714844 C 28.703125 7.488281 28.785156 7.277344 28.90625 7.078125 C 29.960938 6.1875 30.984375 5.261719 31.984375 4.296875 C 32.199219 4.140625 32.425781 4.023438 32.664062 3.953125 Z M 32.664062 3.953125 "/>
</g>
<mask id="mask3">
  <g filter="url(#alpha)">
<rect x="0" y="0" width="50" height="50" style="fill:rgb(0%,0%,0%);fill-opacity:0.960784;stroke:none;"/>
  </g>
</mask>
<clipPath id="clip4">
  <rect x="0" y="0" width="50" height="50"/>
</clipPath>
<g id="surface14" clip-path="url(#clip4)">
<path style=" stroke:none;fill-rule:evenodd;fill:rgb(94.901961%,45.490196%,10.980392%);fill-opacity:1;" d="M 11.867188 15.867188 C 11.414062 15.324219 10.992188 14.804688 10.59375 14.304688 C 11.335938 13.707031 12.085938 13.105469 12.84375 12.5 C 12.453125 12.453125 12.0625 12.433594 11.671875 12.453125 C 10.019531 10.652344 8.308594 8.894531 6.542969 7.179688 C 6.503906 7.230469 6.457031 7.265625 6.398438 7.273438 C 6.585938 6.367188 7.140625 5.992188 8.054688 6.152344 C 8.316406 6.273438 8.527344 6.453125 8.691406 6.6875 C 9.183594 8.015625 9.6875 9.332031 10.203125 10.644531 C 11.671875 10.734375 13.136719 10.832031 14.601562 10.9375 C 15.339844 11.300781 15.554688 11.871094 15.234375 12.648438 C 14.082031 13.636719 12.929688 14.613281 11.765625 15.578125 C 11.828125 15.664062 11.863281 15.761719 11.867188 15.867188 Z M 11.867188 15.867188 "/>
</g>
<mask id="mask4">
  <g filter="url(#alpha)">
<rect x="0" y="0" width="50" height="50" style="fill:rgb(0%,0%,0%);fill-opacity:0.976471;stroke:none;"/>
  </g>
</mask>
<clipPath id="clip5">
  <rect x="0" y="0" width="50" height="50"/>
</clipPath>
<g id="surface17" clip-path="url(#clip5)">
<path style=" stroke:none;fill-rule:evenodd;fill:rgb(93.333333%,33.72549%,12.941176%);fill-opacity:1;" d="M 29.25 16.359375 C 28.625 15.832031 28.070312 15.246094 27.585938 14.601562 C 28.410156 13.878906 29.253906 13.179688 30.125 12.5 C 29.054688 12.417969 27.980469 12.351562 26.90625 12.304688 C 26.515625 12.238281 26.238281 12.027344 26.074219 11.671875 C 25.726562 10.710938 25.351562 9.765625 24.953125 8.835938 C 24.605469 9.617188 24.28125 10.398438 23.976562 11.179688 C 23.585938 10.726562 23.160156 10.304688 22.703125 9.914062 C 23.097656 8.757812 23.535156 7.617188 24.023438 6.492188 C 24.640625 5.972656 25.261719 5.972656 25.878906 6.492188 C 26.425781 7.859375 26.960938 9.226562 27.492188 10.59375 C 29.058594 10.710938 30.621094 10.855469 32.179688 11.035156 C 32.730469 11.566406 32.808594 12.167969 32.421875 12.84375 C 31.332031 13.746094 30.226562 14.625 29.101562 15.476562 C 29.15625 15.761719 29.207031 16.054688 29.25 16.359375 Z M 29.25 16.359375 "/>
</g>
<mask id="mask5">
  <g filter="url(#alpha)">
<rect x="0" y="0" width="50" height="50" style="fill:rgb(0%,0%,0%);fill-opacity:0.968627;stroke:none;"/>
  </g>
</mask>
<clipPath id="clip6">
  <rect x="0" y="0" width="50" height="50"/>
</clipPath>
<g id="surface20" clip-path="url(#clip6)">
<path style=" stroke:none;fill-rule:evenodd;fill:rgb(91.764706%,20.784314%,15.294118%);fill-opacity:1;" d="M 49.953125 11.570312 C 49.953125 11.898438 49.953125 12.222656 49.953125 12.546875 C 49.136719 13.296875 48.292969 14.011719 47.414062 14.695312 C 47.054688 14.273438 46.664062 13.882812 46.242188 13.523438 C 46.613281 13.171875 47.003906 12.828125 47.414062 12.5 C 46.371094 12.414062 45.328125 12.347656 44.289062 12.304688 C 43.730469 12.238281 43.390625 11.929688 43.261719 11.375 C 42.957031 10.492188 42.628906 9.613281 42.285156 8.742188 C 41.902344 9.679688 41.527344 10.625 41.164062 11.570312 C 40.734375 11.144531 40.277344 10.753906 39.796875 10.398438 C 40.292969 9.175781 40.765625 7.941406 41.210938 6.6875 C 41.792969 5.988281 42.445312 5.925781 43.164062 6.492188 C 43.726562 7.851562 44.265625 9.21875 44.773438 10.59375 C 46.269531 10.734375 47.769531 10.847656 49.265625 10.9375 C 49.546875 11.101562 49.773438 11.316406 49.953125 11.570312 Z M 49.953125 11.570312 "/>
</g>
<mask id="mask6">
  <g filter="url(#alpha)">
<rect x="0" y="0" width="50" height="50" style="fill:rgb(0%,0%,0%);fill-opacity:0.964706;stroke:none;"/>
  </g>
</mask>
<clipPath id="clip7">
  <rect x="0" y="0" width="50" height="50"/>
</clipPath>
<g id="surface23" clip-path="url(#clip7)">
<path style=" stroke:none;fill-rule:evenodd;fill:rgb(94.901961%,47.058824%,10.588235%);fill-opacity:1;" d="M 11.671875 12.453125 C 10.992188 12.375 10.308594 12.328125 9.617188 12.304688 C 9.15625 12.199219 8.847656 11.921875 8.691406 11.476562 C 8.386719 10.539062 8.027344 9.625 7.617188 8.742188 C 7.398438 9.378906 7.15625 10 6.882812 10.59375 C 6.429688 10.238281 5.972656 9.878906 5.515625 9.523438 C 5.828125 8.78125 6.121094 8.03125 6.398438 7.273438 C 6.457031 7.265625 6.503906 7.230469 6.542969 7.179688 C 8.308594 8.894531 10.019531 10.652344 11.671875 12.453125 Z M 11.671875 12.453125 "/>
</g>
<mask id="mask7">
  <g filter="url(#alpha)">
<rect x="0" y="0" width="50" height="50" style="fill:rgb(0%,0%,0%);fill-opacity:0.972549;stroke:none;"/>
  </g>
</mask>
<clipPath id="clip8">
  <rect x="0" y="0" width="50" height="50"/>
</clipPath>
<g id="surface26" clip-path="url(#clip8)">
<path style=" stroke:none;fill-rule:evenodd;fill:rgb(95.294118%,50.196078%,10.196078%);fill-opacity:1;" d="M 5.515625 9.523438 C 5.972656 9.878906 6.429688 10.238281 6.882812 10.59375 C 6.777344 11.101562 6.582031 11.574219 6.296875 12.011719 C 5.820312 12.296875 5.300781 12.414062 4.734375 12.351562 C 4.25 11.832031 3.757812 11.3125 3.273438 10.789062 C 3.890625 10.75 4.511719 10.683594 5.125 10.59375 C 5.257812 10.234375 5.386719 9.878906 5.515625 9.523438 Z M 5.515625 9.523438 "/>
</g>
<mask id="mask8">
  <g filter="url(#alpha)">
<rect x="0" y="0" width="50" height="50" style="fill:rgb(0%,0%,0%);fill-opacity:0.964706;stroke:none;"/>
  </g>
</mask>
<clipPath id="clip9">
  <rect x="0" y="0" width="50" height="50"/>
</clipPath>
<g id="surface29" clip-path="url(#clip9)">
<path style=" stroke:none;fill-rule:evenodd;fill:rgb(93.72549%,37.647059%,12.54902%);fill-opacity:1;" d="M 22.703125 9.914062 C 23.160156 10.304688 23.585938 10.726562 23.976562 11.179688 C 23.910156 11.785156 23.585938 12.15625 23 12.304688 C 22.574219 12.351562 22.152344 12.371094 21.726562 12.351562 C 21.738281 12.292969 21.773438 12.246094 21.828125 12.207031 C 21.351562 11.746094 20.894531 11.277344 20.460938 10.789062 C 21.113281 10.761719 21.765625 10.695312 22.414062 10.59375 C 22.53125 10.375 22.628906 10.144531 22.703125 9.914062 Z M 22.703125 9.914062 "/>
</g>
<mask id="mask9">
  <g filter="url(#alpha)">
<rect x="0" y="0" width="50" height="50" style="fill:rgb(0%,0%,0%);fill-opacity:0.972549;stroke:none;"/>
  </g>
</mask>
<clipPath id="clip10">
  <rect x="0" y="0" width="50" height="50"/>
</clipPath>
<g id="surface32" clip-path="url(#clip10)">
<path style=" stroke:none;fill-rule:evenodd;fill:rgb(95.686275%,52.941176%,9.803922%);fill-opacity:1;" d="M 3.273438 10.789062 C 3.757812 11.3125 4.25 11.832031 4.734375 12.351562 C 3.988281 12.386719 3.238281 12.433594 2.492188 12.5 C 3.292969 13.203125 4.121094 13.871094 4.980469 14.5 C 5.230469 14.949219 5.277344 15.40625 5.125 15.867188 C 3.496094 14.335938 1.933594 12.738281 0.4375 11.085938 C 0.480469 11.011719 0.546875 10.964844 0.632812 10.9375 C 1.511719 10.851562 2.390625 10.800781 3.273438 10.789062 Z M 3.273438 10.789062 "/>
</g>
<mask id="mask10">
  <g filter="url(#alpha)">
<rect x="0" y="0" width="50" height="50" style="fill:rgb(0%,0%,0%);fill-opacity:0.976471;stroke:none;"/>
  </g>
</mask>
<clipPath id="clip11">
  <rect x="0" y="0" width="50" height="50"/>
</clipPath>
<g id="surface35" clip-path="url(#clip11)">
<path style=" stroke:none;fill-rule:evenodd;fill:rgb(94.117647%,40.392157%,11.764706%);fill-opacity:1;" d="M 20.460938 10.789062 C 20.894531 11.277344 21.351562 11.746094 21.828125 12.207031 C 21.773438 12.246094 21.738281 12.292969 21.726562 12.351562 C 21.078125 12.40625 20.425781 12.457031 19.773438 12.5 C 20.648438 13.1875 21.507812 13.886719 22.363281 14.601562 C 22.640625 15.1875 22.625 15.773438 22.3125 16.359375 C 20.664062 14.851562 19.050781 13.289062 17.480469 11.671875 C 17.492188 11.546875 17.476562 11.449219 17.429688 11.375 C 17.546875 11.179688 17.710938 11.035156 17.921875 10.9375 C 18.765625 10.855469 19.609375 10.808594 20.460938 10.789062 Z M 20.460938 10.789062 "/>
</g>
<mask id="mask11">
  <g filter="url(#alpha)">
<rect x="0" y="0" width="50" height="50" style="fill:rgb(0%,0%,0%);fill-opacity:0.972549;stroke:none;"/>
  </g>
</mask>
<clipPath id="clip12">
  <rect x="0" y="0" width="50" height="50"/>
</clipPath>
<g id="surface38" clip-path="url(#clip12)">
<path style=" stroke:none;fill-rule:evenodd;fill:rgb(92.54902%,27.45098%,14.117647%);fill-opacity:1;" d="M 39.796875 10.398438 C 40.277344 10.753906 40.734375 11.144531 41.164062 11.570312 C 41.003906 11.972656 40.710938 12.21875 40.28125 12.304688 C 39.207031 12.351562 38.132812 12.417969 37.0625 12.5 C 37.953125 13.164062 38.8125 13.863281 39.648438 14.601562 C 39.9375 15.222656 39.921875 15.839844 39.601562 16.453125 C 37.902344 14.855469 36.273438 13.195312 34.71875 11.476562 C 34.800781 11.179688 34.996094 11 35.304688 10.9375 C 36.765625 10.835938 38.230469 10.738281 39.695312 10.644531 C 39.769531 10.578125 39.804688 10.496094 39.796875 10.398438 Z M 39.796875 10.398438 "/>
</g>
<mask id="mask12">
  <g filter="url(#alpha)">
<rect x="0" y="0" width="50" height="50" style="fill:rgb(0%,0%,0%);fill-opacity:0.956863;stroke:none;"/>
  </g>
</mask>
<clipPath id="clip13">
  <rect x="0" y="0" width="50" height="50"/>
</clipPath>
<g id="surface41" clip-path="url(#clip13)">
<path style=" stroke:none;fill-rule:evenodd;fill:rgb(94.509804%,42.352941%,11.372549%);fill-opacity:1;" d="M 17.429688 11.375 C 17.476562 11.449219 17.492188 11.546875 17.480469 11.671875 C 19.050781 13.289062 20.664062 14.851562 22.3125 16.359375 C 22.117188 17.109375 21.9375 17.859375 21.777344 18.601562 C 22.3125 18.183594 22.882812 17.824219 23.484375 17.53125 C 23.8125 17.953125 24.136719 18.375 24.460938 18.796875 C 23.894531 19.261719 23.277344 19.652344 22.609375 19.96875 C 21.789062 19.21875 21.007812 18.4375 20.265625 17.625 C 20.445312 16.941406 20.640625 16.257812 20.851562 15.578125 C 19.738281 14.652344 18.617188 13.742188 17.480469 12.84375 C 17.183594 12.347656 17.167969 11.859375 17.429688 11.375 Z M 17.429688 11.375 "/>
</g>
<mask id="mask13">
  <g filter="url(#alpha)">
<rect x="0" y="0" width="50" height="50" style="fill:rgb(0%,0%,0%);fill-opacity:0.968627;stroke:none;"/>
  </g>
</mask>
<clipPath id="clip14">
  <rect x="0" y="0" width="50" height="50"/>
</clipPath>
<g id="surface44" clip-path="url(#clip14)">
<path style=" stroke:none;fill-rule:evenodd;fill:rgb(92.941176%,30.588235%,13.72549%);fill-opacity:1;" d="M 34.71875 11.476562 C 36.273438 13.195312 37.902344 14.855469 39.601562 16.453125 C 39.40625 17.132812 39.257812 17.816406 39.160156 18.507812 C 39.679688 18.195312 40.183594 17.871094 40.671875 17.53125 C 41.070312 17.925781 41.429688 18.347656 41.75 18.796875 C 40.714844 19.546875 39.640625 20.246094 38.523438 20.898438 C 37.367188 20.976562 36.894531 20.4375 37.109375 19.289062 C 37.453125 18.050781 37.792969 16.8125 38.132812 15.578125 C 36.972656 14.613281 35.820312 13.636719 34.667969 12.648438 C 34.460938 12.234375 34.476562 11.84375 34.71875 11.476562 Z M 34.71875 11.476562 "/>
</g>
<mask id="mask14">
  <g filter="url(#alpha)">
<rect x="0" y="0" width="50" height="50" style="fill:rgb(0%,0%,0%);fill-opacity:0.964706;stroke:none;"/>
  </g>
</mask>
<clipPath id="clip15">
  <rect x="0" y="0" width="50" height="50"/>
</clipPath>
<g id="surface47" clip-path="url(#clip15)">
<path style=" stroke:none;fill-rule:evenodd;fill:rgb(96.078431%,54.901961%,9.411765%);fill-opacity:1;" d="M 0.4375 11.085938 C 1.933594 12.738281 3.496094 14.335938 5.125 15.867188 C 4.9375 16.726562 4.710938 17.574219 4.445312 18.40625 C 3.949219 18.011719 3.527344 17.554688 3.171875 17.039062 C 3.234375 16.515625 3.367188 16.011719 3.5625 15.527344 C 2.3125 14.582031 1.105469 13.589844 -0.046875 12.546875 C -0.046875 12.222656 -0.046875 11.898438 -0.046875 11.570312 C 0.078125 11.378906 0.242188 11.21875 0.4375 11.085938 Z M 0.4375 11.085938 "/>
</g>
<mask id="mask15">
  <g filter="url(#alpha)">
<rect x="0" y="0" width="50" height="50" style="fill:rgb(0%,0%,0%);fill-opacity:0.964706;stroke:none;"/>
  </g>
</mask>
<clipPath id="clip16">
  <rect x="0" y="0" width="50" height="50"/>
</clipPath>
<g id="surface50" clip-path="url(#clip16)">
<path style=" stroke:none;fill-rule:evenodd;fill:rgb(95.294118%,50.196078%,10.196078%);fill-opacity:1;" d="M 10.59375 14.304688 C 10.992188 14.804688 11.414062 15.324219 11.867188 15.867188 C 12.164062 17.007812 12.472656 18.148438 12.792969 19.289062 C 12.867188 19.652344 12.851562 20.011719 12.742188 20.359375 C 12.160156 19.710938 11.542969 19.09375 10.890625 18.507812 C 10.855469 18.507812 10.824219 18.507812 10.789062 18.507812 C 10.554688 17.445312 10.292969 16.386719 10.007812 15.332031 C 10.042969 14.890625 10.238281 14.546875 10.59375 14.304688 Z M 10.59375 14.304688 "/>
</g>
<mask id="mask16">
  <g filter="url(#alpha)">
<rect x="0" y="0" width="50" height="50" style="fill:rgb(0%,0%,0%);fill-opacity:0.972549;stroke:none;"/>
  </g>
</mask>
<clipPath id="clip17">
  <rect x="0" y="0" width="50" height="50"/>
</clipPath>
<g id="surface53" clip-path="url(#clip17)">
<path style=" stroke:none;fill-rule:evenodd;fill:rgb(93.72549%,37.647059%,12.54902%);fill-opacity:1;" d="M 27.585938 14.601562 C 28.070312 15.246094 28.625 15.832031 29.25 16.359375 C 29.609375 17.476562 29.933594 18.613281 30.226562 19.773438 C 30.171875 20.03125 30.074219 20.257812 29.929688 20.460938 C 29.417969 19.78125 28.832031 19.164062 28.171875 18.601562 C 27.890625 17.511719 27.597656 16.421875 27.296875 15.332031 C 27.34375 15.058594 27.441406 14.8125 27.585938 14.601562 Z M 27.585938 14.601562 "/>
</g>
<mask id="mask17">
  <g filter="url(#alpha)">
<rect x="0" y="0" width="50" height="50" style="fill:rgb(0%,0%,0%);fill-opacity:0.972549;stroke:none;"/>
  </g>
</mask>
<clipPath id="clip18">
  <rect x="0" y="0" width="50" height="50"/>
</clipPath>
<g id="surface56" clip-path="url(#clip18)">
<path style=" stroke:none;fill-rule:evenodd;fill:rgb(92.156863%,24.313725%,14.901961%);fill-opacity:1;" d="M 46.242188 13.523438 C 46.664062 13.882812 47.054688 14.273438 47.414062 14.695312 C 47.058594 14.972656 46.699219 15.25 46.335938 15.527344 C 46.765625 16.859375 47.121094 18.210938 47.414062 19.578125 C 46.691406 18.859375 45.941406 18.175781 45.164062 17.53125 C 45.035156 16.972656 44.890625 16.421875 44.726562 15.867188 C 44.613281 15.359375 44.695312 14.886719 44.96875 14.453125 C 45.398438 14.144531 45.820312 13.832031 46.242188 13.523438 Z M 46.242188 13.523438 "/>
</g>
<mask id="mask18">
  <g filter="url(#alpha)">
<rect x="0" y="0" width="50" height="50" style="fill:rgb(0%,0%,0%);fill-opacity:0.972549;stroke:none;"/>
  </g>
</mask>
<clipPath id="clip19">
  <rect x="0" y="0" width="50" height="50"/>
</clipPath>
<g id="surface59" clip-path="url(#clip19)">
<path style=" stroke:none;fill-rule:evenodd;fill:rgb(95.686275%,52.54902%,9.803922%);fill-opacity:1;" d="M 10.789062 18.507812 C 10.824219 18.636719 10.855469 18.636719 10.890625 18.507812 C 11.542969 19.09375 12.160156 19.710938 12.742188 20.359375 C 12.410156 20.835938 11.953125 21.015625 11.375 20.898438 C 10.117188 20.121094 8.878906 19.324219 7.664062 18.507812 C 7.269531 18.109375 6.910156 17.6875 6.59375 17.234375 C 6.988281 16.8125 7.476562 16.664062 8.054688 16.796875 C 8.957031 17.386719 9.867188 17.957031 10.789062 18.507812 Z M 10.789062 18.507812 "/>
</g>
<mask id="mask19">
  <g filter="url(#alpha)">
<rect x="0" y="0" width="50" height="50" style="fill:rgb(0%,0%,0%);fill-opacity:0.968627;stroke:none;"/>
  </g>
</mask>
<clipPath id="clip20">
  <rect x="0" y="0" width="50" height="50"/>
</clipPath>
<g id="surface62" clip-path="url(#clip20)">
<path style=" stroke:none;fill-rule:evenodd;fill:rgb(94.117647%,40%,11.764706%);fill-opacity:1;" d="M 28.171875 18.601562 C 28.832031 19.164062 29.417969 19.78125 29.929688 20.460938 C 29.636719 20.851562 29.246094 20.996094 28.757812 20.898438 C 27.460938 20.152344 26.191406 19.351562 24.953125 18.507812 C 24.800781 18.628906 24.640625 18.726562 24.460938 18.796875 C 24.136719 18.375 23.8125 17.953125 23.484375 17.53125 C 23.972656 16.960938 24.59375 16.714844 25.34375 16.796875 C 26.289062 17.398438 27.234375 18.003906 28.171875 18.601562 Z M 28.171875 18.601562 "/>
</g>
<mask id="mask20">
  <g filter="url(#alpha)">
<rect x="0" y="0" width="50" height="50" style="fill:rgb(0%,0%,0%);fill-opacity:0.964706;stroke:none;"/>
  </g>
</mask>
<clipPath id="clip21">
  <rect x="0" y="0" width="50" height="50"/>
</clipPath>
<g id="surface65" clip-path="url(#clip21)">
<path style=" stroke:none;fill-rule:evenodd;fill:rgb(92.54902%,27.45098%,14.117647%);fill-opacity:1;" d="M 45.164062 17.53125 C 45.941406 18.175781 46.691406 18.859375 47.414062 19.578125 C 47.515625 20.359375 47.160156 20.8125 46.335938 20.945312 C 46.0625 20.914062 45.800781 20.832031 45.554688 20.703125 C 44.472656 19.957031 43.382812 19.226562 42.285156 18.507812 C 42.109375 18.617188 41.933594 18.714844 41.75 18.796875 C 41.429688 18.347656 41.070312 17.925781 40.671875 17.53125 C 41.046875 17.261719 41.4375 17.019531 41.84375 16.796875 C 42.105469 16.730469 42.367188 16.730469 42.625 16.796875 C 43.597656 17.339844 44.523438 17.941406 45.410156 18.601562 C 45.382812 18.238281 45.300781 17.878906 45.164062 17.53125 Z M 45.164062 17.53125 "/>
</g>
<mask id="mask21">
  <g filter="url(#alpha)">
<rect x="0" y="0" width="50" height="50" style="fill:rgb(0%,0%,0%);fill-opacity:0.980392;stroke:none;"/>
  </g>
</mask>
<clipPath id="clip22">
  <rect x="0" y="0" width="50" height="50"/>
</clipPath>
<g id="surface68" clip-path="url(#clip22)">
<path style=" stroke:none;fill-rule:evenodd;fill:rgb(96.078431%,57.254902%,9.019608%);fill-opacity:1;" d="M 3.171875 17.039062 C 3.527344 17.554688 3.949219 18.011719 4.445312 18.40625 C 4.425781 18.503906 4.460938 18.570312 4.539062 18.601562 C 4.96875 18.933594 5.328125 19.324219 5.617188 19.773438 C 5.082031 20.222656 4.496094 20.597656 3.859375 20.898438 C 3.042969 20.996094 2.554688 20.636719 2.390625 19.824219 C 2.585938 18.867188 2.847656 17.9375 3.171875 17.039062 Z M 3.171875 17.039062 "/>
</g>
<mask id="mask22">
  <g filter="url(#alpha)">
<rect x="0" y="0" width="50" height="50" style="fill:rgb(0%,0%,0%);fill-opacity:0.968627;stroke:none;"/>
  </g>
</mask>
<clipPath id="clip23">
  <rect x="0" y="0" width="50" height="50"/>
</clipPath>
<g id="surface71" clip-path="url(#clip23)">
<path style=" stroke:none;fill-rule:evenodd;fill:rgb(96.078431%,54.901961%,9.411765%);fill-opacity:1;" d="M 6.59375 17.234375 C 6.910156 17.6875 7.269531 18.109375 7.664062 18.507812 C 6.996094 18.953125 6.3125 19.378906 5.617188 19.773438 C 5.328125 19.324219 4.96875 18.933594 4.539062 18.601562 C 5.171875 18.074219 5.855469 17.621094 6.59375 17.234375 Z M 6.59375 17.234375 "/>
</g>
<mask id="mask23">
  <g filter="url(#alpha)">
<rect x="0" y="0" width="50" height="50" style="fill:rgb(0%,0%,0%);fill-opacity:0.960784;stroke:none;"/>
  </g>
</mask>
<clipPath id="clip24">
  <rect x="0" y="0" width="50" height="50"/>
</clipPath>
<g id="surface74" clip-path="url(#clip24)">
<path style=" stroke:none;fill-rule:evenodd;fill:rgb(94.509804%,44.705882%,10.980392%);fill-opacity:1;" d="M 20.265625 17.625 C 21.007812 18.4375 21.789062 19.21875 22.609375 19.96875 C 22.1875 20.375 21.699219 20.683594 21.140625 20.898438 C 20.304688 20.988281 19.816406 20.613281 19.679688 19.773438 C 19.875 19.058594 20.070312 18.34375 20.265625 17.625 Z M 20.265625 17.625 "/>
</g>
<mask id="mask24">
  <g filter="url(#alpha)">
<rect x="0" y="0" width="50" height="50" style="fill:rgb(0%,0%,0%);fill-opacity:0.964706;stroke:none;"/>
  </g>
</mask>
<clipPath id="clip25">
  <rect x="0" y="0" width="50" height="50"/>
</clipPath>
<g id="surface77" clip-path="url(#clip25)">
<path style=" stroke:none;fill-rule:evenodd;fill:rgb(94.509804%,43.921569%,11.372549%);fill-opacity:1;" d="M 30.710938 31.398438 C 30.285156 30.9375 29.863281 30.484375 29.445312 30.03125 C 29.855469 28.003906 29.234375 26.359375 27.585938 25.097656 C 26.449219 24.371094 25.210938 24.128906 23.875 24.367188 C 23.390625 23.976562 22.898438 23.585938 22.414062 23.195312 C 25.671875 21.984375 28.328125 22.800781 30.371094 25.632812 C 31.417969 27.519531 31.53125 29.4375 30.710938 31.398438 Z M 30.710938 31.398438 "/>
</g>
<mask id="mask25">
  <g filter="url(#alpha)">
<rect x="0" y="0" width="50" height="50" style="fill:rgb(0%,0%,0%);fill-opacity:0.964706;stroke:none;"/>
  </g>
</mask>
<clipPath id="clip26">
  <rect x="0" y="0" width="50" height="50"/>
</clipPath>
<g id="surface80" clip-path="url(#clip26)">
<path style=" stroke:none;fill-rule:evenodd;fill:rgb(94.901961%,47.45098%,10.588235%);fill-opacity:1;" d="M 22.414062 23.195312 C 22.898438 23.585938 23.390625 23.976562 23.875 24.367188 C 23.03125 24.609375 22.28125 25.03125 21.632812 25.632812 C 21.304688 25.210938 20.980469 24.789062 20.65625 24.367188 C 21.136719 23.828125 21.722656 23.4375 22.414062 23.195312 Z M 22.414062 23.195312 "/>
</g>
<mask id="mask26">
  <g filter="url(#alpha)">
<rect x="0" y="0" width="50" height="50" style="fill:rgb(0%,0%,0%);fill-opacity:0.968627;stroke:none;"/>
  </g>
</mask>
<clipPath id="clip27">
  <rect x="0" y="0" width="50" height="50"/>
</clipPath>
<g id="surface83" clip-path="url(#clip27)">
<path style=" stroke:none;fill-rule:evenodd;fill:rgb(95.294118%,50.196078%,10.196078%);fill-opacity:1;" d="M 20.65625 24.367188 C 20.980469 24.789062 21.304688 25.210938 21.632812 25.632812 C 21.050781 26.335938 20.628906 27.117188 20.359375 27.976562 C 19.96875 27.523438 19.546875 27.101562 19.09375 26.710938 C 19.367188 25.761719 19.890625 24.980469 20.65625 24.367188 Z M 20.65625 24.367188 "/>
</g>
<mask id="mask27">
  <g filter="url(#alpha)">
<rect x="0" y="0" width="50" height="50" style="fill:rgb(0%,0%,0%);fill-opacity:0.968627;stroke:none;"/>
  </g>
</mask>
<clipPath id="clip28">
  <rect x="0" y="0" width="50" height="50"/>
</clipPath>
<g id="surface86" clip-path="url(#clip28)">
<path style=" stroke:none;fill-rule:evenodd;fill:rgb(96.470588%,59.607843%,8.627451%);fill-opacity:1;" d="M 13.039062 34.03125 C 12.511719 33.609375 12.089844 33.152344 11.765625 32.664062 C 12.003906 30.273438 10.929688 28.90625 8.546875 28.5625 C 8.214844 28.617188 7.890625 28.683594 7.570312 28.757812 C 7.269531 28.3125 6.910156 27.90625 6.492188 27.539062 C 6.546875 27.5 6.582031 27.453125 6.59375 27.390625 C 9.421875 26.398438 11.589844 27.214844 13.085938 29.835938 C 13.679688 31.242188 13.664062 32.644531 13.039062 34.03125 Z M 13.039062 34.03125 "/>
</g>
<mask id="mask28">
  <g filter="url(#alpha)">
<rect x="0" y="0" width="50" height="50" style="fill:rgb(0%,0%,0%);fill-opacity:0.968627;stroke:none;"/>
  </g>
</mask>
<clipPath id="clip29">
  <rect x="0" y="0" width="50" height="50"/>
</clipPath>
<g id="surface89" clip-path="url(#clip29)">
<path style=" stroke:none;fill-rule:evenodd;fill:rgb(93.333333%,36.078431%,12.54902%);fill-opacity:1;" d="M 44.96875 35.203125 C 44.484375 34.914062 44.09375 34.523438 43.796875 34.03125 C 45.132812 31.972656 44.777344 30.261719 42.726562 28.90625 C 41.414062 28.386719 40.210938 28.566406 39.109375 29.445312 C 38.71875 29.085938 38.328125 28.726562 37.9375 28.367188 C 38.84375 27.421875 39.96875 26.933594 41.308594 26.90625 C 43.949219 27.074219 45.578125 28.441406 46.191406 31.007812 C 46.421875 32.605469 46.015625 34.003906 44.96875 35.203125 Z M 44.96875 35.203125 "/>
</g>
<mask id="mask29">
  <g filter="url(#alpha)">
<rect x="0" y="0" width="50" height="50" style="fill:rgb(0%,0%,0%);fill-opacity:0.964706;stroke:none;"/>
  </g>
</mask>
<clipPath id="clip30">
  <rect x="0" y="0" width="50" height="50"/>
</clipPath>
<g id="surface92" clip-path="url(#clip30)">
<path style=" stroke:none;fill-rule:evenodd;fill:rgb(96.862745%,62.352941%,7.843137%);fill-opacity:1;" d="M 6.59375 27.390625 C 6.582031 27.453125 6.546875 27.5 6.492188 27.539062 C 6.910156 27.90625 7.269531 28.3125 7.570312 28.757812 C 6.875 29.03125 6.289062 29.453125 5.8125 30.03125 C 5.421875 29.671875 5.03125 29.3125 4.640625 28.953125 C 5.101562 28.203125 5.753906 27.679688 6.59375 27.390625 Z M 6.59375 27.390625 "/>
</g>
<mask id="mask30">
  <g filter="url(#alpha)">
<rect x="0" y="0" width="50" height="50" style="fill:rgb(0%,0%,0%);fill-opacity:0.972549;stroke:none;"/>
  </g>
</mask>
<clipPath id="clip31">
  <rect x="0" y="0" width="50" height="50"/>
</clipPath>
<g id="surface95" clip-path="url(#clip31)">
<path style=" stroke:none;fill-rule:evenodd;fill:rgb(94.117647%,40.392157%,11.764706%);fill-opacity:1;" d="M 37.9375 28.367188 C 38.328125 28.726562 38.71875 29.085938 39.109375 29.445312 C 38.375 30.199219 38.015625 31.113281 38.039062 32.179688 C 37.546875 31.722656 37.0625 31.265625 36.570312 30.8125 C 36.699219 29.804688 37.15625 28.992188 37.9375 28.367188 Z M 37.9375 28.367188 "/>
</g>
<mask id="mask31">
  <g filter="url(#alpha)">
<rect x="0" y="0" width="50" height="50" style="fill:rgb(0%,0%,0%);fill-opacity:0.964706;stroke:none;"/>
  </g>
</mask>
<clipPath id="clip32">
  <rect x="0" y="0" width="50" height="50"/>
</clipPath>
<g id="surface98" clip-path="url(#clip32)">
<path style=" stroke:none;fill-rule:evenodd;fill:rgb(94.901961%,47.45098%,10.588235%);fill-opacity:1;" d="M 29.445312 30.03125 C 29.863281 30.484375 30.285156 30.9375 30.710938 31.398438 C 30.441406 32.152344 30.019531 32.804688 29.445312 33.351562 C 29.046875 32.953125 28.6875 32.53125 28.367188 32.078125 C 28.90625 31.496094 29.265625 30.8125 29.445312 30.03125 Z M 29.445312 30.03125 "/>
</g>
<mask id="mask32">
  <g filter="url(#alpha)">
<rect x="0" y="0" width="50" height="50" style="fill:rgb(0%,0%,0%);fill-opacity:0.972549;stroke:none;"/>
  </g>
</mask>
<clipPath id="clip33">
  <rect x="0" y="0" width="50" height="50"/>
</clipPath>
<g id="surface101" clip-path="url(#clip33)">
<path style=" stroke:none;fill-rule:evenodd;fill:rgb(96.078431%,54.901961%,9.411765%);fill-opacity:1;" d="M 18.703125 29.539062 C 20.621094 31.398438 22.507812 33.285156 24.367188 35.203125 C 23.523438 35.324219 22.675781 35.488281 21.828125 35.695312 C 21.34375 35.339844 20.886719 34.949219 20.460938 34.523438 C 20.742188 34.367188 21.035156 34.21875 21.335938 34.082031 C 19.769531 32.980469 18.890625 31.464844 18.703125 29.539062 Z M 18.703125 29.539062 "/>
</g>
<mask id="mask33">
  <g filter="url(#alpha)">
<rect x="0" y="0" width="50" height="50" style="fill:rgb(0%,0%,0%);fill-opacity:0.972549;stroke:none;"/>
  </g>
</mask>
<clipPath id="clip34">
  <rect x="0" y="0" width="50" height="50"/>
</clipPath>
<g id="surface104" clip-path="url(#clip34)">
<path style=" stroke:none;fill-rule:evenodd;fill:rgb(94.509804%,42.745098%,11.372549%);fill-opacity:1;" d="M 36.570312 30.8125 C 37.0625 31.265625 37.546875 31.722656 38.039062 32.179688 C 38.335938 33.875 39.34375 34.851562 41.0625 35.109375 C 41.546875 35.71875 42.066406 36.304688 42.625 36.867188 C 41.566406 36.707031 40.527344 36.773438 39.5 37.0625 C 39.152344 36.566406 38.746094 36.109375 38.28125 35.695312 C 38.214844 35.765625 38.132812 35.800781 38.039062 35.789062 C 38.046875 35.730469 38.082031 35.683594 38.132812 35.644531 C 36.679688 34.320312 36.160156 32.710938 36.570312 30.8125 Z M 36.570312 30.8125 "/>
</g>
<mask id="mask34">
  <g filter="url(#alpha)">
<rect x="0" y="0" width="50" height="50" style="fill:rgb(0%,0%,0%);fill-opacity:0.984314;stroke:none;"/>
  </g>
</mask>
<clipPath id="clip35">
  <rect x="0" y="0" width="50" height="50"/>
</clipPath>
<g id="surface107" clip-path="url(#clip35)">
<path style=" stroke:none;fill-rule:evenodd;fill:rgb(97.254902%,66.27451%,7.058824%);fill-opacity:1;" d="M 4.640625 28.953125 C 5.03125 29.3125 5.421875 29.671875 5.8125 30.03125 C 4.949219 31.714844 5.207031 33.195312 6.59375 34.472656 C 6.945312 34.730469 7.335938 34.910156 7.765625 35.007812 C 7.753906 35.070312 7.71875 35.117188 7.664062 35.15625 C 8.1875 35.675781 8.707031 36.199219 9.226562 36.71875 C 9.171875 36.765625 9.105469 36.78125 9.03125 36.765625 C 8.132812 36.769531 7.253906 36.898438 6.398438 37.15625 C 5.96875 36.730469 5.578125 36.273438 5.226562 35.789062 C 5.300781 35.761719 5.367188 35.714844 5.421875 35.644531 C 3.636719 33.992188 3.195312 32.023438 4.101562 29.734375 C 4.230469 29.429688 4.40625 29.171875 4.640625 28.953125 Z M 4.640625 28.953125 "/>
</g>
<mask id="mask35">
  <g filter="url(#alpha)">
<rect x="0" y="0" width="50" height="50" style="fill:rgb(0%,0%,0%);fill-opacity:0.972549;stroke:none;"/>
  </g>
</mask>
<clipPath id="clip36">
  <rect x="0" y="0" width="50" height="50"/>
</clipPath>
<g id="surface110" clip-path="url(#clip36)">
<path style=" stroke:none;fill-rule:evenodd;fill:rgb(95.686275%,52.54902%,9.803922%);fill-opacity:1;" d="M 19.09375 26.710938 C 19.546875 27.101562 19.96875 27.523438 20.359375 27.976562 C 20.070312 30.5 21.078125 32.273438 23.390625 33.300781 C 24.15625 33.511719 24.9375 33.59375 25.734375 33.546875 C 25.835938 33.53125 25.933594 33.546875 26.023438 33.59375 C 26.730469 34.28125 27.414062 34.980469 28.078125 35.695312 C 26.859375 35.375 25.625 35.210938 24.367188 35.203125 C 22.507812 33.285156 20.621094 31.398438 18.703125 29.539062 C 18.574219 28.554688 18.707031 27.609375 19.09375 26.710938 Z M 19.09375 26.710938 "/>
</g>
<mask id="mask36">
  <g filter="url(#alpha)">
<rect x="0" y="0" width="50" height="50" style="fill:rgb(0%,0%,0%);fill-opacity:0.972549;stroke:none;"/>
  </g>
</mask>
<clipPath id="clip37">
  <rect x="0" y="0" width="50" height="50"/>
</clipPath>
<g id="surface113" clip-path="url(#clip37)">
<path style=" stroke:none;fill-rule:evenodd;fill:rgb(95.294118%,49.803922%,10.196078%);fill-opacity:1;" d="M 28.367188 32.078125 C 28.6875 32.53125 29.046875 32.953125 29.445312 33.351562 C 29.195312 33.636719 28.898438 33.882812 28.5625 34.082031 C 30.898438 34.882812 32.800781 36.265625 34.277344 38.234375 C 34.34375 38.304688 34.425781 38.339844 34.523438 38.328125 C 34.878906 38.753906 35.269531 39.144531 35.695312 39.5 C 35.578125 39.632812 35.480469 39.78125 35.398438 39.941406 C 35.875 40.980469 36.234375 42.054688 36.476562 43.164062 C 37.644531 43.210938 38.816406 43.230469 39.992188 43.210938 C 39.847656 43.292969 39.6875 43.339844 39.5 43.359375 C 40.011719 43.851562 40.5 44.355469 40.96875 44.875 C 39.5 44.875 38.039062 44.875 36.570312 44.875 C 36.746094 44.792969 36.941406 44.746094 37.15625 44.726562 C 36.328125 43.898438 35.5 43.066406 34.667969 42.234375 C 34.621094 42.328125 34.605469 42.425781 34.617188 42.53125 C 33.5 39.226562 31.316406 36.949219 28.078125 35.695312 C 27.414062 34.980469 26.730469 34.28125 26.023438 33.59375 C 25.933594 33.546875 25.835938 33.53125 25.734375 33.546875 C 26.757812 33.332031 27.636719 32.84375 28.367188 32.078125 Z M 28.367188 32.078125 "/>
</g>
<mask id="mask37">
  <g filter="url(#alpha)">
<rect x="0" y="0" width="50" height="50" style="fill:rgb(0%,0%,0%);fill-opacity:0.960784;stroke:none;"/>
  </g>
</mask>
<clipPath id="clip38">
  <rect x="0" y="0" width="50" height="50"/>
</clipPath>
<g id="surface116" clip-path="url(#clip38)">
<path style=" stroke:none;fill-rule:evenodd;fill:rgb(96.862745%,63.137255%,7.843137%);fill-opacity:1;" d="M 11.765625 32.664062 C 12.089844 33.152344 12.511719 33.609375 13.039062 34.03125 C 12.695312 34.628906 12.273438 35.167969 11.765625 35.644531 C 13.210938 36.257812 14.449219 37.15625 15.476562 38.328125 C 15.742188 38.035156 16 37.742188 16.257812 37.453125 C 16.710938 37.769531 17.132812 38.128906 17.53125 38.523438 C 16.96875 39.160156 16.480469 39.84375 16.0625 40.578125 C 16.078125 40.472656 16.0625 40.375 16.015625 40.28125 C 14.125 38.40625 12.253906 36.519531 10.398438 34.617188 C 11.046875 34.101562 11.503906 33.449219 11.765625 32.664062 Z M 11.765625 32.664062 "/>
</g>
<mask id="mask38">
  <g filter="url(#alpha)">
<rect x="0" y="0" width="50" height="50" style="fill:rgb(0%,0%,0%);fill-opacity:0.972549;stroke:none;"/>
  </g>
</mask>
<clipPath id="clip39">
  <rect x="0" y="0" width="50" height="50"/>
</clipPath>
<g id="surface119" clip-path="url(#clip39)">
<path style=" stroke:none;fill-rule:evenodd;fill:rgb(94.117647%,40%,11.764706%);fill-opacity:1;" d="M 43.796875 34.03125 C 44.09375 34.523438 44.484375 34.914062 44.96875 35.203125 C 44.855469 35.402344 44.695312 35.546875 44.484375 35.644531 C 47.210938 36.792969 49.03125 38.761719 49.953125 41.554688 C 49.953125 42.039062 49.953125 42.53125 49.953125 43.015625 C 49.820312 43.242188 49.691406 43.46875 49.5625 43.703125 C 49.136719 43.3125 48.714844 42.921875 48.289062 42.53125 C 48.007812 40.777344 47.164062 39.363281 45.75 38.28125 C 44.789062 37.621094 43.746094 37.148438 42.625 36.867188 C 42.066406 36.304688 41.546875 35.71875 41.0625 35.109375 C 42.148438 35.171875 43.058594 34.8125 43.796875 34.03125 Z M 43.796875 34.03125 "/>
</g>
<mask id="mask39">
  <g filter="url(#alpha)">
<rect x="0" y="0" width="50" height="50" style="fill:rgb(0%,0%,0%);fill-opacity:0.960784;stroke:none;"/>
  </g>
</mask>
<clipPath id="clip40">
  <rect x="0" y="0" width="50" height="50"/>
</clipPath>
<g id="surface122" clip-path="url(#clip40)">
<path style=" stroke:none;fill-rule:evenodd;fill:rgb(96.078431%,57.647059%,8.627451%);fill-opacity:1;" d="M 20.460938 34.523438 C 20.886719 34.949219 21.34375 35.339844 21.828125 35.695312 C 21.070312 36.023438 20.324219 36.378906 19.578125 36.765625 C 19.15625 36.410156 18.765625 36.019531 18.40625 35.59375 C 19.019531 35.113281 19.703125 34.753906 20.460938 34.523438 Z M 20.460938 34.523438 "/>
</g>
<mask id="mask40">
  <g filter="url(#alpha)">
<rect x="0" y="0" width="50" height="50" style="fill:rgb(0%,0%,0%);fill-opacity:0.968627;stroke:none;"/>
  </g>
</mask>
<clipPath id="clip41">
  <rect x="0" y="0" width="50" height="50"/>
</clipPath>
<g id="surface125" clip-path="url(#clip41)">
<path style=" stroke:none;fill-rule:evenodd;fill:rgb(97.254902%,64.705882%,7.45098%);fill-opacity:1;" d="M 10.398438 34.617188 C 12.253906 36.519531 14.125 38.40625 16.015625 40.28125 C 16.0625 40.375 16.078125 40.472656 16.0625 40.578125 C 15.746094 41.269531 15.484375 41.988281 15.28125 42.726562 C 14.792969 42.300781 14.335938 41.84375 13.914062 41.359375 C 14.125 40.894531 14.320312 40.421875 14.5 39.941406 C 13.164062 38.050781 11.339844 36.992188 9.03125 36.765625 C 9.105469 36.78125 9.171875 36.765625 9.226562 36.71875 C 8.707031 36.199219 8.1875 35.675781 7.664062 35.15625 C 7.71875 35.117188 7.753906 35.070312 7.765625 35.007812 C 8.691406 35.214844 9.570312 35.085938 10.398438 34.617188 Z M 10.398438 34.617188 "/>
</g>
<mask id="mask41">
  <g filter="url(#alpha)">
<rect x="0" y="0" width="50" height="50" style="fill:rgb(0%,0%,0%);fill-opacity:0.964706;stroke:none;"/>
  </g>
</mask>
<clipPath id="clip42">
  <rect x="0" y="0" width="50" height="50"/>
</clipPath>
<g id="surface128" clip-path="url(#clip42)">
<path style=" stroke:none;fill-rule:evenodd;fill:rgb(96.470588%,60%,8.235294%);fill-opacity:1;" d="M 18.40625 35.59375 C 18.765625 36.019531 19.15625 36.410156 19.578125 36.765625 C 18.835938 37.285156 18.152344 37.871094 17.53125 38.523438 C 17.132812 38.128906 16.710938 37.769531 16.257812 37.453125 C 16.898438 36.742188 17.617188 36.121094 18.40625 35.59375 Z M 18.40625 35.59375 "/>
</g>
<mask id="mask42">
  <g filter="url(#alpha)">
<rect x="0" y="0" width="50" height="50" style="fill:rgb(0%,0%,0%);fill-opacity:0.960784;stroke:none;"/>
  </g>
</mask>
<clipPath id="clip43">
  <rect x="0" y="0" width="50" height="50"/>
</clipPath>
<g id="surface131" clip-path="url(#clip43)">
<path style=" stroke:none;fill-rule:evenodd;fill:rgb(94.509804%,45.098039%,10.980392%);fill-opacity:1;" d="M 39.5 37.0625 C 38.738281 37.246094 38.023438 37.539062 37.351562 37.9375 C 36.929688 37.582031 36.539062 37.191406 36.179688 36.765625 C 36.753906 36.359375 37.371094 36.035156 38.039062 35.789062 C 38.132812 35.800781 38.214844 35.765625 38.28125 35.695312 C 38.746094 36.109375 39.152344 36.566406 39.5 37.0625 Z M 39.5 37.0625 "/>
</g>
<mask id="mask43">
  <g filter="url(#alpha)">
<rect x="0" y="0" width="50" height="50" style="fill:rgb(0%,0%,0%);fill-opacity:0.972549;stroke:none;"/>
  </g>
</mask>
<clipPath id="clip44">
  <rect x="0" y="0" width="50" height="50"/>
</clipPath>
<g id="surface134" clip-path="url(#clip44)">
<path style=" stroke:none;fill-rule:evenodd;fill:rgb(97.647059%,69.803922%,6.666667%);fill-opacity:1;" d="M 5.226562 35.789062 C 5.578125 36.273438 5.96875 36.730469 6.398438 37.15625 C 5.515625 37.453125 4.699219 37.875 3.953125 38.429688 C 3.558594 38.03125 3.136719 37.671875 2.6875 37.351562 C 3.433594 36.6875 4.28125 36.164062 5.226562 35.789062 Z M 5.226562 35.789062 "/>
</g>
<mask id="mask44">
  <g filter="url(#alpha)">
<rect x="0" y="0" width="50" height="50" style="fill:rgb(0%,0%,0%);fill-opacity:0.960784;stroke:none;"/>
  </g>
</mask>
<clipPath id="clip45">
  <rect x="0" y="0" width="50" height="50"/>
</clipPath>
<g id="surface137" clip-path="url(#clip45)">
<path style=" stroke:none;fill-rule:evenodd;fill:rgb(94.901961%,47.058824%,10.588235%);fill-opacity:1;" d="M 36.179688 36.765625 C 36.539062 37.191406 36.929688 37.582031 37.351562 37.9375 C 36.742188 38.390625 36.1875 38.910156 35.695312 39.5 C 35.269531 39.144531 34.878906 38.753906 34.523438 38.328125 C 34.96875 37.699219 35.523438 37.179688 36.179688 36.765625 Z M 36.179688 36.765625 "/>
</g>
<mask id="mask45">
  <g filter="url(#alpha)">
<rect x="0" y="0" width="50" height="50" style="fill:rgb(0%,0%,0%);fill-opacity:0.964706;stroke:none;"/>
  </g>
</mask>
<clipPath id="clip46">
  <rect x="0" y="0" width="50" height="50"/>
</clipPath>
<g id="surface140" clip-path="url(#clip46)">
<path style=" stroke:none;fill-rule:evenodd;fill:rgb(98.039216%,72.156863%,6.27451%);fill-opacity:1;" d="M 2.6875 37.351562 C 3.136719 37.671875 3.558594 38.03125 3.953125 38.429688 C 3.390625 38.972656 2.867188 39.558594 2.390625 40.1875 C 2.035156 39.761719 1.644531 39.371094 1.21875 39.015625 C 1.601562 38.371094 2.089844 37.816406 2.6875 37.351562 Z M 2.6875 37.351562 "/>
</g>
<mask id="mask46">
  <g filter="url(#alpha)">
<rect x="0" y="0" width="50" height="50" style="fill:rgb(0%,0%,0%);fill-opacity:0.960784;stroke:none;"/>
  </g>
</mask>
<clipPath id="clip47">
  <rect x="0" y="0" width="50" height="50"/>
</clipPath>
<g id="surface143" clip-path="url(#clip47)">
<path style=" stroke:none;fill-rule:evenodd;fill:rgb(98.431373%,75.686275%,5.490196%);fill-opacity:1;" d="M 1.21875 39.015625 C 1.644531 39.371094 2.035156 39.761719 2.390625 40.1875 C 2.097656 40.714844 1.851562 41.265625 1.660156 41.84375 C 1.527344 42.328125 1.640625 42.734375 2 43.066406 C 3.882812 43.210938 5.769531 43.257812 7.664062 43.210938 C 7.664062 43.246094 7.664062 43.277344 7.664062 43.3125 C 6.980469 43.292969 6.296875 43.3125 5.617188 43.359375 C 6.125 43.851562 6.613281 44.355469 7.078125 44.875 C 5.355469 44.890625 3.628906 44.875 1.90625 44.824219 C 0.984375 44.503906 0.332031 43.902344 -0.046875 43.015625 C -0.046875 42.53125 -0.046875 42.039062 -0.046875 41.554688 C 0.261719 40.648438 0.6875 39.804688 1.21875 39.015625 Z M 1.21875 39.015625 "/>
</g>
<mask id="mask47">
  <g filter="url(#alpha)">
<rect x="0" y="0" width="50" height="50" style="fill:rgb(0%,0%,0%);fill-opacity:0.972549;stroke:none;"/>
  </g>
</mask>
<clipPath id="clip48">
  <rect x="0" y="0" width="50" height="50"/>
</clipPath>
<g id="surface146" clip-path="url(#clip48)">
<path style=" stroke:none;fill-rule:evenodd;fill:rgb(97.254902%,67.058824%,7.058824%);fill-opacity:1;" d="M 13.914062 41.359375 C 14.335938 41.84375 14.792969 42.300781 15.28125 42.726562 C 15.035156 43.679688 14.9375 44.65625 14.992188 45.65625 C 14.195312 44.910156 13.414062 44.144531 12.648438 43.359375 C 12.238281 43.34375 11.847656 43.292969 11.476562 43.210938 C 12.125 43.230469 12.777344 43.210938 13.429688 43.164062 C 13.582031 42.5625 13.746094 41.960938 13.914062 41.359375 Z M 13.914062 41.359375 "/>
</g>
<mask id="mask48">
  <g filter="url(#alpha)">
<rect x="0" y="0" width="50" height="50" style="fill:rgb(0%,0%,0%);fill-opacity:0.976471;stroke:none;"/>
  </g>
</mask>
<clipPath id="clip49">
  <rect x="0" y="0" width="50" height="50"/>
</clipPath>
<g id="surface149" clip-path="url(#clip49)">
<path style=" stroke:none;fill-rule:evenodd;fill:rgb(95.686275%,52.54902%,9.803922%);fill-opacity:1;" d="M 36.570312 44.875 C 36.589844 45.523438 36.570312 46.175781 36.523438 46.828125 C 36.492188 47.191406 36.378906 47.515625 36.179688 47.804688 C 35.789062 47.347656 35.367188 46.921875 34.914062 46.53125 C 34.976562 45.183594 34.878906 43.847656 34.617188 42.53125 C 34.605469 42.425781 34.621094 42.328125 34.667969 42.234375 C 35.5 43.066406 36.328125 43.898438 37.15625 44.726562 C 36.941406 44.746094 36.746094 44.792969 36.570312 44.875 Z M 36.570312 44.875 "/>
</g>
<mask id="mask49">
  <g filter="url(#alpha)">
<rect x="0" y="0" width="50" height="50" style="fill:rgb(0%,0%,0%);fill-opacity:0.968627;stroke:none;"/>
  </g>
</mask>
<clipPath id="clip50">
  <rect x="0" y="0" width="50" height="50"/>
</clipPath>
<g id="surface152" clip-path="url(#clip50)">
<path style=" stroke:none;fill-rule:evenodd;fill:rgb(94.509804%,42.745098%,11.372549%);fill-opacity:1;" d="M 48.289062 42.53125 C 48.714844 42.921875 49.136719 43.3125 49.5625 43.703125 C 49.050781 44.46875 48.335938 44.859375 47.414062 44.875 C 46.945312 44.355469 46.457031 43.851562 45.945312 43.359375 C 46.421875 43.34375 46.875 43.292969 47.3125 43.210938 C 47.800781 43.214844 48.125 42.988281 48.289062 42.53125 Z M 48.289062 42.53125 "/>
</g>
<mask id="mask50">
  <g filter="url(#alpha)">
<rect x="0" y="0" width="50" height="50" style="fill:rgb(0%,0%,0%);fill-opacity:0.956863;stroke:none;"/>
  </g>
</mask>
<clipPath id="clip51">
  <rect x="0" y="0" width="50" height="50"/>
</clipPath>
<g id="surface155" clip-path="url(#clip51)">
<path style=" stroke:none;fill-rule:evenodd;fill:rgb(97.647059%,69.411765%,6.666667%);fill-opacity:1;" d="M 7.664062 43.3125 C 7.664062 43.277344 7.664062 43.246094 7.664062 43.210938 C 8.9375 43.210938 10.203125 43.210938 11.476562 43.210938 C 11.847656 43.292969 12.238281 43.34375 12.648438 43.359375 C 13.414062 44.144531 14.195312 44.910156 14.992188 45.65625 C 14.953125 47.503906 15.863281 48.417969 17.726562 48.390625 C 18.210938 48.910156 18.703125 49.429688 19.1875 49.953125 C 18.179688 49.953125 17.171875 49.953125 16.164062 49.953125 C 14.605469 49.484375 13.675781 48.441406 13.378906 46.828125 C 13.328125 46.175781 13.3125 45.523438 13.328125 44.875 C 12.972656 44.875 12.613281 44.875 12.257812 44.875 C 11.789062 44.355469 11.300781 43.851562 10.789062 43.359375 C 9.75 43.3125 8.707031 43.292969 7.664062 43.3125 Z M 7.664062 43.3125 "/>
</g>
<mask id="mask51">
  <g filter="url(#alpha)">
<rect x="0" y="0" width="50" height="50" style="fill:rgb(0%,0%,0%);fill-opacity:0.933333;stroke:none;"/>
  </g>
</mask>
<clipPath id="clip52">
  <rect x="0" y="0" width="50" height="50"/>
</clipPath>
<g id="surface158" clip-path="url(#clip52)">
<path style=" stroke:none;fill-rule:evenodd;fill:rgb(94.901961%,47.45098%,10.588235%);fill-opacity:1;" d="M 39.992188 43.210938 C 41.226562 43.210938 42.464844 43.210938 43.703125 43.210938 C 43.394531 43.292969 43.070312 43.34375 42.726562 43.359375 C 43.234375 43.851562 43.722656 44.355469 44.1875 44.875 C 43.117188 44.875 42.039062 44.875 40.96875 44.875 C 40.5 44.355469 40.011719 43.851562 39.5 43.359375 C 39.6875 43.339844 39.847656 43.292969 39.992188 43.210938 Z M 39.992188 43.210938 "/>
</g>
<mask id="mask52">
  <g filter="url(#alpha)">
<rect x="0" y="0" width="50" height="50" style="fill:rgb(0%,0%,0%);fill-opacity:0.933333;stroke:none;"/>
  </g>
</mask>
<clipPath id="clip53">
  <rect x="0" y="0" width="50" height="50"/>
</clipPath>
<g id="surface161" clip-path="url(#clip53)">
<path style=" stroke:none;fill-rule:evenodd;fill:rgb(94.509804%,45.098039%,10.980392%);fill-opacity:1;" d="M 43.703125 43.210938 C 44.90625 43.210938 46.109375 43.210938 47.3125 43.210938 C 46.875 43.292969 46.421875 43.34375 45.945312 43.359375 C 46.457031 43.851562 46.945312 44.355469 47.414062 44.875 C 46.335938 44.875 45.265625 44.875 44.1875 44.875 C 43.722656 44.355469 43.234375 43.851562 42.726562 43.359375 C 43.070312 43.34375 43.394531 43.292969 43.703125 43.210938 Z M 43.703125 43.210938 "/>
</g>
<mask id="mask53">
  <g filter="url(#alpha)">
<rect x="0" y="0" width="50" height="50" style="fill:rgb(0%,0%,0%);fill-opacity:0.992157;stroke:none;"/>
  </g>
</mask>
<clipPath id="clip54">
  <rect x="0" y="0" width="50" height="50"/>
</clipPath>
<g id="surface164" clip-path="url(#clip54)">
<path style=" stroke:none;fill-rule:evenodd;fill:rgb(98.039216%,70.980392%,6.27451%);fill-opacity:1;" d="M 7.664062 43.3125 C 8.707031 43.292969 9.75 43.3125 10.789062 43.359375 C 11.300781 43.851562 11.789062 44.355469 12.257812 44.875 C 10.53125 44.875 8.804688 44.875 7.078125 44.875 C 6.613281 44.355469 6.125 43.851562 5.617188 43.359375 C 6.296875 43.3125 6.980469 43.292969 7.664062 43.3125 Z M 7.664062 43.3125 "/>
</g>
<mask id="mask54">
  <g filter="url(#alpha)">
<rect x="0" y="0" width="50" height="50" style="fill:rgb(0%,0%,0%);fill-opacity:0.972549;stroke:none;"/>
  </g>
</mask>
<clipPath id="clip55">
  <rect x="0" y="0" width="50" height="50"/>
</clipPath>
<g id="surface167" clip-path="url(#clip55)">
<path style=" stroke:none;fill-rule:evenodd;fill:rgb(96.078431%,56.862745%,9.019608%);fill-opacity:1;" d="M 34.914062 46.53125 C 35.367188 46.921875 35.789062 47.347656 36.179688 47.804688 C 36.023438 48.273438 35.761719 48.679688 35.398438 49.023438 C 34.898438 49.4375 34.34375 49.746094 33.742188 49.953125 C 33.382812 49.953125 33.023438 49.953125 32.664062 49.953125 C 32.179688 49.429688 31.6875 48.910156 31.203125 48.390625 C 31.953125 48.414062 32.703125 48.367188 33.445312 48.242188 C 34.238281 47.925781 34.726562 47.355469 34.914062 46.53125 Z M 34.914062 46.53125 "/>
</g>
</defs>
<g id="surface1">
<use xlink:href="#surface5" mask="url(#mask0)"/>
<use xlink:href="#surface8" mask="url(#mask1)"/>
<use xlink:href="#surface11" mask="url(#mask2)"/>
<use xlink:href="#surface14" mask="url(#mask3)"/>
<use xlink:href="#surface17" mask="url(#mask4)"/>
<use xlink:href="#surface20" mask="url(#mask5)"/>
<use xlink:href="#surface23" mask="url(#mask6)"/>
<use xlink:href="#surface26" mask="url(#mask7)"/>
<use xlink:href="#surface29" mask="url(#mask8)"/>
<use xlink:href="#surface32" mask="url(#mask9)"/>
<use xlink:href="#surface35" mask="url(#mask10)"/>
<use xlink:href="#surface38" mask="url(#mask11)"/>
<use xlink:href="#surface41" mask="url(#mask12)"/>
<use xlink:href="#surface44" mask="url(#mask13)"/>
<use xlink:href="#surface47" mask="url(#mask14)"/>
<use xlink:href="#surface50" mask="url(#mask15)"/>
<use xlink:href="#surface53" mask="url(#mask16)"/>
<use xlink:href="#surface56" mask="url(#mask17)"/>
<use xlink:href="#surface59" mask="url(#mask18)"/>
<use xlink:href="#surface62" mask="url(#mask19)"/>
<use xlink:href="#surface65" mask="url(#mask20)"/>
<use xlink:href="#surface68" mask="url(#mask21)"/>
<use xlink:href="#surface71" mask="url(#mask22)"/>
<use xlink:href="#surface74" mask="url(#mask23)"/>
<use xlink:href="#surface77" mask="url(#mask24)"/>
<use xlink:href="#surface80" mask="url(#mask25)"/>
<use xlink:href="#surface83" mask="url(#mask26)"/>
<use xlink:href="#surface86" mask="url(#mask27)"/>
<use xlink:href="#surface89" mask="url(#mask28)"/>
<use xlink:href="#surface92" mask="url(#mask29)"/>
<use xlink:href="#surface95" mask="url(#mask30)"/>
<use xlink:href="#surface98" mask="url(#mask31)"/>
<use xlink:href="#surface101" mask="url(#mask32)"/>
<use xlink:href="#surface104" mask="url(#mask33)"/>
<use xlink:href="#surface107" mask="url(#mask34)"/>
<use xlink:href="#surface110" mask="url(#mask35)"/>
<use xlink:href="#surface113" mask="url(#mask36)"/>
<use xlink:href="#surface116" mask="url(#mask37)"/>
<use xlink:href="#surface119" mask="url(#mask38)"/>
<use xlink:href="#surface122" mask="url(#mask39)"/>
<use xlink:href="#surface125" mask="url(#mask40)"/>
<use xlink:href="#surface128" mask="url(#mask41)"/>
<use xlink:href="#surface131" mask="url(#mask42)"/>
<use xlink:href="#surface134" mask="url(#mask43)"/>
<use xlink:href="#surface137" mask="url(#mask44)"/>
<use xlink:href="#surface140" mask="url(#mask45)"/>
<use xlink:href="#surface143" mask="url(#mask46)"/>
<use xlink:href="#surface146" mask="url(#mask47)"/>
<use xlink:href="#surface149" mask="url(#mask48)"/>
<use xlink:href="#surface152" mask="url(#mask49)"/>
<use xlink:href="#surface155" mask="url(#mask50)"/>
<use xlink:href="#surface158" mask="url(#mask51)"/>
<use xlink:href="#surface161" mask="url(#mask52)"/>
<use xlink:href="#surface164" mask="url(#mask53)"/>
<use xlink:href="#surface167" mask="url(#mask54)"/>
<path style=" stroke:none;fill-rule:evenodd;fill:rgb(97.254902%,67.058824%,7.058824%);fill-opacity:1;" d="M 17.726562 48.390625 C 18.796875 48.390625 19.875 48.390625 20.945312 48.390625 C 21.4375 48.910156 21.921875 49.429688 22.414062 49.953125 C 21.335938 49.953125 20.265625 49.953125 19.1875 49.953125 C 18.703125 49.429688 18.210938 48.910156 17.726562 48.390625 Z M 17.726562 48.390625 "/>
<path style=" stroke:none;fill-rule:evenodd;fill:rgb(97.254902%,64.705882%,7.45098%);fill-opacity:1;" d="M 20.945312 48.390625 C 22.023438 48.390625 23.09375 48.390625 24.171875 48.390625 C 24.65625 48.910156 25.148438 49.429688 25.632812 49.953125 C 24.5625 49.953125 23.484375 49.953125 22.414062 49.953125 C 21.921875 49.429688 21.4375 48.910156 20.945312 48.390625 Z M 20.945312 48.390625 "/>
<path style=" stroke:none;fill-rule:evenodd;fill:rgb(96.862745%,62.352941%,7.843137%);fill-opacity:1;" d="M 24.171875 48.390625 C 25.242188 48.390625 26.320312 48.390625 27.390625 48.390625 C 27.882812 48.910156 28.367188 49.429688 28.859375 49.953125 C 27.78125 49.953125 26.710938 49.953125 25.632812 49.953125 C 25.148438 49.429688 24.65625 48.910156 24.171875 48.390625 Z M 24.171875 48.390625 "/>
<path style=" stroke:none;fill-rule:evenodd;fill:rgb(96.470588%,59.607843%,8.627451%);fill-opacity:1;" d="M 27.390625 48.390625 C 28.664062 48.390625 29.929688 48.390625 31.203125 48.390625 C 31.6875 48.910156 32.179688 49.429688 32.664062 49.953125 C 31.398438 49.953125 30.125 49.953125 28.859375 49.953125 C 28.367188 49.429688 27.882812 48.910156 27.390625 48.390625 Z M 27.390625 48.390625 "/>
</g>
</svg>
