<?xml version="1.0" encoding="UTF-8"?>
<svg xmlns="http://www.w3.org/2000/svg" xmlns:xlink="http://www.w3.org/1999/xlink" width="50px" height="50px" viewBox="0 0 50 50" version="1.1">
<defs>
<filter id="alpha" filterUnits="objectBoundingBox" x="0%" y="0%" width="100%" height="100%">
  <feColorMatrix type="matrix" in="SourceGraphic" values="0 0 0 0 1 0 0 0 0 1 0 0 0 0 1 0 0 0 1 0"/>
</filter>
<mask id="mask0">
  <g filter="url(#alpha)">
<rect x="0" y="0" width="50" height="50" style="fill:rgb(0%,0%,0%);fill-opacity:0.913725;stroke:none;"/>
  </g>
</mask>
<clipPath id="clip1">
  <rect x="0" y="0" width="50" height="50"/>
</clipPath>
<g id="surface5" clip-path="url(#clip1)">
<path style=" stroke:none;fill-rule:evenodd;fill:rgb(97.254902%,63.137255%,11.372549%);fill-opacity:1;" d="M 21.140625 4.25 C 22.25 4.25 23.355469 4.25 24.460938 4.25 C 24.394531 4.335938 24.296875 4.367188 24.171875 4.34375 C 24.171875 4.734375 24.171875 5.125 24.171875 5.515625 C 22.964844 5.515625 21.761719 5.515625 20.554688 5.515625 C 20.554688 5.125 20.554688 4.734375 20.554688 4.34375 C 20.773438 4.375 20.96875 4.34375 21.140625 4.25 Z M 21.140625 4.25 "/>
</g>
<mask id="mask1">
  <g filter="url(#alpha)">
<rect x="0" y="0" width="50" height="50" style="fill:rgb(0%,0%,0%);fill-opacity:0.960784;stroke:none;"/>
  </g>
</mask>
<clipPath id="clip2">
  <rect x="0" y="0" width="50" height="50"/>
</clipPath>
<g id="surface8" clip-path="url(#clip2)">
<path style=" stroke:none;fill-rule:evenodd;fill:rgb(96.862745%,59.215686%,11.372549%);fill-opacity:1;" d="M 24.460938 4.25 C 25.984375 4.386719 26.914062 5.199219 27.246094 6.6875 C 27.296875 7.339844 27.3125 7.992188 27.296875 8.640625 C 27.6875 8.640625 28.078125 8.640625 28.46875 8.640625 C 28.398438 8.730469 28.300781 8.761719 28.171875 8.742188 C 28.171875 9.132812 28.171875 9.523438 28.171875 9.914062 C 27.523438 9.914062 26.871094 9.914062 26.21875 9.914062 C 26.3125 11.578125 25.695312 12.914062 24.367188 13.914062 C 25.515625 14.929688 26.785156 15.777344 28.171875 16.453125 C 28.171875 16.945312 28.171875 17.429688 28.171875 17.921875 C 27.105469 17.320312 26.03125 16.71875 24.953125 16.113281 C 24.640625 15.917969 24.382812 15.671875 24.171875 15.382812 C 24.300781 14.371094 24.300781 13.363281 24.171875 12.351562 C 24.773438 11.660156 25.035156 10.847656 24.953125 9.914062 C 24.691406 9.914062 24.429688 9.914062 24.171875 9.914062 C 24.171875 9.523438 24.171875 9.132812 24.171875 8.742188 C 24.042969 8.761719 23.945312 8.730469 23.875 8.640625 C 24.59375 8.640625 25.308594 8.640625 26.023438 8.640625 C 26.042969 8.054688 26.023438 7.46875 25.976562 6.882812 C 25.726562 5.96875 25.125 5.511719 24.171875 5.515625 C 24.171875 5.125 24.171875 4.734375 24.171875 4.34375 C 24.296875 4.367188 24.394531 4.335938 24.460938 4.25 Z M 24.460938 4.25 "/>
</g>
<mask id="mask2">
  <g filter="url(#alpha)">
<rect x="0" y="0" width="50" height="50" style="fill:rgb(0%,0%,0%);fill-opacity:0.945098;stroke:none;"/>
  </g>
</mask>
<clipPath id="clip3">
  <rect x="0" y="0" width="50" height="50"/>
</clipPath>
<g id="surface11" clip-path="url(#clip3)">
<path style=" stroke:none;fill-rule:evenodd;fill:rgb(98.039216%,69.019608%,10.980392%);fill-opacity:1;" d="M 21.140625 4.25 C 20.96875 4.34375 20.773438 4.375 20.554688 4.34375 C 20.554688 4.734375 20.554688 5.125 20.554688 5.515625 C 19.511719 5.363281 18.78125 5.753906 18.359375 6.6875 C 18.3125 7.339844 18.292969 7.992188 18.3125 8.640625 C 18.636719 8.640625 18.960938 8.640625 19.289062 8.640625 C 19.289062 8.675781 19.289062 8.707031 19.289062 8.742188 C 19.09375 8.742188 18.898438 8.742188 18.703125 8.742188 C 18.734375 10.058594 18.699219 11.363281 18.601562 12.648438 C 18.085938 11.839844 17.890625 10.960938 18.015625 10.007812 C 17.796875 9.929688 17.570312 9.882812 17.335938 9.863281 C 17.21875 9.8125 17.140625 9.734375 17.089844 9.617188 C 17 8.441406 17.03125 7.269531 17.1875 6.101562 C 17.628906 5.09375 18.394531 4.492188 19.484375 4.296875 C 20.035156 4.25 20.589844 4.230469 21.140625 4.25 Z M 21.140625 4.25 "/>
</g>
<mask id="mask3">
  <g filter="url(#alpha)">
<rect x="0" y="0" width="50" height="50" style="fill:rgb(0%,0%,0%);fill-opacity:0.921569;stroke:none;"/>
  </g>
</mask>
<clipPath id="clip4">
  <rect x="0" y="0" width="50" height="50"/>
</clipPath>
<g id="surface14" clip-path="url(#clip4)">
<path style=" stroke:none;fill-rule:evenodd;fill:rgb(98.823529%,77.254902%,10.196078%);fill-opacity:1;" d="M 12.9375 5.617188 C 12.9375 6.007812 12.9375 6.398438 12.9375 6.789062 C 13.066406 6.765625 13.164062 6.796875 13.234375 6.882812 C 12.417969 6.902344 11.605469 6.882812 10.789062 6.835938 C 10.4375 6.511719 10.40625 6.152344 10.695312 5.761719 C 11.433594 5.625 12.183594 5.578125 12.9375 5.617188 Z M 12.9375 5.617188 "/>
</g>
<mask id="mask4">
  <g filter="url(#alpha)">
<rect x="0" y="0" width="50" height="50" style="fill:rgb(0%,0%,0%);fill-opacity:0.937255;stroke:none;"/>
  </g>
</mask>
<clipPath id="clip5">
  <rect x="0" y="0" width="50" height="50"/>
</clipPath>
<g id="surface17" clip-path="url(#clip5)">
<path style=" stroke:none;fill-rule:evenodd;fill:rgb(98.431373%,73.333333%,10.588235%);fill-opacity:1;" d="M 12.9375 5.617188 C 13.753906 5.597656 14.566406 5.617188 15.382812 5.664062 C 15.957031 6.027344 15.988281 6.417969 15.476562 6.835938 C 14.730469 6.882812 13.980469 6.902344 13.234375 6.882812 C 13.164062 6.796875 13.066406 6.765625 12.9375 6.789062 C 12.9375 6.398438 12.9375 6.007812 12.9375 5.617188 Z M 12.9375 5.617188 "/>
</g>
<mask id="mask5">
  <g filter="url(#alpha)">
<rect x="0" y="0" width="50" height="50" style="fill:rgb(0%,0%,0%);fill-opacity:0.917647;stroke:none;"/>
  </g>
</mask>
<clipPath id="clip6">
  <rect x="0" y="0" width="50" height="50"/>
</clipPath>
<g id="surface20" clip-path="url(#clip6)">
<path style=" stroke:none;fill-rule:evenodd;fill:rgb(98.823529%,79.215686%,10.196078%);fill-opacity:1;" d="M 11.375 7.664062 C 11.308594 7.753906 11.210938 7.785156 11.085938 7.765625 C 11.085938 8.15625 11.085938 8.546875 11.085938 8.9375 C 10.464844 8.953125 9.847656 8.933594 9.226562 8.886719 C 8.875 8.5625 8.84375 8.203125 9.132812 7.8125 C 9.871094 7.675781 10.621094 7.628906 11.375 7.664062 Z M 11.375 7.664062 "/>
</g>
<mask id="mask6">
  <g filter="url(#alpha)">
<rect x="0" y="0" width="50" height="50" style="fill:rgb(0%,0%,0%);fill-opacity:0.94902;stroke:none;"/>
  </g>
</mask>
<clipPath id="clip7">
  <rect x="0" y="0" width="50" height="50"/>
</clipPath>
<g id="surface23" clip-path="url(#clip7)">
<path style=" stroke:none;fill-rule:evenodd;fill:rgb(98.823529%,75.686275%,10.588235%);fill-opacity:1;" d="M 11.375 7.664062 C 12.265625 7.625 13.144531 7.675781 14.015625 7.8125 C 14.207031 8.054688 14.253906 8.332031 14.160156 8.640625 C 14.109375 8.757812 14.03125 8.835938 13.914062 8.886719 C 12.972656 8.933594 12.027344 8.953125 11.085938 8.9375 C 11.085938 8.546875 11.085938 8.15625 11.085938 7.765625 C 11.210938 7.785156 11.308594 7.753906 11.375 7.664062 Z M 11.375 7.664062 "/>
</g>
<mask id="mask7">
  <g filter="url(#alpha)">
<rect x="0" y="0" width="50" height="50" style="fill:rgb(0%,0%,0%);fill-opacity:0.972549;stroke:none;"/>
  </g>
</mask>
<clipPath id="clip8">
  <rect x="0" y="0" width="50" height="50"/>
</clipPath>
<g id="surface26" clip-path="url(#clip8)">
<path style=" stroke:none;fill-rule:evenodd;fill:rgb(97.647059%,67.843137%,10.980392%);fill-opacity:1;" d="M 19.289062 8.742188 C 19.710938 8.742188 20.132812 8.742188 20.554688 8.742188 C 20.554688 9.132812 20.554688 9.523438 20.554688 9.914062 C 20.132812 9.914062 19.710938 9.914062 19.289062 9.914062 C 19.121094 11.144531 19.546875 12.121094 20.554688 12.84375 C 20.527344 13.535156 20.558594 14.21875 20.65625 14.890625 C 19.988281 15.347656 19.515625 15.96875 19.238281 16.75 C 19.128906 17.996094 19.082031 19.25 19.09375 20.507812 C 19.082031 21.765625 19.128906 23.019531 19.238281 24.265625 C 19.476562 25.070312 19.949219 25.6875 20.65625 26.125 C 20.5625 26.632812 20.527344 27.15625 20.554688 27.6875 C 20.429688 27.664062 20.332031 27.695312 20.265625 27.78125 C 19.644531 27.78125 19.027344 27.78125 18.40625 27.78125 C 18.476562 27.695312 18.574219 27.664062 18.703125 27.6875 C 18.703125 27.296875 18.703125 26.90625 18.703125 26.515625 C 18.804688 26.527344 18.902344 26.511719 18.992188 26.464844 C 18.3125 25.703125 17.9375 24.804688 17.871094 23.78125 C 17.804688 21.566406 17.804688 19.351562 17.871094 17.140625 C 18.003906 15.765625 18.636719 14.691406 19.773438 13.914062 C 19.316406 13.554688 18.925781 13.132812 18.601562 12.648438 C 18.699219 11.363281 18.734375 10.058594 18.703125 8.742188 C 18.898438 8.742188 19.09375 8.742188 19.289062 8.742188 Z M 19.289062 8.742188 "/>
</g>
<mask id="mask8">
  <g filter="url(#alpha)">
<rect x="0" y="0" width="50" height="50" style="fill:rgb(0%,0%,0%);fill-opacity:0.992157;stroke:none;"/>
  </g>
</mask>
<clipPath id="clip9">
  <rect x="0" y="0" width="50" height="50"/>
</clipPath>
<g id="surface29" clip-path="url(#clip9)">
<path style=" stroke:none;fill-rule:evenodd;fill:rgb(97.647059%,63.137255%,11.372549%);fill-opacity:1;" d="M 19.289062 8.742188 C 19.289062 8.707031 19.289062 8.675781 19.289062 8.640625 C 20.816406 8.640625 22.347656 8.640625 23.875 8.640625 C 23.945312 8.730469 24.042969 8.761719 24.171875 8.742188 C 24.171875 9.132812 24.171875 9.523438 24.171875 9.914062 C 22.964844 9.914062 21.761719 9.914062 20.554688 9.914062 C 20.554688 9.523438 20.554688 9.132812 20.554688 8.742188 C 20.132812 8.742188 19.710938 8.742188 19.289062 8.742188 Z M 19.289062 8.742188 "/>
</g>
<mask id="mask9">
  <g filter="url(#alpha)">
<rect x="0" y="0" width="50" height="50" style="fill:rgb(0%,0%,0%);fill-opacity:0.992157;stroke:none;"/>
  </g>
</mask>
<clipPath id="clip10">
  <rect x="0" y="0" width="50" height="50"/>
</clipPath>
<g id="surface32" clip-path="url(#clip10)">
<path style=" stroke:none;fill-rule:evenodd;fill:rgb(96.470588%,54.509804%,11.764706%);fill-opacity:1;" d="M 28.46875 8.640625 C 29.125 8.609375 29.777344 8.660156 30.421875 8.789062 C 30.707031 9.1875 30.671875 9.542969 30.320312 9.863281 C 29.605469 9.914062 28.890625 9.929688 28.171875 9.914062 C 28.171875 9.523438 28.171875 9.132812 28.171875 8.742188 C 28.300781 8.761719 28.398438 8.730469 28.46875 8.640625 Z M 28.46875 8.640625 "/>
</g>
<mask id="mask10">
  <g filter="url(#alpha)">
<rect x="0" y="0" width="50" height="50" style="fill:rgb(0%,0%,0%);fill-opacity:0.92549;stroke:none;"/>
  </g>
</mask>
<clipPath id="clip11">
  <rect x="0" y="0" width="50" height="50"/>
</clipPath>
<g id="surface35" clip-path="url(#clip11)">
<path style=" stroke:none;fill-rule:evenodd;fill:rgb(98.823529%,80.392157%,10.196078%);fill-opacity:1;" d="M 10.789062 9.71875 C 10.859375 9.804688 10.957031 9.835938 11.085938 9.8125 C 11.085938 10.203125 11.085938 10.59375 11.085938 10.984375 C 9.910156 11.003906 8.738281 10.984375 7.570312 10.9375 C 7.226562 10.757812 7.113281 10.484375 7.226562 10.109375 C 7.273438 9.929688 7.390625 9.8125 7.570312 9.765625 C 8.640625 9.71875 9.714844 9.699219 10.789062 9.71875 Z M 10.789062 9.71875 "/>
</g>
<mask id="mask11">
  <g filter="url(#alpha)">
<rect x="0" y="0" width="50" height="50" style="fill:rgb(0%,0%,0%);fill-opacity:0.921569;stroke:none;"/>
  </g>
</mask>
<clipPath id="clip12">
  <rect x="0" y="0" width="50" height="50"/>
</clipPath>
<g id="surface38" clip-path="url(#clip12)">
<path style=" stroke:none;fill-rule:evenodd;fill:rgb(98.823529%,76.470588%,10.588235%);fill-opacity:1;" d="M 10.789062 9.71875 C 11.703125 9.699219 12.613281 9.71875 13.523438 9.765625 C 14.046875 10.15625 14.046875 10.546875 13.523438 10.9375 C 12.710938 10.984375 11.898438 11.003906 11.085938 10.984375 C 11.085938 10.59375 11.085938 10.203125 11.085938 9.8125 C 10.957031 9.835938 10.859375 9.804688 10.789062 9.71875 Z M 10.789062 9.71875 "/>
</g>
<mask id="mask12">
  <g filter="url(#alpha)">
<rect x="0" y="0" width="50" height="50" style="fill:rgb(0%,0%,0%);fill-opacity:0.968627;stroke:none;"/>
  </g>
</mask>
<clipPath id="clip13">
  <rect x="0" y="0" width="50" height="50"/>
</clipPath>
<g id="surface41" clip-path="url(#clip13)">
<path style=" stroke:none;fill-rule:evenodd;fill:rgb(97.254902%,63.921569%,10.980392%);fill-opacity:1;" d="M 24.171875 12.351562 C 24.300781 13.363281 24.300781 14.371094 24.171875 15.382812 C 23.097656 14.496094 21.925781 14.332031 20.65625 14.890625 C 20.558594 14.21875 20.527344 13.535156 20.554688 12.84375 C 21.878906 13.492188 23.085938 13.332031 24.171875 12.351562 Z M 24.171875 12.351562 "/>
</g>
<mask id="mask13">
  <g filter="url(#alpha)">
<rect x="0" y="0" width="50" height="50" style="fill:rgb(0%,0%,0%);fill-opacity:0.941176;stroke:none;"/>
  </g>
</mask>
<clipPath id="clip14">
  <rect x="0" y="0" width="50" height="50"/>
</clipPath>
<g id="surface44" clip-path="url(#clip14)">
<path style=" stroke:none;fill-rule:evenodd;fill:rgb(98.823529%,77.647059%,10.196078%);fill-opacity:1;" d="M 13.234375 14.304688 C 13.132812 14.304688 13.039062 14.304688 12.9375 14.304688 C 12.9375 14.730469 12.9375 15.152344 12.9375 15.578125 C 11.671875 14.882812 10.339844 14.71875 8.9375 15.085938 C 8.9375 14.664062 8.9375 14.242188 8.9375 13.820312 C 10.4375 13.457031 11.871094 13.617188 13.234375 14.304688 Z M 13.234375 14.304688 "/>
</g>
<mask id="mask14">
  <g filter="url(#alpha)">
<rect x="0" y="0" width="50" height="50" style="fill:rgb(0%,0%,0%);fill-opacity:0.941176;stroke:none;"/>
  </g>
</mask>
<clipPath id="clip15">
  <rect x="0" y="0" width="50" height="50"/>
</clipPath>
<g id="surface47" clip-path="url(#clip15)">
<path style=" stroke:none;fill-rule:evenodd;fill:rgb(98.431373%,71.764706%,10.588235%);fill-opacity:1;" d="M 13.234375 14.304688 C 15.167969 15.277344 16.324219 16.835938 16.699219 18.992188 C 16.75 21.5 16.765625 24.007812 16.75 26.515625 C 17.398438 26.515625 18.050781 26.515625 18.703125 26.515625 C 18.703125 26.90625 18.703125 27.296875 18.703125 27.6875 C 18.574219 27.664062 18.476562 27.695312 18.40625 27.78125 C 17.171875 27.78125 15.933594 27.78125 14.695312 27.78125 C 14.695312 27.390625 14.695312 27 14.695312 26.609375 C 14.851562 26.636719 14.984375 26.605469 15.085938 26.515625 C 15.21875 26.515625 15.347656 26.515625 15.476562 26.515625 C 15.523438 23.90625 15.472656 21.300781 15.332031 18.703125 C 14.933594 17.34375 14.132812 16.304688 12.9375 15.578125 C 12.9375 15.152344 12.9375 14.730469 12.9375 14.304688 C 13.039062 14.304688 13.132812 14.304688 13.234375 14.304688 Z M 13.234375 14.304688 "/>
</g>
<mask id="mask15">
  <g filter="url(#alpha)">
<rect x="0" y="0" width="50" height="50" style="fill:rgb(0%,0%,0%);fill-opacity:0.968627;stroke:none;"/>
  </g>
</mask>
<clipPath id="clip16">
  <rect x="0" y="0" width="50" height="50"/>
</clipPath>
<g id="surface50" clip-path="url(#clip16)">
<path style=" stroke:none;fill-rule:evenodd;fill:rgb(95.686275%,45.098039%,12.156863%);fill-opacity:1;" d="M 39.210938 16.359375 C 39.324219 16.558594 39.390625 16.785156 39.40625 17.039062 C 39.402344 17.253906 39.371094 17.449219 39.304688 17.625 C 38.480469 17.585938 37.667969 17.632812 36.867188 17.773438 C 36.714844 17.890625 36.601562 18.039062 36.523438 18.210938 C 36.476562 18.601562 36.457031 18.992188 36.476562 19.382812 C 36.886719 19.355469 37.277344 19.417969 37.648438 19.578125 C 37.648438 20.75 37.648438 21.921875 37.648438 23.09375 C 37.371094 23.039062 37.09375 22.972656 36.816406 22.898438 C 36.488281 22.992188 36.179688 23.121094 35.890625 23.289062 C 35.824219 22.835938 35.757812 22.378906 35.695312 21.921875 C 36.214844 21.632812 36.703125 21.289062 37.15625 20.898438 C 37.074219 20.796875 36.976562 20.71875 36.867188 20.65625 C 35.867188 21.234375 34.859375 21.789062 33.835938 22.3125 C 33.929688 21.835938 33.960938 21.347656 33.9375 20.851562 C 34.324219 20.621094 34.714844 20.394531 35.109375 20.164062 C 34.773438 17.082031 36.140625 15.8125 39.210938 16.359375 Z M 39.210938 16.359375 "/>
</g>
<mask id="mask16">
  <g filter="url(#alpha)">
<rect x="0" y="0" width="50" height="50" style="fill:rgb(0%,0%,0%);fill-opacity:0.964706;stroke:none;"/>
  </g>
</mask>
<clipPath id="clip17">
  <rect x="0" y="0" width="50" height="50"/>
</clipPath>
<g id="surface53" clip-path="url(#clip17)">
<path style=" stroke:none;fill-rule:evenodd;fill:rgb(99.607843%,87.058824%,9.803922%);fill-opacity:1;" d="M 5.226562 16.453125 C 5.320312 17.609375 5.355469 18.78125 5.320312 19.96875 C 3.769531 20.511719 3.296875 21.554688 3.90625 23.09375 C 4.257812 23.59375 4.730469 23.921875 5.320312 24.070312 C 5.320312 25.082031 5.320312 26.089844 5.320312 27.101562 C 5.003906 26.960938 4.757812 26.730469 4.589844 26.414062 C 4.363281 25.945312 4.183594 25.457031 4.054688 24.953125 C 2.539062 23.96875 2.03125 22.601562 2.539062 20.851562 C 2.886719 20.046875 3.441406 19.429688 4.199219 18.992188 C 4.324219 18.046875 4.664062 17.203125 5.226562 16.453125 Z M 5.226562 16.453125 "/>
</g>
<mask id="mask17">
  <g filter="url(#alpha)">
<rect x="0" y="0" width="50" height="50" style="fill:rgb(0%,0%,0%);fill-opacity:0.980392;stroke:none;"/>
  </g>
</mask>
<clipPath id="clip18">
  <rect x="0" y="0" width="50" height="50"/>
</clipPath>
<g id="surface56" clip-path="url(#clip18)">
<path style=" stroke:none;fill-rule:evenodd;fill:rgb(95.294118%,40.392157%,12.54902%);fill-opacity:1;" d="M 39.210938 16.359375 C 40.421875 16.511719 41.085938 17.195312 41.210938 18.40625 C 41.277344 19.253906 41.277344 20.101562 41.210938 20.945312 C 41.078125 22.042969 40.472656 22.726562 39.40625 23 C 39.378906 22.53125 39.410156 22.078125 39.5 21.632812 C 39.746094 21.433594 39.894531 21.171875 39.941406 20.851562 C 40.007812 20.070312 40.007812 19.289062 39.941406 18.507812 C 39.917969 18.0625 39.707031 17.769531 39.304688 17.625 C 39.371094 17.449219 39.402344 17.253906 39.40625 17.039062 C 39.390625 16.785156 39.324219 16.558594 39.210938 16.359375 Z M 39.210938 16.359375 "/>
</g>
<mask id="mask18">
  <g filter="url(#alpha)">
<rect x="0" y="0" width="50" height="50" style="fill:rgb(0%,0%,0%);fill-opacity:0.964706;stroke:none;"/>
  </g>
</mask>
<clipPath id="clip19">
  <rect x="0" y="0" width="50" height="50"/>
</clipPath>
<g id="surface59" clip-path="url(#clip19)">
<path style=" stroke:none;fill-rule:evenodd;fill:rgb(96.470588%,53.333333%,11.764706%);fill-opacity:1;" d="M 28.171875 16.453125 C 29.398438 17.148438 30.601562 17.863281 31.789062 18.601562 C 31.789062 19.058594 31.789062 19.515625 31.789062 19.96875 C 30.558594 19.324219 29.351562 18.640625 28.171875 17.921875 C 28.171875 17.429688 28.171875 16.945312 28.171875 16.453125 Z M 28.171875 16.453125 "/>
</g>
<mask id="mask19">
  <g filter="url(#alpha)">
<rect x="0" y="0" width="50" height="50" style="fill:rgb(0%,0%,0%);fill-opacity:0.968627;stroke:none;"/>
  </g>
</mask>
<clipPath id="clip20">
  <rect x="0" y="0" width="50" height="50"/>
</clipPath>
<g id="surface62" clip-path="url(#clip20)">
<path style=" stroke:none;fill-rule:evenodd;fill:rgb(96.078431%,50.196078%,11.764706%);fill-opacity:1;" d="M 31.789062 18.601562 C 32.898438 19 33.546875 19.78125 33.742188 20.945312 C 33.808594 20.910156 33.871094 20.878906 33.9375 20.851562 C 33.960938 21.347656 33.929688 21.835938 33.835938 22.3125 C 33.324219 22.703125 32.769531 23.042969 32.179688 23.339844 C 32.03125 23.550781 32.078125 23.699219 32.324219 23.78125 C 32.839844 23.539062 33.347656 23.277344 33.835938 23 C 33.933594 23.433594 33.964844 23.890625 33.9375 24.367188 C 33.359375 24.898438 32.675781 25.109375 31.882812 25 C 31.765625 24.976562 31.667969 24.929688 31.59375 24.851562 C 31.757812 23.910156 31.855469 22.933594 31.882812 21.921875 C 32.074219 21.578125 32.234375 21.222656 32.375 20.851562 C 32.296875 20.464844 32.101562 20.171875 31.789062 19.96875 C 31.789062 19.515625 31.789062 19.058594 31.789062 18.601562 Z M 31.789062 18.601562 "/>
</g>
<mask id="mask20">
  <g filter="url(#alpha)">
<rect x="0" y="0" width="50" height="50" style="fill:rgb(0%,0%,0%);fill-opacity:0.956863;stroke:none;"/>
  </g>
</mask>
<clipPath id="clip21">
  <rect x="0" y="0" width="50" height="50"/>
</clipPath>
<g id="surface65" clip-path="url(#clip21)">
<path style=" stroke:none;fill-rule:evenodd;fill:rgb(99.215686%,83.137255%,9.803922%);fill-opacity:1;" d="M 8.9375 13.820312 C 8.9375 14.242188 8.9375 14.664062 8.9375 15.085938 C 7.21875 15.730469 6.113281 16.933594 5.617188 18.703125 C 7.714844 18.816406 8.855469 19.921875 9.03125 22.023438 C 8.835938 24.15625 7.664062 25.277344 5.515625 25.390625 C 5.710938 25.847656 6.039062 26.171875 6.492188 26.367188 C 7.300781 26.5 8.113281 26.550781 8.9375 26.515625 C 8.9375 26.90625 8.9375 27.296875 8.9375 27.6875 C 9.0625 27.664062 9.160156 27.695312 9.226562 27.78125 C 8.382812 27.800781 7.535156 27.78125 6.6875 27.734375 C 6.15625 27.660156 5.703125 27.449219 5.320312 27.101562 C 5.320312 26.089844 5.320312 25.082031 5.320312 24.070312 C 7.132812 24.035156 7.898438 23.125 7.617188 21.335938 C 7.183594 20.335938 6.417969 19.878906 5.320312 19.96875 C 5.355469 18.78125 5.320312 17.609375 5.226562 16.453125 C 6.113281 15.097656 7.347656 14.21875 8.9375 13.820312 Z M 8.9375 13.820312 "/>
</g>
<mask id="mask21">
  <g filter="url(#alpha)">
<rect x="0" y="0" width="50" height="50" style="fill:rgb(0%,0%,0%);fill-opacity:0.92549;stroke:none;"/>
  </g>
</mask>
<clipPath id="clip22">
  <rect x="0" y="0" width="50" height="50"/>
</clipPath>
<g id="surface68" clip-path="url(#clip22)">
<path style=" stroke:none;fill-rule:evenodd;fill:rgb(96.862745%,58.431373%,11.764706%);fill-opacity:1;" d="M 28.273438 20.851562 C 28.207031 21.273438 28.140625 21.695312 28.078125 22.117188 C 27.511719 21.851562 26.960938 21.5625 26.414062 21.242188 C 26.320312 21.722656 26.285156 22.210938 26.320312 22.703125 C 26.953125 22.664062 27.570312 22.730469 28.171875 22.898438 C 28.15625 23.324219 28.175781 23.746094 28.222656 24.171875 C 28.359375 24.242188 28.375 24.308594 28.273438 24.367188 C 28.023438 24.226562 27.765625 24.113281 27.492188 24.023438 C 26.765625 24.015625 26.046875 23.953125 25.34375 23.828125 C 25.261719 23.746094 25.179688 23.664062 25.097656 23.585938 C 25.03125 22.3125 25.03125 21.046875 25.097656 19.773438 C 25.234375 19.589844 25.414062 19.457031 25.632812 19.382812 C 26.5625 19.800781 27.441406 20.289062 28.273438 20.851562 Z M 28.273438 20.851562 "/>
</g>
<mask id="mask22">
  <g filter="url(#alpha)">
<rect x="0" y="0" width="50" height="50" style="fill:rgb(0%,0%,0%);fill-opacity:0.984314;stroke:none;"/>
  </g>
</mask>
<clipPath id="clip23">
  <rect x="0" y="0" width="50" height="50"/>
</clipPath>
<g id="surface71" clip-path="url(#clip23)">
<path style=" stroke:none;fill-rule:evenodd;fill:rgb(95.294118%,42.352941%,12.54902%);fill-opacity:1;" d="M 37.648438 19.578125 C 38.359375 20.109375 38.554688 20.792969 38.234375 21.632812 C 38.65625 21.75 39.082031 21.75 39.5 21.632812 C 39.410156 22.078125 39.378906 22.53125 39.40625 23 C 39.363281 22.992188 39.328125 23.007812 39.304688 23.046875 C 39.476562 23.332031 39.59375 23.640625 39.648438 23.976562 C 39.664062 24.609375 39.679688 25.242188 39.695312 25.878906 C 39.617188 28.824219 39.585938 31.769531 39.601562 34.71875 C 40.25 34.71875 40.902344 34.71875 41.554688 34.71875 C 41.554688 35.109375 41.554688 35.5 41.554688 35.890625 C 41.011719 35.855469 40.492188 35.890625 39.992188 35.984375 C 39.21875 35.933594 38.46875 36.03125 37.742188 36.28125 C 37.617188 35.867188 37.617188 35.441406 37.742188 35.007812 C 37.910156 34.890625 38.105469 34.824219 38.328125 34.8125 C 38.328125 33.578125 38.328125 32.339844 38.328125 31.101562 C 37.742188 31.121094 37.15625 31.101562 36.570312 31.054688 C 36.273438 30.804688 36.207031 30.496094 36.375 30.125 C 36.429688 30.058594 36.492188 30.011719 36.570312 29.980469 C 37.15625 29.933594 37.742188 29.914062 38.328125 29.929688 C 38.328125 29.507812 38.328125 29.085938 38.328125 28.664062 C 37.742188 28.679688 37.15625 28.660156 36.570312 28.613281 C 36.167969 28.183594 36.199219 27.792969 36.671875 27.441406 C 37.253906 27.394531 37.839844 27.375 38.429688 27.390625 C 38.445312 26.316406 38.429688 25.242188 38.378906 24.171875 C 38.230469 23.738281 37.984375 23.378906 37.648438 23.09375 C 37.648438 21.921875 37.648438 20.75 37.648438 19.578125 Z M 37.648438 19.578125 "/>
</g>
<mask id="mask23">
  <g filter="url(#alpha)">
<rect x="0" y="0" width="50" height="50" style="fill:rgb(0%,0%,0%);fill-opacity:0.933333;stroke:none;"/>
  </g>
</mask>
<clipPath id="clip24">
  <rect x="0" y="0" width="50" height="50"/>
</clipPath>
<g id="surface74" clip-path="url(#clip24)">
<path style=" stroke:none;fill-rule:evenodd;fill:rgb(99.607843%,85.098039%,9.803922%);fill-opacity:1;" d="M 6.398438 20.75 C 7.144531 20.671875 7.421875 20.996094 7.226562 21.726562 C 6.722656 22.234375 6.21875 22.738281 5.710938 23.242188 C 4.980469 23.304688 4.441406 22.996094 4.101562 22.3125 C 4.003906 21.597656 4.3125 21.320312 5.03125 21.484375 C 5.113281 21.585938 5.210938 21.664062 5.320312 21.726562 C 5.683594 21.398438 6.042969 21.074219 6.398438 20.75 Z M 6.398438 20.75 "/>
</g>
<mask id="mask24">
  <g filter="url(#alpha)">
<rect x="0" y="0" width="50" height="50" style="fill:rgb(0%,0%,0%);fill-opacity:0.964706;stroke:none;"/>
  </g>
</mask>
<clipPath id="clip25">
  <rect x="0" y="0" width="50" height="50"/>
</clipPath>
<g id="surface77" clip-path="url(#clip25)">
<path style=" stroke:none;fill-rule:evenodd;fill:rgb(96.470588%,53.333333%,11.764706%);fill-opacity:1;" d="M 28.273438 20.851562 C 29.128906 21.292969 29.976562 21.765625 30.8125 22.265625 C 31.242188 22.375 31.601562 22.261719 31.882812 21.921875 C 31.855469 22.933594 31.757812 23.910156 31.59375 24.851562 C 31.421875 24.792969 31.277344 24.695312 31.152344 24.5625 C 30.980469 24.246094 30.832031 23.921875 30.710938 23.585938 C 29.785156 23.167969 28.90625 22.679688 28.078125 22.117188 C 28.140625 21.695312 28.207031 21.273438 28.273438 20.851562 Z M 28.273438 20.851562 "/>
</g>
<mask id="mask25">
  <g filter="url(#alpha)">
<rect x="0" y="0" width="50" height="50" style="fill:rgb(0%,0%,0%);fill-opacity:0.976471;stroke:none;"/>
  </g>
</mask>
<clipPath id="clip26">
  <rect x="0" y="0" width="50" height="50"/>
</clipPath>
<g id="surface80" clip-path="url(#clip26)">
<path style=" stroke:none;fill-rule:evenodd;fill:rgb(96.078431%,47.843137%,12.156863%);fill-opacity:1;" d="M 35.695312 21.921875 C 35.757812 22.378906 35.824219 22.835938 35.890625 23.289062 C 35.667969 23.503906 35.519531 23.765625 35.449219 24.070312 C 35.386719 27.496094 35.289062 30.914062 35.15625 34.328125 C 34.878906 34.992188 34.40625 35.464844 33.742188 35.742188 C 33.097656 35.875 32.445312 35.925781 31.789062 35.890625 C 31.789062 35.5 31.789062 35.109375 31.789062 34.71875 C 32.339844 34.65625 32.894531 34.578125 33.445312 34.472656 C 33.703125 34.28125 33.882812 34.035156 33.984375 33.742188 C 34.054688 30.582031 34.085938 27.425781 34.082031 24.265625 C 34.042969 24.320312 33.996094 24.355469 33.9375 24.367188 C 33.964844 23.890625 33.933594 23.433594 33.835938 23 C 34.4375 22.617188 35.054688 22.257812 35.695312 21.921875 Z M 35.695312 21.921875 "/>
</g>
<mask id="mask26">
  <g filter="url(#alpha)">
<rect x="0" y="0" width="50" height="50" style="fill:rgb(0%,0%,0%);fill-opacity:0.972549;stroke:none;"/>
  </g>
</mask>
<clipPath id="clip27">
  <rect x="0" y="0" width="50" height="50"/>
</clipPath>
<g id="surface83" clip-path="url(#clip27)">
<path style=" stroke:none;fill-rule:evenodd;fill:rgb(96.470588%,54.117647%,11.764706%);fill-opacity:1;" d="M 28.171875 22.898438 C 29.429688 23.359375 30.226562 24.238281 30.566406 25.539062 C 30.707031 28.59375 30.753906 31.65625 30.710938 34.71875 C 31.070312 34.71875 31.429688 34.71875 31.789062 34.71875 C 31.789062 35.109375 31.789062 35.5 31.789062 35.890625 C 30.589844 35.984375 29.386719 36.015625 28.171875 35.984375 C 28.171875 35.59375 28.171875 35.203125 28.171875 34.8125 C 28.300781 34.835938 28.398438 34.804688 28.46875 34.71875 C 28.792969 34.71875 29.117188 34.71875 29.445312 34.71875 C 29.460938 31.949219 29.445312 29.183594 29.394531 26.414062 C 29.320312 25.554688 28.949219 24.871094 28.273438 24.367188 C 28.375 24.308594 28.359375 24.242188 28.222656 24.171875 C 28.175781 23.746094 28.15625 23.324219 28.171875 22.898438 Z M 28.171875 22.898438 "/>
</g>
<mask id="mask27">
  <g filter="url(#alpha)">
<rect x="0" y="0" width="50" height="50" style="fill:rgb(0%,0%,0%);fill-opacity:0.937255;stroke:none;"/>
  </g>
</mask>
<clipPath id="clip28">
  <rect x="0" y="0" width="50" height="50"/>
</clipPath>
<g id="surface86" clip-path="url(#clip28)">
<path style=" stroke:none;fill-rule:evenodd;fill:rgb(97.254902%,63.921569%,11.372549%);fill-opacity:1;" d="M 20.65625 26.125 C 20.988281 26.304688 21.34375 26.417969 21.726562 26.464844 C 22.542969 26.515625 23.355469 26.53125 24.171875 26.515625 C 24.171875 26.90625 24.171875 27.296875 24.171875 27.6875 C 24.042969 27.664062 23.945312 27.695312 23.875 27.78125 C 22.671875 27.78125 21.46875 27.78125 20.265625 27.78125 C 20.332031 27.695312 20.429688 27.664062 20.554688 27.6875 C 20.527344 27.15625 20.5625 26.632812 20.65625 26.125 Z M 20.65625 26.125 "/>
</g>
<mask id="mask28">
  <g filter="url(#alpha)">
<rect x="0" y="0" width="50" height="50" style="fill:rgb(0%,0%,0%);fill-opacity:0.921569;stroke:none;"/>
  </g>
</mask>
<clipPath id="clip29">
  <rect x="0" y="0" width="50" height="50"/>
</clipPath>
<g id="surface89" clip-path="url(#clip29)">
<path style=" stroke:none;fill-rule:evenodd;fill:rgb(98.823529%,79.215686%,10.196078%);fill-opacity:1;" d="M 8.9375 26.515625 C 9.75 26.515625 10.5625 26.515625 11.375 26.515625 C 11.308594 26.601562 11.210938 26.632812 11.085938 26.609375 C 11.117188 28.027344 11.082031 29.429688 10.984375 30.8125 C 10.375 29.851562 10.34375 28.859375 10.890625 27.832031 C 10.335938 27.785156 9.78125 27.765625 9.226562 27.78125 C 9.160156 27.695312 9.0625 27.664062 8.9375 27.6875 C 8.9375 27.296875 8.9375 26.90625 8.9375 26.515625 Z M 8.9375 26.515625 "/>
</g>
<mask id="mask29">
  <g filter="url(#alpha)">
<rect x="0" y="0" width="50" height="50" style="fill:rgb(0%,0%,0%);fill-opacity:0.964706;stroke:none;"/>
  </g>
</mask>
<clipPath id="clip30">
  <rect x="0" y="0" width="50" height="50"/>
</clipPath>
<g id="surface92" clip-path="url(#clip30)">
<path style=" stroke:none;fill-rule:evenodd;fill:rgb(98.431373%,76.078431%,10.588235%);fill-opacity:1;" d="M 11.375 26.515625 C 12.613281 26.515625 13.851562 26.515625 15.085938 26.515625 C 14.984375 26.605469 14.851562 26.636719 14.695312 26.609375 C 14.695312 27 14.695312 27.390625 14.695312 27.78125 C 14.078125 27.765625 13.460938 27.78125 12.84375 27.832031 C 11.828125 28.332031 11.550781 29.097656 12.011719 30.125 C 12.242188 30.457031 12.550781 30.667969 12.9375 30.761719 C 13.523438 30.808594 14.109375 30.828125 14.695312 30.8125 C 14.695312 31.203125 14.695312 31.59375 14.695312 31.984375 C 14.851562 31.957031 14.984375 31.988281 15.085938 32.078125 C 13.753906 32.078125 12.417969 32.078125 11.085938 32.078125 C 11.113281 31.667969 11.082031 31.277344 10.984375 30.90625 C 10.984375 30.875 10.984375 30.84375 10.984375 30.8125 C 11.082031 29.429688 11.117188 28.027344 11.085938 26.609375 C 11.210938 26.632812 11.308594 26.601562 11.375 26.515625 Z M 11.375 26.515625 "/>
</g>
<mask id="mask30">
  <g filter="url(#alpha)">
<rect x="0" y="0" width="50" height="50" style="fill:rgb(0%,0%,0%);fill-opacity:0.929412;stroke:none;"/>
  </g>
</mask>
<clipPath id="clip31">
  <rect x="0" y="0" width="50" height="50"/>
</clipPath>
<g id="surface95" clip-path="url(#clip31)">
<path style=" stroke:none;fill-rule:evenodd;fill:rgb(96.862745%,59.215686%,11.372549%);fill-opacity:1;" d="M 24.171875 26.515625 C 24.789062 26.496094 25.40625 26.515625 26.023438 26.5625 C 26.144531 26.652344 26.222656 26.765625 26.269531 26.90625 C 26.320312 29.507812 26.335938 32.113281 26.320312 34.71875 C 27.035156 34.71875 27.75 34.71875 28.46875 34.71875 C 28.398438 34.804688 28.300781 34.835938 28.171875 34.8125 C 28.171875 35.203125 28.171875 35.59375 28.171875 35.984375 C 27.230469 36.003906 26.285156 35.984375 25.34375 35.9375 C 25.292969 35.890625 25.242188 35.839844 25.195312 35.789062 C 25.050781 34.5625 25.003906 33.328125 25.046875 32.078125 C 24.757812 32.078125 24.460938 32.078125 24.171875 32.078125 C 24.171875 31.6875 24.171875 31.296875 24.171875 30.90625 C 24.042969 30.929688 23.945312 30.898438 23.875 30.8125 C 24.265625 30.8125 24.65625 30.8125 25.046875 30.8125 C 25.046875 29.800781 25.046875 28.792969 25.046875 27.78125 C 24.65625 27.78125 24.265625 27.78125 23.875 27.78125 C 23.945312 27.695312 24.042969 27.664062 24.171875 27.6875 C 24.171875 27.296875 24.171875 26.90625 24.171875 26.515625 Z M 24.171875 26.515625 "/>
</g>
<mask id="mask31">
  <g filter="url(#alpha)">
<rect x="0" y="0" width="50" height="50" style="fill:rgb(0%,0%,0%);fill-opacity:0.94902;stroke:none;"/>
  </g>
</mask>
<clipPath id="clip32">
  <rect x="0" y="0" width="50" height="50"/>
</clipPath>
<g id="surface98" clip-path="url(#clip32)">
<path style=" stroke:none;fill-rule:evenodd;fill:rgb(99.215686%,81.568627%,10.196078%);fill-opacity:1;" d="M 7.46875 28.859375 C 9.074219 28.734375 9.855469 29.484375 9.8125 31.101562 C 10.191406 30.957031 10.582031 30.890625 10.984375 30.90625 C 11.082031 31.277344 11.113281 31.667969 11.085938 32.078125 C 9.554688 32.375 8.21875 33.058594 7.078125 34.132812 C 7.078125 33.578125 7.078125 33.023438 7.078125 32.46875 C 7.488281 32.144531 7.925781 31.851562 8.398438 31.59375 C 8.757812 30.371094 8.316406 29.882812 7.078125 30.125 C 7.078125 29.734375 7.078125 29.34375 7.078125 28.953125 C 7.234375 28.980469 7.367188 28.949219 7.46875 28.859375 Z M 7.46875 28.859375 "/>
</g>
<mask id="mask32">
  <g filter="url(#alpha)">
<rect x="0" y="0" width="50" height="50" style="fill:rgb(0%,0%,0%);fill-opacity:0.933333;stroke:none;"/>
  </g>
</mask>
<clipPath id="clip33">
  <rect x="0" y="0" width="50" height="50"/>
</clipPath>
<g id="surface101" clip-path="url(#clip33)">
<path style=" stroke:none;fill-rule:evenodd;fill:rgb(98.039216%,70.196078%,10.588235%);fill-opacity:1;" d="M 14.695312 30.8125 C 16.03125 30.8125 17.367188 30.8125 18.703125 30.8125 C 18.703125 31.363281 18.703125 31.917969 18.703125 32.46875 C 17.523438 32.125 16.320312 31.996094 15.085938 32.078125 C 14.984375 31.988281 14.851562 31.957031 14.695312 31.984375 C 14.695312 31.59375 14.695312 31.203125 14.695312 30.8125 Z M 14.695312 30.8125 "/>
</g>
<mask id="mask33">
  <g filter="url(#alpha)">
<rect x="0" y="0" width="50" height="50" style="fill:rgb(0%,0%,0%);fill-opacity:0.956863;stroke:none;"/>
  </g>
</mask>
<clipPath id="clip34">
  <rect x="0" y="0" width="50" height="50"/>
</clipPath>
<g id="surface104" clip-path="url(#clip34)">
<path style=" stroke:none;fill-rule:evenodd;fill:rgb(97.647059%,67.058824%,10.980392%);fill-opacity:1;" d="M 18.703125 30.8125 C 19.320312 30.8125 19.9375 30.8125 20.554688 30.8125 C 20.554688 31.6875 20.554688 32.570312 20.554688 33.445312 C 19.984375 33.046875 19.367188 32.722656 18.703125 32.46875 C 18.703125 31.917969 18.703125 31.363281 18.703125 30.8125 Z M 18.703125 30.8125 "/>
</g>
<mask id="mask34">
  <g filter="url(#alpha)">
<rect x="0" y="0" width="50" height="50" style="fill:rgb(0%,0%,0%);fill-opacity:0.956863;stroke:none;"/>
  </g>
</mask>
<clipPath id="clip35">
  <rect x="0" y="0" width="50" height="50"/>
</clipPath>
<g id="surface107" clip-path="url(#clip35)">
<path style=" stroke:none;fill-rule:evenodd;fill:rgb(99.607843%,85.490196%,9.803922%);fill-opacity:1;" d="M 7.46875 28.859375 C 7.367188 28.949219 7.234375 28.980469 7.078125 28.953125 C 7.078125 29.34375 7.078125 29.734375 7.078125 30.125 C 6.546875 30.089844 6.027344 30.136719 5.515625 30.273438 C 5.40625 31.160156 5.390625 32.054688 5.46875 32.960938 C 5.710938 33.152344 5.988281 33.199219 6.296875 33.105469 C 6.574219 32.910156 6.835938 32.699219 7.078125 32.46875 C 7.078125 33.023438 7.078125 33.578125 7.078125 34.132812 C 5.800781 35.683594 5.25 37.476562 5.421875 39.5 C 5.972656 39.5 6.527344 39.5 7.078125 39.5 C 7.078125 39.890625 7.078125 40.28125 7.078125 40.671875 C 7.234375 40.648438 7.367188 40.679688 7.46875 40.773438 C 6.417969 40.816406 5.378906 40.765625 4.34375 40.625 C 3.828125 38.433594 4.15625 36.367188 5.320312 34.421875 C 4.765625 34.207031 4.390625 33.816406 4.199219 33.25 C 4.132812 32.179688 4.132812 31.101562 4.199219 30.03125 C 4.339844 29.53125 4.648438 29.191406 5.125 29.003906 C 5.898438 28.867188 6.679688 28.816406 7.46875 28.859375 Z M 7.46875 28.859375 "/>
</g>
<mask id="mask35">
  <g filter="url(#alpha)">
<rect x="0" y="0" width="50" height="50" style="fill:rgb(0%,0%,0%);fill-opacity:0.964706;stroke:none;"/>
  </g>
</mask>
<clipPath id="clip36">
  <rect x="0" y="0" width="50" height="50"/>
</clipPath>
<g id="surface110" clip-path="url(#clip36)">
<path style=" stroke:none;fill-rule:evenodd;fill:rgb(97.254902%,63.137255%,10.980392%);fill-opacity:1;" d="M 20.554688 30.8125 C 21.664062 30.8125 22.769531 30.8125 23.875 30.8125 C 23.945312 30.898438 24.042969 30.929688 24.171875 30.90625 C 24.171875 31.296875 24.171875 31.6875 24.171875 32.078125 C 23.0625 32.0625 21.957031 32.078125 20.851562 32.128906 C 23.023438 33.695312 24.164062 35.828125 24.265625 38.523438 C 24.171875 39.09375 24.136719 39.679688 24.171875 40.28125 C 24.15625 40.488281 24.058594 40.632812 23.875 40.722656 C 22.769531 40.773438 21.664062 40.789062 20.554688 40.773438 C 20.554688 40.382812 20.554688 39.992188 20.554688 39.601562 C 20.429688 39.621094 20.332031 39.589844 20.265625 39.5 C 21.175781 39.5 22.085938 39.5 23 39.5 C 23.175781 37.070312 22.363281 35.050781 20.554688 33.445312 C 20.554688 32.570312 20.554688 31.6875 20.554688 30.8125 Z M 20.554688 30.8125 "/>
</g>
<mask id="mask36">
  <g filter="url(#alpha)">
<rect x="0" y="0" width="50" height="50" style="fill:rgb(0%,0%,0%);fill-opacity:0.909804;stroke:none;"/>
  </g>
</mask>
<clipPath id="clip37">
  <rect x="0" y="0" width="50" height="50"/>
</clipPath>
<g id="surface113" clip-path="url(#clip37)">
<path style=" stroke:none;fill-rule:evenodd;fill:rgb(98.823529%,76.862745%,10.588235%);fill-opacity:1;" d="M 13.523438 34.421875 C 13.351562 34.519531 13.15625 34.550781 12.9375 34.523438 C 12.9375 34.914062 12.9375 35.304688 12.9375 35.695312 C 12.253906 35.710938 11.570312 35.695312 10.890625 35.644531 C 10.46875 35.175781 10.535156 34.785156 11.085938 34.472656 C 11.898438 34.421875 12.710938 34.40625 13.523438 34.421875 Z M 13.523438 34.421875 "/>
</g>
<mask id="mask37">
  <g filter="url(#alpha)">
<rect x="0" y="0" width="50" height="50" style="fill:rgb(0%,0%,0%);fill-opacity:0.972549;stroke:none;"/>
  </g>
</mask>
<clipPath id="clip38">
  <rect x="0" y="0" width="50" height="50"/>
</clipPath>
<g id="surface116" clip-path="url(#clip38)">
<path style=" stroke:none;fill-rule:evenodd;fill:rgb(98.431373%,74.117647%,10.588235%);fill-opacity:1;" d="M 13.523438 34.421875 C 14.078125 34.40625 14.632812 34.425781 15.1875 34.472656 C 15.734375 34.785156 15.800781 35.175781 15.382812 35.644531 C 14.566406 35.695312 13.753906 35.710938 12.9375 35.695312 C 12.9375 35.304688 12.9375 34.914062 12.9375 34.523438 C 13.15625 34.550781 13.351562 34.519531 13.523438 34.421875 Z M 13.523438 34.421875 "/>
</g>
<mask id="mask38">
  <g filter="url(#alpha)">
<rect x="0" y="0" width="50" height="50" style="fill:rgb(0%,0%,0%);fill-opacity:0.94902;stroke:none;"/>
  </g>
</mask>
<clipPath id="clip39">
  <rect x="0" y="0" width="50" height="50"/>
</clipPath>
<g id="surface119" clip-path="url(#clip39)">
<path style=" stroke:none;fill-rule:evenodd;fill:rgb(94.901961%,36.078431%,12.941176%);fill-opacity:1;" d="M 41.554688 34.71875 C 42.917969 34.539062 44.15625 34.832031 45.265625 35.59375 C 45.265625 36.117188 45.265625 36.636719 45.265625 37.15625 C 44.671875 36.632812 43.988281 36.257812 43.210938 36.035156 C 42.140625 35.984375 41.066406 35.96875 39.992188 35.984375 C 40.492188 35.890625 41.011719 35.855469 41.554688 35.890625 C 41.554688 35.5 41.554688 35.109375 41.554688 34.71875 Z M 41.554688 34.71875 "/>
</g>
<mask id="mask39">
  <g filter="url(#alpha)">
<rect x="0" y="0" width="50" height="50" style="fill:rgb(0%,0%,0%);fill-opacity:0.960784;stroke:none;"/>
  </g>
</mask>
<clipPath id="clip40">
  <rect x="0" y="0" width="50" height="50"/>
</clipPath>
<g id="surface122" clip-path="url(#clip40)">
<path style=" stroke:none;fill-rule:evenodd;fill:rgb(94.509804%,32.54902%,12.941176%);fill-opacity:1;" d="M 45.265625 35.59375 C 46.820312 36.644531 47.570312 38.125 47.507812 40.039062 C 47.492188 40.445312 47.476562 40.851562 47.460938 41.257812 C 47.414062 41.308594 47.363281 41.359375 47.3125 41.40625 C 46.824219 41.421875 46.335938 41.472656 45.851562 41.554688 C 45.742188 42.007812 45.578125 42.429688 45.359375 42.820312 C 45.265625 41.992188 45.230469 41.148438 45.265625 40.28125 C 45.667969 40.316406 45.992188 40.285156 46.242188 40.1875 C 46.265625 39.65625 46.21875 39.136719 46.09375 38.625 C 45.867188 38.101562 45.589844 37.613281 45.265625 37.15625 C 45.265625 36.636719 45.265625 36.117188 45.265625 35.59375 Z M 45.265625 35.59375 "/>
</g>
<mask id="mask40">
  <g filter="url(#alpha)">
<rect x="0" y="0" width="50" height="50" style="fill:rgb(0%,0%,0%);fill-opacity:0.976471;stroke:none;"/>
  </g>
</mask>
<clipPath id="clip41">
  <rect x="0" y="0" width="50" height="50"/>
</clipPath>
<g id="surface125" clip-path="url(#clip41)">
<path style=" stroke:none;fill-rule:evenodd;fill:rgb(95.686275%,46.666667%,12.156863%);fill-opacity:1;" d="M 37.742188 35.007812 C 37.617188 35.441406 37.617188 35.867188 37.742188 36.28125 C 36.242188 37.132812 35.492188 38.433594 35.5 40.1875 C 36.214844 40.1875 36.929688 40.1875 37.648438 40.1875 C 37.046875 40.28125 36.429688 40.316406 35.789062 40.28125 C 35.789062 40.671875 35.789062 41.0625 35.789062 41.453125 C 34.511719 41.769531 33.992188 41.28125 34.226562 39.992188 C 34.132812 39.992188 34.03125 39.992188 33.9375 39.992188 C 33.9375 39.601562 33.9375 39.210938 33.9375 38.820312 C 34.0625 38.839844 34.160156 38.808594 34.226562 38.71875 C 34.527344 37.929688 34.933594 37.183594 35.449219 36.476562 C 36.082031 35.773438 36.847656 35.289062 37.742188 35.007812 Z M 37.742188 35.007812 "/>
</g>
<mask id="mask41">
  <g filter="url(#alpha)">
<rect x="0" y="0" width="50" height="50" style="fill:rgb(0%,0%,0%);fill-opacity:0.921569;stroke:none;"/>
  </g>
</mask>
<clipPath id="clip42">
  <rect x="0" y="0" width="50" height="50"/>
</clipPath>
<g id="surface128" clip-path="url(#clip42)">
<path style=" stroke:none;fill-rule:evenodd;fill:rgb(98.431373%,76.862745%,10.196078%);fill-opacity:1;" d="M 13.234375 36.671875 C 13.164062 36.757812 13.066406 36.789062 12.9375 36.765625 C 12.9375 37.125 12.9375 37.484375 12.9375 37.84375 C 13.066406 37.820312 13.164062 37.851562 13.234375 37.9375 C 12.515625 37.957031 11.800781 37.9375 11.085938 37.890625 C 10.535156 37.578125 10.46875 37.1875 10.890625 36.71875 C 11.667969 36.671875 12.449219 36.652344 13.234375 36.671875 Z M 13.234375 36.671875 "/>
</g>
<mask id="mask42">
  <g filter="url(#alpha)">
<rect x="0" y="0" width="50" height="50" style="fill:rgb(0%,0%,0%);fill-opacity:0.929412;stroke:none;"/>
  </g>
</mask>
<clipPath id="clip43">
  <rect x="0" y="0" width="50" height="50"/>
</clipPath>
<g id="surface131" clip-path="url(#clip43)">
<path style=" stroke:none;fill-rule:evenodd;fill:rgb(98.431373%,74.117647%,10.588235%);fill-opacity:1;" d="M 13.234375 36.671875 C 13.949219 36.652344 14.664062 36.671875 15.382812 36.71875 C 15.800781 37.1875 15.734375 37.578125 15.1875 37.890625 C 14.535156 37.9375 13.882812 37.957031 13.234375 37.9375 C 13.164062 37.851562 13.066406 37.820312 12.9375 37.84375 C 12.9375 37.484375 12.9375 37.125 12.9375 36.765625 C 13.066406 36.789062 13.164062 36.757812 13.234375 36.671875 Z M 13.234375 36.671875 "/>
</g>
<mask id="mask43">
  <g filter="url(#alpha)">
<rect x="0" y="0" width="50" height="50" style="fill:rgb(0%,0%,0%);fill-opacity:0.905882;stroke:none;"/>
  </g>
</mask>
<clipPath id="clip44">
  <rect x="0" y="0" width="50" height="50"/>
</clipPath>
<g id="surface134" clip-path="url(#clip44)">
<path style=" stroke:none;fill-rule:evenodd;fill:rgb(97.254902%,60%,11.372549%);fill-opacity:1;" d="M 24.265625 38.523438 C 24.910156 38.71875 25.59375 38.78125 26.320312 38.71875 C 26.320312 39.109375 26.320312 39.5 26.320312 39.890625 C 26.445312 39.871094 26.542969 39.902344 26.609375 39.992188 C 25.828125 39.992188 25.046875 39.992188 24.265625 39.992188 C 24.289062 40.117188 24.257812 40.214844 24.171875 40.28125 C 24.136719 39.679688 24.171875 39.09375 24.265625 38.523438 Z M 24.265625 38.523438 "/>
</g>
<mask id="mask44">
  <g filter="url(#alpha)">
<rect x="0" y="0" width="50" height="50" style="fill:rgb(0%,0%,0%);fill-opacity:0.92549;stroke:none;"/>
  </g>
</mask>
<clipPath id="clip45">
  <rect x="0" y="0" width="50" height="50"/>
</clipPath>
<g id="surface137" clip-path="url(#clip45)">
<path style=" stroke:none;fill-rule:evenodd;fill:rgb(96.470588%,55.686275%,11.764706%);fill-opacity:1;" d="M 26.320312 38.71875 C 27.554688 38.71875 28.792969 38.71875 30.03125 38.71875 C 30.03125 39.109375 30.03125 39.5 30.03125 39.890625 C 30.15625 39.871094 30.253906 39.902344 30.320312 39.992188 C 29.085938 39.992188 27.847656 39.992188 26.609375 39.992188 C 26.542969 39.902344 26.445312 39.871094 26.320312 39.890625 C 26.320312 39.5 26.320312 39.109375 26.320312 38.71875 Z M 26.320312 38.71875 "/>
</g>
<mask id="mask45">
  <g filter="url(#alpha)">
<rect x="0" y="0" width="50" height="50" style="fill:rgb(0%,0%,0%);fill-opacity:0.952941;stroke:none;"/>
  </g>
</mask>
<clipPath id="clip46">
  <rect x="0" y="0" width="50" height="50"/>
</clipPath>
<g id="surface140" clip-path="url(#clip46)">
<path style=" stroke:none;fill-rule:evenodd;fill:rgb(96.078431%,50.980392%,12.156863%);fill-opacity:1;" d="M 30.03125 38.71875 C 31.429688 38.71875 32.828125 38.71875 34.226562 38.71875 C 34.160156 38.808594 34.0625 38.839844 33.9375 38.820312 C 33.9375 39.210938 33.9375 39.601562 33.9375 39.992188 C 32.730469 39.992188 31.527344 39.992188 30.320312 39.992188 C 30.253906 39.902344 30.15625 39.871094 30.03125 39.890625 C 30.03125 39.5 30.03125 39.109375 30.03125 38.71875 Z M 30.03125 38.71875 "/>
</g>
<mask id="mask46">
  <g filter="url(#alpha)">
<rect x="0" y="0" width="50" height="50" style="fill:rgb(0%,0%,0%);fill-opacity:0.945098;stroke:none;"/>
  </g>
</mask>
<clipPath id="clip47">
  <rect x="0" y="0" width="50" height="50"/>
</clipPath>
<g id="surface143" clip-path="url(#clip47)">
<path style=" stroke:none;fill-rule:evenodd;fill:rgb(98.823529%,80%,10.196078%);fill-opacity:1;" d="M 7.078125 39.5 C 8.414062 39.5 9.75 39.5 11.085938 39.5 C 11.085938 39.890625 11.085938 40.28125 11.085938 40.671875 C 11.210938 40.652344 11.308594 40.683594 11.375 40.773438 C 10.921875 40.773438 10.464844 40.773438 10.007812 40.773438 C 10.1875 41.613281 10.542969 42.359375 11.085938 43.015625 C 11.085938 43.570312 11.085938 44.125 11.085938 44.679688 C 9.707031 43.746094 8.925781 42.441406 8.742188 40.773438 C 8.316406 40.773438 7.894531 40.773438 7.46875 40.773438 C 7.367188 40.679688 7.234375 40.648438 7.078125 40.671875 C 7.078125 40.28125 7.078125 39.890625 7.078125 39.5 Z M 7.078125 39.5 "/>
</g>
<mask id="mask47">
  <g filter="url(#alpha)">
<rect x="0" y="0" width="50" height="50" style="fill:rgb(0%,0%,0%);fill-opacity:0.909804;stroke:none;"/>
  </g>
</mask>
<clipPath id="clip48">
  <rect x="0" y="0" width="50" height="50"/>
</clipPath>
<g id="surface146" clip-path="url(#clip48)">
<path style=" stroke:none;fill-rule:evenodd;fill:rgb(98.431373%,75.294118%,10.588235%);fill-opacity:1;" d="M 11.085938 39.5 C 12.289062 39.5 13.492188 39.5 14.695312 39.5 C 14.695312 39.890625 14.695312 40.28125 14.695312 40.671875 C 14.851562 40.648438 14.984375 40.679688 15.085938 40.773438 C 13.851562 40.773438 12.613281 40.773438 11.375 40.773438 C 11.308594 40.683594 11.210938 40.652344 11.085938 40.671875 C 11.085938 40.28125 11.085938 39.890625 11.085938 39.5 Z M 11.085938 39.5 "/>
</g>
<mask id="mask48">
  <g filter="url(#alpha)">
<rect x="0" y="0" width="50" height="50" style="fill:rgb(0%,0%,0%);fill-opacity:0.952941;stroke:none;"/>
  </g>
</mask>
<clipPath id="clip49">
  <rect x="0" y="0" width="50" height="50"/>
</clipPath>
<g id="surface149" clip-path="url(#clip49)">
<path style=" stroke:none;fill-rule:evenodd;fill:rgb(98.039216%,70.196078%,10.588235%);fill-opacity:1;" d="M 14.695312 39.5 C 16.03125 39.5 17.367188 39.5 18.703125 39.5 C 18.703125 40.738281 18.703125 41.976562 18.703125 43.210938 C 18.207031 44.03125 17.523438 44.648438 16.648438 45.070312 C 16.558594 44.621094 16.527344 44.167969 16.554688 43.703125 C 17.539062 42.96875 18.125 41.992188 18.3125 40.773438 C 17.234375 40.773438 16.164062 40.773438 15.085938 40.773438 C 14.984375 40.679688 14.851562 40.648438 14.695312 40.671875 C 14.695312 40.28125 14.695312 39.890625 14.695312 39.5 Z M 14.695312 39.5 "/>
</g>
<mask id="mask49">
  <g filter="url(#alpha)">
<rect x="0" y="0" width="50" height="50" style="fill:rgb(0%,0%,0%);fill-opacity:0.945098;stroke:none;"/>
  </g>
</mask>
<clipPath id="clip50">
  <rect x="0" y="0" width="50" height="50"/>
</clipPath>
<g id="surface152" clip-path="url(#clip50)">
<path style=" stroke:none;fill-rule:evenodd;fill:rgb(97.647059%,67.45098%,10.980392%);fill-opacity:1;" d="M 18.703125 39.5 C 19.222656 39.5 19.742188 39.5 20.265625 39.5 C 20.332031 39.589844 20.429688 39.621094 20.554688 39.601562 C 20.554688 39.992188 20.554688 40.382812 20.554688 40.773438 C 20.257812 40.742188 19.964844 40.773438 19.679688 40.867188 C 19.558594 41.746094 19.234375 42.527344 18.703125 43.210938 C 18.703125 41.976562 18.703125 40.738281 18.703125 39.5 Z M 18.703125 39.5 "/>
</g>
<mask id="mask50">
  <g filter="url(#alpha)">
<rect x="0" y="0" width="50" height="50" style="fill:rgb(0%,0%,0%);fill-opacity:0.980392;stroke:none;"/>
  </g>
</mask>
<clipPath id="clip51">
  <rect x="0" y="0" width="50" height="50"/>
</clipPath>
<g id="surface155" clip-path="url(#clip51)">
<path style=" stroke:none;fill-rule:evenodd;fill:rgb(95.686275%,43.921569%,12.156863%);fill-opacity:1;" d="M 37.648438 40.1875 C 39.144531 40.1875 40.640625 40.1875 42.140625 40.1875 C 41.964844 40.28125 41.769531 40.3125 41.554688 40.28125 C 40.835938 40.28125 40.121094 40.28125 39.40625 40.28125 C 39.40625 40.671875 39.40625 41.0625 39.40625 41.453125 C 38.6875 41.4375 37.972656 41.453125 37.257812 41.503906 C 37.640625 42.652344 38.359375 43.515625 39.40625 44.09375 C 39.40625 44.515625 39.40625 44.9375 39.40625 45.359375 C 37.570312 44.75 36.433594 43.496094 35.984375 41.601562 C 35.953125 41.5 35.886719 41.453125 35.789062 41.453125 C 35.789062 41.0625 35.789062 40.671875 35.789062 40.28125 C 36.429688 40.316406 37.046875 40.28125 37.648438 40.1875 Z M 37.648438 40.1875 "/>
</g>
<mask id="mask51">
  <g filter="url(#alpha)">
<rect x="0" y="0" width="50" height="50" style="fill:rgb(0%,0%,0%);fill-opacity:0.992157;stroke:none;"/>
  </g>
</mask>
<clipPath id="clip52">
  <rect x="0" y="0" width="50" height="50"/>
</clipPath>
<g id="surface158" clip-path="url(#clip52)">
<path style=" stroke:none;fill-rule:evenodd;fill:rgb(95.294118%,40.392157%,12.54902%);fill-opacity:1;" d="M 41.554688 40.28125 C 41.554688 40.671875 41.554688 41.0625 41.554688 41.453125 C 40.835938 41.453125 40.121094 41.453125 39.40625 41.453125 C 39.40625 41.0625 39.40625 40.671875 39.40625 40.28125 C 40.121094 40.28125 40.835938 40.28125 41.554688 40.28125 Z M 41.554688 40.28125 "/>
</g>
<mask id="mask52">
  <g filter="url(#alpha)">
<rect x="0" y="0" width="50" height="50" style="fill:rgb(0%,0%,0%);fill-opacity:0.976471;stroke:none;"/>
  </g>
</mask>
<clipPath id="clip53">
  <rect x="0" y="0" width="50" height="50"/>
</clipPath>
<g id="surface161" clip-path="url(#clip53)">
<path style=" stroke:none;fill-rule:evenodd;fill:rgb(94.901961%,36.078431%,12.54902%);fill-opacity:1;" d="M 42.140625 40.1875 C 43.507812 40.1875 44.875 40.1875 46.242188 40.1875 C 45.992188 40.285156 45.667969 40.316406 45.265625 40.28125 C 45.230469 41.148438 45.265625 41.992188 45.359375 42.820312 C 44.585938 44.410156 43.316406 45.320312 41.554688 45.554688 C 41.609375 45.121094 41.546875 44.730469 41.359375 44.382812 C 42.996094 44.050781 44.035156 43.074219 44.484375 41.453125 C 43.507812 41.453125 42.53125 41.453125 41.554688 41.453125 C 41.554688 41.0625 41.554688 40.671875 41.554688 40.28125 C 41.769531 40.3125 41.964844 40.28125 42.140625 40.1875 Z M 42.140625 40.1875 "/>
</g>
<mask id="mask53">
  <g filter="url(#alpha)">
<rect x="0" y="0" width="50" height="50" style="fill:rgb(0%,0%,0%);fill-opacity:0.945098;stroke:none;"/>
  </g>
</mask>
<clipPath id="clip54">
  <rect x="0" y="0" width="50" height="50"/>
</clipPath>
<g id="surface164" clip-path="url(#clip54)">
<path style=" stroke:none;fill-rule:evenodd;fill:rgb(98.823529%,77.254902%,10.196078%);fill-opacity:1;" d="M 11.085938 43.015625 C 11.625 43.53125 12.242188 43.921875 12.9375 44.1875 C 12.9375 44.613281 12.9375 45.035156 12.9375 45.460938 C 12.261719 45.332031 11.644531 45.070312 11.085938 44.679688 C 11.085938 44.125 11.085938 43.570312 11.085938 43.015625 Z M 11.085938 43.015625 "/>
</g>
<mask id="mask54">
  <g filter="url(#alpha)">
<rect x="0" y="0" width="50" height="50" style="fill:rgb(0%,0%,0%);fill-opacity:0.945098;stroke:none;"/>
  </g>
</mask>
<clipPath id="clip55">
  <rect x="0" y="0" width="50" height="50"/>
</clipPath>
<g id="surface167" clip-path="url(#clip55)">
<path style=" stroke:none;fill-rule:evenodd;fill:rgb(98.431373%,72.941176%,10.588235%);fill-opacity:1;" d="M 16.554688 43.703125 C 16.527344 44.167969 16.558594 44.621094 16.648438 45.070312 C 15.457031 45.648438 14.21875 45.777344 12.9375 45.460938 C 12.9375 45.035156 12.9375 44.613281 12.9375 44.1875 C 14.207031 44.503906 15.410156 44.34375 16.554688 43.703125 Z M 16.554688 43.703125 "/>
</g>
<mask id="mask55">
  <g filter="url(#alpha)">
<rect x="0" y="0" width="50" height="50" style="fill:rgb(0%,0%,0%);fill-opacity:0.972549;stroke:none;"/>
  </g>
</mask>
<clipPath id="clip56">
  <rect x="0" y="0" width="50" height="50"/>
</clipPath>
<g id="surface170" clip-path="url(#clip56)">
<path style=" stroke:none;fill-rule:evenodd;fill:rgb(95.294118%,40.392157%,12.54902%);fill-opacity:1;" d="M 39.40625 44.09375 C 40.039062 44.289062 40.691406 44.386719 41.359375 44.382812 C 41.546875 44.730469 41.609375 45.121094 41.554688 45.554688 C 40.8125 45.695312 40.097656 45.632812 39.40625 45.359375 C 39.40625 44.9375 39.40625 44.515625 39.40625 44.09375 Z M 39.40625 44.09375 "/>
</g>
</defs>
<g id="surface1">
<use xlink:href="#surface5" mask="url(#mask0)"/>
<use xlink:href="#surface8" mask="url(#mask1)"/>
<use xlink:href="#surface11" mask="url(#mask2)"/>
<use xlink:href="#surface14" mask="url(#mask3)"/>
<use xlink:href="#surface17" mask="url(#mask4)"/>
<use xlink:href="#surface20" mask="url(#mask5)"/>
<use xlink:href="#surface23" mask="url(#mask6)"/>
<use xlink:href="#surface26" mask="url(#mask7)"/>
<use xlink:href="#surface29" mask="url(#mask8)"/>
<use xlink:href="#surface32" mask="url(#mask9)"/>
<use xlink:href="#surface35" mask="url(#mask10)"/>
<use xlink:href="#surface38" mask="url(#mask11)"/>
<use xlink:href="#surface41" mask="url(#mask12)"/>
<use xlink:href="#surface44" mask="url(#mask13)"/>
<use xlink:href="#surface47" mask="url(#mask14)"/>
<use xlink:href="#surface50" mask="url(#mask15)"/>
<use xlink:href="#surface53" mask="url(#mask16)"/>
<use xlink:href="#surface56" mask="url(#mask17)"/>
<use xlink:href="#surface59" mask="url(#mask18)"/>
<use xlink:href="#surface62" mask="url(#mask19)"/>
<use xlink:href="#surface65" mask="url(#mask20)"/>
<use xlink:href="#surface68" mask="url(#mask21)"/>
<use xlink:href="#surface71" mask="url(#mask22)"/>
<use xlink:href="#surface74" mask="url(#mask23)"/>
<use xlink:href="#surface77" mask="url(#mask24)"/>
<use xlink:href="#surface80" mask="url(#mask25)"/>
<use xlink:href="#surface83" mask="url(#mask26)"/>
<use xlink:href="#surface86" mask="url(#mask27)"/>
<use xlink:href="#surface89" mask="url(#mask28)"/>
<use xlink:href="#surface92" mask="url(#mask29)"/>
<use xlink:href="#surface95" mask="url(#mask30)"/>
<use xlink:href="#surface98" mask="url(#mask31)"/>
<use xlink:href="#surface101" mask="url(#mask32)"/>
<use xlink:href="#surface104" mask="url(#mask33)"/>
<use xlink:href="#surface107" mask="url(#mask34)"/>
<use xlink:href="#surface110" mask="url(#mask35)"/>
<use xlink:href="#surface113" mask="url(#mask36)"/>
<use xlink:href="#surface116" mask="url(#mask37)"/>
<use xlink:href="#surface119" mask="url(#mask38)"/>
<use xlink:href="#surface122" mask="url(#mask39)"/>
<use xlink:href="#surface125" mask="url(#mask40)"/>
<use xlink:href="#surface128" mask="url(#mask41)"/>
<use xlink:href="#surface131" mask="url(#mask42)"/>
<use xlink:href="#surface134" mask="url(#mask43)"/>
<use xlink:href="#surface137" mask="url(#mask44)"/>
<use xlink:href="#surface140" mask="url(#mask45)"/>
<use xlink:href="#surface143" mask="url(#mask46)"/>
<use xlink:href="#surface146" mask="url(#mask47)"/>
<use xlink:href="#surface149" mask="url(#mask48)"/>
<use xlink:href="#surface152" mask="url(#mask49)"/>
<use xlink:href="#surface155" mask="url(#mask50)"/>
<use xlink:href="#surface158" mask="url(#mask51)"/>
<use xlink:href="#surface161" mask="url(#mask52)"/>
<use xlink:href="#surface164" mask="url(#mask53)"/>
<use xlink:href="#surface167" mask="url(#mask54)"/>
<use xlink:href="#surface170" mask="url(#mask55)"/>
</g>
</svg>
