<?xml version="1.0" encoding="UTF-8"?>
<svg xmlns="http://www.w3.org/2000/svg" xmlns:xlink="http://www.w3.org/1999/xlink" width="50px" height="50px" viewBox="0 0 50 50" version="1.1">
<defs>
<filter id="alpha" filterUnits="objectBoundingBox" x="0%" y="0%" width="100%" height="100%">
  <feColorMatrix type="matrix" in="SourceGraphic" values="0 0 0 0 1 0 0 0 0 1 0 0 0 0 1 0 0 0 1 0"/>
</filter>
<mask id="mask0">
  <g filter="url(#alpha)">
<rect x="0" y="0" width="50" height="50" style="fill:rgb(0%,0%,0%);fill-opacity:0.996078;stroke:none;"/>
  </g>
</mask>
<clipPath id="clip1">
  <rect x="0" y="0" width="50" height="50"/>
</clipPath>
<g id="surface5" clip-path="url(#clip1)">
<path style=" stroke:none;fill-rule:evenodd;fill:rgb(92.156863%,26.666667%,14.117647%);fill-opacity:1;" d="M 26.515625 1.414062 C 29.242188 4.292969 32.058594 7.15625 34.960938 10.007812 C 35.007812 10.066406 35.023438 10.132812 35.007812 10.203125 C 33.097656 9.925781 31.519531 9.046875 30.273438 7.570312 C 29.777344 6.867188 29.253906 6.183594 28.710938 5.515625 C 27.574219 4.089844 26.089844 3.472656 24.265625 3.664062 C 24.308594 3.589844 24.375 3.542969 24.460938 3.515625 C 23.824219 2.894531 23.207031 2.257812 22.609375 1.609375 C 23.675781 1.25 24.78125 1.136719 25.929688 1.269531 C 26.144531 1.289062 26.339844 1.335938 26.515625 1.414062 Z M 26.515625 1.414062 "/>
</g>
<mask id="mask1">
  <g filter="url(#alpha)">
<rect x="0" y="0" width="50" height="50" style="fill:rgb(0%,0%,0%);fill-opacity:0.984314;stroke:none;"/>
  </g>
</mask>
<clipPath id="clip2">
  <rect x="0" y="0" width="50" height="50"/>
</clipPath>
<g id="surface8" clip-path="url(#clip2)">
<path style=" stroke:none;fill-rule:evenodd;fill:rgb(92.941176%,32.156863%,13.333333%);fill-opacity:1;" d="M 22.609375 1.609375 C 23.207031 2.257812 23.824219 2.894531 24.460938 3.515625 C 24.375 3.542969 24.308594 3.589844 24.265625 3.664062 C 22.878906 3.945312 21.773438 4.660156 20.945312 5.8125 C 20.394531 5.226562 19.839844 4.640625 19.289062 4.054688 C 20.117188 2.863281 21.222656 2.050781 22.609375 1.609375 Z M 22.609375 1.609375 "/>
</g>
<mask id="mask2">
  <g filter="url(#alpha)">
<rect x="0" y="0" width="50" height="50" style="fill:rgb(0%,0%,0%);fill-opacity:0.980392;stroke:none;"/>
  </g>
</mask>
<clipPath id="clip3">
  <rect x="0" y="0" width="50" height="50"/>
</clipPath>
<g id="surface11" clip-path="url(#clip3)">
<path style=" stroke:none;fill-rule:evenodd;fill:rgb(93.72549%,36.862745%,12.54902%);fill-opacity:1;" d="M 19.289062 4.054688 C 19.839844 4.640625 20.394531 5.226562 20.945312 5.8125 C 20.207031 6.875 19.359375 7.851562 18.40625 8.742188 C 17.925781 8.09375 17.371094 7.507812 16.75 6.984375 C 16.996094 6.765625 17.238281 6.539062 17.480469 6.296875 C 18.03125 5.503906 18.632812 4.753906 19.289062 4.054688 Z M 19.289062 4.054688 "/>
</g>
<mask id="mask3">
  <g filter="url(#alpha)">
<rect x="0" y="0" width="50" height="50" style="fill:rgb(0%,0%,0%);fill-opacity:0.980392;stroke:none;"/>
  </g>
</mask>
<clipPath id="clip4">
  <rect x="0" y="0" width="50" height="50"/>
</clipPath>
<g id="surface14" clip-path="url(#clip4)">
<path style=" stroke:none;fill-rule:evenodd;fill:rgb(94.117647%,40%,11.764706%);fill-opacity:1;" d="M 16.75 6.984375 C 17.371094 7.507812 17.925781 8.09375 18.40625 8.742188 C 17.847656 9.25 17.199219 9.605469 16.453125 9.8125 C 15.796875 9.15625 15.179688 8.472656 14.601562 7.765625 C 15.371094 7.636719 16.085938 7.378906 16.75 6.984375 Z M 16.75 6.984375 "/>
</g>
<mask id="mask4">
  <g filter="url(#alpha)">
<rect x="0" y="0" width="50" height="50" style="fill:rgb(0%,0%,0%);fill-opacity:0.964706;stroke:none;"/>
  </g>
</mask>
<clipPath id="clip5">
  <rect x="0" y="0" width="50" height="50"/>
</clipPath>
<g id="surface17" clip-path="url(#clip5)">
<path style=" stroke:none;fill-rule:evenodd;fill:rgb(91.764706%,23.921569%,14.901961%);fill-opacity:1;" d="M 26.515625 1.414062 C 27.648438 1.625 28.65625 2.097656 29.539062 2.832031 C 30.582031 3.925781 31.542969 5.082031 32.421875 6.296875 C 33.75 7.558594 35.328125 8.046875 37.15625 7.765625 C 37.117188 7.835938 37.050781 7.882812 36.960938 7.910156 C 37.765625 8.695312 38.546875 9.492188 39.304688 10.304688 C 37.878906 10.210938 36.445312 10.175781 35.007812 10.203125 C 35.023438 10.132812 35.007812 10.066406 34.960938 10.007812 C 32.058594 7.15625 29.242188 4.292969 26.515625 1.414062 Z M 26.515625 1.414062 "/>
</g>
<mask id="mask5">
  <g filter="url(#alpha)">
<rect x="0" y="0" width="50" height="50" style="fill:rgb(0%,0%,0%);fill-opacity:0.968627;stroke:none;"/>
  </g>
</mask>
<clipPath id="clip6">
  <rect x="0" y="0" width="50" height="50"/>
</clipPath>
<g id="surface20" clip-path="url(#clip6)">
<path style=" stroke:none;fill-rule:evenodd;fill:rgb(94.509804%,45.098039%,10.980392%);fill-opacity:1;" d="M 11.960938 7.765625 C 11.953125 7.824219 11.917969 7.871094 11.867188 7.910156 C 12.582031 8.625 13.296875 9.34375 14.015625 10.058594 C 14.199219 10.078125 14.359375 10.125 14.5 10.203125 C 13.429688 10.203125 12.351562 10.203125 11.28125 10.203125 C 11.289062 10.144531 11.324219 10.097656 11.375 10.058594 C 10.707031 9.402344 10.054688 8.738281 9.421875 8.054688 C 10.253906 7.847656 11.097656 7.75 11.960938 7.765625 Z M 11.960938 7.765625 "/>
</g>
<mask id="mask6">
  <g filter="url(#alpha)">
<rect x="0" y="0" width="50" height="50" style="fill:rgb(0%,0%,0%);fill-opacity:0.968627;stroke:none;"/>
  </g>
</mask>
<clipPath id="clip7">
  <rect x="0" y="0" width="50" height="50"/>
</clipPath>
<g id="surface23" clip-path="url(#clip7)">
<path style=" stroke:none;fill-rule:evenodd;fill:rgb(94.117647%,42.745098%,11.372549%);fill-opacity:1;" d="M 11.960938 7.765625 C 12.84375 7.765625 13.71875 7.765625 14.601562 7.765625 C 15.179688 8.472656 15.796875 9.15625 16.453125 9.8125 C 15.828125 10.058594 15.179688 10.1875 14.5 10.203125 C 14.359375 10.125 14.199219 10.078125 14.015625 10.058594 C 13.296875 9.34375 12.582031 8.625 11.867188 7.910156 C 11.917969 7.871094 11.953125 7.824219 11.960938 7.765625 Z M 11.960938 7.765625 "/>
</g>
<mask id="mask7">
  <g filter="url(#alpha)">
<rect x="0" y="0" width="50" height="50" style="fill:rgb(0%,0%,0%);fill-opacity:0.976471;stroke:none;"/>
  </g>
</mask>
<clipPath id="clip8">
  <rect x="0" y="0" width="50" height="50"/>
</clipPath>
<g id="surface26" clip-path="url(#clip8)">
<path style=" stroke:none;fill-rule:evenodd;fill:rgb(91.372549%,20%,15.294118%);fill-opacity:1;" d="M 37.15625 7.765625 C 41.117188 7.40625 43.867188 9.03125 45.410156 12.648438 C 45.839844 14.023438 45.855469 15.390625 45.460938 16.75 C 45.472656 16.613281 45.457031 16.484375 45.410156 16.359375 C 44.722656 15.652344 44.023438 14.96875 43.3125 14.304688 C 42.945312 12.589844 41.96875 11.335938 40.382812 10.546875 C 40.03125 10.417969 39.675781 10.335938 39.304688 10.304688 C 38.546875 9.492188 37.765625 8.695312 36.960938 7.910156 C 37.050781 7.882812 37.117188 7.835938 37.15625 7.765625 Z M 37.15625 7.765625 "/>
</g>
<mask id="mask8">
  <g filter="url(#alpha)">
<rect x="0" y="0" width="50" height="50" style="fill:rgb(0%,0%,0%);fill-opacity:0.976471;stroke:none;"/>
  </g>
</mask>
<clipPath id="clip9">
  <rect x="0" y="0" width="50" height="50"/>
</clipPath>
<g id="surface29" clip-path="url(#clip9)">
<path style=" stroke:none;fill-rule:evenodd;fill:rgb(94.901961%,47.45098%,10.588235%);fill-opacity:1;" d="M 9.421875 8.054688 C 10.054688 8.738281 10.707031 9.402344 11.375 10.058594 C 11.324219 10.097656 11.289062 10.144531 11.28125 10.203125 C 10.558594 10.234375 9.875 10.394531 9.226562 10.695312 C 8.765625 10.082031 8.246094 9.515625 7.664062 8.984375 C 7.574219 8.9375 7.476562 8.921875 7.375 8.9375 C 7.992188 8.511719 8.675781 8.21875 9.421875 8.054688 Z M 9.421875 8.054688 "/>
</g>
<mask id="mask9">
  <g filter="url(#alpha)">
<rect x="0" y="0" width="50" height="50" style="fill:rgb(0%,0%,0%);fill-opacity:0.980392;stroke:none;"/>
  </g>
</mask>
<clipPath id="clip10">
  <rect x="0" y="0" width="50" height="50"/>
</clipPath>
<g id="surface32" clip-path="url(#clip10)">
<path style=" stroke:none;fill-rule:evenodd;fill:rgb(95.294118%,50.588235%,10.196078%);fill-opacity:1;" d="M 7.375 8.9375 C 7.476562 8.921875 7.574219 8.9375 7.664062 8.984375 C 8.246094 9.515625 8.765625 10.082031 9.226562 10.695312 C 8.628906 11.023438 8.109375 11.449219 7.664062 11.960938 C 7.054688 11.5 6.488281 10.980469 5.957031 10.398438 C 5.890625 10.472656 5.808594 10.507812 5.710938 10.5 C 6.140625 9.84375 6.695312 9.320312 7.375 8.9375 Z M 7.375 8.9375 "/>
</g>
<mask id="mask10">
  <g filter="url(#alpha)">
<rect x="0" y="0" width="50" height="50" style="fill:rgb(0%,0%,0%);fill-opacity:0.980392;stroke:none;"/>
  </g>
</mask>
<clipPath id="clip11">
  <rect x="0" y="0" width="50" height="50"/>
</clipPath>
<g id="surface35" clip-path="url(#clip11)">
<path style=" stroke:none;fill-rule:evenodd;fill:rgb(95.686275%,52.54902%,9.803922%);fill-opacity:1;" d="M 7.664062 11.960938 C 7.214844 12.511719 6.886719 13.128906 6.6875 13.820312 C 6.039062 13.234375 5.421875 12.613281 4.835938 11.960938 C 5.054688 11.425781 5.347656 10.9375 5.710938 10.5 C 5.808594 10.507812 5.890625 10.472656 5.957031 10.398438 C 6.488281 10.980469 7.054688 11.5 7.664062 11.960938 Z M 7.664062 11.960938 "/>
</g>
<mask id="mask11">
  <g filter="url(#alpha)">
<rect x="0" y="0" width="50" height="50" style="fill:rgb(0%,0%,0%);fill-opacity:0.984314;stroke:none;"/>
  </g>
</mask>
<clipPath id="clip12">
  <rect x="0" y="0" width="50" height="50"/>
</clipPath>
<g id="surface38" clip-path="url(#clip12)">
<path style=" stroke:none;fill-rule:evenodd;fill:rgb(96.078431%,54.901961%,9.411765%);fill-opacity:1;" d="M 4.835938 11.960938 C 5.421875 12.613281 6.039062 13.234375 6.6875 13.820312 C 6.554688 14.777344 6.617188 15.71875 6.882812 16.648438 C 6.007812 15.804688 5.125 14.957031 4.25 14.109375 C 4.261719 13.335938 4.457031 12.617188 4.835938 11.960938 Z M 4.835938 11.960938 "/>
</g>
<mask id="mask12">
  <g filter="url(#alpha)">
<rect x="0" y="0" width="50" height="50" style="fill:rgb(0%,0%,0%);fill-opacity:0.976471;stroke:none;"/>
  </g>
</mask>
<clipPath id="clip13">
  <rect x="0" y="0" width="50" height="50"/>
</clipPath>
<g id="surface41" clip-path="url(#clip13)">
<path style=" stroke:none;fill-rule:evenodd;fill:rgb(96.078431%,57.254902%,9.019608%);fill-opacity:1;" d="M 4.25 14.109375 C 5.125 14.957031 6.007812 15.804688 6.882812 16.648438 C 7.222656 17.765625 7.449219 18.90625 7.570312 20.070312 C 6.578125 19.128906 5.601562 18.167969 4.640625 17.1875 C 4.582031 17.140625 4.515625 17.125 4.445312 17.140625 C 4.308594 16.347656 4.210938 15.550781 4.148438 14.746094 C 4.152344 14.515625 4.183594 14.304688 4.25 14.109375 Z M 4.25 14.109375 "/>
</g>
<mask id="mask13">
  <g filter="url(#alpha)">
<rect x="0" y="0" width="50" height="50" style="fill:rgb(0%,0%,0%);fill-opacity:0.976471;stroke:none;"/>
  </g>
</mask>
<clipPath id="clip14">
  <rect x="0" y="0" width="50" height="50"/>
</clipPath>
<g id="surface44" clip-path="url(#clip14)">
<path style=" stroke:none;fill-rule:evenodd;fill:rgb(94.901961%,47.45098%,10.588235%);fill-opacity:1;" d="M 16.164062 14.796875 C 17.832031 16.464844 19.457031 18.15625 21.046875 19.875 C 20.964844 20.523438 20.738281 21.109375 20.359375 21.632812 C 19.707031 21.042969 19.089844 20.421875 18.507812 19.773438 C 18.601562 17.953125 17.722656 17.105469 15.867188 17.234375 C 15.316406 16.617188 14.730469 16.03125 14.109375 15.476562 C 14.710938 15.039062 15.394531 14.8125 16.164062 14.796875 Z M 16.164062 14.796875 "/>
</g>
<mask id="mask14">
  <g filter="url(#alpha)">
<rect x="0" y="0" width="50" height="50" style="fill:rgb(0%,0%,0%);fill-opacity:0.968627;stroke:none;"/>
  </g>
</mask>
<clipPath id="clip15">
  <rect x="0" y="0" width="50" height="50"/>
</clipPath>
<g id="surface47" clip-path="url(#clip15)">
<path style=" stroke:none;fill-rule:evenodd;fill:rgb(94.901961%,45.490196%,10.980392%);fill-opacity:1;" d="M 16.164062 14.796875 C 19.410156 14.917969 21.039062 16.609375 21.046875 19.875 C 19.457031 18.15625 17.832031 16.464844 16.164062 14.796875 Z M 16.164062 14.796875 "/>
</g>
<mask id="mask15">
  <g filter="url(#alpha)">
<rect x="0" y="0" width="50" height="50" style="fill:rgb(0%,0%,0%);fill-opacity:0.980392;stroke:none;"/>
  </g>
</mask>
<clipPath id="clip16">
  <rect x="0" y="0" width="50" height="50"/>
</clipPath>
<g id="surface50" clip-path="url(#clip16)">
<path style=" stroke:none;fill-rule:evenodd;fill:rgb(95.294118%,50.196078%,10.196078%);fill-opacity:1;" d="M 14.109375 15.476562 C 14.730469 16.03125 15.316406 16.617188 15.867188 17.234375 C 15.09375 17.585938 14.605469 18.171875 14.40625 18.992188 C 13.894531 18.339844 13.328125 17.71875 12.695312 17.140625 C 12.648438 17.046875 12.632812 16.949219 12.648438 16.84375 C 13.011719 16.253906 13.5 15.796875 14.109375 15.476562 Z M 14.109375 15.476562 "/>
</g>
<mask id="mask16">
  <g filter="url(#alpha)">
<rect x="0" y="0" width="50" height="50" style="fill:rgb(0%,0%,0%);fill-opacity:0.976471;stroke:none;"/>
  </g>
</mask>
<clipPath id="clip17">
  <rect x="0" y="0" width="50" height="50"/>
</clipPath>
<g id="surface53" clip-path="url(#clip17)">
<path style=" stroke:none;fill-rule:evenodd;fill:rgb(93.72549%,37.647059%,12.156863%);fill-opacity:1;" d="M 29.539062 19.773438 C 28.988281 19.15625 28.402344 18.570312 27.78125 18.015625 C 28.007812 17.554688 28.332031 17.183594 28.757812 16.894531 C 29.945312 16.644531 30.511719 17.117188 30.46875 18.3125 C 30.253906 18.867188 29.945312 19.355469 29.539062 19.773438 Z M 29.539062 19.773438 "/>
</g>
<mask id="mask17">
  <g filter="url(#alpha)">
<rect x="0" y="0" width="50" height="50" style="fill:rgb(0%,0%,0%);fill-opacity:0.984314;stroke:none;"/>
  </g>
</mask>
<clipPath id="clip18">
  <rect x="0" y="0" width="50" height="50"/>
</clipPath>
<g id="surface56" clip-path="url(#clip18)">
<path style=" stroke:none;fill-rule:evenodd;fill:rgb(95.686275%,52.941176%,9.803922%);fill-opacity:1;" d="M 12.648438 16.84375 C 12.632812 16.949219 12.648438 17.046875 12.695312 17.140625 C 13.328125 17.71875 13.894531 18.339844 14.40625 18.992188 C 14.414062 20.664062 15.261719 21.480469 16.945312 21.4375 C 17.5625 22.023438 18.179688 22.609375 18.796875 23.195312 C 18.132812 23.644531 17.382812 23.875 16.554688 23.875 C 15.09375 22.253906 13.5625 20.691406 11.960938 19.1875 C 11.917969 18.320312 12.148438 17.539062 12.648438 16.84375 Z M 12.648438 16.84375 "/>
</g>
<mask id="mask18">
  <g filter="url(#alpha)">
<rect x="0" y="0" width="50" height="50" style="fill:rgb(0%,0%,0%);fill-opacity:0.976471;stroke:none;"/>
  </g>
</mask>
<clipPath id="clip19">
  <rect x="0" y="0" width="50" height="50"/>
</clipPath>
<g id="surface59" clip-path="url(#clip19)">
<path style=" stroke:none;fill-rule:evenodd;fill:rgb(96.470588%,60%,8.627451%);fill-opacity:1;" d="M 4.445312 17.140625 C 4.515625 17.125 4.582031 17.140625 4.640625 17.1875 C 5.601562 18.167969 6.578125 19.128906 7.570312 20.070312 C 7.570312 21.066406 7.375 22.007812 6.984375 22.898438 C 6.996094 22.796875 6.980469 22.699219 6.933594 22.609375 C 6.339844 21.964844 5.703125 21.378906 5.03125 20.851562 C 5.085938 19.578125 4.890625 18.339844 4.445312 17.140625 Z M 4.445312 17.140625 "/>
</g>
<mask id="mask19">
  <g filter="url(#alpha)">
<rect x="0" y="0" width="50" height="50" style="fill:rgb(0%,0%,0%);fill-opacity:0.988235;stroke:none;"/>
  </g>
</mask>
<clipPath id="clip20">
  <rect x="0" y="0" width="50" height="50"/>
</clipPath>
<g id="surface62" clip-path="url(#clip20)">
<path style=" stroke:none;fill-rule:evenodd;fill:rgb(92.156863%,24.705882%,14.509804%);fill-opacity:1;" d="M 43.3125 14.304688 C 44.023438 14.96875 44.722656 15.652344 45.410156 16.359375 C 45.457031 16.484375 45.472656 16.613281 45.460938 16.75 C 45.261719 17.757812 45.050781 18.769531 44.824219 19.773438 C 44.785156 20.265625 44.800781 20.753906 44.875 21.242188 C 44.09375 20.425781 43.3125 19.613281 42.53125 18.796875 C 42.726562 17.851562 42.9375 16.910156 43.164062 15.96875 C 43.265625 15.417969 43.3125 14.863281 43.3125 14.304688 Z M 43.3125 14.304688 "/>
</g>
<mask id="mask20">
  <g filter="url(#alpha)">
<rect x="0" y="0" width="50" height="50" style="fill:rgb(0%,0%,0%);fill-opacity:0.976471;stroke:none;"/>
  </g>
</mask>
<clipPath id="clip21">
  <rect x="0" y="0" width="50" height="50"/>
</clipPath>
<g id="surface65" clip-path="url(#clip21)">
<path style=" stroke:none;fill-rule:evenodd;fill:rgb(94.117647%,40.392157%,11.764706%);fill-opacity:1;" d="M 27.78125 18.015625 C 28.402344 18.570312 28.988281 19.15625 29.539062 19.773438 C 29.207031 20.34375 28.847656 20.898438 28.46875 21.4375 C 28.371094 21.425781 28.289062 21.460938 28.222656 21.53125 C 27.664062 20.992188 27.128906 20.4375 26.609375 19.875 C 26.976562 19.242188 27.367188 18.621094 27.78125 18.015625 Z M 27.78125 18.015625 "/>
</g>
<mask id="mask21">
  <g filter="url(#alpha)">
<rect x="0" y="0" width="50" height="50" style="fill:rgb(0%,0%,0%);fill-opacity:0.976471;stroke:none;"/>
  </g>
</mask>
<clipPath id="clip22">
  <rect x="0" y="0" width="50" height="50"/>
</clipPath>
<g id="surface68" clip-path="url(#clip22)">
<path style=" stroke:none;fill-rule:evenodd;fill:rgb(92.54902%,28.235294%,14.117647%);fill-opacity:1;" d="M 42.53125 18.796875 C 43.3125 19.613281 44.09375 20.425781 44.875 21.242188 C 45.074219 21.902344 45.382812 22.523438 45.800781 23.09375 C 46.625 23.984375 47.371094 24.925781 48.046875 25.929688 C 48.410156 26.542969 48.6875 27.195312 48.875 27.882812 C 46.761719 25.796875 44.644531 23.714844 42.53125 21.632812 C 42.269531 20.6875 42.269531 19.742188 42.53125 18.796875 Z M 42.53125 18.796875 "/>
</g>
<mask id="mask22">
  <g filter="url(#alpha)">
<rect x="0" y="0" width="50" height="50" style="fill:rgb(0%,0%,0%);fill-opacity:0.956863;stroke:none;"/>
  </g>
</mask>
<clipPath id="clip23">
  <rect x="0" y="0" width="50" height="50"/>
</clipPath>
<g id="surface71" clip-path="url(#clip23)">
<path style=" stroke:none;fill-rule:evenodd;fill:rgb(96.078431%,54.901961%,9.411765%);fill-opacity:1;" d="M 11.960938 19.1875 C 13.5625 20.691406 15.09375 22.253906 16.554688 23.875 C 13.617188 23.644531 12.089844 22.082031 11.960938 19.1875 Z M 11.960938 19.1875 "/>
</g>
<mask id="mask23">
  <g filter="url(#alpha)">
<rect x="0" y="0" width="50" height="50" style="fill:rgb(0%,0%,0%);fill-opacity:0.976471;stroke:none;"/>
  </g>
</mask>
<clipPath id="clip24">
  <rect x="0" y="0" width="50" height="50"/>
</clipPath>
<g id="surface74" clip-path="url(#clip24)">
<path style=" stroke:none;fill-rule:evenodd;fill:rgb(95.294118%,50.196078%,10.196078%);fill-opacity:1;" d="M 18.507812 19.773438 C 19.089844 20.421875 19.707031 21.042969 20.359375 21.632812 C 20.003906 22.3125 19.484375 22.835938 18.796875 23.195312 C 18.179688 22.609375 17.5625 22.023438 16.945312 21.4375 C 17.765625 21.167969 18.285156 20.613281 18.507812 19.773438 Z M 18.507812 19.773438 "/>
</g>
<mask id="mask24">
  <g filter="url(#alpha)">
<rect x="0" y="0" width="50" height="50" style="fill:rgb(0%,0%,0%);fill-opacity:0.972549;stroke:none;"/>
  </g>
</mask>
<clipPath id="clip25">
  <rect x="0" y="0" width="50" height="50"/>
</clipPath>
<g id="surface77" clip-path="url(#clip25)">
<path style=" stroke:none;fill-rule:evenodd;fill:rgb(94.509804%,42.745098%,11.372549%);fill-opacity:1;" d="M 26.609375 19.875 C 27.128906 20.4375 27.664062 20.992188 28.222656 21.53125 C 28.289062 21.460938 28.371094 21.425781 28.46875 21.4375 C 28.066406 22.070312 27.644531 22.6875 27.195312 23.289062 C 26.648438 22.675781 26.0625 22.089844 25.4375 21.53125 C 25.757812 20.925781 26.148438 20.371094 26.609375 19.875 Z M 26.609375 19.875 "/>
</g>
<mask id="mask25">
  <g filter="url(#alpha)">
<rect x="0" y="0" width="50" height="50" style="fill:rgb(0%,0%,0%);fill-opacity:0.972549;stroke:none;"/>
  </g>
</mask>
<clipPath id="clip26">
  <rect x="0" y="0" width="50" height="50"/>
</clipPath>
<g id="surface80" clip-path="url(#clip26)">
<path style=" stroke:none;fill-rule:evenodd;fill:rgb(96.862745%,62.352941%,7.843137%);fill-opacity:1;" d="M 5.03125 20.851562 C 5.703125 21.378906 6.339844 21.964844 6.933594 22.609375 C 6.980469 22.699219 6.996094 22.796875 6.984375 22.898438 C 6.796875 23.433594 6.539062 23.921875 6.203125 24.367188 C 5.554688 23.851562 4.9375 23.296875 4.34375 22.703125 C 4.710938 22.140625 4.9375 21.519531 5.03125 20.851562 Z M 5.03125 20.851562 "/>
</g>
<mask id="mask26">
  <g filter="url(#alpha)">
<rect x="0" y="0" width="50" height="50" style="fill:rgb(0%,0%,0%);fill-opacity:0.972549;stroke:none;"/>
  </g>
</mask>
<clipPath id="clip27">
  <rect x="0" y="0" width="50" height="50"/>
</clipPath>
<g id="surface83" clip-path="url(#clip27)">
<path style=" stroke:none;fill-rule:evenodd;fill:rgb(94.509804%,45.098039%,10.980392%);fill-opacity:1;" d="M 25.4375 21.53125 C 26.0625 22.089844 26.648438 22.675781 27.195312 23.289062 C 26.839844 23.816406 26.480469 24.335938 26.125 24.851562 C 25.53125 24.261719 24.976562 23.644531 24.460938 23 C 24.765625 22.488281 25.089844 22 25.4375 21.53125 Z M 25.4375 21.53125 "/>
</g>
<mask id="mask27">
  <g filter="url(#alpha)">
<rect x="0" y="0" width="50" height="50" style="fill:rgb(0%,0%,0%);fill-opacity:0.980392;stroke:none;"/>
  </g>
</mask>
<clipPath id="clip28">
  <rect x="0" y="0" width="50" height="50"/>
</clipPath>
<g id="surface86" clip-path="url(#clip28)">
<path style=" stroke:none;fill-rule:evenodd;fill:rgb(92.941176%,30.196078%,13.72549%);fill-opacity:1;" d="M 42.53125 21.632812 C 44.644531 23.714844 46.761719 25.796875 48.875 27.882812 C 49.097656 28.914062 49.128906 29.953125 48.976562 31.007812 C 48.164062 30.328125 47.382812 29.613281 46.632812 28.859375 C 46.503906 28.308594 46.289062 27.785156 45.996094 27.296875 C 45.117188 26.15625 44.238281 25.015625 43.359375 23.875 C 42.9375 23.179688 42.660156 22.429688 42.53125 21.632812 Z M 42.53125 21.632812 "/>
</g>
<mask id="mask28">
  <g filter="url(#alpha)">
<rect x="0" y="0" width="50" height="50" style="fill:rgb(0%,0%,0%);fill-opacity:0.976471;stroke:none;"/>
  </g>
</mask>
<clipPath id="clip29">
  <rect x="0" y="0" width="50" height="50"/>
</clipPath>
<g id="surface89" clip-path="url(#clip29)">
<path style=" stroke:none;fill-rule:evenodd;fill:rgb(97.254902%,65.098039%,7.45098%);fill-opacity:1;" d="M 4.34375 22.703125 C 4.9375 23.296875 5.554688 23.851562 6.203125 24.367188 C 5.414062 25.285156 4.664062 26.226562 3.953125 27.195312 C 3.96875 27.0625 3.953125 26.933594 3.90625 26.804688 C 3.382812 26.296875 2.878906 25.777344 2.390625 25.242188 C 3.007812 24.371094 3.65625 23.523438 4.34375 22.703125 Z M 4.34375 22.703125 "/>
</g>
<mask id="mask29">
  <g filter="url(#alpha)">
<rect x="0" y="0" width="50" height="50" style="fill:rgb(0%,0%,0%);fill-opacity:0.968627;stroke:none;"/>
  </g>
</mask>
<clipPath id="clip30">
  <rect x="0" y="0" width="50" height="50"/>
</clipPath>
<g id="surface92" clip-path="url(#clip30)">
<path style=" stroke:none;fill-rule:evenodd;fill:rgb(94.901961%,47.45098%,10.588235%);fill-opacity:1;" d="M 24.460938 23 C 24.976562 23.644531 25.53125 24.261719 26.125 24.851562 C 25.765625 25.378906 25.40625 25.898438 25.046875 26.414062 C 24.523438 25.792969 23.9375 25.238281 23.289062 24.757812 C 23.632812 24.136719 24.023438 23.550781 24.460938 23 Z M 24.460938 23 "/>
</g>
<mask id="mask30">
  <g filter="url(#alpha)">
<rect x="0" y="0" width="50" height="50" style="fill:rgb(0%,0%,0%);fill-opacity:0.980392;stroke:none;"/>
  </g>
</mask>
<clipPath id="clip31">
  <rect x="0" y="0" width="50" height="50"/>
</clipPath>
<g id="surface95" clip-path="url(#clip31)">
<path style=" stroke:none;fill-rule:evenodd;fill:rgb(95.294118%,49.803922%,10.196078%);fill-opacity:1;" d="M 23.289062 24.757812 C 23.9375 25.238281 24.523438 25.792969 25.046875 26.414062 C 24.691406 27.03125 24.300781 27.617188 23.875 28.171875 C 23.230469 27.691406 22.644531 27.136719 22.117188 26.515625 C 22.460938 25.894531 22.851562 25.308594 23.289062 24.757812 Z M 23.289062 24.757812 "/>
</g>
<mask id="mask31">
  <g filter="url(#alpha)">
<rect x="0" y="0" width="50" height="50" style="fill:rgb(0%,0%,0%);fill-opacity:0.976471;stroke:none;"/>
  </g>
</mask>
<clipPath id="clip32">
  <rect x="0" y="0" width="50" height="50"/>
</clipPath>
<g id="surface98" clip-path="url(#clip32)">
<path style=" stroke:none;fill-rule:evenodd;fill:rgb(97.647059%,69.019608%,6.666667%);fill-opacity:1;" d="M 2.390625 25.242188 C 2.878906 25.777344 3.382812 26.296875 3.90625 26.804688 C 3.953125 26.933594 3.96875 27.0625 3.953125 27.195312 C 3.40625 28.058594 3.179688 29.003906 3.273438 30.03125 C 2.488281 29.3125 1.738281 28.5625 1.023438 27.78125 C 1.28125 26.816406 1.734375 25.972656 2.390625 25.242188 Z M 2.390625 25.242188 "/>
</g>
<mask id="mask32">
  <g filter="url(#alpha)">
<rect x="0" y="0" width="50" height="50" style="fill:rgb(0%,0%,0%);fill-opacity:0.980392;stroke:none;"/>
  </g>
</mask>
<clipPath id="clip33">
  <rect x="0" y="0" width="50" height="50"/>
</clipPath>
<g id="surface101" clip-path="url(#clip33)">
<path style=" stroke:none;fill-rule:evenodd;fill:rgb(95.686275%,52.941176%,9.803922%);fill-opacity:1;" d="M 22.117188 26.515625 C 22.644531 27.136719 23.230469 27.691406 23.875 28.171875 C 23.421875 28.859375 22.964844 29.539062 22.507812 30.226562 C 21.917969 29.632812 21.300781 29.078125 20.65625 28.5625 C 21.109375 27.851562 21.597656 27.167969 22.117188 26.515625 Z M 22.117188 26.515625 "/>
</g>
<mask id="mask33">
  <g filter="url(#alpha)">
<rect x="0" y="0" width="50" height="50" style="fill:rgb(0%,0%,0%);fill-opacity:0.980392;stroke:none;"/>
  </g>
</mask>
<clipPath id="clip34">
  <rect x="0" y="0" width="50" height="50"/>
</clipPath>
<g id="surface104" clip-path="url(#clip34)">
<path style=" stroke:none;fill-rule:evenodd;fill:rgb(94.509804%,44.705882%,10.980392%);fill-opacity:1;" d="M 35.789062 34.421875 C 35.140625 33.804688 34.488281 33.1875 33.835938 32.570312 C 33.867188 31.632812 33.476562 30.933594 32.664062 30.46875 C 32.292969 30.296875 31.902344 30.214844 31.492188 30.226562 C 30.929688 29.609375 30.34375 29.007812 29.734375 28.417969 C 29.789062 28.378906 29.824219 28.332031 29.835938 28.273438 C 31.953125 27.40625 33.792969 27.828125 35.351562 29.539062 C 36.40625 31.09375 36.550781 32.722656 35.789062 34.421875 Z M 35.789062 34.421875 "/>
</g>
<mask id="mask34">
  <g filter="url(#alpha)">
<rect x="0" y="0" width="50" height="50" style="fill:rgb(0%,0%,0%);fill-opacity:0.984314;stroke:none;"/>
  </g>
</mask>
<clipPath id="clip35">
  <rect x="0" y="0" width="50" height="50"/>
</clipPath>
<g id="surface107" clip-path="url(#clip35)">
<path style=" stroke:none;fill-rule:evenodd;fill:rgb(98.039216%,72.156863%,6.27451%);fill-opacity:1;" d="M 1.023438 27.78125 C 1.738281 28.5625 2.488281 29.3125 3.273438 30.03125 C 3.398438 31.339844 3.949219 32.429688 4.929688 33.300781 C 6.402344 34.132812 7.898438 34.914062 9.421875 35.644531 C 10.621094 36.550781 11.484375 37.703125 12.011719 39.109375 C 12.28125 40.109375 12.492188 41.117188 12.648438 42.140625 C 11.527344 41.066406 10.421875 39.976562 9.328125 38.867188 C 9.269531 38.820312 9.203125 38.804688 9.132812 38.820312 C 8.742188 38.363281 8.316406 37.9375 7.859375 37.546875 C 5.652344 35.191406 3.355469 32.847656 0.976562 30.515625 C 0.929688 30.574219 0.914062 30.640625 0.929688 30.710938 C 0.785156 29.742188 0.816406 28.765625 1.023438 27.78125 Z M 1.023438 27.78125 "/>
</g>
<mask id="mask35">
  <g filter="url(#alpha)">
<rect x="0" y="0" width="50" height="50" style="fill:rgb(0%,0%,0%);fill-opacity:0.976471;stroke:none;"/>
  </g>
</mask>
<clipPath id="clip36">
  <rect x="0" y="0" width="50" height="50"/>
</clipPath>
<g id="surface110" clip-path="url(#clip36)">
<path style=" stroke:none;fill-rule:evenodd;fill:rgb(94.901961%,47.45098%,10.588235%);fill-opacity:1;" d="M 29.835938 28.273438 C 29.824219 28.332031 29.789062 28.378906 29.734375 28.417969 C 30.34375 29.007812 30.929688 29.609375 31.492188 30.226562 C 30.84375 30.355469 30.324219 30.683594 29.929688 31.203125 C 29.34375 30.644531 28.757812 30.089844 28.171875 29.539062 C 28.585938 28.929688 29.140625 28.507812 29.835938 28.273438 Z M 29.835938 28.273438 "/>
</g>
<mask id="mask36">
  <g filter="url(#alpha)">
<rect x="0" y="0" width="50" height="50" style="fill:rgb(0%,0%,0%);fill-opacity:0.976471;stroke:none;"/>
  </g>
</mask>
<clipPath id="clip37">
  <rect x="0" y="0" width="50" height="50"/>
</clipPath>
<g id="surface113" clip-path="url(#clip37)">
<path style=" stroke:none;fill-rule:evenodd;fill:rgb(96.078431%,55.294118%,9.019608%);fill-opacity:1;" d="M 20.65625 28.5625 C 21.300781 29.078125 21.917969 29.632812 22.507812 30.226562 C 22.238281 30.667969 21.945312 31.089844 21.632812 31.492188 C 21.078125 30.875 20.492188 30.289062 19.875 29.734375 C 20.132812 29.34375 20.394531 28.953125 20.65625 28.5625 Z M 20.65625 28.5625 "/>
</g>
<mask id="mask37">
  <g filter="url(#alpha)">
<rect x="0" y="0" width="50" height="50" style="fill:rgb(0%,0%,0%);fill-opacity:0.976471;stroke:none;"/>
  </g>
</mask>
<clipPath id="clip38">
  <rect x="0" y="0" width="50" height="50"/>
</clipPath>
<g id="surface116" clip-path="url(#clip38)">
<path style=" stroke:none;fill-rule:evenodd;fill:rgb(95.294118%,50.196078%,10.196078%);fill-opacity:1;" d="M 28.171875 29.539062 C 28.757812 30.089844 29.34375 30.644531 29.929688 31.203125 C 29.285156 32.855469 29.804688 33.945312 31.492188 34.472656 C 31.9375 34.5 32.359375 34.417969 32.765625 34.226562 C 33.445312 34.71875 34.03125 35.304688 34.523438 35.984375 C 33.921875 36.464844 33.238281 36.757812 32.46875 36.867188 C 30.714844 35.144531 28.957031 33.417969 27.195312 31.6875 C 27.316406 30.871094 27.644531 30.152344 28.171875 29.539062 Z M 28.171875 29.539062 "/>
</g>
<mask id="mask38">
  <g filter="url(#alpha)">
<rect x="0" y="0" width="50" height="50" style="fill:rgb(0%,0%,0%);fill-opacity:0.972549;stroke:none;"/>
  </g>
</mask>
<clipPath id="clip39">
  <rect x="0" y="0" width="50" height="50"/>
</clipPath>
<g id="surface119" clip-path="url(#clip39)">
<path style=" stroke:none;fill-rule:evenodd;fill:rgb(96.078431%,57.254902%,9.019608%);fill-opacity:1;" d="M 19.875 29.734375 C 20.492188 30.289062 21.078125 30.875 21.632812 31.492188 C 21.273438 32.019531 20.914062 32.539062 20.554688 33.054688 C 19.96875 32.503906 19.382812 31.949219 18.796875 31.398438 C 19.117188 30.820312 19.472656 30.265625 19.875 29.734375 Z M 19.875 29.734375 "/>
</g>
<mask id="mask39">
  <g filter="url(#alpha)">
<rect x="0" y="0" width="50" height="50" style="fill:rgb(0%,0%,0%);fill-opacity:0.968627;stroke:none;"/>
  </g>
</mask>
<clipPath id="clip40">
  <rect x="0" y="0" width="50" height="50"/>
</clipPath>
<g id="surface122" clip-path="url(#clip40)">
<path style=" stroke:none;fill-rule:evenodd;fill:rgb(98.431373%,74.117647%,5.882353%);fill-opacity:1;" d="M 7.859375 37.546875 C 6.203125 36.898438 4.640625 36.066406 3.171875 35.058594 C 1.871094 33.898438 1.121094 32.453125 0.929688 30.710938 C 0.914062 30.640625 0.929688 30.574219 0.976562 30.515625 C 3.355469 32.847656 5.652344 35.191406 7.859375 37.546875 Z M 7.859375 37.546875 "/>
</g>
<mask id="mask40">
  <g filter="url(#alpha)">
<rect x="0" y="0" width="50" height="50" style="fill:rgb(0%,0%,0%);fill-opacity:0.980392;stroke:none;"/>
  </g>
</mask>
<clipPath id="clip41">
  <rect x="0" y="0" width="50" height="50"/>
</clipPath>
<g id="surface125" clip-path="url(#clip41)">
<path style=" stroke:none;fill-rule:evenodd;fill:rgb(93.333333%,34.509804%,12.941176%);fill-opacity:1;" d="M 46.632812 28.859375 C 47.382812 29.613281 48.164062 30.328125 48.976562 31.007812 C 48.75 32.371094 48.164062 33.542969 47.21875 34.523438 C 47.113281 34.535156 47.015625 34.519531 46.921875 34.472656 C 46.414062 33.949219 45.894531 33.445312 45.359375 32.960938 C 46.371094 31.785156 46.792969 30.417969 46.632812 28.859375 Z M 46.632812 28.859375 "/>
</g>
<mask id="mask41">
  <g filter="url(#alpha)">
<rect x="0" y="0" width="50" height="50" style="fill:rgb(0%,0%,0%);fill-opacity:0.968627;stroke:none;"/>
  </g>
</mask>
<clipPath id="clip42">
  <rect x="0" y="0" width="50" height="50"/>
</clipPath>
<g id="surface128" clip-path="url(#clip42)">
<path style=" stroke:none;fill-rule:evenodd;fill:rgb(96.470588%,60%,8.235294%);fill-opacity:1;" d="M 18.796875 31.398438 C 19.382812 31.949219 19.96875 32.503906 20.554688 33.054688 C 20.285156 33.507812 19.992188 33.945312 19.679688 34.375 C 18.585938 34.890625 17.902344 34.566406 17.625 33.398438 C 17.878906 32.644531 18.269531 31.976562 18.796875 31.398438 Z M 18.796875 31.398438 "/>
</g>
<mask id="mask42">
  <g filter="url(#alpha)">
<rect x="0" y="0" width="50" height="50" style="fill:rgb(0%,0%,0%);fill-opacity:0.980392;stroke:none;"/>
  </g>
</mask>
<clipPath id="clip43">
  <rect x="0" y="0" width="50" height="50"/>
</clipPath>
<g id="surface131" clip-path="url(#clip43)">
<path style=" stroke:none;fill-rule:evenodd;fill:rgb(95.686275%,52.156863%,9.803922%);fill-opacity:1;" d="M 27.195312 31.6875 C 28.957031 33.417969 30.714844 35.144531 32.46875 36.867188 C 29.75 37.074219 28.007812 35.871094 27.246094 33.25 C 27.199219 32.730469 27.179688 32.210938 27.195312 31.6875 Z M 27.195312 31.6875 "/>
</g>
<mask id="mask43">
  <g filter="url(#alpha)">
<rect x="0" y="0" width="50" height="50" style="fill:rgb(0%,0%,0%);fill-opacity:0.972549;stroke:none;"/>
  </g>
</mask>
<clipPath id="clip44">
  <rect x="0" y="0" width="50" height="50"/>
</clipPath>
<g id="surface134" clip-path="url(#clip44)">
<path style=" stroke:none;fill-rule:evenodd;fill:rgb(94.901961%,47.45098%,10.588235%);fill-opacity:1;" d="M 33.835938 32.570312 C 34.488281 33.1875 35.140625 33.804688 35.789062 34.421875 C 35.515625 35.058594 35.09375 35.578125 34.523438 35.984375 C 34.03125 35.304688 33.445312 34.71875 32.765625 34.226562 C 33.390625 33.855469 33.75 33.300781 33.835938 32.570312 Z M 33.835938 32.570312 "/>
</g>
<mask id="mask44">
  <g filter="url(#alpha)">
<rect x="0" y="0" width="50" height="50" style="fill:rgb(0%,0%,0%);fill-opacity:0.988235;stroke:none;"/>
  </g>
</mask>
<clipPath id="clip45">
  <rect x="0" y="0" width="50" height="50"/>
</clipPath>
<g id="surface137" clip-path="url(#clip45)">
<path style=" stroke:none;fill-rule:evenodd;fill:rgb(93.72549%,37.647059%,12.54902%);fill-opacity:1;" d="M 45.359375 32.960938 C 45.894531 33.445312 46.414062 33.949219 46.921875 34.472656 C 47.015625 34.519531 47.113281 34.535156 47.21875 34.523438 C 46.753906 35.015625 46.234375 35.4375 45.65625 35.789062 C 45.058594 35.242188 44.472656 34.675781 43.898438 34.082031 C 44.019531 34.042969 44.085938 33.960938 44.09375 33.835938 C 44.542969 33.582031 44.964844 33.289062 45.359375 32.960938 Z M 45.359375 32.960938 "/>
</g>
<mask id="mask45">
  <g filter="url(#alpha)">
<rect x="0" y="0" width="50" height="50" style="fill:rgb(0%,0%,0%);fill-opacity:0.976471;stroke:none;"/>
  </g>
</mask>
<clipPath id="clip46">
  <rect x="0" y="0" width="50" height="50"/>
</clipPath>
<g id="surface140" clip-path="url(#clip46)">
<path style=" stroke:none;fill-rule:evenodd;fill:rgb(94.117647%,40%,11.764706%);fill-opacity:1;" d="M 44.09375 33.835938 C 44.085938 33.960938 44.019531 34.042969 43.898438 34.082031 C 44.472656 34.675781 45.058594 35.242188 45.65625 35.789062 C 44.964844 36.199219 44.25 36.558594 43.507812 36.867188 C 42.921875 36.246094 42.335938 35.628906 41.75 35.007812 C 42.523438 34.621094 43.304688 34.230469 44.09375 33.835938 Z M 44.09375 33.835938 "/>
</g>
<mask id="mask46">
  <g filter="url(#alpha)">
<rect x="0" y="0" width="50" height="50" style="fill:rgb(0%,0%,0%);fill-opacity:0.972549;stroke:none;"/>
  </g>
</mask>
<clipPath id="clip47">
  <rect x="0" y="0" width="50" height="50"/>
</clipPath>
<g id="surface143" clip-path="url(#clip47)">
<path style=" stroke:none;fill-rule:evenodd;fill:rgb(94.509804%,42.745098%,11.372549%);fill-opacity:1;" d="M 41.75 35.007812 C 42.335938 35.628906 42.921875 36.246094 43.507812 36.867188 C 42.84375 37.113281 42.226562 37.441406 41.648438 37.84375 C 41.167969 37.195312 40.613281 36.609375 39.992188 36.085938 C 40.511719 35.628906 41.097656 35.269531 41.75 35.007812 Z M 41.75 35.007812 "/>
</g>
<mask id="mask47">
  <g filter="url(#alpha)">
<rect x="0" y="0" width="50" height="50" style="fill:rgb(0%,0%,0%);fill-opacity:0.976471;stroke:none;"/>
  </g>
</mask>
<clipPath id="clip48">
  <rect x="0" y="0" width="50" height="50"/>
</clipPath>
<g id="surface146" clip-path="url(#clip48)">
<path style=" stroke:none;fill-rule:evenodd;fill:rgb(94.509804%,45.098039%,10.980392%);fill-opacity:1;" d="M 39.992188 36.085938 C 40.613281 36.609375 41.167969 37.195312 41.648438 37.84375 C 41.253906 38.238281 40.894531 38.660156 40.578125 39.109375 C 39.957031 38.589844 39.339844 38.070312 38.71875 37.546875 C 39.035156 36.972656 39.457031 36.484375 39.992188 36.085938 Z M 39.992188 36.085938 "/>
</g>
<mask id="mask48">
  <g filter="url(#alpha)">
<rect x="0" y="0" width="50" height="50" style="fill:rgb(0%,0%,0%);fill-opacity:0.976471;stroke:none;"/>
  </g>
</mask>
<clipPath id="clip49">
  <rect x="0" y="0" width="50" height="50"/>
</clipPath>
<g id="surface149" clip-path="url(#clip49)">
<path style=" stroke:none;fill-rule:evenodd;fill:rgb(94.901961%,47.45098%,10.588235%);fill-opacity:1;" d="M 38.71875 37.546875 C 39.339844 38.070312 39.957031 38.589844 40.578125 39.109375 C 40.230469 39.789062 40.003906 40.503906 39.890625 41.257812 C 39.269531 40.539062 38.585938 39.890625 37.84375 39.304688 C 38.035156 38.664062 38.328125 38.078125 38.71875 37.546875 Z M 38.71875 37.546875 "/>
</g>
<mask id="mask49">
  <g filter="url(#alpha)">
<rect x="0" y="0" width="50" height="50" style="fill:rgb(0%,0%,0%);fill-opacity:0.976471;stroke:none;"/>
  </g>
</mask>
<clipPath id="clip50">
  <rect x="0" y="0" width="50" height="50"/>
</clipPath>
<g id="surface152" clip-path="url(#clip50)">
<path style=" stroke:none;fill-rule:evenodd;fill:rgb(98.431373%,74.509804%,5.882353%);fill-opacity:1;" d="M 9.132812 38.820312 C 9.203125 38.804688 9.269531 38.820312 9.328125 38.867188 C 10.421875 39.976562 11.527344 41.066406 12.648438 42.140625 C 13.136719 44.386719 14.503906 45.753906 16.75 46.242188 C 17.464844 46.988281 18.179688 47.738281 18.898438 48.484375 C 18.054688 48.6875 17.210938 48.722656 16.359375 48.585938 C 14.371094 46.53125 12.351562 44.515625 10.304688 42.53125 C 10.105469 41.757812 9.925781 40.976562 9.765625 40.1875 C 9.617188 39.695312 9.40625 39.238281 9.132812 38.820312 Z M 9.132812 38.820312 "/>
</g>
<mask id="mask50">
  <g filter="url(#alpha)">
<rect x="0" y="0" width="50" height="50" style="fill:rgb(0%,0%,0%);fill-opacity:0.976471;stroke:none;"/>
  </g>
</mask>
<clipPath id="clip51">
  <rect x="0" y="0" width="50" height="50"/>
</clipPath>
<g id="surface155" clip-path="url(#clip51)">
<path style=" stroke:none;fill-rule:evenodd;fill:rgb(95.294118%,49.803922%,10.196078%);fill-opacity:1;" d="M 37.84375 39.304688 C 38.585938 39.890625 39.269531 40.539062 39.890625 41.257812 C 39.742188 42.085938 39.546875 42.898438 39.304688 43.703125 C 38.660156 43.101562 38.023438 42.484375 37.402344 41.84375 C 37.363281 41.898438 37.316406 41.933594 37.257812 41.945312 C 37.425781 41.058594 37.621094 40.179688 37.84375 39.304688 Z M 37.84375 39.304688 "/>
</g>
<mask id="mask51">
  <g filter="url(#alpha)">
<rect x="0" y="0" width="50" height="50" style="fill:rgb(0%,0%,0%);fill-opacity:0.980392;stroke:none;"/>
  </g>
</mask>
<clipPath id="clip52">
  <rect x="0" y="0" width="50" height="50"/>
</clipPath>
<g id="surface158" clip-path="url(#clip52)">
<path style=" stroke:none;fill-rule:evenodd;fill:rgb(95.686275%,52.54902%,9.803922%);fill-opacity:1;" d="M 39.304688 43.703125 C 39.089844 44.363281 38.796875 44.980469 38.429688 45.554688 C 37.84375 45.023438 37.277344 44.46875 36.71875 43.898438 C 36.679688 43.949219 36.632812 43.984375 36.570312 43.992188 C 36.859375 43.332031 37.085938 42.648438 37.257812 41.945312 C 37.316406 41.933594 37.363281 41.898438 37.402344 41.84375 C 38.023438 42.484375 38.660156 43.101562 39.304688 43.703125 Z M 39.304688 43.703125 "/>
</g>
<mask id="mask52">
  <g filter="url(#alpha)">
<rect x="0" y="0" width="50" height="50" style="fill:rgb(0%,0%,0%);fill-opacity:0.960784;stroke:none;"/>
  </g>
</mask>
<clipPath id="clip53">
  <rect x="0" y="0" width="50" height="50"/>
</clipPath>
<g id="surface161" clip-path="url(#clip53)">
<path style=" stroke:none;fill-rule:evenodd;fill:rgb(98.431373%,76.470588%,5.490196%);fill-opacity:1;" d="M 10.304688 42.53125 C 12.351562 44.515625 14.371094 46.53125 16.359375 48.585938 C 12.941406 47.964844 10.921875 45.949219 10.304688 42.53125 Z M 10.304688 42.53125 "/>
</g>
<mask id="mask53">
  <g filter="url(#alpha)">
<rect x="0" y="0" width="50" height="50" style="fill:rgb(0%,0%,0%);fill-opacity:0.980392;stroke:none;"/>
  </g>
</mask>
<clipPath id="clip54">
  <rect x="0" y="0" width="50" height="50"/>
</clipPath>
<g id="surface164" clip-path="url(#clip54)">
<path style=" stroke:none;fill-rule:evenodd;fill:rgb(97.254902%,64.705882%,7.45098%);fill-opacity:1;" d="M 25.539062 43.898438 C 26.847656 45.160156 28.152344 46.445312 29.445312 47.753906 C 29.355469 47.78125 29.289062 47.828125 29.25 47.898438 C 28.371094 47.460938 27.492188 47.023438 26.609375 46.582031 C 26.132812 46.425781 25.644531 46.3125 25.148438 46.242188 C 24.460938 45.523438 23.78125 44.808594 23.09375 44.09375 C 23.898438 43.855469 24.714844 43.792969 25.539062 43.898438 Z M 25.539062 43.898438 "/>
</g>
<mask id="mask54">
  <g filter="url(#alpha)">
<rect x="0" y="0" width="50" height="50" style="fill:rgb(0%,0%,0%);fill-opacity:0.976471;stroke:none;"/>
  </g>
</mask>
<clipPath id="clip55">
  <rect x="0" y="0" width="50" height="50"/>
</clipPath>
<g id="surface167" clip-path="url(#clip55)">
<path style=" stroke:none;fill-rule:evenodd;fill:rgb(96.862745%,62.745098%,7.843137%);fill-opacity:1;" d="M 25.539062 43.898438 C 26.246094 43.910156 26.929688 44.058594 27.585938 44.335938 C 28.382812 44.683594 29.164062 45.058594 29.929688 45.460938 C 29.917969 45.53125 29.933594 45.597656 29.980469 45.65625 C 30.992188 46.652344 31.984375 47.660156 32.960938 48.679688 C 31.660156 48.699219 30.425781 48.4375 29.25 47.898438 C 29.289062 47.828125 29.355469 47.78125 29.445312 47.753906 C 28.152344 46.445312 26.847656 45.160156 25.539062 43.898438 Z M 25.539062 43.898438 "/>
</g>
<mask id="mask55">
  <g filter="url(#alpha)">
<rect x="0" y="0" width="50" height="50" style="fill:rgb(0%,0%,0%);fill-opacity:0.980392;stroke:none;"/>
  </g>
</mask>
<clipPath id="clip56">
  <rect x="0" y="0" width="50" height="50"/>
</clipPath>
<g id="surface170" clip-path="url(#clip56)">
<path style=" stroke:none;fill-rule:evenodd;fill:rgb(97.254902%,67.058824%,7.058824%);fill-opacity:1;" d="M 23.09375 44.09375 C 23.78125 44.808594 24.460938 45.523438 25.148438 46.242188 C 24.394531 46.257812 23.675781 46.417969 23 46.726562 C 22.414062 46.109375 21.828125 45.492188 21.242188 44.875 C 21.820312 44.535156 22.4375 44.273438 23.09375 44.09375 Z M 23.09375 44.09375 "/>
</g>
<mask id="mask56">
  <g filter="url(#alpha)">
<rect x="0" y="0" width="50" height="50" style="fill:rgb(0%,0%,0%);fill-opacity:0.980392;stroke:none;"/>
  </g>
</mask>
<clipPath id="clip57">
  <rect x="0" y="0" width="50" height="50"/>
</clipPath>
<g id="surface173" clip-path="url(#clip57)">
<path style=" stroke:none;fill-rule:evenodd;fill:rgb(96.078431%,54.901961%,9.411765%);fill-opacity:1;" d="M 38.429688 45.554688 C 38.082031 46.148438 37.625 46.636719 37.0625 47.023438 C 36.539062 46.402344 36.019531 45.785156 35.5 45.164062 C 35.925781 44.835938 36.285156 44.445312 36.570312 43.992188 C 36.632812 43.984375 36.679688 43.949219 36.71875 43.898438 C 37.277344 44.46875 37.84375 45.023438 38.429688 45.554688 Z M 38.429688 45.554688 "/>
</g>
<mask id="mask57">
  <g filter="url(#alpha)">
<rect x="0" y="0" width="50" height="50" style="fill:rgb(0%,0%,0%);fill-opacity:0.976471;stroke:none;"/>
  </g>
</mask>
<clipPath id="clip58">
  <rect x="0" y="0" width="50" height="50"/>
</clipPath>
<g id="surface176" clip-path="url(#clip58)">
<path style=" stroke:none;fill-rule:evenodd;fill:rgb(96.078431%,57.254902%,9.019608%);fill-opacity:1;" d="M 35.5 45.164062 C 36.019531 45.785156 36.539062 46.402344 37.0625 47.023438 C 36.589844 47.46875 36.035156 47.796875 35.398438 48 C 34.777344 47.375 34.191406 46.722656 33.640625 46.046875 C 34.324219 45.882812 34.945312 45.589844 35.5 45.164062 Z M 35.5 45.164062 "/>
</g>
<mask id="mask58">
  <g filter="url(#alpha)">
<rect x="0" y="0" width="50" height="50" style="fill:rgb(0%,0%,0%);fill-opacity:0.980392;stroke:none;"/>
  </g>
</mask>
<clipPath id="clip59">
  <rect x="0" y="0" width="50" height="50"/>
</clipPath>
<g id="surface179" clip-path="url(#clip59)">
<path style=" stroke:none;fill-rule:evenodd;fill:rgb(97.647059%,69.803922%,6.666667%);fill-opacity:1;" d="M 21.242188 44.875 C 21.828125 45.492188 22.414062 46.109375 23 46.726562 C 22.328125 47.082031 21.644531 47.40625 20.945312 47.703125 C 20.296875 47.117188 19.679688 46.5 19.09375 45.851562 C 19.820312 45.542969 20.535156 45.214844 21.242188 44.875 Z M 21.242188 44.875 "/>
</g>
<mask id="mask59">
  <g filter="url(#alpha)">
<rect x="0" y="0" width="50" height="50" style="fill:rgb(0%,0%,0%);fill-opacity:0.972549;stroke:none;"/>
  </g>
</mask>
<clipPath id="clip60">
  <rect x="0" y="0" width="50" height="50"/>
</clipPath>
<g id="surface182" clip-path="url(#clip60)">
<path style=" stroke:none;fill-rule:evenodd;fill:rgb(96.470588%,60%,8.235294%);fill-opacity:1;" d="M 29.929688 45.460938 C 31.09375 46.171875 32.332031 46.367188 33.640625 46.046875 C 34.191406 46.722656 34.777344 47.375 35.398438 48 C 34.644531 48.390625 33.828125 48.617188 32.960938 48.679688 C 31.984375 47.660156 30.992188 46.652344 29.980469 45.65625 C 29.933594 45.597656 29.917969 45.53125 29.929688 45.460938 Z M 29.929688 45.460938 "/>
</g>
<mask id="mask60">
  <g filter="url(#alpha)">
<rect x="0" y="0" width="50" height="50" style="fill:rgb(0%,0%,0%);fill-opacity:0.976471;stroke:none;"/>
  </g>
</mask>
<clipPath id="clip61">
  <rect x="0" y="0" width="50" height="50"/>
</clipPath>
<g id="surface185" clip-path="url(#clip61)">
<path style=" stroke:none;fill-rule:evenodd;fill:rgb(98.039216%,72.156863%,6.27451%);fill-opacity:1;" d="M 19.09375 45.851562 C 19.679688 46.5 20.296875 47.117188 20.945312 47.703125 C 20.300781 48.042969 19.617188 48.304688 18.898438 48.484375 C 18.179688 47.738281 17.464844 46.988281 16.75 46.242188 C 17.566406 46.296875 18.347656 46.167969 19.09375 45.851562 Z M 19.09375 45.851562 "/>
</g>
</defs>
<g id="surface1">
<use xlink:href="#surface5" mask="url(#mask0)"/>
<use xlink:href="#surface8" mask="url(#mask1)"/>
<use xlink:href="#surface11" mask="url(#mask2)"/>
<use xlink:href="#surface14" mask="url(#mask3)"/>
<use xlink:href="#surface17" mask="url(#mask4)"/>
<use xlink:href="#surface20" mask="url(#mask5)"/>
<use xlink:href="#surface23" mask="url(#mask6)"/>
<use xlink:href="#surface26" mask="url(#mask7)"/>
<use xlink:href="#surface29" mask="url(#mask8)"/>
<use xlink:href="#surface32" mask="url(#mask9)"/>
<use xlink:href="#surface35" mask="url(#mask10)"/>
<use xlink:href="#surface38" mask="url(#mask11)"/>
<use xlink:href="#surface41" mask="url(#mask12)"/>
<use xlink:href="#surface44" mask="url(#mask13)"/>
<use xlink:href="#surface47" mask="url(#mask14)"/>
<use xlink:href="#surface50" mask="url(#mask15)"/>
<use xlink:href="#surface53" mask="url(#mask16)"/>
<use xlink:href="#surface56" mask="url(#mask17)"/>
<use xlink:href="#surface59" mask="url(#mask18)"/>
<use xlink:href="#surface62" mask="url(#mask19)"/>
<use xlink:href="#surface65" mask="url(#mask20)"/>
<use xlink:href="#surface68" mask="url(#mask21)"/>
<use xlink:href="#surface71" mask="url(#mask22)"/>
<use xlink:href="#surface74" mask="url(#mask23)"/>
<use xlink:href="#surface77" mask="url(#mask24)"/>
<use xlink:href="#surface80" mask="url(#mask25)"/>
<use xlink:href="#surface83" mask="url(#mask26)"/>
<use xlink:href="#surface86" mask="url(#mask27)"/>
<use xlink:href="#surface89" mask="url(#mask28)"/>
<use xlink:href="#surface92" mask="url(#mask29)"/>
<use xlink:href="#surface95" mask="url(#mask30)"/>
<use xlink:href="#surface98" mask="url(#mask31)"/>
<use xlink:href="#surface101" mask="url(#mask32)"/>
<use xlink:href="#surface104" mask="url(#mask33)"/>
<use xlink:href="#surface107" mask="url(#mask34)"/>
<use xlink:href="#surface110" mask="url(#mask35)"/>
<use xlink:href="#surface113" mask="url(#mask36)"/>
<use xlink:href="#surface116" mask="url(#mask37)"/>
<use xlink:href="#surface119" mask="url(#mask38)"/>
<use xlink:href="#surface122" mask="url(#mask39)"/>
<use xlink:href="#surface125" mask="url(#mask40)"/>
<use xlink:href="#surface128" mask="url(#mask41)"/>
<use xlink:href="#surface131" mask="url(#mask42)"/>
<use xlink:href="#surface134" mask="url(#mask43)"/>
<use xlink:href="#surface137" mask="url(#mask44)"/>
<use xlink:href="#surface140" mask="url(#mask45)"/>
<use xlink:href="#surface143" mask="url(#mask46)"/>
<use xlink:href="#surface146" mask="url(#mask47)"/>
<use xlink:href="#surface149" mask="url(#mask48)"/>
<use xlink:href="#surface152" mask="url(#mask49)"/>
<use xlink:href="#surface155" mask="url(#mask50)"/>
<use xlink:href="#surface158" mask="url(#mask51)"/>
<use xlink:href="#surface161" mask="url(#mask52)"/>
<use xlink:href="#surface164" mask="url(#mask53)"/>
<use xlink:href="#surface167" mask="url(#mask54)"/>
<use xlink:href="#surface170" mask="url(#mask55)"/>
<use xlink:href="#surface173" mask="url(#mask56)"/>
<use xlink:href="#surface176" mask="url(#mask57)"/>
<use xlink:href="#surface179" mask="url(#mask58)"/>
<use xlink:href="#surface182" mask="url(#mask59)"/>
<use xlink:href="#surface185" mask="url(#mask60)"/>
</g>
</svg>
