<?xml version="1.0" encoding="UTF-8"?>
<svg xmlns="http://www.w3.org/2000/svg" xmlns:xlink="http://www.w3.org/1999/xlink" width="50px" height="50px" viewBox="0 0 50 50" version="1.1">
<defs>
<filter id="alpha" filterUnits="objectBoundingBox" x="0%" y="0%" width="100%" height="100%">
  <feColorMatrix type="matrix" in="SourceGraphic" values="0 0 0 0 1 0 0 0 0 1 0 0 0 0 1 0 0 0 1 0"/>
</filter>
<mask id="mask0">
  <g filter="url(#alpha)">
<rect x="0" y="0" width="50" height="50" style="fill:rgb(0%,0%,0%);fill-opacity:0.972549;stroke:none;"/>
  </g>
</mask>
<clipPath id="clip1">
  <rect x="0" y="0" width="50" height="50"/>
</clipPath>
<g id="surface5" clip-path="url(#clip1)">
<path style=" stroke:none;fill-rule:evenodd;fill:rgb(92.941176%,30.588235%,13.72549%);fill-opacity:1;" d="M 26.320312 1.804688 C 27.359375 2.75 28.300781 3.726562 29.148438 4.734375 C 28.710938 4.445312 28.253906 4.167969 27.78125 3.90625 C 27.273438 3.710938 26.753906 3.5625 26.21875 3.46875 C 26.324219 4.335938 26.585938 5.148438 27 5.90625 C 26.1875 5.125 25.375 4.34375 24.5625 3.5625 C 24.191406 2.042969 24.777344 1.457031 26.320312 1.804688 Z M 26.320312 1.804688 "/>
</g>
<mask id="mask1">
  <g filter="url(#alpha)">
<rect x="0" y="0" width="50" height="50" style="fill:rgb(0%,0%,0%);fill-opacity:0.976471;stroke:none;"/>
  </g>
</mask>
<clipPath id="clip2">
  <rect x="0" y="0" width="50" height="50"/>
</clipPath>
<g id="surface8" clip-path="url(#clip2)">
<path style=" stroke:none;fill-rule:evenodd;fill:rgb(92.54902%,27.843137%,14.117647%);fill-opacity:1;" d="M 26.320312 1.804688 C 28.992188 2.191406 30.925781 3.589844 32.128906 6.007812 C 32.625 5.25 33.195312 4.550781 33.835938 3.90625 C 34.824219 3.558594 35.261719 3.898438 35.15625 4.929688 C 34.699219 5.453125 34.246094 5.972656 33.789062 6.492188 C 33.421875 7.09375 33.113281 7.710938 32.859375 8.351562 C 31.851562 7.242188 30.8125 6.234375 29.734375 5.320312 C 29.507812 5.160156 29.3125 4.964844 29.148438 4.734375 C 28.300781 3.726562 27.359375 2.75 26.320312 1.804688 Z M 26.320312 1.804688 "/>
</g>
<mask id="mask2">
  <g filter="url(#alpha)">
<rect x="0" y="0" width="50" height="50" style="fill:rgb(0%,0%,0%);fill-opacity:0.976471;stroke:none;"/>
  </g>
</mask>
<clipPath id="clip3">
  <rect x="0" y="0" width="50" height="50"/>
</clipPath>
<g id="surface11" clip-path="url(#clip3)">
<path style=" stroke:none;fill-rule:evenodd;fill:rgb(93.333333%,32.54902%,13.333333%);fill-opacity:1;" d="M 24.5625 3.5625 C 25.375 4.34375 26.1875 5.125 27 5.90625 C 27.59375 6.691406 28.3125 7.34375 29.148438 7.859375 C 29.078125 7.847656 29.011719 7.863281 28.953125 7.910156 C 29.691406 8.628906 30.40625 9.363281 31.101562 10.109375 C 30.511719 10.191406 29.925781 10.304688 29.34375 10.449219 C 29.109375 10.59375 29.011719 10.804688 29.054688 11.085938 C 28.519531 10.597656 28 10.09375 27.492188 9.570312 C 27.398438 9.523438 27.300781 9.507812 27.195312 9.523438 C 27.457031 9.386719 27.714844 9.238281 27.976562 9.082031 C 25.910156 7.828125 24.769531 5.988281 24.5625 3.5625 Z M 24.5625 3.5625 "/>
</g>
<mask id="mask3">
  <g filter="url(#alpha)">
<rect x="0" y="0" width="50" height="50" style="fill:rgb(0%,0%,0%);fill-opacity:0.976471;stroke:none;"/>
  </g>
</mask>
<clipPath id="clip4">
  <rect x="0" y="0" width="50" height="50"/>
</clipPath>
<g id="surface14" clip-path="url(#clip4)">
<path style=" stroke:none;fill-rule:evenodd;fill:rgb(92.941176%,30.196078%,13.72549%);fill-opacity:1;" d="M 29.734375 5.320312 C 30.8125 6.234375 31.851562 7.242188 32.859375 8.351562 C 32.90625 8.488281 33.003906 8.550781 33.15625 8.546875 C 33.972656 9.363281 34.753906 10.210938 35.5 11.085938 C 35.320312 11.507812 35.1875 11.945312 35.109375 12.402344 C 35.203125 12.773438 35.21875 13.148438 35.15625 13.523438 C 35.054688 13.644531 34.941406 13.742188 34.8125 13.820312 C 33.835938 12.808594 32.859375 11.800781 31.882812 10.789062 C 32.175781 10.839844 32.433594 10.953125 32.664062 11.132812 C 32.945312 11.398438 33.207031 11.675781 33.445312 11.960938 C 33.585938 11.421875 33.78125 10.898438 34.03125 10.398438 C 33.074219 10.152344 32.097656 10.054688 31.101562 10.109375 C 30.40625 9.363281 29.691406 8.628906 28.953125 7.910156 C 29.011719 7.863281 29.078125 7.847656 29.148438 7.859375 C 29.398438 7.945312 29.644531 8.042969 29.882812 8.15625 C 29.949219 8.089844 29.949219 8.023438 29.882812 7.960938 C 29.0625 7.136719 28.183594 6.386719 27.246094 5.710938 C 26.953125 4.996094 27.179688 4.539062 27.929688 4.34375 C 28.550781 4.550781 29.089844 4.894531 29.539062 5.371094 C 29.632812 5.4375 29.699219 5.421875 29.734375 5.320312 Z M 29.734375 5.320312 "/>
</g>
<mask id="mask4">
  <g filter="url(#alpha)">
<rect x="0" y="0" width="50" height="50" style="fill:rgb(0%,0%,0%);fill-opacity:0.972549;stroke:none;"/>
  </g>
</mask>
<clipPath id="clip5">
  <rect x="0" y="0" width="50" height="50"/>
</clipPath>
<g id="surface17" clip-path="url(#clip5)">
<path style=" stroke:none;fill-rule:evenodd;fill:rgb(94.509804%,45.098039%,10.980392%);fill-opacity:1;" d="M 10.984375 5.710938 C 11.960938 6.722656 12.9375 7.730469 13.914062 8.742188 C 13.332031 9.160156 12.746094 9.582031 12.15625 10.007812 C 11.800781 9.617188 11.441406 9.226562 11.085938 8.835938 C 11.53125 8.34375 12.050781 7.9375 12.648438 7.617188 C 12.417969 7.421875 12.191406 7.421875 11.960938 7.617188 C 11.554688 7.941406 11.164062 8.285156 10.789062 8.640625 C 10.003906 7.855469 9.253906 7.042969 8.546875 6.203125 C 9.324219 5.882812 10.136719 5.71875 10.984375 5.710938 Z M 10.984375 5.710938 "/>
</g>
<mask id="mask5">
  <g filter="url(#alpha)">
<rect x="0" y="0" width="50" height="50" style="fill:rgb(0%,0%,0%);fill-opacity:0.968627;stroke:none;"/>
  </g>
</mask>
<clipPath id="clip6">
  <rect x="0" y="0" width="50" height="50"/>
</clipPath>
<g id="surface20" clip-path="url(#clip6)">
<path style=" stroke:none;fill-rule:evenodd;fill:rgb(94.509804%,42.745098%,11.372549%);fill-opacity:1;" d="M 10.984375 5.710938 C 11.546875 5.691406 12.097656 5.742188 12.648438 5.859375 C 13.457031 6.070312 14.238281 6.347656 14.992188 6.6875 C 15.578125 7.308594 16.164062 7.925781 16.75 8.546875 C 15.773438 8.230469 14.828125 8.296875 13.914062 8.742188 C 12.9375 7.730469 11.960938 6.722656 10.984375 5.710938 Z M 10.984375 5.710938 "/>
</g>
<mask id="mask6">
  <g filter="url(#alpha)">
<rect x="0" y="0" width="50" height="50" style="fill:rgb(0%,0%,0%);fill-opacity:0.968627;stroke:none;"/>
  </g>
</mask>
<clipPath id="clip7">
  <rect x="0" y="0" width="50" height="50"/>
</clipPath>
<g id="surface23" clip-path="url(#clip7)">
<path style=" stroke:none;fill-rule:evenodd;fill:rgb(94.901961%,47.45098%,10.588235%);fill-opacity:1;" d="M 8.546875 6.203125 C 9.253906 7.042969 10.003906 7.855469 10.789062 8.640625 C 10.675781 8.835938 10.59375 9.03125 10.546875 9.226562 C 10.6875 9.039062 10.867188 8.910156 11.085938 8.835938 C 11.441406 9.226562 11.800781 9.617188 12.15625 10.007812 C 11.628906 10.535156 11.140625 11.089844 10.695312 11.671875 C 10.003906 10.882812 9.253906 10.167969 8.445312 9.523438 C 8.613281 8.898438 8.90625 8.347656 9.328125 7.859375 C 9.085938 7.78125 8.859375 7.832031 8.640625 8.007812 C 8.296875 8.230469 7.972656 8.472656 7.664062 8.742188 C 7.375 8.25 6.984375 7.859375 6.492188 7.570312 C 7.089844 6.992188 7.773438 6.535156 8.546875 6.203125 Z M 8.546875 6.203125 "/>
</g>
<mask id="mask7">
  <g filter="url(#alpha)">
<rect x="0" y="0" width="50" height="50" style="fill:rgb(0%,0%,0%);fill-opacity:0.980392;stroke:none;"/>
  </g>
</mask>
<clipPath id="clip8">
  <rect x="0" y="0" width="50" height="50"/>
</clipPath>
<g id="surface26" clip-path="url(#clip8)">
<path style=" stroke:none;fill-rule:evenodd;fill:rgb(94.117647%,40.392157%,11.764706%);fill-opacity:1;" d="M 14.992188 6.6875 C 16.496094 6.613281 17.832031 7.050781 18.992188 8.007812 C 19.675781 8.589844 20.324219 9.210938 20.945312 9.863281 C 21.46875 9.976562 21.957031 10.15625 22.414062 10.398438 C 23.171875 11.308594 24.019531 12.203125 24.953125 13.085938 C 25.007812 13.132812 25.074219 13.148438 25.148438 13.132812 C 24.570312 13.828125 24.148438 14.609375 23.875 15.476562 C 23.03125 14.703125 22.1875 13.921875 21.335938 13.132812 C 21.652344 12.8125 22.011719 12.535156 22.414062 12.304688 C 21.84375 11.921875 21.222656 11.644531 20.554688 11.476562 C 20.339844 11.601562 20.109375 11.699219 19.875 11.765625 C 19.546875 11.34375 19.222656 10.921875 18.898438 10.5 C 18.90625 10.4375 18.941406 10.390625 18.992188 10.351562 C 18.832031 10.1875 18.667969 10.027344 18.507812 9.863281 C 18.402344 9.816406 18.304688 9.832031 18.210938 9.914062 C 17.789062 9.523438 17.367188 9.132812 16.945312 8.742188 C 16.878906 8.675781 16.8125 8.609375 16.75 8.546875 C 16.164062 7.925781 15.578125 7.308594 14.992188 6.6875 Z M 14.992188 6.6875 "/>
</g>
<mask id="mask8">
  <g filter="url(#alpha)">
<rect x="0" y="0" width="50" height="50" style="fill:rgb(0%,0%,0%);fill-opacity:0.960784;stroke:none;"/>
  </g>
</mask>
<clipPath id="clip9">
  <rect x="0" y="0" width="50" height="50"/>
</clipPath>
<g id="surface29" clip-path="url(#clip9)">
<path style=" stroke:none;fill-rule:evenodd;fill:rgb(91.764706%,20.392157%,15.294118%);fill-opacity:1;" d="M 46.632812 12.9375 C 45.65625 11.917969 44.664062 10.910156 43.652344 9.914062 C 43.632812 10.097656 43.585938 10.257812 43.507812 10.398438 C 43.523438 9.636719 43.425781 8.886719 43.210938 8.15625 C 43.347656 7.402344 43.773438 7.160156 44.484375 7.421875 C 44.632812 7.539062 44.746094 7.6875 44.824219 7.859375 C 45.058594 8.625 45.191406 9.40625 45.214844 10.203125 C 45.78125 9.734375 46.316406 9.230469 46.828125 8.691406 C 47.75 8.34375 48.1875 8.65625 48.144531 9.617188 C 47.65625 10.1875 47.152344 10.742188 46.632812 11.28125 C 47.355469 11.382812 48.070312 11.527344 48.78125 11.71875 C 49.257812 12.179688 49.289062 12.667969 48.875 13.183594 C 48.71875 13.242188 48.554688 13.292969 48.390625 13.328125 C 47.792969 13.183594 47.207031 13.054688 46.632812 12.9375 Z M 46.632812 12.9375 "/>
</g>
<mask id="mask9">
  <g filter="url(#alpha)">
<rect x="0" y="0" width="50" height="50" style="fill:rgb(0%,0%,0%);fill-opacity:0.972549;stroke:none;"/>
  </g>
</mask>
<clipPath id="clip10">
  <rect x="0" y="0" width="50" height="50"/>
</clipPath>
<g id="surface32" clip-path="url(#clip10)">
<path style=" stroke:none;fill-rule:evenodd;fill:rgb(95.294118%,49.803922%,10.196078%);fill-opacity:1;" d="M 6.492188 7.570312 C 6.984375 7.859375 7.375 8.25 7.664062 8.742188 C 7.238281 9.175781 6.878906 9.664062 6.59375 10.203125 C 6.167969 9.8125 5.746094 9.421875 5.320312 9.03125 C 5.640625 8.484375 6.03125 7.996094 6.492188 7.570312 Z M 6.492188 7.570312 "/>
</g>
<mask id="mask10">
  <g filter="url(#alpha)">
<rect x="0" y="0" width="50" height="50" style="fill:rgb(0%,0%,0%);fill-opacity:0.972549;stroke:none;"/>
  </g>
</mask>
<clipPath id="clip11">
  <rect x="0" y="0" width="50" height="50"/>
</clipPath>
<g id="surface35" clip-path="url(#clip11)">
<path style=" stroke:none;fill-rule:evenodd;fill:rgb(92.54902%,28.627451%,14.117647%);fill-opacity:1;" d="M 33.15625 8.546875 C 35.195312 8.734375 36.984375 9.484375 38.523438 10.789062 C 38.949219 11.246094 39.371094 11.703125 39.796875 12.15625 C 38.769531 12.449219 37.9375 13.035156 37.304688 13.914062 C 37.109375 14.175781 36.914062 14.4375 36.71875 14.695312 C 36.671875 15.039062 36.722656 15.363281 36.867188 15.671875 C 36.21875 15.191406 35.632812 14.636719 35.109375 14.015625 C 35.703125 13.207031 36.351562 12.441406 37.0625 11.71875 C 36.613281 11.40625 36.140625 11.128906 35.644531 10.890625 C 35.617188 10.976562 35.570312 11.042969 35.5 11.085938 C 34.753906 10.210938 33.972656 9.363281 33.15625 8.546875 Z M 33.15625 8.546875 "/>
</g>
<mask id="mask11">
  <g filter="url(#alpha)">
<rect x="0" y="0" width="50" height="50" style="fill:rgb(0%,0%,0%);fill-opacity:0.956863;stroke:none;"/>
  </g>
</mask>
<clipPath id="clip12">
  <rect x="0" y="0" width="50" height="50"/>
</clipPath>
<g id="surface38" clip-path="url(#clip12)">
<path style=" stroke:none;fill-rule:evenodd;fill:rgb(94.509804%,42.745098%,11.372549%);fill-opacity:1;" d="M 16.945312 8.742188 C 17.367188 9.132812 17.789062 9.523438 18.210938 9.914062 C 17.691406 10.367188 17.203125 10.855469 16.75 11.375 C 16.296875 11.089844 15.90625 10.730469 15.578125 10.304688 C 15.996094 9.753906 16.453125 9.230469 16.945312 8.742188 Z M 16.945312 8.742188 "/>
</g>
<mask id="mask12">
  <g filter="url(#alpha)">
<rect x="0" y="0" width="50" height="50" style="fill:rgb(0%,0%,0%);fill-opacity:0.972549;stroke:none;"/>
  </g>
</mask>
<clipPath id="clip13">
  <rect x="0" y="0" width="50" height="50"/>
</clipPath>
<g id="surface41" clip-path="url(#clip13)">
<path style=" stroke:none;fill-rule:evenodd;fill:rgb(95.294118%,49.803922%,10.196078%);fill-opacity:1;" d="M 8.445312 9.523438 C 9.253906 10.167969 10.003906 10.882812 10.695312 11.671875 C 10.5625 12.570312 10.074219 12.878906 9.226562 12.597656 C 8.453125 11.710938 8.195312 10.683594 8.445312 9.523438 Z M 8.445312 9.523438 "/>
</g>
<mask id="mask13">
  <g filter="url(#alpha)">
<rect x="0" y="0" width="50" height="50" style="fill:rgb(0%,0%,0%);fill-opacity:0.976471;stroke:none;"/>
  </g>
</mask>
<clipPath id="clip14">
  <rect x="0" y="0" width="50" height="50"/>
</clipPath>
<g id="surface44" clip-path="url(#clip14)">
<path style=" stroke:none;fill-rule:evenodd;fill:rgb(93.333333%,35.294118%,12.54902%);fill-opacity:1;" d="M 27.195312 9.523438 C 27.300781 9.507812 27.398438 9.523438 27.492188 9.570312 C 28 10.09375 28.519531 10.597656 29.054688 11.085938 C 29.089844 11.410156 29.140625 11.734375 29.199219 12.0625 C 29.355469 11.972656 29.503906 11.875 29.640625 11.765625 C 30.035156 12.164062 30.457031 12.523438 30.90625 12.84375 C 29.914062 13.769531 28.757812 14.0625 27.441406 13.71875 C 27.332031 13.535156 27.25 13.339844 27.195312 13.132812 C 27.515625 12.542969 27.566406 11.921875 27.34375 11.28125 C 27.105469 11.457031 26.859375 11.617188 26.609375 11.765625 C 26.253906 11.34375 25.863281 10.953125 25.4375 10.59375 C 25.960938 10.140625 26.546875 9.78125 27.195312 9.523438 Z M 27.195312 9.523438 "/>
</g>
<mask id="mask14">
  <g filter="url(#alpha)">
<rect x="0" y="0" width="50" height="50" style="fill:rgb(0%,0%,0%);fill-opacity:0.972549;stroke:none;"/>
  </g>
</mask>
<clipPath id="clip15">
  <rect x="0" y="0" width="50" height="50"/>
</clipPath>
<g id="surface47" clip-path="url(#clip15)">
<path style=" stroke:none;fill-rule:evenodd;fill:rgb(95.686275%,52.54902%,9.803922%);fill-opacity:1;" d="M 5.320312 9.03125 C 5.746094 9.421875 6.167969 9.8125 6.59375 10.203125 C 6.15625 11.105469 6.023438 12.046875 6.203125 13.039062 C 7.179688 13.039062 8.15625 13.039062 9.132812 13.039062 C 9.023438 13.113281 8.890625 13.164062 8.742188 13.183594 C 9.25 13.675781 9.738281 14.179688 10.203125 14.695312 C 9.359375 14.695312 8.511719 14.695312 7.664062 14.695312 C 7.457031 14.617188 7.230469 14.570312 6.984375 14.550781 C 6.148438 13.699219 5.300781 12.871094 4.445312 12.0625 C 4.449219 10.957031 4.742188 9.949219 5.320312 9.03125 Z M 5.320312 9.03125 "/>
</g>
<mask id="mask15">
  <g filter="url(#alpha)">
<rect x="0" y="0" width="50" height="50" style="fill:rgb(0%,0%,0%);fill-opacity:0.976471;stroke:none;"/>
  </g>
</mask>
<clipPath id="clip16">
  <rect x="0" y="0" width="50" height="50"/>
</clipPath>
<g id="surface50" clip-path="url(#clip16)">
<path style=" stroke:none;fill-rule:evenodd;fill:rgb(91.764706%,23.137255%,14.901961%);fill-opacity:1;" d="M 46.632812 12.9375 C 46.195312 12.933594 45.773438 12.996094 45.359375 13.132812 C 45.726562 13.773438 45.953125 14.457031 46.046875 15.1875 C 44.441406 13.730469 42.878906 12.214844 41.359375 10.644531 C 41.476562 10.621094 41.574219 10.574219 41.648438 10.5 C 42.261719 10.648438 42.847656 10.875 43.40625 11.179688 C 43.503906 10.929688 43.535156 10.667969 43.507812 10.398438 C 43.585938 10.257812 43.632812 10.097656 43.652344 9.914062 C 44.664062 10.910156 45.65625 11.917969 46.632812 12.9375 Z M 46.632812 12.9375 "/>
</g>
<mask id="mask16">
  <g filter="url(#alpha)">
<rect x="0" y="0" width="50" height="50" style="fill:rgb(0%,0%,0%);fill-opacity:0.960784;stroke:none;"/>
  </g>
</mask>
<clipPath id="clip17">
  <rect x="0" y="0" width="50" height="50"/>
</clipPath>
<g id="surface53" clip-path="url(#clip17)">
<path style=" stroke:none;fill-rule:evenodd;fill:rgb(94.509804%,45.098039%,10.980392%);fill-opacity:1;" d="M 15.578125 10.304688 C 15.90625 10.730469 16.296875 11.089844 16.75 11.375 C 16.511719 11.785156 16.332031 12.207031 16.210938 12.648438 C 16.507812 12.332031 16.816406 12.039062 17.140625 11.765625 C 17.464844 12.191406 17.789062 12.613281 18.117188 13.039062 C 17.6875 13.464844 17.296875 13.917969 16.945312 14.40625 C 16.871094 14.445312 16.824219 14.511719 16.796875 14.601562 C 16.042969 13.832031 15.28125 13.082031 14.5 12.351562 C 14.683594 11.570312 15.039062 10.886719 15.578125 10.304688 Z M 15.578125 10.304688 "/>
</g>
<mask id="mask17">
  <g filter="url(#alpha)">
<rect x="0" y="0" width="50" height="50" style="fill:rgb(0%,0%,0%);fill-opacity:0.968627;stroke:none;"/>
  </g>
</mask>
<clipPath id="clip18">
  <rect x="0" y="0" width="50" height="50"/>
</clipPath>
<g id="surface56" clip-path="url(#clip18)">
<path style=" stroke:none;fill-rule:evenodd;fill:rgb(93.72549%,38.039216%,12.156863%);fill-opacity:1;" d="M 22.414062 10.398438 C 23.097656 10.679688 23.683594 11.101562 24.171875 11.671875 C 24.566406 11.273438 24.988281 10.914062 25.4375 10.59375 C 25.863281 10.953125 26.253906 11.34375 26.609375 11.765625 C 26.0625 12.15625 25.574219 12.609375 25.148438 13.132812 C 25.074219 13.148438 25.007812 13.132812 24.953125 13.085938 C 24.019531 12.203125 23.171875 11.308594 22.414062 10.398438 Z M 22.414062 10.398438 "/>
</g>
<mask id="mask18">
  <g filter="url(#alpha)">
<rect x="0" y="0" width="50" height="50" style="fill:rgb(0%,0%,0%);fill-opacity:0.964706;stroke:none;"/>
  </g>
</mask>
<clipPath id="clip19">
  <rect x="0" y="0" width="50" height="50"/>
</clipPath>
<g id="surface59" clip-path="url(#clip19)">
<path style=" stroke:none;fill-rule:evenodd;fill:rgb(92.156863%,25.882353%,14.509804%);fill-opacity:1;" d="M 41.648438 10.5 C 41.574219 10.574219 41.476562 10.621094 41.359375 10.644531 C 42.878906 12.214844 44.441406 13.730469 46.046875 15.1875 C 46.21875 16.96875 45.699219 18.5 44.484375 19.773438 C 44.03125 19.457031 43.609375 19.097656 43.210938 18.703125 C 44.558594 17.175781 44.738281 15.515625 43.75 13.71875 C 42.738281 12.421875 41.417969 11.902344 39.796875 12.15625 C 39.371094 11.703125 38.949219 11.246094 38.523438 10.789062 C 39.546875 10.476562 40.589844 10.378906 41.648438 10.5 Z M 41.648438 10.5 "/>
</g>
<mask id="mask19">
  <g filter="url(#alpha)">
<rect x="0" y="0" width="50" height="50" style="fill:rgb(0%,0%,0%);fill-opacity:0.964706;stroke:none;"/>
  </g>
</mask>
<clipPath id="clip20">
  <rect x="0" y="0" width="50" height="50"/>
</clipPath>
<g id="surface62" clip-path="url(#clip20)">
<path style=" stroke:none;fill-rule:evenodd;fill:rgb(94.509804%,42.745098%,11.372549%);fill-opacity:1;" d="M 18.898438 10.5 C 19.222656 10.921875 19.546875 11.34375 19.875 11.765625 C 19.289062 12.1875 18.703125 12.609375 18.117188 13.039062 C 17.789062 12.613281 17.464844 12.191406 17.140625 11.765625 C 17.65625 11.25 18.242188 10.824219 18.898438 10.5 Z M 18.898438 10.5 "/>
</g>
<mask id="mask20">
  <g filter="url(#alpha)">
<rect x="0" y="0" width="50" height="50" style="fill:rgb(0%,0%,0%);fill-opacity:0.968627;stroke:none;"/>
  </g>
</mask>
<clipPath id="clip21">
  <rect x="0" y="0" width="50" height="50"/>
</clipPath>
<g id="surface65" clip-path="url(#clip21)">
<path style=" stroke:none;fill-rule:evenodd;fill:rgb(93.333333%,32.941176%,13.333333%);fill-opacity:1;" d="M 31.882812 10.789062 C 32.859375 11.800781 33.835938 12.808594 34.8125 13.820312 C 34.03125 14.015625 33.28125 13.902344 32.570312 13.476562 C 32.191406 13.085938 31.800781 12.710938 31.398438 12.351562 C 31.195312 12.488281 31.035156 12.652344 30.90625 12.84375 C 30.457031 12.523438 30.035156 12.164062 29.640625 11.765625 C 30.140625 10.882812 30.890625 10.554688 31.882812 10.789062 Z M 31.882812 10.789062 "/>
</g>
<mask id="mask21">
  <g filter="url(#alpha)">
<rect x="0" y="0" width="50" height="50" style="fill:rgb(0%,0%,0%);fill-opacity:0.956863;stroke:none;"/>
  </g>
</mask>
<clipPath id="clip22">
  <rect x="0" y="0" width="50" height="50"/>
</clipPath>
<g id="surface68" clip-path="url(#clip22)">
<path style=" stroke:none;fill-rule:evenodd;fill:rgb(94.901961%,47.45098%,10.588235%);fill-opacity:1;" d="M 14.5 12.351562 C 15.28125 13.082031 16.042969 13.832031 16.796875 14.601562 C 16.824219 14.511719 16.871094 14.445312 16.945312 14.40625 C 16.960938 15.089844 16.945312 15.773438 16.894531 16.453125 C 16.859375 16.683594 16.746094 16.863281 16.554688 16.992188 C 16.945312 17.441406 17.304688 17.914062 17.625 18.40625 C 16.558594 17.503906 15.546875 16.527344 14.601562 15.476562 C 14.828125 15.476562 15.054688 15.476562 15.28125 15.476562 C 15.28125 15.21875 15.28125 14.957031 15.28125 14.695312 C 14.957031 14.695312 14.632812 14.695312 14.304688 14.695312 C 14.097656 14.617188 13.871094 14.570312 13.625 14.550781 C 13.113281 14.058594 12.625 13.554688 12.15625 13.039062 C 12.875 13.039062 13.589844 13.039062 14.304688 13.039062 C 14.328125 12.785156 14.394531 12.558594 14.5 12.351562 Z M 14.5 12.351562 "/>
</g>
<mask id="mask22">
  <g filter="url(#alpha)">
<rect x="0" y="0" width="50" height="50" style="fill:rgb(0%,0%,0%);fill-opacity:0.984314;stroke:none;"/>
  </g>
</mask>
<clipPath id="clip23">
  <rect x="0" y="0" width="50" height="50"/>
</clipPath>
<g id="surface71" clip-path="url(#clip23)">
<path style=" stroke:none;fill-rule:evenodd;fill:rgb(95.686275%,54.901961%,9.411765%);fill-opacity:1;" d="M 4.445312 12.0625 C 5.300781 12.871094 6.148438 13.699219 6.984375 14.550781 C 7.230469 14.570312 7.457031 14.617188 7.664062 14.695312 C 7.46875 14.695312 7.273438 14.695312 7.078125 14.695312 C 7.078125 14.957031 7.078125 15.21875 7.078125 15.476562 C 7.375 15.476562 7.664062 15.476562 7.960938 15.476562 C 8.445312 16 8.9375 16.519531 9.421875 17.039062 C 8.902344 17.023438 8.382812 17.042969 7.859375 17.089844 C 7.644531 17.382812 7.414062 17.660156 7.179688 17.921875 C 6.699219 17.292969 6.160156 16.707031 5.566406 16.164062 C 5.546875 15.851562 5.5 15.558594 5.421875 15.28125 C 4.78125 14.308594 4.457031 13.234375 4.445312 12.0625 Z M 4.445312 12.0625 "/>
</g>
<mask id="mask23">
  <g filter="url(#alpha)">
<rect x="0" y="0" width="50" height="50" style="fill:rgb(0%,0%,0%);fill-opacity:0.933333;stroke:none;"/>
  </g>
</mask>
<clipPath id="clip24">
  <rect x="0" y="0" width="50" height="50"/>
</clipPath>
<g id="surface74" clip-path="url(#clip24)">
<path style=" stroke:none;fill-rule:evenodd;fill:rgb(95.294118%,49.803922%,10.196078%);fill-opacity:1;" d="M 9.132812 13.039062 C 10.140625 13.039062 11.148438 13.039062 12.15625 13.039062 C 12.625 13.554688 13.113281 14.058594 13.625 14.550781 C 13.871094 14.570312 14.097656 14.617188 14.304688 14.695312 C 12.9375 14.695312 11.570312 14.695312 10.203125 14.695312 C 9.738281 14.179688 9.25 13.675781 8.742188 13.183594 C 8.890625 13.164062 9.023438 13.113281 9.132812 13.039062 Z M 9.132812 13.039062 "/>
</g>
<mask id="mask24">
  <g filter="url(#alpha)">
<rect x="0" y="0" width="50" height="50" style="fill:rgb(0%,0%,0%);fill-opacity:0.968627;stroke:none;"/>
  </g>
</mask>
<clipPath id="clip25">
  <rect x="0" y="0" width="50" height="50"/>
</clipPath>
<g id="surface77" clip-path="url(#clip25)">
<path style=" stroke:none;fill-rule:evenodd;fill:rgb(93.333333%,33.72549%,12.941176%);fill-opacity:1;" d="M 35.109375 14.015625 C 35.632812 14.636719 36.21875 15.191406 36.867188 15.671875 C 36.972656 16.28125 37.101562 16.882812 37.257812 17.480469 C 37.066406 18.226562 36.609375 18.453125 35.890625 18.164062 C 35.769531 18.074219 35.691406 17.960938 35.644531 17.820312 C 35.527344 17.386719 35.398438 16.964844 35.253906 16.554688 C 34.734375 17.285156 34.195312 18 33.640625 18.703125 C 33.21875 18.273438 32.796875 17.914062 32.375 17.625 C 33.261719 16.402344 34.171875 15.195312 35.109375 14.015625 Z M 35.109375 14.015625 "/>
</g>
<mask id="mask25">
  <g filter="url(#alpha)">
<rect x="0" y="0" width="50" height="50" style="fill:rgb(0%,0%,0%);fill-opacity:0.956863;stroke:none;"/>
  </g>
</mask>
<clipPath id="clip26">
  <rect x="0" y="0" width="50" height="50"/>
</clipPath>
<g id="surface80" clip-path="url(#clip26)">
<path style=" stroke:none;fill-rule:evenodd;fill:rgb(94.509804%,42.745098%,11.372549%);fill-opacity:1;" d="M 21.335938 13.132812 C 22.1875 13.921875 23.03125 14.703125 23.875 15.476562 C 23.617188 16.398438 23.523438 17.34375 23.585938 18.3125 C 22.703125 17.496094 21.859375 16.648438 21.046875 15.773438 C 21.4375 15.5 21.84375 15.242188 22.265625 14.992188 C 22.363281 14.800781 22.394531 14.605469 22.363281 14.40625 C 21.8125 14.773438 21.308594 15.199219 20.851562 15.671875 C 20.453125 15.277344 20.09375 14.855469 19.773438 14.40625 C 20.238281 13.90625 20.761719 13.484375 21.335938 13.132812 Z M 21.335938 13.132812 "/>
</g>
<mask id="mask26">
  <g filter="url(#alpha)">
<rect x="0" y="0" width="50" height="50" style="fill:rgb(0%,0%,0%);fill-opacity:0.964706;stroke:none;"/>
  </g>
</mask>
<clipPath id="clip27">
  <rect x="0" y="0" width="50" height="50"/>
</clipPath>
<g id="surface83" clip-path="url(#clip27)">
<path style=" stroke:none;fill-rule:evenodd;fill:rgb(94.901961%,45.490196%,10.980392%);fill-opacity:1;" d="M 19.773438 14.40625 C 20.09375 14.855469 20.453125 15.277344 20.851562 15.671875 C 20.75 15.886719 20.816406 15.917969 21.046875 15.773438 C 21.859375 16.648438 22.703125 17.496094 23.585938 18.3125 C 23.746094 19.121094 24.007812 19.902344 24.367188 20.65625 C 24.914062 20.75 25.46875 20.785156 26.023438 20.75 C 26.492188 21.269531 26.980469 21.773438 27.492188 22.265625 C 27.707031 22.285156 27.902344 22.332031 28.078125 22.414062 C 25.863281 22.414062 23.648438 22.414062 21.4375 22.414062 C 20.96875 21.894531 20.480469 21.390625 19.96875 20.898438 C 19.753906 20.878906 19.558594 20.832031 19.382812 20.75 C 20.101562 20.769531 20.816406 20.75 21.53125 20.703125 C 21.78125 20.40625 22.011719 20.097656 22.21875 19.773438 C 22.011719 18.941406 21.882812 18.09375 21.828125 17.234375 C 21.03125 17.765625 20.382812 18.433594 19.875 19.238281 C 19.363281 19.496094 18.921875 19.414062 18.554688 18.992188 C 17.96875 17.203125 18.375 15.671875 19.773438 14.40625 Z M 19.773438 14.40625 "/>
</g>
<mask id="mask27">
  <g filter="url(#alpha)">
<rect x="0" y="0" width="50" height="50" style="fill:rgb(0%,0%,0%);fill-opacity:0.980392;stroke:none;"/>
  </g>
</mask>
<clipPath id="clip28">
  <rect x="0" y="0" width="50" height="50"/>
</clipPath>
<g id="surface86" clip-path="url(#clip28)">
<path style=" stroke:none;fill-rule:evenodd;fill:rgb(95.294118%,49.803922%,10.196078%);fill-opacity:1;" d="M 11.085938 15.476562 C 12.257812 15.476562 13.429688 15.476562 14.601562 15.476562 C 15.546875 16.527344 16.558594 17.503906 17.625 18.40625 C 18.09375 19.109375 18.289062 19.890625 18.210938 20.75 C 18.601562 20.75 18.992188 20.75 19.382812 20.75 C 19.558594 20.832031 19.753906 20.878906 19.96875 20.898438 C 20.480469 21.390625 20.96875 21.894531 21.4375 22.414062 C 20.101562 22.414062 18.765625 22.414062 17.429688 22.414062 C 17.539062 22.335938 17.671875 22.285156 17.820312 22.265625 C 17.3125 21.773438 16.824219 21.269531 16.359375 20.75 C 16.480469 20.671875 16.542969 20.539062 16.554688 20.359375 C 16.527344 19.976562 16.414062 19.617188 16.210938 19.289062 C 15.652344 18.546875 15.082031 17.8125 14.5 17.089844 C 13.851562 17.039062 13.199219 17.023438 12.546875 17.039062 C 12.0625 16.519531 11.570312 16 11.085938 15.476562 Z M 11.085938 15.476562 "/>
</g>
<mask id="mask28">
  <g filter="url(#alpha)">
<rect x="0" y="0" width="50" height="50" style="fill:rgb(0%,0%,0%);fill-opacity:0.956863;stroke:none;"/>
  </g>
</mask>
<clipPath id="clip29">
  <rect x="0" y="0" width="50" height="50"/>
</clipPath>
<g id="surface89" clip-path="url(#clip29)">
<path style=" stroke:none;fill-rule:evenodd;fill:rgb(96.078431%,57.254902%,9.019608%);fill-opacity:1;" d="M 5.421875 15.28125 C 5.5 15.558594 5.546875 15.851562 5.566406 16.164062 C 6.160156 16.707031 6.699219 17.292969 7.179688 17.921875 C 6.777344 18.496094 6.355469 19.046875 5.90625 19.578125 C 5.550781 19.15625 5.160156 18.765625 4.734375 18.40625 C 5.035156 17.894531 5.394531 17.425781 5.8125 16.992188 C 5.617188 16.863281 5.503906 16.683594 5.46875 16.453125 C 5.421875 16.066406 5.402344 15.675781 5.421875 15.28125 Z M 5.421875 15.28125 "/>
</g>
<mask id="mask29">
  <g filter="url(#alpha)">
<rect x="0" y="0" width="50" height="50" style="fill:rgb(0%,0%,0%);fill-opacity:0.976471;stroke:none;"/>
  </g>
</mask>
<clipPath id="clip30">
  <rect x="0" y="0" width="50" height="50"/>
</clipPath>
<g id="surface92" clip-path="url(#clip30)">
<path style=" stroke:none;fill-rule:evenodd;fill:rgb(92.941176%,30.980392%,13.72549%);fill-opacity:1;" d="M 43.210938 18.703125 C 43.609375 19.097656 44.03125 19.457031 44.484375 19.773438 C 44.144531 20.097656 43.785156 20.40625 43.40625 20.703125 C 44.222656 20.75 45.035156 20.769531 45.851562 20.75 C 45.742188 20.828125 45.609375 20.878906 45.460938 20.898438 C 45.96875 21.390625 46.457031 21.894531 46.921875 22.414062 C 44.710938 22.414062 42.496094 22.414062 40.28125 22.414062 C 39.816406 21.894531 39.328125 21.390625 38.820312 20.898438 C 39.003906 20.878906 39.164062 20.832031 39.304688 20.75 C 39.761719 20.769531 40.21875 20.75 40.671875 20.703125 C 40.898438 20.578125 41.09375 20.414062 41.257812 20.214844 C 40.835938 20.117188 40.414062 20.019531 39.992188 19.921875 C 39.257812 19.449219 39.226562 18.929688 39.890625 18.359375 C 40.902344 18.421875 41.894531 18.597656 42.871094 18.898438 C 43 18.851562 43.113281 18.785156 43.210938 18.703125 Z M 43.210938 18.703125 "/>
</g>
<mask id="mask30">
  <g filter="url(#alpha)">
<rect x="0" y="0" width="50" height="50" style="fill:rgb(0%,0%,0%);fill-opacity:0.94902;stroke:none;"/>
  </g>
</mask>
<clipPath id="clip31">
  <rect x="0" y="0" width="50" height="50"/>
</clipPath>
<g id="surface95" clip-path="url(#clip31)">
<path style=" stroke:none;fill-rule:evenodd;fill:rgb(96.470588%,59.607843%,8.627451%);fill-opacity:1;" d="M 4.734375 18.40625 C 5.160156 18.765625 5.550781 19.15625 5.90625 19.578125 C 5.84375 19.96875 5.8125 20.359375 5.8125 20.75 C 6.429688 20.75 7.046875 20.75 7.664062 20.75 C 7.558594 20.828125 7.425781 20.878906 7.273438 20.898438 C 7.785156 21.390625 8.273438 21.894531 8.742188 22.414062 C 7.535156 22.414062 6.332031 22.414062 5.125 22.414062 C 4.660156 21.894531 4.171875 21.390625 3.664062 20.898438 C 3.445312 20.878906 3.25 20.832031 3.078125 20.75 C 3.433594 20.75 3.792969 20.75 4.148438 20.75 C 4.074219 19.890625 4.269531 19.109375 4.734375 18.40625 Z M 4.734375 18.40625 "/>
</g>
<mask id="mask31">
  <g filter="url(#alpha)">
<rect x="0" y="0" width="50" height="50" style="fill:rgb(0%,0%,0%);fill-opacity:0.984314;stroke:none;"/>
  </g>
</mask>
<clipPath id="clip32">
  <rect x="0" y="0" width="50" height="50"/>
</clipPath>
<g id="surface98" clip-path="url(#clip32)">
<path style=" stroke:none;fill-rule:evenodd;fill:rgb(94.117647%,40%,11.764706%);fill-opacity:1;" d="M 31.203125 19.289062 C 32.15625 20.292969 33.132812 21.285156 34.132812 22.265625 C 33.980469 22.285156 33.847656 22.335938 33.742188 22.414062 C 32.859375 22.414062 31.984375 22.414062 31.101562 22.414062 C 30.929688 22.332031 30.734375 22.285156 30.515625 22.265625 C 30.007812 21.773438 29.519531 21.269531 29.054688 20.75 C 29.417969 20.785156 29.773438 20.75 30.125 20.65625 C 30.441406 20.15625 30.796875 19.699219 31.203125 19.289062 Z M 31.203125 19.289062 "/>
</g>
<mask id="mask32">
  <g filter="url(#alpha)">
<rect x="0" y="0" width="50" height="50" style="fill:rgb(0%,0%,0%);fill-opacity:0.952941;stroke:none;"/>
  </g>
</mask>
<clipPath id="clip33">
  <rect x="0" y="0" width="50" height="50"/>
</clipPath>
<g id="surface101" clip-path="url(#clip33)">
<path style=" stroke:none;fill-rule:evenodd;fill:rgb(96.862745%,62.352941%,7.843137%);fill-opacity:1;" d="M 3.078125 20.75 C 3.25 20.832031 3.445312 20.878906 3.664062 20.898438 C 4.171875 21.390625 4.660156 21.894531 5.125 22.414062 C 4.34375 22.394531 3.5625 22.414062 2.78125 22.460938 C 2.640625 22.496094 2.542969 22.578125 2.492188 22.703125 C 2.09375 22.308594 1.671875 21.949219 1.21875 21.632812 C 1.679688 21.019531 2.296875 20.726562 3.078125 20.75 Z M 3.078125 20.75 "/>
</g>
<mask id="mask33">
  <g filter="url(#alpha)">
<rect x="0" y="0" width="50" height="50" style="fill:rgb(0%,0%,0%);fill-opacity:0.941176;stroke:none;"/>
  </g>
</mask>
<clipPath id="clip34">
  <rect x="0" y="0" width="50" height="50"/>
</clipPath>
<g id="surface104" clip-path="url(#clip34)">
<path style=" stroke:none;fill-rule:evenodd;fill:rgb(96.078431%,57.254902%,9.019608%);fill-opacity:1;" d="M 7.664062 20.75 C 8.675781 20.75 9.683594 20.75 10.695312 20.75 C 10.585938 20.828125 10.453125 20.878906 10.304688 20.898438 C 10.8125 21.390625 11.300781 21.894531 11.765625 22.414062 C 10.757812 22.414062 9.75 22.414062 8.742188 22.414062 C 8.273438 21.894531 7.785156 21.390625 7.273438 20.898438 C 7.425781 20.878906 7.558594 20.828125 7.664062 20.75 Z M 7.664062 20.75 "/>
</g>
<mask id="mask34">
  <g filter="url(#alpha)">
<rect x="0" y="0" width="50" height="50" style="fill:rgb(0%,0%,0%);fill-opacity:0.941176;stroke:none;"/>
  </g>
</mask>
<clipPath id="clip35">
  <rect x="0" y="0" width="50" height="50"/>
</clipPath>
<g id="surface107" clip-path="url(#clip35)">
<path style=" stroke:none;fill-rule:evenodd;fill:rgb(95.686275%,54.901961%,9.411765%);fill-opacity:1;" d="M 10.695312 20.75 C 11.375 20.75 12.0625 20.75 12.742188 20.75 C 12.917969 20.832031 13.113281 20.878906 13.328125 20.898438 C 13.839844 21.390625 14.328125 21.894531 14.796875 22.414062 C 13.785156 22.414062 12.777344 22.414062 11.765625 22.414062 C 11.300781 21.894531 10.8125 21.390625 10.304688 20.898438 C 10.453125 20.878906 10.585938 20.828125 10.695312 20.75 Z M 10.695312 20.75 "/>
</g>
<mask id="mask35">
  <g filter="url(#alpha)">
<rect x="0" y="0" width="50" height="50" style="fill:rgb(0%,0%,0%);fill-opacity:0.960784;stroke:none;"/>
  </g>
</mask>
<clipPath id="clip36">
  <rect x="0" y="0" width="50" height="50"/>
</clipPath>
<g id="surface110" clip-path="url(#clip36)">
<path style=" stroke:none;fill-rule:evenodd;fill:rgb(95.686275%,52.54902%,9.803922%);fill-opacity:1;" d="M 12.742188 20.75 C 13.949219 20.75 15.152344 20.75 16.359375 20.75 C 16.824219 21.269531 17.3125 21.773438 17.820312 22.265625 C 17.671875 22.285156 17.539062 22.335938 17.429688 22.414062 C 16.554688 22.414062 15.671875 22.414062 14.796875 22.414062 C 14.328125 21.894531 13.839844 21.390625 13.328125 20.898438 C 13.113281 20.878906 12.917969 20.832031 12.742188 20.75 Z M 12.742188 20.75 "/>
</g>
<mask id="mask36">
  <g filter="url(#alpha)">
<rect x="0" y="0" width="50" height="50" style="fill:rgb(0%,0%,0%);fill-opacity:0.941176;stroke:none;"/>
  </g>
</mask>
<clipPath id="clip37">
  <rect x="0" y="0" width="50" height="50"/>
</clipPath>
<g id="surface113" clip-path="url(#clip37)">
<path style=" stroke:none;fill-rule:evenodd;fill:rgb(94.117647%,42.745098%,11.372549%);fill-opacity:1;" d="M 26.023438 20.75 C 27.035156 20.75 28.042969 20.75 29.054688 20.75 C 29.519531 21.269531 30.007812 21.773438 30.515625 22.265625 C 30.734375 22.285156 30.929688 22.332031 31.101562 22.414062 C 30.09375 22.414062 29.085938 22.414062 28.078125 22.414062 C 27.902344 22.332031 27.707031 22.285156 27.492188 22.265625 C 26.980469 21.773438 26.492188 21.269531 26.023438 20.75 Z M 26.023438 20.75 "/>
</g>
<mask id="mask37">
  <g filter="url(#alpha)">
<rect x="0" y="0" width="50" height="50" style="fill:rgb(0%,0%,0%);fill-opacity:0.933333;stroke:none;"/>
  </g>
</mask>
<clipPath id="clip38">
  <rect x="0" y="0" width="50" height="50"/>
</clipPath>
<g id="surface116" clip-path="url(#clip38)">
<path style=" stroke:none;fill-rule:evenodd;fill:rgb(93.72549%,36.862745%,12.54902%);fill-opacity:1;" d="M 32.375 17.625 C 32.796875 17.914062 33.21875 18.273438 33.640625 18.703125 C 33.316406 19.109375 33.007812 19.53125 32.714844 19.96875 C 32.691406 20.226562 32.742188 20.46875 32.859375 20.703125 C 35.007812 20.75 37.15625 20.769531 39.304688 20.75 C 39.164062 20.832031 39.003906 20.878906 38.820312 20.898438 C 39.328125 21.390625 39.816406 21.894531 40.28125 22.414062 C 38.101562 22.414062 35.921875 22.414062 33.742188 22.414062 C 33.847656 22.335938 33.980469 22.285156 34.132812 22.265625 C 33.132812 21.285156 32.15625 20.292969 31.203125 19.289062 C 31.519531 18.679688 31.910156 18.128906 32.375 17.625 Z M 32.375 17.625 "/>
</g>
<mask id="mask38">
  <g filter="url(#alpha)">
<rect x="0" y="0" width="50" height="50" style="fill:rgb(0%,0%,0%);fill-opacity:0.972549;stroke:none;"/>
  </g>
</mask>
<clipPath id="clip39">
  <rect x="0" y="0" width="50" height="50"/>
</clipPath>
<g id="surface119" clip-path="url(#clip39)">
<path style=" stroke:none;fill-rule:evenodd;fill:rgb(92.54902%,29.019608%,13.72549%);fill-opacity:1;" d="M 45.851562 20.75 C 46.714844 20.644531 47.527344 20.792969 48.289062 21.191406 C 48.609375 21.445312 48.855469 21.753906 49.023438 22.117188 C 49.179688 23.511719 49.214844 24.910156 49.121094 26.320312 C 48.953125 26.847656 48.644531 27.273438 48.195312 27.585938 C 47.894531 27.140625 47.535156 26.734375 47.117188 26.367188 C 47.242188 26.328125 47.308594 26.246094 47.3125 26.125 C 47.441406 25.992188 47.523438 25.828125 47.558594 25.632812 C 47.625 24.789062 47.625 23.941406 47.558594 23.09375 C 47.523438 22.695312 47.3125 22.46875 46.921875 22.414062 C 46.457031 21.894531 45.96875 21.390625 45.460938 20.898438 C 45.609375 20.878906 45.742188 20.828125 45.851562 20.75 Z M 45.851562 20.75 "/>
</g>
<mask id="mask39">
  <g filter="url(#alpha)">
<rect x="0" y="0" width="50" height="50" style="fill:rgb(0%,0%,0%);fill-opacity:0.988235;stroke:none;"/>
  </g>
</mask>
<clipPath id="clip40">
  <rect x="0" y="0" width="50" height="50"/>
</clipPath>
<g id="surface122" clip-path="url(#clip40)">
<path style=" stroke:none;fill-rule:evenodd;fill:rgb(97.254902%,64.705882%,7.45098%);fill-opacity:1;" d="M 1.21875 21.632812 C 1.671875 21.949219 2.09375 22.308594 2.492188 22.703125 C 2.433594 22.828125 2.382812 22.957031 2.34375 23.09375 C 2.296875 23.910156 2.277344 24.722656 2.296875 25.539062 C 1.773438 25.046875 1.253906 24.5625 0.734375 24.070312 C 0.714844 23.519531 0.734375 22.964844 0.78125 22.414062 C 0.855469 22.101562 1 21.839844 1.21875 21.632812 Z M 1.21875 21.632812 "/>
</g>
<mask id="mask40">
  <g filter="url(#alpha)">
<rect x="0" y="0" width="50" height="50" style="fill:rgb(0%,0%,0%);fill-opacity:0.984314;stroke:none;"/>
  </g>
</mask>
<clipPath id="clip41">
  <rect x="0" y="0" width="50" height="50"/>
</clipPath>
<g id="surface125" clip-path="url(#clip41)">
<path style=" stroke:none;fill-rule:evenodd;fill:rgb(97.254902%,67.058824%,7.058824%);fill-opacity:1;" d="M 0.734375 24.070312 C 1.253906 24.5625 1.773438 25.046875 2.296875 25.539062 C 2.359375 25.992188 2.621094 26.253906 3.078125 26.320312 C 3.542969 26.835938 4.03125 27.339844 4.539062 27.832031 C 4.359375 27.890625 4.328125 27.972656 4.445312 28.078125 C 4.652344 29.117188 4.847656 30.15625 5.03125 31.203125 C 5.042969 31.273438 5.027344 31.339844 4.980469 31.398438 C 4.351562 30.71875 3.6875 30.101562 2.976562 29.539062 C 2.921875 29.007812 2.808594 28.484375 2.636719 27.976562 C 1.824219 27.816406 1.238281 27.359375 0.878906 26.609375 C 0.742188 25.773438 0.691406 24.925781 0.734375 24.070312 Z M 0.734375 24.070312 "/>
</g>
<mask id="mask41">
  <g filter="url(#alpha)">
<rect x="0" y="0" width="50" height="50" style="fill:rgb(0%,0%,0%);fill-opacity:0.956863;stroke:none;"/>
  </g>
</mask>
<clipPath id="clip42">
  <rect x="0" y="0" width="50" height="50"/>
</clipPath>
<g id="surface128" clip-path="url(#clip42)">
<path style=" stroke:none;fill-rule:evenodd;fill:rgb(97.254902%,64.705882%,7.45098%);fill-opacity:1;" d="M 3.078125 26.320312 C 4.085938 26.320312 5.09375 26.320312 6.101562 26.320312 C 6.570312 26.835938 7.058594 27.339844 7.570312 27.832031 C 7.417969 27.851562 7.285156 27.902344 7.179688 27.976562 C 6.25 27.945312 5.335938 27.980469 4.445312 28.078125 C 4.328125 27.972656 4.359375 27.890625 4.539062 27.832031 C 4.03125 27.339844 3.542969 26.835938 3.078125 26.320312 Z M 3.078125 26.320312 "/>
</g>
<mask id="mask42">
  <g filter="url(#alpha)">
<rect x="0" y="0" width="50" height="50" style="fill:rgb(0%,0%,0%);fill-opacity:0.941176;stroke:none;"/>
  </g>
</mask>
<clipPath id="clip43">
  <rect x="0" y="0" width="50" height="50"/>
</clipPath>
<g id="surface131" clip-path="url(#clip43)">
<path style=" stroke:none;fill-rule:evenodd;fill:rgb(96.862745%,62.352941%,7.843137%);fill-opacity:1;" d="M 6.101562 26.320312 C 7.113281 26.320312 8.121094 26.320312 9.132812 26.320312 C 9.597656 26.835938 10.085938 27.339844 10.59375 27.832031 C 10.445312 27.851562 10.3125 27.902344 10.203125 27.976562 C 9.195312 27.976562 8.1875 27.976562 7.179688 27.976562 C 7.285156 27.902344 7.417969 27.851562 7.570312 27.832031 C 7.058594 27.339844 6.570312 26.835938 6.101562 26.320312 Z M 6.101562 26.320312 "/>
</g>
<mask id="mask43">
  <g filter="url(#alpha)">
<rect x="0" y="0" width="50" height="50" style="fill:rgb(0%,0%,0%);fill-opacity:0.956863;stroke:none;"/>
  </g>
</mask>
<clipPath id="clip44">
  <rect x="0" y="0" width="50" height="50"/>
</clipPath>
<g id="surface134" clip-path="url(#clip44)">
<path style=" stroke:none;fill-rule:evenodd;fill:rgb(96.470588%,60%,8.235294%);fill-opacity:1;" d="M 9.132812 26.320312 C 10.335938 26.320312 11.539062 26.320312 12.742188 26.320312 C 13.210938 26.835938 13.699219 27.339844 14.210938 27.832031 C 14.425781 27.851562 14.621094 27.898438 14.796875 27.976562 C 13.949219 27.960938 13.101562 27.976562 12.257812 28.027344 C 12.347656 28.566406 12.445312 29.101562 12.546875 29.640625 C 11.90625 29.144531 11.304688 28.589844 10.742188 27.976562 C 10.695312 28.070312 10.679688 28.167969 10.695312 28.273438 C 10.605469 28.203125 10.574219 28.105469 10.59375 27.976562 C 10.464844 27.976562 10.335938 27.976562 10.203125 27.976562 C 10.3125 27.902344 10.445312 27.851562 10.59375 27.832031 C 10.085938 27.339844 9.597656 26.835938 9.132812 26.320312 Z M 9.132812 26.320312 "/>
</g>
<mask id="mask44">
  <g filter="url(#alpha)">
<rect x="0" y="0" width="50" height="50" style="fill:rgb(0%,0%,0%);fill-opacity:0.945098;stroke:none;"/>
  </g>
</mask>
<clipPath id="clip45">
  <rect x="0" y="0" width="50" height="50"/>
</clipPath>
<g id="surface137" clip-path="url(#clip45)">
<path style=" stroke:none;fill-rule:evenodd;fill:rgb(96.078431%,57.254902%,9.019608%);fill-opacity:1;" d="M 12.742188 26.320312 C 13.753906 26.320312 14.761719 26.320312 15.773438 26.320312 C 16.292969 26.871094 16.8125 27.425781 17.335938 27.976562 C 16.488281 27.976562 15.640625 27.976562 14.796875 27.976562 C 14.621094 27.898438 14.425781 27.851562 14.210938 27.832031 C 13.699219 27.339844 13.210938 26.835938 12.742188 26.320312 Z M 12.742188 26.320312 "/>
</g>
<mask id="mask45">
  <g filter="url(#alpha)">
<rect x="0" y="0" width="50" height="50" style="fill:rgb(0%,0%,0%);fill-opacity:0.964706;stroke:none;"/>
  </g>
</mask>
<clipPath id="clip46">
  <rect x="0" y="0" width="50" height="50"/>
</clipPath>
<g id="surface140" clip-path="url(#clip46)">
<path style=" stroke:none;fill-rule:evenodd;fill:rgb(95.686275%,55.294118%,9.411765%);fill-opacity:1;" d="M 15.773438 26.320312 C 16.78125 26.320312 17.789062 26.320312 18.796875 26.320312 C 19.265625 26.835938 19.753906 27.339844 20.265625 27.832031 C 20.511719 27.851562 20.738281 27.898438 20.945312 27.976562 C 20.292969 27.945312 19.640625 27.980469 18.992188 28.078125 C 19.085938 28.589844 19.121094 29.113281 19.09375 29.640625 C 18.542969 29.136719 18.003906 28.617188 17.480469 28.078125 C 17.441406 28.128906 17.394531 28.164062 17.335938 28.171875 C 17.335938 28.109375 17.335938 28.042969 17.335938 27.976562 C 16.8125 27.425781 16.292969 26.871094 15.773438 26.320312 Z M 15.773438 26.320312 "/>
</g>
<mask id="mask46">
  <g filter="url(#alpha)">
<rect x="0" y="0" width="50" height="50" style="fill:rgb(0%,0%,0%);fill-opacity:0.980392;stroke:none;"/>
  </g>
</mask>
<clipPath id="clip47">
  <rect x="0" y="0" width="50" height="50"/>
</clipPath>
<g id="surface143" clip-path="url(#clip47)">
<path style=" stroke:none;fill-rule:evenodd;fill:rgb(95.686275%,52.54902%,9.803922%);fill-opacity:1;" d="M 18.796875 26.320312 C 19.839844 26.320312 20.882812 26.320312 21.921875 26.320312 C 22.390625 26.835938 22.878906 27.339844 23.390625 27.832031 C 23.109375 27.851562 22.847656 27.898438 22.609375 27.976562 C 22.054688 27.976562 21.5 27.976562 20.945312 27.976562 C 20.738281 27.898438 20.511719 27.851562 20.265625 27.832031 C 19.753906 27.339844 19.265625 26.835938 18.796875 26.320312 Z M 18.796875 26.320312 "/>
</g>
<mask id="mask47">
  <g filter="url(#alpha)">
<rect x="0" y="0" width="50" height="50" style="fill:rgb(0%,0%,0%);fill-opacity:0.964706;stroke:none;"/>
  </g>
</mask>
<clipPath id="clip48">
  <rect x="0" y="0" width="50" height="50"/>
</clipPath>
<g id="surface146" clip-path="url(#clip48)">
<path style=" stroke:none;fill-rule:evenodd;fill:rgb(95.294118%,50.196078%,10.196078%);fill-opacity:1;" d="M 21.921875 26.320312 C 23.289062 26.320312 24.65625 26.320312 26.023438 26.320312 C 25.882812 26.398438 25.722656 26.445312 25.539062 26.464844 C 26.046875 26.957031 26.535156 27.460938 27 27.976562 C 26.578125 27.976562 26.15625 27.976562 25.734375 27.976562 C 25.734375 28.695312 25.734375 29.410156 25.734375 30.125 C 25.210938 29.640625 24.691406 29.148438 24.171875 28.664062 C 24.171875 28.433594 24.171875 28.207031 24.171875 27.976562 C 23.648438 27.976562 23.128906 27.976562 22.609375 27.976562 C 22.847656 27.898438 23.109375 27.851562 23.390625 27.832031 C 22.878906 27.339844 22.390625 26.835938 21.921875 26.320312 Z M 21.921875 26.320312 "/>
</g>
<mask id="mask48">
  <g filter="url(#alpha)">
<rect x="0" y="0" width="50" height="50" style="fill:rgb(0%,0%,0%);fill-opacity:0.941176;stroke:none;"/>
  </g>
</mask>
<clipPath id="clip49">
  <rect x="0" y="0" width="50" height="50"/>
</clipPath>
<g id="surface149" clip-path="url(#clip49)">
<path style=" stroke:none;fill-rule:evenodd;fill:rgb(94.901961%,47.45098%,10.588235%);fill-opacity:1;" d="M 26.023438 26.320312 C 27.035156 26.320312 28.042969 26.320312 29.054688 26.320312 C 28.945312 26.394531 28.8125 26.445312 28.664062 26.464844 C 29.171875 26.957031 29.660156 27.460938 30.125 27.976562 C 29.085938 27.976562 28.042969 27.976562 27 27.976562 C 26.535156 27.460938 26.046875 26.957031 25.539062 26.464844 C 25.722656 26.445312 25.882812 26.398438 26.023438 26.320312 Z M 26.023438 26.320312 "/>
</g>
<mask id="mask49">
  <g filter="url(#alpha)">
<rect x="0" y="0" width="50" height="50" style="fill:rgb(0%,0%,0%);fill-opacity:0.964706;stroke:none;"/>
  </g>
</mask>
<clipPath id="clip50">
  <rect x="0" y="0" width="50" height="50"/>
</clipPath>
<g id="surface152" clip-path="url(#clip50)">
<path style=" stroke:none;fill-rule:evenodd;fill:rgb(94.509804%,45.098039%,10.980392%);fill-opacity:1;" d="M 29.054688 26.320312 C 30.0625 26.320312 31.070312 26.320312 32.078125 26.320312 C 31.972656 26.394531 31.839844 26.445312 31.6875 26.464844 C 32.199219 26.957031 32.6875 27.460938 33.15625 27.976562 C 32.960938 27.976562 32.765625 27.976562 32.570312 27.976562 C 32.503906 28.664062 32.4375 29.34375 32.375 30.03125 C 31.851562 29.605469 31.332031 29.183594 30.8125 28.757812 C 30.789062 28.523438 30.824219 28.296875 30.90625 28.078125 C 30.65625 27.980469 30.394531 27.949219 30.125 27.976562 C 29.660156 27.460938 29.171875 26.957031 28.664062 26.464844 C 28.8125 26.445312 28.945312 26.394531 29.054688 26.320312 Z M 29.054688 26.320312 "/>
</g>
<mask id="mask50">
  <g filter="url(#alpha)">
<rect x="0" y="0" width="50" height="50" style="fill:rgb(0%,0%,0%);fill-opacity:0.941176;stroke:none;"/>
  </g>
</mask>
<clipPath id="clip51">
  <rect x="0" y="0" width="50" height="50"/>
</clipPath>
<g id="surface155" clip-path="url(#clip51)">
<path style=" stroke:none;fill-rule:evenodd;fill:rgb(94.117647%,42.745098%,11.372549%);fill-opacity:1;" d="M 32.078125 26.320312 C 33.089844 26.320312 34.097656 26.320312 35.109375 26.320312 C 35 26.394531 34.867188 26.445312 34.71875 26.464844 C 35.226562 26.957031 35.714844 27.460938 36.179688 27.976562 C 35.171875 27.976562 34.164062 27.976562 33.15625 27.976562 C 32.6875 27.460938 32.199219 26.957031 31.6875 26.464844 C 31.839844 26.445312 31.972656 26.394531 32.078125 26.320312 Z M 32.078125 26.320312 "/>
</g>
<mask id="mask51">
  <g filter="url(#alpha)">
<rect x="0" y="0" width="50" height="50" style="fill:rgb(0%,0%,0%);fill-opacity:0.976471;stroke:none;"/>
  </g>
</mask>
<clipPath id="clip52">
  <rect x="0" y="0" width="50" height="50"/>
</clipPath>
<g id="surface158" clip-path="url(#clip52)">
<path style=" stroke:none;fill-rule:evenodd;fill:rgb(94.117647%,40.392157%,11.764706%);fill-opacity:1;" d="M 35.109375 26.320312 C 36.148438 26.320312 37.191406 26.320312 38.234375 26.320312 C 38.699219 26.835938 39.1875 27.339844 39.695312 27.832031 C 39.546875 27.851562 39.414062 27.902344 39.304688 27.976562 C 39.195312 28.863281 39.0625 29.742188 38.914062 30.617188 C 38.429688 30.160156 37.9375 29.703125 37.453125 29.25 C 37.488281 28.832031 37.554688 28.425781 37.648438 28.027344 C 37.160156 27.980469 36.671875 27.960938 36.179688 27.976562 C 35.714844 27.460938 35.226562 26.957031 34.71875 26.464844 C 34.867188 26.445312 35 26.394531 35.109375 26.320312 Z M 35.109375 26.320312 "/>
</g>
<mask id="mask52">
  <g filter="url(#alpha)">
<rect x="0" y="0" width="50" height="50" style="fill:rgb(0%,0%,0%);fill-opacity:0.945098;stroke:none;"/>
  </g>
</mask>
<clipPath id="clip53">
  <rect x="0" y="0" width="50" height="50"/>
</clipPath>
<g id="surface161" clip-path="url(#clip53)">
<path style=" stroke:none;fill-rule:evenodd;fill:rgb(93.72549%,37.647059%,12.54902%);fill-opacity:1;" d="M 38.234375 26.320312 C 39.242188 26.320312 40.25 26.320312 41.257812 26.320312 C 41.726562 26.835938 42.214844 27.339844 42.726562 27.832031 C 42.574219 27.851562 42.441406 27.902344 42.335938 27.976562 C 41.324219 27.976562 40.316406 27.976562 39.304688 27.976562 C 39.414062 27.902344 39.546875 27.851562 39.695312 27.832031 C 39.1875 27.339844 38.699219 26.835938 38.234375 26.320312 Z M 38.234375 26.320312 "/>
</g>
<mask id="mask53">
  <g filter="url(#alpha)">
<rect x="0" y="0" width="50" height="50" style="fill:rgb(0%,0%,0%);fill-opacity:0.956863;stroke:none;"/>
  </g>
</mask>
<clipPath id="clip54">
  <rect x="0" y="0" width="50" height="50"/>
</clipPath>
<g id="surface164" clip-path="url(#clip54)">
<path style=" stroke:none;fill-rule:evenodd;fill:rgb(93.333333%,34.901961%,12.941176%);fill-opacity:1;" d="M 47.3125 26.125 C 47.308594 26.246094 47.242188 26.328125 47.117188 26.367188 C 47.535156 26.734375 47.894531 27.140625 48.195312 27.585938 C 47.921875 27.753906 47.628906 27.867188 47.3125 27.929688 C 47.253906 28.003906 47.203125 28.085938 47.167969 28.171875 C 46.953125 29.300781 46.707031 30.40625 46.4375 31.492188 C 45.980469 31.070312 45.523438 30.648438 45.070312 30.226562 C 45.199219 29.476562 45.328125 28.726562 45.460938 27.976562 C 44.417969 27.976562 43.375 27.976562 42.335938 27.976562 C 42.441406 27.902344 42.574219 27.851562 42.726562 27.832031 C 42.214844 27.339844 41.726562 26.835938 41.257812 26.320312 C 43.179688 26.335938 45.101562 26.320312 47.023438 26.269531 C 47.121094 26.21875 47.21875 26.171875 47.3125 26.125 Z M 47.3125 26.125 "/>
</g>
<mask id="mask54">
  <g filter="url(#alpha)">
<rect x="0" y="0" width="50" height="50" style="fill:rgb(0%,0%,0%);fill-opacity:0.945098;stroke:none;"/>
  </g>
</mask>
<clipPath id="clip55">
  <rect x="0" y="0" width="50" height="50"/>
</clipPath>
<g id="surface167" clip-path="url(#clip55)">
<path style=" stroke:none;fill-rule:evenodd;fill:rgb(96.862745%,62.352941%,7.843137%);fill-opacity:1;" d="M 12.546875 29.640625 C 12.65625 30.714844 12.785156 31.789062 12.9375 32.859375 C 13.851562 32.859375 14.761719 32.859375 15.671875 32.859375 C 16.140625 33.378906 16.628906 33.882812 17.140625 34.375 C 17.355469 34.394531 17.550781 34.441406 17.726562 34.523438 C 16.390625 34.523438 15.054688 34.523438 13.71875 34.523438 C 13.828125 34.445312 13.960938 34.394531 14.109375 34.375 C 13.113281 33.363281 12.105469 32.371094 11.085938 31.398438 C 10.910156 30.363281 10.777344 29.320312 10.695312 28.273438 C 10.679688 28.167969 10.695312 28.070312 10.742188 27.976562 C 11.304688 28.589844 11.90625 29.144531 12.546875 29.640625 Z M 12.546875 29.640625 "/>
</g>
<mask id="mask55">
  <g filter="url(#alpha)">
<rect x="0" y="0" width="50" height="50" style="fill:rgb(0%,0%,0%);fill-opacity:0.980392;stroke:none;"/>
  </g>
</mask>
<clipPath id="clip56">
  <rect x="0" y="0" width="50" height="50"/>
</clipPath>
<g id="surface170" clip-path="url(#clip56)">
<path style=" stroke:none;fill-rule:evenodd;fill:rgb(95.686275%,52.54902%,9.803922%);fill-opacity:1;" d="M 24.171875 28.664062 C 24.691406 29.148438 25.210938 29.640625 25.734375 30.125 C 25.734375 31.039062 25.734375 31.949219 25.734375 32.859375 C 26.644531 32.859375 27.554688 32.859375 28.46875 32.859375 C 28.933594 33.378906 29.421875 33.882812 29.929688 34.375 C 29.585938 34.390625 29.261719 34.441406 28.953125 34.523438 C 28.46875 34.523438 27.976562 34.523438 27.492188 34.523438 C 27.28125 34.441406 27.054688 34.394531 26.804688 34.375 C 25.941406 33.492188 25.0625 32.628906 24.171875 31.789062 C 24.171875 30.746094 24.171875 29.703125 24.171875 28.664062 Z M 24.171875 28.664062 "/>
</g>
<mask id="mask56">
  <g filter="url(#alpha)">
<rect x="0" y="0" width="50" height="50" style="fill:rgb(0%,0%,0%);fill-opacity:0.972549;stroke:none;"/>
  </g>
</mask>
<clipPath id="clip57">
  <rect x="0" y="0" width="50" height="50"/>
</clipPath>
<g id="surface173" clip-path="url(#clip57)">
<path style=" stroke:none;fill-rule:evenodd;fill:rgb(94.901961%,47.45098%,10.588235%);fill-opacity:1;" d="M 30.8125 28.757812 C 31.332031 29.183594 31.851562 29.605469 32.375 30.03125 C 32.355469 30.945312 32.289062 31.859375 32.179688 32.765625 C 33.316406 32.859375 34.453125 32.894531 35.59375 32.859375 C 35.488281 32.9375 35.355469 32.988281 35.203125 33.007812 C 35.714844 33.5 36.203125 34.003906 36.671875 34.523438 C 35.464844 34.523438 34.261719 34.523438 33.054688 34.523438 C 33.164062 34.445312 33.296875 34.394531 33.445312 34.375 C 32.515625 33.425781 31.570312 32.5 30.617188 31.59375 C 30.699219 30.648438 30.761719 29.707031 30.8125 28.757812 Z M 30.8125 28.757812 "/>
</g>
<mask id="mask57">
  <g filter="url(#alpha)">
<rect x="0" y="0" width="50" height="50" style="fill:rgb(0%,0%,0%);fill-opacity:0.960784;stroke:none;"/>
  </g>
</mask>
<clipPath id="clip58">
  <rect x="0" y="0" width="50" height="50"/>
</clipPath>
<g id="surface176" clip-path="url(#clip58)">
<path style=" stroke:none;fill-rule:evenodd;fill:rgb(94.509804%,42.745098%,11.372549%);fill-opacity:1;" d="M 37.453125 29.25 C 37.9375 29.703125 38.429688 30.160156 38.914062 30.617188 C 38.867188 31.339844 38.769531 32.054688 38.625 32.765625 C 39.304688 32.859375 39.988281 32.894531 40.671875 32.859375 C 40.847656 32.941406 41.042969 32.988281 41.257812 33.007812 C 41.769531 33.5 42.257812 34.003906 42.726562 34.523438 C 42.039062 34.523438 41.359375 34.523438 40.671875 34.523438 C 40.335938 34.441406 39.976562 34.390625 39.601562 34.375 C 38.800781 33.578125 38.003906 32.78125 37.207031 31.984375 C 37.179688 32.070312 37.132812 32.136719 37.0625 32.179688 C 37.179688 31.199219 37.3125 30.222656 37.453125 29.25 Z M 37.453125 29.25 "/>
</g>
<mask id="mask58">
  <g filter="url(#alpha)">
<rect x="0" y="0" width="50" height="50" style="fill:rgb(0%,0%,0%);fill-opacity:0.984314;stroke:none;"/>
  </g>
</mask>
<clipPath id="clip59">
  <rect x="0" y="0" width="50" height="50"/>
</clipPath>
<g id="surface179" clip-path="url(#clip59)">
<path style=" stroke:none;fill-rule:evenodd;fill:rgb(97.647059%,69.019608%,6.666667%);fill-opacity:1;" d="M 2.976562 29.539062 C 3.6875 30.101562 4.351562 30.71875 4.980469 31.398438 C 5.027344 31.339844 5.042969 31.273438 5.03125 31.203125 C 5.183594 31.738281 5.3125 32.289062 5.421875 32.859375 C 6.101562 32.859375 6.789062 32.859375 7.46875 32.859375 C 7.9375 33.378906 8.425781 33.882812 8.9375 34.375 C 8.625 34.394531 8.332031 34.441406 8.054688 34.523438 C 7.308594 34.523438 6.558594 34.523438 5.8125 34.523438 C 5.886719 34.976562 5.953125 35.429688 6.007812 35.890625 C 5.320312 35.238281 4.640625 34.585938 3.953125 33.9375 C 3.644531 32.464844 3.320312 31 2.976562 29.539062 Z M 2.976562 29.539062 "/>
</g>
<mask id="mask59">
  <g filter="url(#alpha)">
<rect x="0" y="0" width="50" height="50" style="fill:rgb(0%,0%,0%);fill-opacity:0.968627;stroke:none;"/>
  </g>
</mask>
<clipPath id="clip60">
  <rect x="0" y="0" width="50" height="50"/>
</clipPath>
<g id="surface182" clip-path="url(#clip60)">
<path style=" stroke:none;fill-rule:evenodd;fill:rgb(93.72549%,37.647059%,12.54902%);fill-opacity:1;" d="M 45.070312 30.226562 C 45.523438 30.648438 45.980469 31.070312 46.4375 31.492188 C 46.296875 32.34375 46.136719 33.191406 45.945312 34.03125 C 45.421875 33.605469 44.964844 33.117188 44.578125 32.570312 C 44.695312 31.773438 44.855469 30.992188 45.070312 30.226562 Z M 45.070312 30.226562 "/>
</g>
<mask id="mask60">
  <g filter="url(#alpha)">
<rect x="0" y="0" width="50" height="50" style="fill:rgb(0%,0%,0%);fill-opacity:0.976471;stroke:none;"/>
  </g>
</mask>
<clipPath id="clip61">
  <rect x="0" y="0" width="50" height="50"/>
</clipPath>
<g id="surface185" clip-path="url(#clip61)">
<path style=" stroke:none;fill-rule:evenodd;fill:rgb(97.254902%,65.098039%,7.45098%);fill-opacity:1;" d="M 11.085938 31.398438 C 12.105469 32.371094 13.113281 33.363281 14.109375 34.375 C 13.960938 34.394531 13.828125 34.445312 13.71875 34.523438 C 13.515625 34.492188 13.320312 34.523438 13.132812 34.617188 C 13.265625 35.132812 13.328125 35.652344 13.328125 36.179688 C 13.34375 36.316406 13.328125 36.445312 13.28125 36.570312 C 12.722656 36 12.15625 35.445312 11.570312 34.914062 C 11.5 34.792969 11.46875 34.664062 11.476562 34.523438 C 10.335938 34.523438 9.195312 34.523438 8.054688 34.523438 C 8.332031 34.441406 8.625 34.394531 8.9375 34.375 C 8.425781 33.882812 7.9375 33.378906 7.46875 32.859375 C 8.742188 32.894531 10.011719 32.859375 11.28125 32.765625 C 11.183594 32.3125 11.117188 31.859375 11.085938 31.398438 Z M 11.085938 31.398438 "/>
</g>
<mask id="mask61">
  <g filter="url(#alpha)">
<rect x="0" y="0" width="50" height="50" style="fill:rgb(0%,0%,0%);fill-opacity:0.960784;stroke:none;"/>
  </g>
</mask>
<clipPath id="clip62">
  <rect x="0" y="0" width="50" height="50"/>
</clipPath>
<g id="surface188" clip-path="url(#clip62)">
<path style=" stroke:none;fill-rule:evenodd;fill:rgb(96.470588%,60%,8.627451%);fill-opacity:1;" d="M 21.335938 34.523438 C 20.71875 34.523438 20.101562 34.523438 19.484375 34.523438 C 19.527344 35.238281 19.558594 35.953125 19.578125 36.671875 C 18.992188 36.179688 18.40625 35.695312 17.820312 35.203125 C 17.851562 34.957031 17.820312 34.726562 17.726562 34.523438 C 17.550781 34.441406 17.355469 34.394531 17.140625 34.375 C 16.628906 33.882812 16.140625 33.378906 15.671875 32.859375 C 16.359375 32.894531 17.042969 32.859375 17.726562 32.765625 C 17.636719 32.445312 17.601562 32.121094 17.625 31.789062 C 17.703125 31.679688 17.753906 31.546875 17.773438 31.398438 C 18.765625 32.390625 19.757812 33.382812 20.75 34.375 C 20.96875 34.394531 21.164062 34.441406 21.335938 34.523438 Z M 21.335938 34.523438 "/>
</g>
<mask id="mask62">
  <g filter="url(#alpha)">
<rect x="0" y="0" width="50" height="50" style="fill:rgb(0%,0%,0%);fill-opacity:0.984314;stroke:none;"/>
  </g>
</mask>
<clipPath id="clip63">
  <rect x="0" y="0" width="50" height="50"/>
</clipPath>
<g id="surface191" clip-path="url(#clip63)">
<path style=" stroke:none;fill-rule:evenodd;fill:rgb(95.294118%,50.196078%,10.196078%);fill-opacity:1;" d="M 30.617188 31.59375 C 31.570312 32.5 32.515625 33.425781 33.445312 34.375 C 33.296875 34.394531 33.164062 34.445312 33.054688 34.523438 C 32.730469 34.523438 32.40625 34.523438 32.078125 34.523438 C 32.066406 35.140625 32.03125 35.757812 31.984375 36.375 C 31.425781 35.886719 30.90625 35.367188 30.421875 34.8125 C 30.421875 34.71875 30.421875 34.617188 30.421875 34.523438 C 29.929688 34.523438 29.445312 34.523438 28.953125 34.523438 C 29.261719 34.441406 29.585938 34.390625 29.929688 34.375 C 29.421875 33.882812 28.933594 33.378906 28.46875 32.859375 C 29.148438 32.859375 29.835938 32.859375 30.515625 32.859375 C 30.59375 32.441406 30.628906 32.019531 30.617188 31.59375 Z M 30.617188 31.59375 "/>
</g>
<mask id="mask63">
  <g filter="url(#alpha)">
<rect x="0" y="0" width="50" height="50" style="fill:rgb(0%,0%,0%);fill-opacity:0.964706;stroke:none;"/>
  </g>
</mask>
<clipPath id="clip64">
  <rect x="0" y="0" width="50" height="50"/>
</clipPath>
<g id="surface194" clip-path="url(#clip64)">
<path style=" stroke:none;fill-rule:evenodd;fill:rgb(94.509804%,45.098039%,10.980392%);fill-opacity:1;" d="M 40.671875 34.523438 C 39.925781 34.523438 39.175781 34.523438 38.429688 34.523438 C 38.347656 35.039062 38.28125 35.5625 38.234375 36.085938 C 37.742188 35.5625 37.257812 35.042969 36.765625 34.523438 C 36.734375 34.523438 36.703125 34.523438 36.671875 34.523438 C 36.203125 34.003906 35.714844 33.5 35.203125 33.007812 C 35.355469 32.988281 35.488281 32.9375 35.59375 32.859375 C 36.050781 32.859375 36.507812 32.859375 36.960938 32.859375 C 36.980469 32.628906 37.011719 32.402344 37.0625 32.179688 C 37.132812 32.136719 37.179688 32.070312 37.207031 31.984375 C 38.003906 32.78125 38.800781 33.578125 39.601562 34.375 C 39.976562 34.390625 40.335938 34.441406 40.671875 34.523438 Z M 40.671875 34.523438 "/>
</g>
<mask id="mask64">
  <g filter="url(#alpha)">
<rect x="0" y="0" width="50" height="50" style="fill:rgb(0%,0%,0%);fill-opacity:0.984314;stroke:none;"/>
  </g>
</mask>
<clipPath id="clip65">
  <rect x="0" y="0" width="50" height="50"/>
</clipPath>
<g id="surface197" clip-path="url(#clip65)">
<path style=" stroke:none;fill-rule:evenodd;fill:rgb(95.686275%,54.901961%,9.411765%);fill-opacity:1;" d="M 24.171875 31.789062 C 25.0625 32.628906 25.941406 33.492188 26.804688 34.375 C 27.054688 34.394531 27.28125 34.441406 27.492188 34.523438 C 26.90625 34.523438 26.320312 34.523438 25.734375 34.523438 C 25.734375 35.109375 25.734375 35.695312 25.734375 36.28125 C 25.210938 35.789062 24.691406 35.304688 24.171875 34.8125 C 24.171875 34.71875 24.171875 34.617188 24.171875 34.523438 C 23.910156 34.523438 23.648438 34.523438 23.390625 34.523438 C 23.496094 34.445312 23.628906 34.394531 23.78125 34.375 C 23.269531 33.882812 22.78125 33.378906 22.3125 32.859375 C 22.933594 32.859375 23.550781 32.859375 24.171875 32.859375 C 24.171875 32.503906 24.171875 32.144531 24.171875 31.789062 Z M 24.171875 31.789062 "/>
</g>
<mask id="mask65">
  <g filter="url(#alpha)">
<rect x="0" y="0" width="50" height="50" style="fill:rgb(0%,0%,0%);fill-opacity:0.964706;stroke:none;"/>
  </g>
</mask>
<clipPath id="clip66">
  <rect x="0" y="0" width="50" height="50"/>
</clipPath>
<g id="surface200" clip-path="url(#clip66)">
<path style=" stroke:none;fill-rule:evenodd;fill:rgb(94.117647%,40.392157%,11.764706%);fill-opacity:1;" d="M 44.578125 32.570312 C 44.964844 33.117188 45.421875 33.605469 45.945312 34.03125 C 45.742188 35.027344 45.515625 36.003906 45.265625 36.960938 C 44.808594 36.539062 44.351562 36.117188 43.898438 35.695312 C 43.972656 35.304688 44.039062 34.914062 44.09375 34.523438 C 43.636719 34.523438 43.179688 34.523438 42.726562 34.523438 C 42.257812 34.003906 41.769531 33.5 41.257812 33.007812 C 41.042969 32.988281 40.847656 32.941406 40.671875 32.859375 C 41.945312 32.859375 43.210938 32.859375 44.484375 32.859375 C 44.460938 32.734375 44.492188 32.636719 44.578125 32.570312 Z M 44.578125 32.570312 "/>
</g>
<mask id="mask66">
  <g filter="url(#alpha)">
<rect x="0" y="0" width="50" height="50" style="fill:rgb(0%,0%,0%);fill-opacity:0.956863;stroke:none;"/>
  </g>
</mask>
<clipPath id="clip67">
  <rect x="0" y="0" width="50" height="50"/>
</clipPath>
<g id="surface203" clip-path="url(#clip67)">
<path style=" stroke:none;fill-rule:evenodd;fill:rgb(96.078431%,57.254902%,9.019608%);fill-opacity:1;" d="M 19.09375 29.640625 C 19.203125 30.699219 19.300781 31.773438 19.382812 32.859375 C 20.359375 32.859375 21.335938 32.859375 22.3125 32.859375 C 22.78125 33.378906 23.269531 33.882812 23.78125 34.375 C 23.628906 34.394531 23.496094 34.445312 23.390625 34.523438 C 22.703125 34.523438 22.023438 34.523438 21.335938 34.523438 C 21.164062 34.441406 20.96875 34.394531 20.75 34.375 C 19.757812 33.382812 18.765625 32.390625 17.773438 31.398438 C 17.753906 31.546875 17.703125 31.679688 17.625 31.789062 C 17.550781 30.574219 17.453125 29.371094 17.335938 28.171875 C 17.394531 28.164062 17.441406 28.128906 17.480469 28.078125 C 18.003906 28.617188 18.542969 29.136719 19.09375 29.640625 Z M 19.09375 29.640625 "/>
</g>
<mask id="mask67">
  <g filter="url(#alpha)">
<rect x="0" y="0" width="50" height="50" style="fill:rgb(0%,0%,0%);fill-opacity:0.956863;stroke:none;"/>
  </g>
</mask>
<clipPath id="clip68">
  <rect x="0" y="0" width="50" height="50"/>
</clipPath>
<g id="surface206" clip-path="url(#clip68)">
<path style=" stroke:none;fill-rule:evenodd;fill:rgb(98.039216%,72.156863%,6.27451%);fill-opacity:1;" d="M 3.953125 33.9375 C 4.640625 34.585938 5.320312 35.238281 6.007812 35.890625 C 6.324219 37.035156 6.585938 38.207031 6.789062 39.40625 C 7.699219 39.40625 8.609375 39.40625 9.523438 39.40625 C 9.988281 39.921875 10.476562 40.425781 10.984375 40.917969 C 10.835938 40.9375 10.703125 40.988281 10.59375 41.0625 C 9.71875 41.0625 8.835938 41.0625 7.960938 41.0625 C 6.949219 39.992188 5.90625 38.949219 4.835938 37.9375 C 4.503906 36.625 4.210938 35.289062 3.953125 33.9375 Z M 3.953125 33.9375 "/>
</g>
<mask id="mask68">
  <g filter="url(#alpha)">
<rect x="0" y="0" width="50" height="50" style="fill:rgb(0%,0%,0%);fill-opacity:0.964706;stroke:none;"/>
  </g>
</mask>
<clipPath id="clip69">
  <rect x="0" y="0" width="50" height="50"/>
</clipPath>
<g id="surface209" clip-path="url(#clip69)">
<path style=" stroke:none;fill-rule:evenodd;fill:rgb(94.901961%,47.45098%,10.588235%);fill-opacity:1;" d="M 36.765625 34.523438 C 37.257812 35.042969 37.742188 35.5625 38.234375 36.085938 C 38.109375 36.964844 37.980469 37.84375 37.84375 38.71875 C 37.378906 38.257812 36.890625 37.835938 36.375 37.453125 C 36.476562 36.46875 36.605469 35.492188 36.765625 34.523438 Z M 36.765625 34.523438 "/>
</g>
<mask id="mask69">
  <g filter="url(#alpha)">
<rect x="0" y="0" width="50" height="50" style="fill:rgb(0%,0%,0%);fill-opacity:0.956863;stroke:none;"/>
  </g>
</mask>
<clipPath id="clip70">
  <rect x="0" y="0" width="50" height="50"/>
</clipPath>
<g id="surface212" clip-path="url(#clip70)">
<path style=" stroke:none;fill-rule:evenodd;fill:rgb(96.862745%,62.352941%,7.843137%);fill-opacity:1;" d="M 17.820312 35.203125 C 18.40625 35.695312 18.992188 36.179688 19.578125 36.671875 C 19.675781 37.578125 19.742188 38.488281 19.773438 39.40625 C 20.589844 39.40625 21.402344 39.40625 22.21875 39.40625 C 22.683594 39.921875 23.171875 40.425781 23.679688 40.917969 C 23.53125 40.9375 23.398438 40.988281 23.289062 41.0625 C 22.445312 41.0625 21.597656 41.0625 20.75 41.0625 C 19.898438 40.113281 18.988281 39.234375 18.015625 38.429688 C 17.996094 37.351562 17.929688 36.277344 17.820312 35.203125 Z M 17.820312 35.203125 "/>
</g>
<mask id="mask70">
  <g filter="url(#alpha)">
<rect x="0" y="0" width="50" height="50" style="fill:rgb(0%,0%,0%);fill-opacity:0.964706;stroke:none;"/>
  </g>
</mask>
<clipPath id="clip71">
  <rect x="0" y="0" width="50" height="50"/>
</clipPath>
<g id="surface215" clip-path="url(#clip71)">
<path style=" stroke:none;fill-rule:evenodd;fill:rgb(94.509804%,42.745098%,11.372549%);fill-opacity:1;" d="M 43.898438 35.695312 C 44.351562 36.117188 44.808594 36.539062 45.265625 36.960938 C 45.152344 37.820312 44.988281 38.664062 44.773438 39.5 C 44.324219 39.097656 43.882812 38.675781 43.457031 38.234375 C 43.417969 38.285156 43.371094 38.320312 43.3125 38.328125 C 43.507812 37.453125 43.703125 36.570312 43.898438 35.695312 Z M 43.898438 35.695312 "/>
</g>
<mask id="mask71">
  <g filter="url(#alpha)">
<rect x="0" y="0" width="50" height="50" style="fill:rgb(0%,0%,0%);fill-opacity:0.988235;stroke:none;"/>
  </g>
</mask>
<clipPath id="clip72">
  <rect x="0" y="0" width="50" height="50"/>
</clipPath>
<g id="surface218" clip-path="url(#clip72)">
<path style=" stroke:none;fill-rule:evenodd;fill:rgb(97.254902%,67.058824%,7.058824%);fill-opacity:1;" d="M 11.570312 34.914062 C 12.15625 35.445312 12.722656 36 13.28125 36.570312 C 13.328125 36.445312 13.34375 36.316406 13.328125 36.179688 C 13.519531 37.238281 13.679688 38.3125 13.820312 39.40625 C 14.601562 39.40625 15.382812 39.40625 16.164062 39.40625 C 16.628906 39.921875 17.117188 40.425781 17.625 40.917969 C 17.84375 40.9375 18.039062 40.984375 18.210938 41.0625 C 16.8125 41.0625 15.414062 41.0625 14.015625 41.0625 C 14.15625 40.984375 14.316406 40.9375 14.5 40.917969 C 13.726562 40.09375 12.914062 39.332031 12.0625 38.625 C 11.851562 37.394531 11.6875 36.160156 11.570312 34.914062 Z M 11.570312 34.914062 "/>
</g>
<mask id="mask72">
  <g filter="url(#alpha)">
<rect x="0" y="0" width="50" height="50" style="fill:rgb(0%,0%,0%);fill-opacity:0.988235;stroke:none;"/>
  </g>
</mask>
<clipPath id="clip73">
  <rect x="0" y="0" width="50" height="50"/>
</clipPath>
<g id="surface221" clip-path="url(#clip73)">
<path style=" stroke:none;fill-rule:evenodd;fill:rgb(95.294118%,49.803922%,10.196078%);fill-opacity:1;" d="M 36.375 37.453125 C 36.890625 37.835938 37.378906 38.257812 37.84375 38.71875 C 37.867188 38.945312 37.835938 39.15625 37.742188 39.355469 C 38.003906 39.402344 38.261719 39.421875 38.523438 39.40625 C 38.992188 39.921875 39.480469 40.425781 39.992188 40.917969 C 40.398438 40.933594 40.789062 40.984375 41.164062 41.0625 C 39.957031 41.0625 38.753906 41.0625 37.546875 41.0625 C 37.515625 41.324219 37.484375 41.585938 37.453125 41.84375 C 36.605469 41.0625 35.789062 40.25 35.007812 39.40625 C 35.367188 39.40625 35.726562 39.40625 36.085938 39.40625 C 36.164062 38.75 36.261719 38.097656 36.375 37.453125 Z M 36.375 37.453125 "/>
</g>
<mask id="mask73">
  <g filter="url(#alpha)">
<rect x="0" y="0" width="50" height="50" style="fill:rgb(0%,0%,0%);fill-opacity:0.976471;stroke:none;"/>
  </g>
</mask>
<clipPath id="clip74">
  <rect x="0" y="0" width="50" height="50"/>
</clipPath>
<g id="surface224" clip-path="url(#clip74)">
<path style=" stroke:none;fill-rule:evenodd;fill:rgb(96.470588%,60%,8.627451%);fill-opacity:1;" d="M 24.171875 37.84375 C 24.691406 38.328125 25.210938 38.820312 25.734375 39.304688 C 25.734375 39.371094 25.765625 39.40625 25.828125 39.40625 C 26.296875 39.921875 26.785156 40.425781 27.296875 40.917969 C 27.671875 40.933594 28.03125 40.984375 28.367188 41.0625 C 27.492188 41.0625 26.609375 41.0625 25.734375 41.0625 C 25.734375 41.683594 25.734375 42.300781 25.734375 42.921875 C 25.210938 42.429688 24.691406 41.945312 24.171875 41.453125 C 24.171875 41.324219 24.171875 41.195312 24.171875 41.0625 C 23.875 41.0625 23.585938 41.0625 23.289062 41.0625 C 23.398438 40.988281 23.53125 40.9375 23.679688 40.917969 C 23.171875 40.425781 22.683594 39.921875 22.21875 39.40625 C 22.867188 39.40625 23.519531 39.40625 24.171875 39.40625 C 24.171875 38.882812 24.171875 38.363281 24.171875 37.84375 Z M 24.171875 37.84375 "/>
</g>
<mask id="mask74">
  <g filter="url(#alpha)">
<rect x="0" y="0" width="50" height="50" style="fill:rgb(0%,0%,0%);fill-opacity:0.956863;stroke:none;"/>
  </g>
</mask>
<clipPath id="clip75">
  <rect x="0" y="0" width="50" height="50"/>
</clipPath>
<g id="surface227" clip-path="url(#clip75)">
<path style=" stroke:none;fill-rule:evenodd;fill:rgb(98.431373%,74.509804%,5.882353%);fill-opacity:1;" d="M 4.835938 37.9375 C 5.90625 38.949219 6.949219 39.992188 7.960938 41.0625 C 7.699219 41.0625 7.4375 41.0625 7.179688 41.0625 C 7.3125 42.089844 7.605469 43.066406 8.054688 43.992188 C 7.277344 43.363281 6.511719 42.648438 5.761719 41.84375 C 5.734375 41.933594 5.6875 42 5.617188 42.039062 C 5.34375 40.675781 5.082031 39.308594 4.835938 37.9375 Z M 4.835938 37.9375 "/>
</g>
<mask id="mask75">
  <g filter="url(#alpha)">
<rect x="0" y="0" width="50" height="50" style="fill:rgb(0%,0%,0%);fill-opacity:0.968627;stroke:none;"/>
  </g>
</mask>
<clipPath id="clip76">
  <rect x="0" y="0" width="50" height="50"/>
</clipPath>
<g id="surface230" clip-path="url(#clip76)">
<path style=" stroke:none;fill-rule:evenodd;fill:rgb(94.509804%,45.098039%,10.980392%);fill-opacity:1;" d="M 44.773438 39.5 C 44.613281 40.285156 44.449219 41.066406 44.289062 41.84375 C 44.226562 41.855469 44.179688 41.890625 44.140625 41.945312 C 43.289062 41.109375 42.460938 40.261719 41.648438 39.40625 C 42.140625 39.40625 42.625 39.40625 43.117188 39.40625 C 43.179688 39.046875 43.246094 38.6875 43.3125 38.328125 C 43.371094 38.320312 43.417969 38.285156 43.457031 38.234375 C 43.882812 38.675781 44.324219 39.097656 44.773438 39.5 Z M 44.773438 39.5 "/>
</g>
<mask id="mask76">
  <g filter="url(#alpha)">
<rect x="0" y="0" width="50" height="50" style="fill:rgb(0%,0%,0%);fill-opacity:0.984314;stroke:none;"/>
  </g>
</mask>
<clipPath id="clip77">
  <rect x="0" y="0" width="50" height="50"/>
</clipPath>
<g id="surface233" clip-path="url(#clip77)">
<path style=" stroke:none;fill-rule:evenodd;fill:rgb(97.254902%,64.705882%,7.45098%);fill-opacity:1;" d="M 18.015625 38.429688 C 18.988281 39.234375 19.898438 40.113281 20.75 41.0625 C 20.460938 41.0625 20.164062 41.0625 19.875 41.0625 C 19.945312 41.8125 20.011719 42.558594 20.070312 43.3125 C 19.484375 42.757812 18.898438 42.203125 18.3125 41.648438 C 18.246094 41.460938 18.214844 41.265625 18.210938 41.0625 C 18.039062 40.984375 17.84375 40.9375 17.625 40.917969 C 17.117188 40.425781 16.628906 39.921875 16.164062 39.40625 C 16.8125 39.40625 17.464844 39.40625 18.117188 39.40625 C 18.140625 39.070312 18.105469 38.742188 18.015625 38.429688 Z M 18.015625 38.429688 "/>
</g>
<mask id="mask77">
  <g filter="url(#alpha)">
<rect x="0" y="0" width="50" height="50" style="fill:rgb(0%,0%,0%);fill-opacity:0.960784;stroke:none;"/>
  </g>
</mask>
<clipPath id="clip78">
  <rect x="0" y="0" width="50" height="50"/>
</clipPath>
<g id="surface236" clip-path="url(#clip78)">
<path style=" stroke:none;fill-rule:evenodd;fill:rgb(97.647059%,69.803922%,6.666667%);fill-opacity:1;" d="M 12.0625 38.625 C 12.914062 39.332031 13.726562 40.09375 14.5 40.917969 C 14.316406 40.9375 14.15625 40.984375 14.015625 41.0625 C 14.175781 42.171875 14.339844 43.277344 14.5 44.382812 C 13.777344 43.757812 13.125 43.074219 12.546875 42.335938 C 12.460938 41.917969 12.394531 41.496094 12.351562 41.0625 C 11.765625 41.0625 11.179688 41.0625 10.59375 41.0625 C 10.703125 40.988281 10.835938 40.9375 10.984375 40.917969 C 10.476562 40.425781 9.988281 39.921875 9.523438 39.40625 C 10.402344 39.4375 11.28125 39.402344 12.15625 39.304688 C 12.074219 39.085938 12.039062 38.859375 12.0625 38.625 Z M 12.0625 38.625 "/>
</g>
<mask id="mask78">
  <g filter="url(#alpha)">
<rect x="0" y="0" width="50" height="50" style="fill:rgb(0%,0%,0%);fill-opacity:0.976471;stroke:none;"/>
  </g>
</mask>
<clipPath id="clip79">
  <rect x="0" y="0" width="50" height="50"/>
</clipPath>
<g id="surface239" clip-path="url(#clip79)">
<path style=" stroke:none;fill-rule:evenodd;fill:rgb(96.078431%,56.862745%,9.019608%);fill-opacity:1;" d="M 31.6875 41.257812 C 31.578125 42.460938 31.480469 43.664062 31.398438 44.875 C 30.875 44.449219 30.355469 44.027344 29.835938 43.601562 C 29.878906 42.753906 29.941406 41.90625 30.03125 41.0625 C 29.476562 41.0625 28.921875 41.0625 28.367188 41.0625 C 28.03125 40.984375 27.671875 40.933594 27.296875 40.917969 C 26.785156 40.425781 26.296875 39.921875 25.828125 39.40625 C 27.261719 39.40625 28.695312 39.40625 30.125 39.40625 C 30.125 39.144531 30.125 38.882812 30.125 38.625 C 30.1875 38.613281 30.234375 38.578125 30.273438 38.523438 C 31.070312 39.324219 31.867188 40.121094 32.664062 40.917969 C 32.308594 40.964844 31.953125 40.984375 31.59375 40.96875 C 31.570312 41.09375 31.601562 41.191406 31.6875 41.257812 Z M 31.6875 41.257812 "/>
</g>
<mask id="mask79">
  <g filter="url(#alpha)">
<rect x="0" y="0" width="50" height="50" style="fill:rgb(0%,0%,0%);fill-opacity:0.964706;stroke:none;"/>
  </g>
</mask>
<clipPath id="clip80">
  <rect x="0" y="0" width="50" height="50"/>
</clipPath>
<g id="surface242" clip-path="url(#clip80)">
<path style=" stroke:none;fill-rule:evenodd;fill:rgb(95.686275%,52.54902%,9.803922%);fill-opacity:1;" d="M 30.421875 34.8125 C 30.90625 35.367188 31.425781 35.886719 31.984375 36.375 C 31.910156 37.386719 31.84375 38.394531 31.789062 39.40625 C 32.859375 39.40625 33.9375 39.40625 35.007812 39.40625 C 35.789062 40.25 36.605469 41.0625 37.453125 41.84375 C 37.328125 42.757812 37.199219 43.671875 37.0625 44.578125 C 36.5 44.117188 36.011719 43.59375 35.59375 43.015625 C 35.683594 42.398438 35.78125 41.777344 35.890625 41.164062 C 35.1875 41.128906 34.488281 41.097656 33.789062 41.0625 C 33.054688 41.066406 32.355469 41.128906 31.6875 41.257812 C 31.601562 41.191406 31.570312 41.09375 31.59375 40.96875 C 31.953125 40.984375 32.308594 40.964844 32.664062 40.917969 C 31.867188 40.121094 31.070312 39.324219 30.273438 38.523438 C 30.234375 38.578125 30.1875 38.613281 30.125 38.625 C 30.246094 37.359375 30.34375 36.085938 30.421875 34.8125 Z M 30.421875 34.8125 "/>
</g>
<mask id="mask80">
  <g filter="url(#alpha)">
<rect x="0" y="0" width="50" height="50" style="fill:rgb(0%,0%,0%);fill-opacity:0.964706;stroke:none;"/>
  </g>
</mask>
<clipPath id="clip81">
  <rect x="0" y="0" width="50" height="50"/>
</clipPath>
<g id="surface245" clip-path="url(#clip81)">
<path style=" stroke:none;fill-rule:evenodd;fill:rgb(94.901961%,47.45098%,10.588235%);fill-opacity:1;" d="M 38.523438 39.40625 C 39.566406 39.40625 40.609375 39.40625 41.648438 39.40625 C 42.460938 40.261719 43.289062 41.109375 44.140625 41.945312 C 44.179688 41.890625 44.226562 41.855469 44.289062 41.84375 C 44.15625 42.789062 43.863281 43.667969 43.40625 44.484375 C 43.089844 44 42.699219 43.578125 42.234375 43.210938 C 42.449219 42.507812 42.613281 41.792969 42.726562 41.0625 C 42.203125 41.0625 41.683594 41.0625 41.164062 41.0625 C 40.789062 40.984375 40.398438 40.933594 39.992188 40.917969 C 39.480469 40.425781 38.992188 39.921875 38.523438 39.40625 Z M 38.523438 39.40625 "/>
</g>
<mask id="mask81">
  <g filter="url(#alpha)">
<rect x="0" y="0" width="50" height="50" style="fill:rgb(0%,0%,0%);fill-opacity:0.964706;stroke:none;"/>
  </g>
</mask>
<clipPath id="clip82">
  <rect x="0" y="0" width="50" height="50"/>
</clipPath>
<g id="surface248" clip-path="url(#clip82)">
<path style=" stroke:none;fill-rule:evenodd;fill:rgb(98.431373%,76.078431%,5.490196%);fill-opacity:1;" d="M 8.054688 43.992188 C 9.257812 45.71875 10.917969 46.53125 13.039062 46.4375 C 13.039062 46.273438 13.039062 46.109375 13.039062 45.945312 C 13.59375 46.652344 14.210938 47.320312 14.890625 47.949219 C 15.140625 47.96875 15.367188 48.015625 15.578125 48.09375 C 14.207031 48.113281 12.839844 48.09375 11.476562 48.046875 C 8.222656 47.316406 6.269531 45.316406 5.617188 42.039062 C 5.6875 42 5.734375 41.933594 5.761719 41.84375 C 6.511719 42.648438 7.277344 43.363281 8.054688 43.992188 Z M 8.054688 43.992188 "/>
</g>
<mask id="mask82">
  <g filter="url(#alpha)">
<rect x="0" y="0" width="50" height="50" style="fill:rgb(0%,0%,0%);fill-opacity:0.984314;stroke:none;"/>
  </g>
</mask>
<clipPath id="clip83">
  <rect x="0" y="0" width="50" height="50"/>
</clipPath>
<g id="surface251" clip-path="url(#clip83)">
<path style=" stroke:none;fill-rule:evenodd;fill:rgb(98.039216%,72.156863%,6.27451%);fill-opacity:1;" d="M 12.546875 42.335938 C 13.125 43.074219 13.777344 43.757812 14.5 44.382812 C 14.554688 45.085938 14.652344 45.769531 14.796875 46.4375 C 15.394531 46.515625 16.015625 46.566406 16.648438 46.582031 C 17.160156 47.074219 17.648438 47.578125 18.117188 48.09375 C 17.269531 48.09375 16.421875 48.09375 15.578125 48.09375 C 15.367188 48.015625 15.140625 47.96875 14.890625 47.949219 C 14.210938 47.320312 13.59375 46.652344 13.039062 45.945312 C 12.835938 44.753906 12.671875 43.546875 12.546875 42.335938 Z M 12.546875 42.335938 "/>
</g>
<mask id="mask83">
  <g filter="url(#alpha)">
<rect x="0" y="0" width="50" height="50" style="fill:rgb(0%,0%,0%);fill-opacity:0.976471;stroke:none;"/>
  </g>
</mask>
<clipPath id="clip84">
  <rect x="0" y="0" width="50" height="50"/>
</clipPath>
<g id="surface254" clip-path="url(#clip84)">
<path style=" stroke:none;fill-rule:evenodd;fill:rgb(95.294118%,49.803922%,10.196078%);fill-opacity:1;" d="M 42.234375 43.210938 C 42.699219 43.578125 43.089844 44 43.40625 44.484375 C 43.039062 45.191406 42.550781 45.808594 41.945312 46.335938 C 41.519531 45.980469 41.128906 45.589844 40.773438 45.164062 C 41.402344 44.621094 41.890625 43.96875 42.234375 43.210938 Z M 42.234375 43.210938 "/>
</g>
<mask id="mask84">
  <g filter="url(#alpha)">
<rect x="0" y="0" width="50" height="50" style="fill:rgb(0%,0%,0%);fill-opacity:0.980392;stroke:none;"/>
  </g>
</mask>
<clipPath id="clip85">
  <rect x="0" y="0" width="50" height="50"/>
</clipPath>
<g id="surface257" clip-path="url(#clip85)">
<path style=" stroke:none;fill-rule:evenodd;fill:rgb(96.470588%,59.607843%,8.627451%);fill-opacity:1;" d="M 29.835938 43.601562 C 30.355469 44.027344 30.875 44.449219 31.398438 44.875 C 31.390625 45.394531 31.355469 45.917969 31.296875 46.4375 C 32.570312 46.4375 33.835938 46.4375 35.109375 46.4375 C 34.410156 46.515625 33.691406 46.566406 32.960938 46.582031 C 33.46875 47.074219 33.957031 47.578125 34.421875 48.09375 C 33.21875 48.09375 32.015625 48.09375 30.8125 48.09375 C 30.34375 47.578125 29.855469 47.074219 29.34375 46.582031 C 29.152344 46.535156 28.957031 46.515625 28.757812 46.53125 C 28.757812 46.5 28.757812 46.46875 28.757812 46.4375 C 29.054688 46.4375 29.34375 46.4375 29.640625 46.4375 C 29.703125 45.492188 29.769531 44.546875 29.835938 43.601562 Z M 29.835938 43.601562 "/>
</g>
<mask id="mask85">
  <g filter="url(#alpha)">
<rect x="0" y="0" width="50" height="50" style="fill:rgb(0%,0%,0%);fill-opacity:0.972549;stroke:none;"/>
  </g>
</mask>
<clipPath id="clip86">
  <rect x="0" y="0" width="50" height="50"/>
</clipPath>
<g id="surface260" clip-path="url(#clip86)">
<path style=" stroke:none;fill-rule:evenodd;fill:rgb(95.686275%,54.509804%,9.411765%);fill-opacity:1;" d="M 35.59375 43.015625 C 36.011719 43.59375 36.5 44.117188 37.0625 44.578125 C 36.988281 45.199219 36.921875 45.816406 36.867188 46.4375 C 38.355469 46.558594 39.65625 46.132812 40.773438 45.164062 C 41.128906 45.589844 41.519531 45.980469 41.945312 46.335938 C 40.691406 47.515625 39.195312 48.101562 37.453125 48.09375 C 36.734375 47.3125 35.984375 46.566406 35.203125 45.851562 C 35.359375 44.910156 35.488281 43.964844 35.59375 43.015625 Z M 35.59375 43.015625 "/>
</g>
<mask id="mask86">
  <g filter="url(#alpha)">
<rect x="0" y="0" width="50" height="50" style="fill:rgb(0%,0%,0%);fill-opacity:0.992157;stroke:none;"/>
  </g>
</mask>
<clipPath id="clip87">
  <rect x="0" y="0" width="50" height="50"/>
</clipPath>
<g id="surface263" clip-path="url(#clip87)">
<path style=" stroke:none;fill-rule:evenodd;fill:rgb(97.254902%,67.45098%,7.058824%);fill-opacity:1;" d="M 18.3125 41.648438 C 18.898438 42.203125 19.484375 42.757812 20.070312 43.3125 C 20.121094 44.351562 20.1875 45.394531 20.265625 46.4375 C 20.554688 46.4375 20.851562 46.4375 21.140625 46.4375 C 21.839844 46.515625 22.558594 46.566406 23.289062 46.582031 C 23.800781 47.074219 24.289062 47.578125 24.757812 48.09375 C 23.714844 48.09375 22.671875 48.09375 21.632812 48.09375 C 20.65625 47.074219 19.664062 46.066406 18.652344 45.070312 C 18.613281 45.121094 18.566406 45.15625 18.507812 45.164062 C 18.417969 43.996094 18.355469 42.824219 18.3125 41.648438 Z M 18.3125 41.648438 "/>
</g>
<mask id="mask87">
  <g filter="url(#alpha)">
<rect x="0" y="0" width="50" height="50" style="fill:rgb(0%,0%,0%);fill-opacity:0.996078;stroke:none;"/>
  </g>
</mask>
<clipPath id="clip88">
  <rect x="0" y="0" width="50" height="50"/>
</clipPath>
<g id="surface266" clip-path="url(#clip88)">
<path style=" stroke:none;fill-rule:evenodd;fill:rgb(97.254902%,64.705882%,7.45098%);fill-opacity:1;" d="M 24.171875 44.484375 C 24.691406 44.96875 25.210938 45.460938 25.734375 45.945312 C 25.734375 46.109375 25.734375 46.273438 25.734375 46.4375 C 26.742188 46.4375 27.75 46.4375 28.757812 46.4375 C 28.757812 46.46875 28.757812 46.5 28.757812 46.53125 C 27.945312 46.515625 27.132812 46.53125 26.320312 46.582031 C 26.828125 47.074219 27.316406 47.578125 27.78125 48.09375 C 26.773438 48.09375 25.765625 48.09375 24.757812 48.09375 C 24.289062 47.578125 23.800781 47.074219 23.289062 46.582031 C 22.558594 46.566406 21.839844 46.515625 21.140625 46.4375 C 22.152344 46.4375 23.160156 46.4375 24.171875 46.4375 C 24.171875 45.785156 24.171875 45.132812 24.171875 44.484375 Z M 24.171875 44.484375 "/>
</g>
<mask id="mask88">
  <g filter="url(#alpha)">
<rect x="0" y="0" width="50" height="50" style="fill:rgb(0%,0%,0%);fill-opacity:0.992157;stroke:none;"/>
  </g>
</mask>
<clipPath id="clip89">
  <rect x="0" y="0" width="50" height="50"/>
</clipPath>
<g id="surface269" clip-path="url(#clip89)">
<path style=" stroke:none;fill-rule:evenodd;fill:rgb(96.078431%,57.254902%,9.019608%);fill-opacity:1;" d="M 35.203125 45.851562 C 35.984375 46.566406 36.734375 47.3125 37.453125 48.09375 C 36.441406 48.09375 35.433594 48.09375 34.421875 48.09375 C 33.957031 47.578125 33.46875 47.074219 32.960938 46.582031 C 33.691406 46.566406 34.410156 46.515625 35.109375 46.4375 C 35.203125 46.261719 35.234375 46.066406 35.203125 45.851562 Z M 35.203125 45.851562 "/>
</g>
<mask id="mask89">
  <g filter="url(#alpha)">
<rect x="0" y="0" width="50" height="50" style="fill:rgb(0%,0%,0%);fill-opacity:0.882353;stroke:none;"/>
  </g>
</mask>
<clipPath id="clip90">
  <rect x="0" y="0" width="50" height="50"/>
</clipPath>
<g id="surface272" clip-path="url(#clip90)">
<path style=" stroke:none;fill-rule:evenodd;fill:rgb(98.039216%,69.803922%,6.666667%);fill-opacity:1;" d="M 21.632812 48.09375 C 20.460938 48.09375 19.289062 48.09375 18.117188 48.09375 C 17.648438 47.578125 17.160156 47.074219 16.648438 46.582031 C 16.015625 46.566406 15.394531 46.515625 14.796875 46.4375 C 16.0625 46.4375 17.335938 46.4375 18.601562 46.4375 C 18.5625 46.011719 18.527344 45.589844 18.507812 45.164062 C 18.566406 45.15625 18.613281 45.121094 18.652344 45.070312 C 19.664062 46.066406 20.65625 47.074219 21.632812 48.09375 Z M 21.632812 48.09375 "/>
</g>
<mask id="mask90">
  <g filter="url(#alpha)">
<rect x="0" y="0" width="50" height="50" style="fill:rgb(0%,0%,0%);fill-opacity:0.996078;stroke:none;"/>
  </g>
</mask>
<clipPath id="clip91">
  <rect x="0" y="0" width="50" height="50"/>
</clipPath>
<g id="surface275" clip-path="url(#clip91)">
<path style=" stroke:none;fill-rule:evenodd;fill:rgb(96.862745%,62.352941%,7.843137%);fill-opacity:1;" d="M 28.757812 46.53125 C 28.957031 46.515625 29.152344 46.535156 29.34375 46.582031 C 29.855469 47.074219 30.34375 47.578125 30.8125 48.09375 C 29.800781 48.09375 28.792969 48.09375 27.78125 48.09375 C 27.316406 47.578125 26.828125 47.074219 26.320312 46.582031 C 27.132812 46.53125 27.945312 46.515625 28.757812 46.53125 Z M 28.757812 46.53125 "/>
</g>
</defs>
<g id="surface1">
<use xlink:href="#surface5" mask="url(#mask0)"/>
<use xlink:href="#surface8" mask="url(#mask1)"/>
<use xlink:href="#surface11" mask="url(#mask2)"/>
<use xlink:href="#surface14" mask="url(#mask3)"/>
<use xlink:href="#surface17" mask="url(#mask4)"/>
<use xlink:href="#surface20" mask="url(#mask5)"/>
<use xlink:href="#surface23" mask="url(#mask6)"/>
<use xlink:href="#surface26" mask="url(#mask7)"/>
<use xlink:href="#surface29" mask="url(#mask8)"/>
<use xlink:href="#surface32" mask="url(#mask9)"/>
<use xlink:href="#surface35" mask="url(#mask10)"/>
<use xlink:href="#surface38" mask="url(#mask11)"/>
<use xlink:href="#surface41" mask="url(#mask12)"/>
<use xlink:href="#surface44" mask="url(#mask13)"/>
<use xlink:href="#surface47" mask="url(#mask14)"/>
<use xlink:href="#surface50" mask="url(#mask15)"/>
<use xlink:href="#surface53" mask="url(#mask16)"/>
<use xlink:href="#surface56" mask="url(#mask17)"/>
<use xlink:href="#surface59" mask="url(#mask18)"/>
<use xlink:href="#surface62" mask="url(#mask19)"/>
<use xlink:href="#surface65" mask="url(#mask20)"/>
<use xlink:href="#surface68" mask="url(#mask21)"/>
<use xlink:href="#surface71" mask="url(#mask22)"/>
<use xlink:href="#surface74" mask="url(#mask23)"/>
<use xlink:href="#surface77" mask="url(#mask24)"/>
<use xlink:href="#surface80" mask="url(#mask25)"/>
<use xlink:href="#surface83" mask="url(#mask26)"/>
<path style=" stroke:none;fill-rule:evenodd;fill:rgb(95.686275%,52.54902%,9.803922%);fill-opacity:1;" d="M 7.960938 15.476562 C 9 15.476562 10.042969 15.476562 11.085938 15.476562 C 11.570312 16 12.0625 16.519531 12.546875 17.039062 C 11.507812 17.039062 10.464844 17.039062 9.421875 17.039062 C 8.9375 16.519531 8.445312 16 7.960938 15.476562 Z M 7.960938 15.476562 "/>
<use xlink:href="#surface86" mask="url(#mask27)"/>
<use xlink:href="#surface89" mask="url(#mask28)"/>
<use xlink:href="#surface92" mask="url(#mask29)"/>
<use xlink:href="#surface95" mask="url(#mask30)"/>
<use xlink:href="#surface98" mask="url(#mask31)"/>
<use xlink:href="#surface101" mask="url(#mask32)"/>
<use xlink:href="#surface104" mask="url(#mask33)"/>
<use xlink:href="#surface107" mask="url(#mask34)"/>
<use xlink:href="#surface110" mask="url(#mask35)"/>
<use xlink:href="#surface113" mask="url(#mask36)"/>
<use xlink:href="#surface116" mask="url(#mask37)"/>
<use xlink:href="#surface119" mask="url(#mask38)"/>
<use xlink:href="#surface122" mask="url(#mask39)"/>
<use xlink:href="#surface125" mask="url(#mask40)"/>
<use xlink:href="#surface128" mask="url(#mask41)"/>
<use xlink:href="#surface131" mask="url(#mask42)"/>
<use xlink:href="#surface134" mask="url(#mask43)"/>
<use xlink:href="#surface137" mask="url(#mask44)"/>
<use xlink:href="#surface140" mask="url(#mask45)"/>
<use xlink:href="#surface143" mask="url(#mask46)"/>
<use xlink:href="#surface146" mask="url(#mask47)"/>
<use xlink:href="#surface149" mask="url(#mask48)"/>
<use xlink:href="#surface152" mask="url(#mask49)"/>
<use xlink:href="#surface155" mask="url(#mask50)"/>
<use xlink:href="#surface158" mask="url(#mask51)"/>
<use xlink:href="#surface161" mask="url(#mask52)"/>
<use xlink:href="#surface164" mask="url(#mask53)"/>
<use xlink:href="#surface167" mask="url(#mask54)"/>
<use xlink:href="#surface170" mask="url(#mask55)"/>
<use xlink:href="#surface173" mask="url(#mask56)"/>
<use xlink:href="#surface176" mask="url(#mask57)"/>
<use xlink:href="#surface179" mask="url(#mask58)"/>
<use xlink:href="#surface182" mask="url(#mask59)"/>
<use xlink:href="#surface185" mask="url(#mask60)"/>
<use xlink:href="#surface188" mask="url(#mask61)"/>
<use xlink:href="#surface191" mask="url(#mask62)"/>
<use xlink:href="#surface194" mask="url(#mask63)"/>
<use xlink:href="#surface197" mask="url(#mask64)"/>
<use xlink:href="#surface200" mask="url(#mask65)"/>
<use xlink:href="#surface203" mask="url(#mask66)"/>
<use xlink:href="#surface206" mask="url(#mask67)"/>
<use xlink:href="#surface209" mask="url(#mask68)"/>
<path style=" stroke:none;fill-rule:evenodd;fill:rgb(96.078431%,57.254902%,9.019608%);fill-opacity:1;" d="M 24.171875 34.8125 C 24.691406 35.304688 25.210938 35.789062 25.734375 36.28125 C 25.734375 37.289062 25.734375 38.296875 25.734375 39.304688 C 25.210938 38.820312 24.691406 38.328125 24.171875 37.84375 C 24.171875 36.832031 24.171875 35.824219 24.171875 34.8125 Z M 24.171875 34.8125 "/>
<use xlink:href="#surface212" mask="url(#mask69)"/>
<use xlink:href="#surface215" mask="url(#mask70)"/>
<use xlink:href="#surface218" mask="url(#mask71)"/>
<use xlink:href="#surface221" mask="url(#mask72)"/>
<use xlink:href="#surface224" mask="url(#mask73)"/>
<use xlink:href="#surface227" mask="url(#mask74)"/>
<use xlink:href="#surface230" mask="url(#mask75)"/>
<use xlink:href="#surface233" mask="url(#mask76)"/>
<use xlink:href="#surface236" mask="url(#mask77)"/>
<use xlink:href="#surface239" mask="url(#mask78)"/>
<use xlink:href="#surface242" mask="url(#mask79)"/>
<use xlink:href="#surface245" mask="url(#mask80)"/>
<path style=" stroke:none;fill-rule:evenodd;fill:rgb(96.862745%,62.352941%,7.843137%);fill-opacity:1;" d="M 24.171875 41.453125 C 24.691406 41.945312 25.210938 42.429688 25.734375 42.921875 C 25.734375 43.929688 25.734375 44.9375 25.734375 45.945312 C 25.210938 45.460938 24.691406 44.96875 24.171875 44.484375 C 24.171875 43.472656 24.171875 42.464844 24.171875 41.453125 Z M 24.171875 41.453125 "/>
<use xlink:href="#surface248" mask="url(#mask81)"/>
<use xlink:href="#surface251" mask="url(#mask82)"/>
<use xlink:href="#surface254" mask="url(#mask83)"/>
<use xlink:href="#surface257" mask="url(#mask84)"/>
<use xlink:href="#surface260" mask="url(#mask85)"/>
<use xlink:href="#surface263" mask="url(#mask86)"/>
<use xlink:href="#surface266" mask="url(#mask87)"/>
<use xlink:href="#surface269" mask="url(#mask88)"/>
<use xlink:href="#surface272" mask="url(#mask89)"/>
<use xlink:href="#surface275" mask="url(#mask90)"/>
</g>
</svg>
