<?xml version="1.0" encoding="UTF-8"?>
<svg xmlns="http://www.w3.org/2000/svg" xmlns:xlink="http://www.w3.org/1999/xlink" width="50px" height="50px" viewBox="0 0 50 50" version="1.1">
<defs>
<filter id="alpha" filterUnits="objectBoundingBox" x="0%" y="0%" width="100%" height="100%">
  <feColorMatrix type="matrix" in="SourceGraphic" values="0 0 0 0 1 0 0 0 0 1 0 0 0 0 1 0 0 0 1 0"/>
</filter>
<mask id="mask0">
  <g filter="url(#alpha)">
<rect x="0" y="0" width="50" height="50" style="fill:rgb(0%,0%,0%);fill-opacity:0.94902;stroke:none;"/>
  </g>
</mask>
<clipPath id="clip1">
  <rect x="0" y="0" width="50" height="50"/>
</clipPath>
<g id="surface5" clip-path="url(#clip1)">
<path style=" stroke:none;fill-rule:evenodd;fill:rgb(100%,84.705882%,0%);fill-opacity:1;" d="M 6.789062 3.078125 C 6.789062 3.597656 6.789062 4.117188 6.789062 4.640625 C 6.421875 4.628906 6.0625 4.675781 5.710938 4.785156 C 5.5625 4.902344 5.449219 5.050781 5.371094 5.226562 C 5.304688 7.765625 5.304688 10.304688 5.371094 12.84375 C 5.488281 13.136719 5.699219 13.300781 6.007812 13.328125 C 6.246094 13.425781 6.503906 13.457031 6.789062 13.429688 C 6.789062 13.949219 6.789062 14.46875 6.789062 14.992188 C 6.332031 15.007812 5.875 14.988281 5.421875 14.941406 C 5.160156 14.875 4.929688 14.761719 4.734375 14.601562 C 4.832031 10.871094 4.867188 7.128906 4.835938 3.367188 C 5.449219 3.097656 6.101562 3 6.789062 3.078125 Z M 6.789062 3.078125 "/>
</g>
<mask id="mask1">
  <g filter="url(#alpha)">
<rect x="0" y="0" width="50" height="50" style="fill:rgb(0%,0%,0%);fill-opacity:0.952941;stroke:none;"/>
  </g>
</mask>
<clipPath id="clip2">
  <rect x="0" y="0" width="50" height="50"/>
</clipPath>
<g id="surface8" clip-path="url(#clip2)">
<path style=" stroke:none;fill-rule:evenodd;fill:rgb(99.607843%,74.509804%,0%);fill-opacity:1;" d="M 10.890625 3.078125 C 11.929688 3.058594 12.972656 3.078125 14.015625 3.125 C 14.320312 3.207031 14.582031 3.355469 14.796875 3.5625 C 14.699219 7.195312 14.664062 10.839844 14.695312 14.5 C 14.488281 14.722656 14.226562 14.867188 13.914062 14.941406 C 13.558594 14.988281 13.203125 15.007812 12.84375 14.992188 C 12.84375 14.46875 12.84375 13.949219 12.84375 13.429688 C 13.058594 13.457031 13.253906 13.425781 13.429688 13.328125 C 13.679688 13.257812 13.859375 13.09375 13.964844 12.84375 C 14.03125 10.304688 14.03125 7.765625 13.964844 5.226562 C 13.828125 4.894531 13.585938 4.714844 13.234375 4.6875 C 12.453125 4.640625 11.671875 4.621094 10.890625 4.640625 C 10.890625 4.117188 10.890625 3.597656 10.890625 3.078125 Z M 10.890625 3.078125 "/>
</g>
<mask id="mask2">
  <g filter="url(#alpha)">
<rect x="0" y="0" width="50" height="50" style="fill:rgb(0%,0%,0%);fill-opacity:0.952941;stroke:none;"/>
  </g>
</mask>
<clipPath id="clip3">
  <rect x="0" y="0" width="50" height="50"/>
</clipPath>
<g id="surface11" clip-path="url(#clip3)">
<path style=" stroke:none;fill-rule:evenodd;fill:rgb(100%,86.27451%,0%);fill-opacity:1;" d="M 4.835938 3.367188 C 4.867188 7.128906 4.832031 10.871094 4.734375 14.601562 C 4.191406 14.265625 3.847656 13.777344 3.710938 13.132812 C 3.644531 10.398438 3.644531 7.664062 3.710938 4.929688 C 3.871094 4.25 4.246094 3.730469 4.835938 3.367188 Z M 4.835938 3.367188 "/>
</g>
<mask id="mask3">
  <g filter="url(#alpha)">
<rect x="0" y="0" width="50" height="50" style="fill:rgb(0%,0%,0%);fill-opacity:0.917647;stroke:none;"/>
  </g>
</mask>
<clipPath id="clip4">
  <rect x="0" y="0" width="50" height="50"/>
</clipPath>
<g id="surface14" clip-path="url(#clip4)">
<path style=" stroke:none;fill-rule:evenodd;fill:rgb(99.607843%,68.627451%,0%);fill-opacity:1;" d="M 20.75 3.46875 C 20.75 3.988281 20.75 4.507812 20.75 5.03125 C 20.308594 5 19.886719 5.03125 19.484375 5.125 C 18.832031 5.144531 18.179688 5.125 17.53125 5.078125 C 17.035156 5.019531 16.808594 4.742188 16.84375 4.25 C 16.8125 3.910156 16.941406 3.664062 17.234375 3.515625 C 18.40625 3.46875 19.578125 3.449219 20.75 3.46875 Z M 20.75 3.46875 "/>
</g>
<mask id="mask4">
  <g filter="url(#alpha)">
<rect x="0" y="0" width="50" height="50" style="fill:rgb(0%,0%,0%);fill-opacity:0.870588;stroke:none;"/>
  </g>
</mask>
<clipPath id="clip5">
  <rect x="0" y="0" width="50" height="50"/>
</clipPath>
<g id="surface17" clip-path="url(#clip5)">
<path style=" stroke:none;fill-rule:evenodd;fill:rgb(99.607843%,63.921569%,0%);fill-opacity:1;" d="M 20.75 3.46875 C 22.054688 3.46875 23.355469 3.46875 24.65625 3.46875 C 24.65625 3.988281 24.65625 4.507812 24.65625 5.03125 C 24.503906 5.003906 24.371094 5.035156 24.265625 5.125 C 22.671875 5.125 21.078125 5.125 19.484375 5.125 C 19.886719 5.03125 20.308594 5 20.75 5.03125 C 20.75 4.507812 20.75 3.988281 20.75 3.46875 Z M 20.75 3.46875 "/>
</g>
<mask id="mask5">
  <g filter="url(#alpha)">
<rect x="0" y="0" width="50" height="50" style="fill:rgb(0%,0%,0%);fill-opacity:0.886275;stroke:none;"/>
  </g>
</mask>
<clipPath id="clip6">
  <rect x="0" y="0" width="50" height="50"/>
</clipPath>
<g id="surface20" clip-path="url(#clip6)">
<path style=" stroke:none;fill-rule:evenodd;fill:rgb(99.607843%,59.607843%,0%);fill-opacity:1;" d="M 24.65625 3.46875 C 25.40625 3.46875 26.15625 3.46875 26.90625 3.46875 C 26.90625 3.988281 26.90625 4.507812 26.90625 5.03125 C 27.652344 5.03125 28.402344 5.03125 29.148438 5.03125 C 29.148438 5.0625 29.148438 5.09375 29.148438 5.125 C 27.523438 5.125 25.894531 5.125 24.265625 5.125 C 24.371094 5.035156 24.503906 5.003906 24.65625 5.03125 C 24.65625 4.507812 24.65625 3.988281 24.65625 3.46875 Z M 24.65625 3.46875 "/>
</g>
<mask id="mask6">
  <g filter="url(#alpha)">
<rect x="0" y="0" width="50" height="50" style="fill:rgb(0%,0%,0%);fill-opacity:0.996078;stroke:none;"/>
  </g>
</mask>
<clipPath id="clip7">
  <rect x="0" y="0" width="50" height="50"/>
</clipPath>
<g id="surface23" clip-path="url(#clip7)">
<path style=" stroke:none;fill-rule:evenodd;fill:rgb(99.607843%,55.686275%,0%);fill-opacity:1;" d="M 26.90625 3.46875 C 28.171875 3.46875 29.445312 3.46875 30.710938 3.46875 C 30.710938 3.988281 30.710938 4.507812 30.710938 5.03125 C 30.191406 5.03125 29.671875 5.03125 29.148438 5.03125 C 28.402344 5.03125 27.652344 5.03125 26.90625 5.03125 C 26.90625 4.507812 26.90625 3.988281 26.90625 3.46875 Z M 26.90625 3.46875 "/>
</g>
<mask id="mask7">
  <g filter="url(#alpha)">
<rect x="0" y="0" width="50" height="50" style="fill:rgb(0%,0%,0%);fill-opacity:0.866667;stroke:none;"/>
  </g>
</mask>
<clipPath id="clip8">
  <rect x="0" y="0" width="50" height="50"/>
</clipPath>
<g id="surface26" clip-path="url(#clip8)">
<path style=" stroke:none;fill-rule:evenodd;fill:rgb(99.607843%,52.54902%,0%);fill-opacity:1;" d="M 30.710938 3.46875 C 31.332031 3.46875 31.949219 3.46875 32.570312 3.46875 C 32.570312 3.988281 32.570312 4.507812 32.570312 5.03125 C 33.023438 5.03125 33.480469 5.03125 33.9375 5.03125 C 33.9375 5.0625 33.9375 5.09375 33.9375 5.125 C 32.339844 5.125 30.746094 5.125 29.148438 5.125 C 29.148438 5.09375 29.148438 5.0625 29.148438 5.03125 C 29.671875 5.03125 30.191406 5.03125 30.710938 5.03125 C 30.710938 4.507812 30.710938 3.988281 30.710938 3.46875 Z M 30.710938 3.46875 "/>
</g>
<mask id="mask8">
  <g filter="url(#alpha)">
<rect x="0" y="0" width="50" height="50" style="fill:rgb(0%,0%,0%);fill-opacity:0.996078;stroke:none;"/>
  </g>
</mask>
<clipPath id="clip9">
  <rect x="0" y="0" width="50" height="50"/>
</clipPath>
<g id="surface29" clip-path="url(#clip9)">
<path style=" stroke:none;fill-rule:evenodd;fill:rgb(99.607843%,50.196078%,0%);fill-opacity:1;" d="M 32.570312 3.46875 C 33.316406 3.46875 34.066406 3.46875 34.8125 3.46875 C 34.8125 3.988281 34.8125 4.507812 34.8125 5.03125 C 34.523438 5.03125 34.226562 5.03125 33.9375 5.03125 C 33.480469 5.03125 33.023438 5.03125 32.570312 5.03125 C 32.570312 4.507812 32.570312 3.988281 32.570312 3.46875 Z M 32.570312 3.46875 "/>
</g>
<mask id="mask9">
  <g filter="url(#alpha)">
<rect x="0" y="0" width="50" height="50" style="fill:rgb(0%,0%,0%);fill-opacity:0.870588;stroke:none;"/>
  </g>
</mask>
<clipPath id="clip10">
  <rect x="0" y="0" width="50" height="50"/>
</clipPath>
<g id="surface32" clip-path="url(#clip10)">
<path style=" stroke:none;fill-rule:evenodd;fill:rgb(99.215686%,46.666667%,0%);fill-opacity:1;" d="M 34.8125 3.46875 C 36.214844 3.46875 37.613281 3.46875 39.015625 3.46875 C 38.945312 3.554688 38.847656 3.585938 38.71875 3.5625 C 38.71875 4.085938 38.71875 4.605469 38.71875 5.125 C 37.125 5.125 35.53125 5.125 33.9375 5.125 C 33.9375 5.09375 33.9375 5.0625 33.9375 5.03125 C 34.226562 5.03125 34.523438 5.03125 34.8125 5.03125 C 34.8125 4.507812 34.8125 3.988281 34.8125 3.46875 Z M 34.8125 3.46875 "/>
</g>
<mask id="mask10">
  <g filter="url(#alpha)">
<rect x="0" y="0" width="50" height="50" style="fill:rgb(0%,0%,0%);fill-opacity:0.886275;stroke:none;"/>
  </g>
</mask>
<clipPath id="clip11">
  <rect x="0" y="0" width="50" height="50"/>
</clipPath>
<g id="surface35" clip-path="url(#clip11)">
<path style=" stroke:none;fill-rule:evenodd;fill:rgb(99.215686%,41.176471%,0%);fill-opacity:1;" d="M 39.015625 3.46875 C 40.28125 3.46875 41.554688 3.46875 42.820312 3.46875 C 42.820312 3.988281 42.820312 4.507812 42.820312 5.03125 C 43.070312 5 43.300781 5.03125 43.507812 5.125 C 41.910156 5.125 40.316406 5.125 38.71875 5.125 C 38.71875 4.605469 38.71875 4.085938 38.71875 3.5625 C 38.847656 3.585938 38.945312 3.554688 39.015625 3.46875 Z M 39.015625 3.46875 "/>
</g>
<mask id="mask11">
  <g filter="url(#alpha)">
<rect x="0" y="0" width="50" height="50" style="fill:rgb(0%,0%,0%);fill-opacity:0.870588;stroke:none;"/>
  </g>
</mask>
<clipPath id="clip12">
  <rect x="0" y="0" width="50" height="50"/>
</clipPath>
<g id="surface38" clip-path="url(#clip12)">
<path style=" stroke:none;fill-rule:evenodd;fill:rgb(99.215686%,36.470588%,0%);fill-opacity:1;" d="M 42.820312 3.46875 C 43.832031 3.449219 44.839844 3.46875 45.851562 3.515625 C 46.371094 4.003906 46.371094 4.492188 45.851562 4.980469 C 45.074219 5.113281 44.292969 5.164062 43.507812 5.125 C 43.300781 5.03125 43.070312 5 42.820312 5.03125 C 42.820312 4.507812 42.820312 3.988281 42.820312 3.46875 Z M 42.820312 3.46875 "/>
</g>
<mask id="mask12">
  <g filter="url(#alpha)">
<rect x="0" y="0" width="50" height="50" style="fill:rgb(0%,0%,0%);fill-opacity:0.945098;stroke:none;"/>
  </g>
</mask>
<clipPath id="clip13">
  <rect x="0" y="0" width="50" height="50"/>
</clipPath>
<g id="surface41" clip-path="url(#clip13)">
<path style=" stroke:none;fill-rule:evenodd;fill:rgb(99.607843%,72.941176%,0%);fill-opacity:1;" d="M 14.796875 3.5625 C 15.242188 3.90625 15.519531 4.363281 15.625 4.929688 C 15.691406 7.664062 15.691406 10.398438 15.625 13.132812 C 15.519531 13.742188 15.207031 14.199219 14.695312 14.5 C 14.664062 10.839844 14.699219 7.195312 14.796875 3.5625 Z M 14.796875 3.5625 "/>
</g>
<mask id="mask13">
  <g filter="url(#alpha)">
<rect x="0" y="0" width="50" height="50" style="fill:rgb(0%,0%,0%);fill-opacity:0.960784;stroke:none;"/>
  </g>
</mask>
<clipPath id="clip14">
  <rect x="0" y="0" width="50" height="50"/>
</clipPath>
<g id="surface44" clip-path="url(#clip14)">
<path style=" stroke:none;fill-rule:evenodd;fill:rgb(99.215686%,46.27451%,0%);fill-opacity:1;" d="M 34.8125 8.25 C 35.824219 8.234375 36.832031 8.253906 37.84375 8.300781 C 38.136719 8.449219 38.265625 8.695312 38.234375 9.03125 C 38.265625 9.371094 38.136719 9.617188 37.84375 9.765625 C 36.832031 9.8125 35.824219 9.832031 34.8125 9.8125 C 34.8125 9.292969 34.8125 8.773438 34.8125 8.25 Z M 34.8125 8.25 "/>
</g>
<mask id="mask14">
  <g filter="url(#alpha)">
<rect x="0" y="0" width="50" height="50" style="fill:rgb(0%,0%,0%);fill-opacity:0.92549;stroke:none;"/>
  </g>
</mask>
<clipPath id="clip15">
  <rect x="0" y="0" width="50" height="50"/>
</clipPath>
<g id="surface47" clip-path="url(#clip15)">
<path style=" stroke:none;fill-rule:evenodd;fill:rgb(99.607843%,67.843137%,0%);fill-opacity:1;" d="M 20.75 12.9375 C 20.75 13.460938 20.75 13.980469 20.75 14.5 C 20.625 14.480469 20.527344 14.511719 20.460938 14.601562 C 19.382812 14.617188 18.308594 14.601562 17.234375 14.550781 C 17.058594 14.5 16.945312 14.386719 16.894531 14.210938 C 16.6875 13.566406 16.898438 13.160156 17.53125 12.988281 C 18.601562 12.9375 19.675781 12.921875 20.75 12.9375 Z M 20.75 12.9375 "/>
</g>
<mask id="mask15">
  <g filter="url(#alpha)">
<rect x="0" y="0" width="50" height="50" style="fill:rgb(0%,0%,0%);fill-opacity:0.933333;stroke:none;"/>
  </g>
</mask>
<clipPath id="clip16">
  <rect x="0" y="0" width="50" height="50"/>
</clipPath>
<g id="surface50" clip-path="url(#clip16)">
<path style=" stroke:none;fill-rule:evenodd;fill:rgb(99.607843%,64.705882%,0%);fill-opacity:1;" d="M 20.75 12.9375 C 21.5 12.9375 22.25 12.9375 23 12.9375 C 22.929688 13.027344 22.832031 13.058594 22.703125 13.039062 C 22.703125 13.558594 22.703125 14.078125 22.703125 14.601562 C 21.957031 14.601562 21.207031 14.601562 20.460938 14.601562 C 20.527344 14.511719 20.625 14.480469 20.75 14.5 C 20.75 13.980469 20.75 13.460938 20.75 12.9375 Z M 20.75 12.9375 "/>
</g>
<mask id="mask16">
  <g filter="url(#alpha)">
<rect x="0" y="0" width="50" height="50" style="fill:rgb(0%,0%,0%);fill-opacity:0.92549;stroke:none;"/>
  </g>
</mask>
<clipPath id="clip17">
  <rect x="0" y="0" width="50" height="50"/>
</clipPath>
<g id="surface53" clip-path="url(#clip17)">
<path style=" stroke:none;fill-rule:evenodd;fill:rgb(99.607843%,62.352941%,0%);fill-opacity:1;" d="M 23 12.9375 C 23.875 12.9375 24.757812 12.9375 25.632812 12.9375 C 25.328125 13.035156 25.003906 13.066406 24.65625 13.039062 C 24.65625 13.558594 24.65625 14.078125 24.65625 14.601562 C 24.007812 14.601562 23.355469 14.601562 22.703125 14.601562 C 22.703125 14.078125 22.703125 13.558594 22.703125 13.039062 C 22.832031 13.058594 22.929688 13.027344 23 12.9375 Z M 23 12.9375 "/>
</g>
<mask id="mask17">
  <g filter="url(#alpha)">
<rect x="0" y="0" width="50" height="50" style="fill:rgb(0%,0%,0%);fill-opacity:0.941176;stroke:none;"/>
  </g>
</mask>
<clipPath id="clip18">
  <rect x="0" y="0" width="50" height="50"/>
</clipPath>
<g id="surface56" clip-path="url(#clip18)">
<path style=" stroke:none;fill-rule:evenodd;fill:rgb(99.607843%,59.607843%,0%);fill-opacity:1;" d="M 25.632812 12.9375 C 26.351562 12.9375 27.066406 12.9375 27.78125 12.9375 C 27.511719 13.035156 27.21875 13.066406 26.90625 13.039062 C 26.90625 13.558594 26.90625 14.078125 26.90625 14.601562 C 26.15625 14.601562 25.40625 14.601562 24.65625 14.601562 C 24.65625 14.078125 24.65625 13.558594 24.65625 13.039062 C 25.003906 13.066406 25.328125 13.035156 25.632812 12.9375 Z M 25.632812 12.9375 "/>
</g>
<mask id="mask18">
  <g filter="url(#alpha)">
<rect x="0" y="0" width="50" height="50" style="fill:rgb(0%,0%,0%);fill-opacity:0.92549;stroke:none;"/>
  </g>
</mask>
<clipPath id="clip19">
  <rect x="0" y="0" width="50" height="50"/>
</clipPath>
<g id="surface59" clip-path="url(#clip19)">
<path style=" stroke:none;fill-rule:evenodd;fill:rgb(99.607843%,55.686275%,0%);fill-opacity:1;" d="M 27.78125 12.9375 C 28.664062 12.9375 29.539062 12.9375 30.421875 12.9375 C 30.488281 13.027344 30.585938 13.058594 30.710938 13.039062 C 30.710938 13.558594 30.710938 14.078125 30.710938 14.601562 C 29.445312 14.601562 28.171875 14.601562 26.90625 14.601562 C 26.90625 14.078125 26.90625 13.558594 26.90625 13.039062 C 27.21875 13.066406 27.511719 13.035156 27.78125 12.9375 Z M 27.78125 12.9375 "/>
</g>
<mask id="mask19">
  <g filter="url(#alpha)">
<rect x="0" y="0" width="50" height="50" style="fill:rgb(0%,0%,0%);fill-opacity:0.937255;stroke:none;"/>
  </g>
</mask>
<clipPath id="clip20">
  <rect x="0" y="0" width="50" height="50"/>
</clipPath>
<g id="surface62" clip-path="url(#clip20)">
<path style=" stroke:none;fill-rule:evenodd;fill:rgb(99.607843%,52.54902%,0%);fill-opacity:1;" d="M 30.421875 12.9375 C 31.007812 12.921875 31.59375 12.941406 32.179688 12.988281 C 32.808594 13.164062 33.019531 13.574219 32.8125 14.210938 C 32.699219 14.324219 32.585938 14.4375 32.46875 14.550781 C 31.886719 14.597656 31.300781 14.617188 30.710938 14.601562 C 30.710938 14.078125 30.710938 13.558594 30.710938 13.039062 C 30.585938 13.058594 30.488281 13.027344 30.421875 12.9375 Z M 30.421875 12.9375 "/>
</g>
<mask id="mask20">
  <g filter="url(#alpha)">
<rect x="0" y="0" width="50" height="50" style="fill:rgb(0%,0%,0%);fill-opacity:0.886275;stroke:none;"/>
  </g>
</mask>
<clipPath id="clip21">
  <rect x="0" y="0" width="50" height="50"/>
</clipPath>
<g id="surface65" clip-path="url(#clip21)">
<path style=" stroke:none;fill-rule:evenodd;fill:rgb(100%,81.960784%,0%);fill-opacity:1;" d="M 6.007812 13.328125 C 7.308594 13.328125 8.609375 13.328125 9.914062 13.328125 C 9.914062 13.363281 9.914062 13.394531 9.914062 13.429688 C 9.488281 13.429688 9.066406 13.429688 8.640625 13.429688 C 8.640625 13.949219 8.640625 14.46875 8.640625 14.992188 C 8.023438 14.992188 7.40625 14.992188 6.789062 14.992188 C 6.789062 14.46875 6.789062 13.949219 6.789062 13.429688 C 6.503906 13.457031 6.246094 13.425781 6.007812 13.328125 Z M 6.007812 13.328125 "/>
</g>
<mask id="mask21">
  <g filter="url(#alpha)">
<rect x="0" y="0" width="50" height="50" style="fill:rgb(0%,0%,0%);fill-opacity:0.901961;stroke:none;"/>
  </g>
</mask>
<clipPath id="clip22">
  <rect x="0" y="0" width="50" height="50"/>
</clipPath>
<g id="surface68" clip-path="url(#clip22)">
<path style=" stroke:none;fill-rule:evenodd;fill:rgb(100%,76.862745%,0%);fill-opacity:1;" d="M 9.914062 13.429688 C 9.914062 13.394531 9.914062 13.363281 9.914062 13.328125 C 11.085938 13.328125 12.257812 13.328125 13.429688 13.328125 C 13.253906 13.425781 13.058594 13.457031 12.84375 13.429688 C 12.84375 13.949219 12.84375 14.46875 12.84375 14.992188 C 12.191406 14.992188 11.539062 14.992188 10.890625 14.992188 C 10.890625 14.46875 10.890625 13.949219 10.890625 13.429688 C 10.5625 13.429688 10.238281 13.429688 9.914062 13.429688 Z M 9.914062 13.429688 "/>
</g>
<mask id="mask22">
  <g filter="url(#alpha)">
<rect x="0" y="0" width="50" height="50" style="fill:rgb(0%,0%,0%);fill-opacity:0.996078;stroke:none;"/>
  </g>
</mask>
<clipPath id="clip23">
  <rect x="0" y="0" width="50" height="50"/>
</clipPath>
<g id="surface71" clip-path="url(#clip23)">
<path style=" stroke:none;fill-rule:evenodd;fill:rgb(100%,79.607843%,0%);fill-opacity:1;" d="M 9.914062 13.429688 C 10.238281 13.429688 10.5625 13.429688 10.890625 13.429688 C 10.890625 13.949219 10.890625 14.46875 10.890625 14.992188 C 10.140625 14.992188 9.390625 14.992188 8.640625 14.992188 C 8.640625 14.46875 8.640625 13.949219 8.640625 13.429688 C 9.066406 13.429688 9.488281 13.429688 9.914062 13.429688 Z M 9.914062 13.429688 "/>
</g>
<mask id="mask23">
  <g filter="url(#alpha)">
<rect x="0" y="0" width="50" height="50" style="fill:rgb(0%,0%,0%);fill-opacity:0.952941;stroke:none;"/>
  </g>
</mask>
<clipPath id="clip24">
  <rect x="0" y="0" width="50" height="50"/>
</clipPath>
<g id="surface74" clip-path="url(#clip24)">
<path style=" stroke:none;fill-rule:evenodd;fill:rgb(100%,84.705882%,0%);fill-opacity:1;" d="M 6.789062 18.992188 C 6.789062 19.515625 6.789062 20.035156 6.789062 20.554688 C 6.421875 20.546875 6.0625 20.59375 5.710938 20.703125 C 5.5625 20.820312 5.449219 20.96875 5.371094 21.140625 C 5.304688 23.679688 5.304688 26.21875 5.371094 28.757812 C 5.449219 28.933594 5.5625 29.082031 5.710938 29.199219 C 6.0625 29.308594 6.421875 29.355469 6.789062 29.34375 C 6.789062 29.867188 6.789062 30.386719 6.789062 30.90625 C 6.296875 30.925781 5.808594 30.90625 5.320312 30.859375 C 5.105469 30.765625 4.910156 30.652344 4.734375 30.515625 C 4.832031 26.789062 4.867188 23.046875 4.835938 19.289062 C 5.449219 19.015625 6.101562 18.917969 6.789062 18.992188 Z M 6.789062 18.992188 "/>
</g>
<mask id="mask24">
  <g filter="url(#alpha)">
<rect x="0" y="0" width="50" height="50" style="fill:rgb(0%,0%,0%);fill-opacity:0.952941;stroke:none;"/>
  </g>
</mask>
<clipPath id="clip25">
  <rect x="0" y="0" width="50" height="50"/>
</clipPath>
<g id="surface77" clip-path="url(#clip25)">
<path style=" stroke:none;fill-rule:evenodd;fill:rgb(99.607843%,74.901961%,0%);fill-opacity:1;" d="M 10.890625 18.992188 C 11.929688 18.976562 12.972656 18.992188 14.015625 19.042969 C 14.296875 19.167969 14.554688 19.3125 14.796875 19.484375 C 14.730469 21.273438 14.695312 23.078125 14.695312 24.902344 C 14.695312 26.742188 14.761719 28.550781 14.890625 30.320312 C 14.636719 30.546875 14.34375 30.726562 14.015625 30.859375 C 12.972656 30.90625 11.929688 30.925781 10.890625 30.90625 C 10.890625 30.386719 10.890625 29.867188 10.890625 29.34375 C 11.804688 29.382812 12.71875 29.335938 13.625 29.199219 C 13.703125 29.117188 13.785156 29.035156 13.867188 28.953125 C 13.980469 27.628906 14.027344 26.292969 14.015625 24.953125 C 14.027344 23.609375 13.980469 22.273438 13.867188 20.945312 C 13.714844 20.726562 13.503906 20.613281 13.234375 20.605469 C 12.453125 20.554688 11.671875 20.539062 10.890625 20.554688 C 10.890625 20.035156 10.890625 19.515625 10.890625 18.992188 Z M 10.890625 18.992188 "/>
</g>
<mask id="mask25">
  <g filter="url(#alpha)">
<rect x="0" y="0" width="50" height="50" style="fill:rgb(0%,0%,0%);fill-opacity:0.952941;stroke:none;"/>
  </g>
</mask>
<clipPath id="clip26">
  <rect x="0" y="0" width="50" height="50"/>
</clipPath>
<g id="surface80" clip-path="url(#clip26)">
<path style=" stroke:none;fill-rule:evenodd;fill:rgb(100%,86.27451%,0%);fill-opacity:1;" d="M 4.835938 19.289062 C 4.867188 23.046875 4.832031 26.789062 4.734375 30.515625 C 4.191406 30.183594 3.847656 29.695312 3.710938 29.054688 C 3.644531 26.320312 3.644531 23.585938 3.710938 20.851562 C 3.871094 20.167969 4.246094 19.648438 4.835938 19.289062 Z M 4.835938 19.289062 "/>
</g>
<mask id="mask26">
  <g filter="url(#alpha)">
<rect x="0" y="0" width="50" height="50" style="fill:rgb(0%,0%,0%);fill-opacity:0.913725;stroke:none;"/>
  </g>
</mask>
<clipPath id="clip27">
  <rect x="0" y="0" width="50" height="50"/>
</clipPath>
<g id="surface83" clip-path="url(#clip27)">
<path style=" stroke:none;fill-rule:evenodd;fill:rgb(99.607843%,69.411765%,0%);fill-opacity:1;" d="M 18.898438 19.382812 C 18.898438 19.90625 18.898438 20.425781 18.898438 20.945312 C 19.113281 20.917969 19.308594 20.949219 19.484375 21.046875 C 18.832031 21.0625 18.179688 21.046875 17.53125 20.996094 C 16.898438 20.824219 16.6875 20.417969 16.894531 19.773438 C 16.929688 19.6875 16.980469 19.605469 17.039062 19.53125 C 17.648438 19.394531 18.265625 19.34375 18.898438 19.382812 Z M 18.898438 19.382812 "/>
</g>
<mask id="mask27">
  <g filter="url(#alpha)">
<rect x="0" y="0" width="50" height="50" style="fill:rgb(0%,0%,0%);fill-opacity:0.870588;stroke:none;"/>
  </g>
</mask>
<clipPath id="clip28">
  <rect x="0" y="0" width="50" height="50"/>
</clipPath>
<g id="surface86" clip-path="url(#clip28)">
<path style=" stroke:none;fill-rule:evenodd;fill:rgb(99.607843%,65.490196%,0%);fill-opacity:1;" d="M 18.898438 19.382812 C 20.164062 19.382812 21.4375 19.382812 22.703125 19.382812 C 22.703125 19.90625 22.703125 20.425781 22.703125 20.945312 C 23.246094 20.914062 23.765625 20.949219 24.265625 21.046875 C 22.671875 21.046875 21.078125 21.046875 19.484375 21.046875 C 19.308594 20.949219 19.113281 20.917969 18.898438 20.945312 C 18.898438 20.425781 18.898438 19.90625 18.898438 19.382812 Z M 18.898438 19.382812 "/>
</g>
<mask id="mask28">
  <g filter="url(#alpha)">
<rect x="0" y="0" width="50" height="50" style="fill:rgb(0%,0%,0%);fill-opacity:0.886275;stroke:none;"/>
  </g>
</mask>
<clipPath id="clip29">
  <rect x="0" y="0" width="50" height="50"/>
</clipPath>
<g id="surface89" clip-path="url(#clip29)">
<path style=" stroke:none;fill-rule:evenodd;fill:rgb(99.607843%,60.392157%,0%);fill-opacity:1;" d="M 22.703125 19.382812 C 24.105469 19.382812 25.503906 19.382812 26.90625 19.382812 C 26.90625 19.90625 26.90625 20.425781 26.90625 20.945312 C 27.652344 20.945312 28.402344 20.945312 29.148438 20.945312 C 29.148438 20.980469 29.148438 21.011719 29.148438 21.046875 C 27.523438 21.046875 25.894531 21.046875 24.265625 21.046875 C 23.765625 20.949219 23.246094 20.914062 22.703125 20.945312 C 22.703125 20.425781 22.703125 19.90625 22.703125 19.382812 Z M 22.703125 19.382812 "/>
</g>
<mask id="mask29">
  <g filter="url(#alpha)">
<rect x="0" y="0" width="50" height="50" style="fill:rgb(0%,0%,0%);fill-opacity:0.996078;stroke:none;"/>
  </g>
</mask>
<clipPath id="clip30">
  <rect x="0" y="0" width="50" height="50"/>
</clipPath>
<g id="surface92" clip-path="url(#clip30)">
<path style=" stroke:none;fill-rule:evenodd;fill:rgb(99.607843%,55.686275%,0%);fill-opacity:1;" d="M 26.90625 19.382812 C 28.171875 19.382812 29.445312 19.382812 30.710938 19.382812 C 30.710938 19.90625 30.710938 20.425781 30.710938 20.945312 C 30.191406 20.945312 29.671875 20.945312 29.148438 20.945312 C 28.402344 20.945312 27.652344 20.945312 26.90625 20.945312 C 26.90625 20.425781 26.90625 19.90625 26.90625 19.382812 Z M 26.90625 19.382812 "/>
</g>
<mask id="mask30">
  <g filter="url(#alpha)">
<rect x="0" y="0" width="50" height="50" style="fill:rgb(0%,0%,0%);fill-opacity:0.866667;stroke:none;"/>
  </g>
</mask>
<clipPath id="clip31">
  <rect x="0" y="0" width="50" height="50"/>
</clipPath>
<g id="surface95" clip-path="url(#clip31)">
<path style=" stroke:none;fill-rule:evenodd;fill:rgb(99.607843%,52.54902%,0%);fill-opacity:1;" d="M 30.710938 19.382812 C 31.332031 19.382812 31.949219 19.382812 32.570312 19.382812 C 32.570312 19.90625 32.570312 20.425781 32.570312 20.945312 C 33.023438 20.945312 33.480469 20.945312 33.9375 20.945312 C 33.9375 20.980469 33.9375 21.011719 33.9375 21.046875 C 32.339844 21.046875 30.746094 21.046875 29.148438 21.046875 C 29.148438 21.011719 29.148438 20.980469 29.148438 20.945312 C 29.671875 20.945312 30.191406 20.945312 30.710938 20.945312 C 30.710938 20.425781 30.710938 19.90625 30.710938 19.382812 Z M 30.710938 19.382812 "/>
</g>
<mask id="mask31">
  <g filter="url(#alpha)">
<rect x="0" y="0" width="50" height="50" style="fill:rgb(0%,0%,0%);fill-opacity:0.996078;stroke:none;"/>
  </g>
</mask>
<clipPath id="clip32">
  <rect x="0" y="0" width="50" height="50"/>
</clipPath>
<g id="surface98" clip-path="url(#clip32)">
<path style=" stroke:none;fill-rule:evenodd;fill:rgb(99.607843%,50.196078%,0%);fill-opacity:1;" d="M 32.570312 19.382812 C 33.316406 19.382812 34.066406 19.382812 34.8125 19.382812 C 34.8125 19.90625 34.8125 20.425781 34.8125 20.945312 C 34.523438 20.945312 34.226562 20.945312 33.9375 20.945312 C 33.480469 20.945312 33.023438 20.945312 32.570312 20.945312 C 32.570312 20.425781 32.570312 19.90625 32.570312 19.382812 Z M 32.570312 19.382812 "/>
</g>
<mask id="mask32">
  <g filter="url(#alpha)">
<rect x="0" y="0" width="50" height="50" style="fill:rgb(0%,0%,0%);fill-opacity:0.870588;stroke:none;"/>
  </g>
</mask>
<clipPath id="clip33">
  <rect x="0" y="0" width="50" height="50"/>
</clipPath>
<g id="surface101" clip-path="url(#clip33)">
<path style=" stroke:none;fill-rule:evenodd;fill:rgb(99.215686%,46.666667%,0%);fill-opacity:1;" d="M 34.8125 19.382812 C 36.214844 19.382812 37.613281 19.382812 39.015625 19.382812 C 38.945312 19.472656 38.847656 19.503906 38.71875 19.484375 C 38.71875 20.003906 38.71875 20.523438 38.71875 21.046875 C 37.125 21.046875 35.53125 21.046875 33.9375 21.046875 C 33.9375 21.011719 33.9375 20.980469 33.9375 20.945312 C 34.226562 20.945312 34.523438 20.945312 34.8125 20.945312 C 34.8125 20.425781 34.8125 19.90625 34.8125 19.382812 Z M 34.8125 19.382812 "/>
</g>
<mask id="mask33">
  <g filter="url(#alpha)">
<rect x="0" y="0" width="50" height="50" style="fill:rgb(0%,0%,0%);fill-opacity:0.886275;stroke:none;"/>
  </g>
</mask>
<clipPath id="clip34">
  <rect x="0" y="0" width="50" height="50"/>
</clipPath>
<g id="surface104" clip-path="url(#clip34)">
<path style=" stroke:none;fill-rule:evenodd;fill:rgb(99.215686%,41.176471%,0%);fill-opacity:1;" d="M 39.015625 19.382812 C 40.28125 19.382812 41.554688 19.382812 42.820312 19.382812 C 42.820312 19.90625 42.820312 20.425781 42.820312 20.945312 C 43.070312 20.917969 43.300781 20.949219 43.507812 21.046875 C 41.910156 21.046875 40.316406 21.046875 38.71875 21.046875 C 38.71875 20.523438 38.71875 20.003906 38.71875 19.484375 C 38.847656 19.503906 38.945312 19.472656 39.015625 19.382812 Z M 39.015625 19.382812 "/>
</g>
<mask id="mask34">
  <g filter="url(#alpha)">
<rect x="0" y="0" width="50" height="50" style="fill:rgb(0%,0%,0%);fill-opacity:0.878431;stroke:none;"/>
  </g>
</mask>
<clipPath id="clip35">
  <rect x="0" y="0" width="50" height="50"/>
</clipPath>
<g id="surface107" clip-path="url(#clip35)">
<path style=" stroke:none;fill-rule:evenodd;fill:rgb(99.215686%,36.078431%,0%);fill-opacity:1;" d="M 42.820312 19.382812 C 43.800781 19.367188 44.777344 19.382812 45.75 19.433594 C 46.363281 19.875 46.394531 20.363281 45.851562 20.898438 C 45.078125 21.035156 44.296875 21.085938 43.507812 21.046875 C 43.300781 20.949219 43.070312 20.917969 42.820312 20.945312 C 42.820312 20.425781 42.820312 19.90625 42.820312 19.382812 Z M 42.820312 19.382812 "/>
</g>
<mask id="mask35">
  <g filter="url(#alpha)">
<rect x="0" y="0" width="50" height="50" style="fill:rgb(0%,0%,0%);fill-opacity:0.945098;stroke:none;"/>
  </g>
</mask>
<clipPath id="clip36">
  <rect x="0" y="0" width="50" height="50"/>
</clipPath>
<g id="surface110" clip-path="url(#clip36)">
<path style=" stroke:none;fill-rule:evenodd;fill:rgb(99.607843%,72.54902%,0%);fill-opacity:1;" d="M 14.796875 19.484375 C 15.242188 19.824219 15.519531 20.28125 15.625 20.851562 C 15.691406 23.585938 15.691406 26.320312 15.625 29.054688 C 15.53125 29.570312 15.285156 29.992188 14.890625 30.320312 C 14.761719 28.550781 14.695312 26.742188 14.695312 24.902344 C 14.695312 23.078125 14.730469 21.273438 14.796875 19.484375 Z M 14.796875 19.484375 "/>
</g>
<mask id="mask36">
  <g filter="url(#alpha)">
<rect x="0" y="0" width="50" height="50" style="fill:rgb(0%,0%,0%);fill-opacity:0.960784;stroke:none;"/>
  </g>
</mask>
<clipPath id="clip37">
  <rect x="0" y="0" width="50" height="50"/>
</clipPath>
<g id="surface113" clip-path="url(#clip37)">
<path style=" stroke:none;fill-rule:evenodd;fill:rgb(99.215686%,46.27451%,0%);fill-opacity:1;" d="M 34.8125 24.171875 C 35.824219 24.152344 36.832031 24.171875 37.84375 24.21875 C 38.136719 24.367188 38.265625 24.613281 38.234375 24.953125 C 38.265625 25.289062 38.136719 25.535156 37.84375 25.683594 C 36.832031 25.734375 35.824219 25.75 34.8125 25.734375 C 34.8125 25.210938 34.8125 24.691406 34.8125 24.171875 Z M 34.8125 24.171875 "/>
</g>
<mask id="mask37">
  <g filter="url(#alpha)">
<rect x="0" y="0" width="50" height="50" style="fill:rgb(0%,0%,0%);fill-opacity:0.917647;stroke:none;"/>
  </g>
</mask>
<clipPath id="clip38">
  <rect x="0" y="0" width="50" height="50"/>
</clipPath>
<g id="surface116" clip-path="url(#clip38)">
<path style=" stroke:none;fill-rule:evenodd;fill:rgb(99.607843%,69.411765%,0%);fill-opacity:1;" d="M 19.484375 28.859375 C 19.308594 28.953125 19.113281 28.984375 18.898438 28.953125 C 18.898438 29.476562 18.898438 29.996094 18.898438 30.515625 C 18.265625 30.558594 17.648438 30.507812 17.039062 30.371094 C 16.78125 29.949219 16.78125 29.523438 17.039062 29.101562 C 17.195312 29.015625 17.359375 28.953125 17.53125 28.90625 C 18.179688 28.859375 18.832031 28.839844 19.484375 28.859375 Z M 19.484375 28.859375 "/>
</g>
<mask id="mask38">
  <g filter="url(#alpha)">
<rect x="0" y="0" width="50" height="50" style="fill:rgb(0%,0%,0%);fill-opacity:0.870588;stroke:none;"/>
  </g>
</mask>
<clipPath id="clip39">
  <rect x="0" y="0" width="50" height="50"/>
</clipPath>
<g id="surface119" clip-path="url(#clip39)">
<path style=" stroke:none;fill-rule:evenodd;fill:rgb(99.607843%,65.490196%,0%);fill-opacity:1;" d="M 19.484375 28.859375 C 21.078125 28.859375 22.671875 28.859375 24.265625 28.859375 C 23.765625 28.953125 23.246094 28.988281 22.703125 28.953125 C 22.703125 29.476562 22.703125 29.996094 22.703125 30.515625 C 21.4375 30.515625 20.164062 30.515625 18.898438 30.515625 C 18.898438 29.996094 18.898438 29.476562 18.898438 28.953125 C 19.113281 28.984375 19.308594 28.953125 19.484375 28.859375 Z M 19.484375 28.859375 "/>
</g>
<mask id="mask39">
  <g filter="url(#alpha)">
<rect x="0" y="0" width="50" height="50" style="fill:rgb(0%,0%,0%);fill-opacity:0.886275;stroke:none;"/>
  </g>
</mask>
<clipPath id="clip40">
  <rect x="0" y="0" width="50" height="50"/>
</clipPath>
<g id="surface122" clip-path="url(#clip40)">
<path style=" stroke:none;fill-rule:evenodd;fill:rgb(99.607843%,60.392157%,0%);fill-opacity:1;" d="M 24.265625 28.859375 C 25.894531 28.859375 27.523438 28.859375 29.148438 28.859375 C 29.148438 28.890625 29.148438 28.921875 29.148438 28.953125 C 28.402344 28.953125 27.652344 28.953125 26.90625 28.953125 C 26.90625 29.476562 26.90625 29.996094 26.90625 30.515625 C 25.503906 30.515625 24.105469 30.515625 22.703125 30.515625 C 22.703125 29.996094 22.703125 29.476562 22.703125 28.953125 C 23.246094 28.988281 23.765625 28.953125 24.265625 28.859375 Z M 24.265625 28.859375 "/>
</g>
<mask id="mask40">
  <g filter="url(#alpha)">
<rect x="0" y="0" width="50" height="50" style="fill:rgb(0%,0%,0%);fill-opacity:0.901961;stroke:none;"/>
  </g>
</mask>
<clipPath id="clip41">
  <rect x="0" y="0" width="50" height="50"/>
</clipPath>
<g id="surface125" clip-path="url(#clip41)">
<path style=" stroke:none;fill-rule:evenodd;fill:rgb(99.607843%,52.54902%,0%);fill-opacity:1;" d="M 29.148438 28.953125 C 29.148438 28.921875 29.148438 28.890625 29.148438 28.859375 C 30.160156 28.839844 31.167969 28.859375 32.179688 28.90625 C 32.808594 29.082031 33.019531 29.492188 32.8125 30.125 C 32.699219 30.242188 32.585938 30.355469 32.46875 30.46875 C 31.886719 30.515625 31.300781 30.535156 30.710938 30.515625 C 30.710938 29.996094 30.710938 29.476562 30.710938 28.953125 C 30.191406 28.953125 29.671875 28.953125 29.148438 28.953125 Z M 29.148438 28.953125 "/>
</g>
<mask id="mask41">
  <g filter="url(#alpha)">
<rect x="0" y="0" width="50" height="50" style="fill:rgb(0%,0%,0%);fill-opacity:0.996078;stroke:none;"/>
  </g>
</mask>
<clipPath id="clip42">
  <rect x="0" y="0" width="50" height="50"/>
</clipPath>
<g id="surface128" clip-path="url(#clip42)">
<path style=" stroke:none;fill-rule:evenodd;fill:rgb(99.607843%,55.686275%,0%);fill-opacity:1;" d="M 29.148438 28.953125 C 29.671875 28.953125 30.191406 28.953125 30.710938 28.953125 C 30.710938 29.476562 30.710938 29.996094 30.710938 30.515625 C 29.445312 30.515625 28.171875 30.515625 26.90625 30.515625 C 26.90625 29.996094 26.90625 29.476562 26.90625 28.953125 C 27.652344 28.953125 28.402344 28.953125 29.148438 28.953125 Z M 29.148438 28.953125 "/>
</g>
<mask id="mask42">
  <g filter="url(#alpha)">
<rect x="0" y="0" width="50" height="50" style="fill:rgb(0%,0%,0%);fill-opacity:0.94902;stroke:none;"/>
  </g>
</mask>
<clipPath id="clip43">
  <rect x="0" y="0" width="50" height="50"/>
</clipPath>
<g id="surface131" clip-path="url(#clip43)">
<path style=" stroke:none;fill-rule:evenodd;fill:rgb(100%,84.705882%,0%);fill-opacity:1;" d="M 6.789062 34.914062 C 6.789062 35.433594 6.789062 35.953125 6.789062 36.476562 C 6.503906 36.445312 6.246094 36.476562 6.007812 36.570312 C 5.699219 36.601562 5.488281 36.765625 5.371094 37.0625 C 5.304688 39.601562 5.304688 42.140625 5.371094 44.679688 C 5.449219 44.851562 5.5625 45 5.710938 45.117188 C 6.0625 45.226562 6.421875 45.273438 6.789062 45.265625 C 6.789062 45.785156 6.789062 46.304688 6.789062 46.828125 C 6.101562 46.902344 5.449219 46.804688 4.835938 46.53125 C 4.867188 42.773438 4.832031 39.03125 4.734375 35.304688 C 4.929688 35.140625 5.160156 35.027344 5.421875 34.960938 C 5.875 34.914062 6.332031 34.894531 6.789062 34.914062 Z M 6.789062 34.914062 "/>
</g>
<mask id="mask43">
  <g filter="url(#alpha)">
<rect x="0" y="0" width="50" height="50" style="fill:rgb(0%,0%,0%);fill-opacity:0.886275;stroke:none;"/>
  </g>
</mask>
<clipPath id="clip44">
  <rect x="0" y="0" width="50" height="50"/>
</clipPath>
<g id="surface134" clip-path="url(#clip44)">
<path style=" stroke:none;fill-rule:evenodd;fill:rgb(100%,81.960784%,0%);fill-opacity:1;" d="M 6.789062 34.914062 C 7.40625 34.914062 8.023438 34.914062 8.640625 34.914062 C 8.640625 35.433594 8.640625 35.953125 8.640625 36.476562 C 9.066406 36.476562 9.488281 36.476562 9.914062 36.476562 C 9.914062 36.507812 9.914062 36.539062 9.914062 36.570312 C 8.609375 36.570312 7.308594 36.570312 6.007812 36.570312 C 6.246094 36.476562 6.503906 36.445312 6.789062 36.476562 C 6.789062 35.953125 6.789062 35.433594 6.789062 34.914062 Z M 6.789062 34.914062 "/>
</g>
<mask id="mask44">
  <g filter="url(#alpha)">
<rect x="0" y="0" width="50" height="50" style="fill:rgb(0%,0%,0%);fill-opacity:0.996078;stroke:none;"/>
  </g>
</mask>
<clipPath id="clip45">
  <rect x="0" y="0" width="50" height="50"/>
</clipPath>
<g id="surface137" clip-path="url(#clip45)">
<path style=" stroke:none;fill-rule:evenodd;fill:rgb(100%,79.607843%,0%);fill-opacity:1;" d="M 8.640625 34.914062 C 9.390625 34.914062 10.140625 34.914062 10.890625 34.914062 C 10.890625 35.433594 10.890625 35.953125 10.890625 36.476562 C 10.5625 36.476562 10.238281 36.476562 9.914062 36.476562 C 9.488281 36.476562 9.066406 36.476562 8.640625 36.476562 C 8.640625 35.953125 8.640625 35.433594 8.640625 34.914062 Z M 8.640625 34.914062 "/>
</g>
<mask id="mask45">
  <g filter="url(#alpha)">
<rect x="0" y="0" width="50" height="50" style="fill:rgb(0%,0%,0%);fill-opacity:0.905882;stroke:none;"/>
  </g>
</mask>
<clipPath id="clip46">
  <rect x="0" y="0" width="50" height="50"/>
</clipPath>
<g id="surface140" clip-path="url(#clip46)">
<path style=" stroke:none;fill-rule:evenodd;fill:rgb(100%,76.862745%,0%);fill-opacity:1;" d="M 10.890625 34.914062 C 11.539062 34.914062 12.191406 34.914062 12.84375 34.914062 C 12.84375 35.433594 12.84375 35.953125 12.84375 36.476562 C 13.027344 36.445312 13.191406 36.480469 13.328125 36.570312 C 12.191406 36.570312 11.050781 36.570312 9.914062 36.570312 C 9.914062 36.539062 9.914062 36.507812 9.914062 36.476562 C 10.238281 36.476562 10.5625 36.476562 10.890625 36.476562 C 10.890625 35.953125 10.890625 35.433594 10.890625 34.914062 Z M 10.890625 34.914062 "/>
</g>
<mask id="mask46">
  <g filter="url(#alpha)">
<rect x="0" y="0" width="50" height="50" style="fill:rgb(0%,0%,0%);fill-opacity:0.952941;stroke:none;"/>
  </g>
</mask>
<clipPath id="clip47">
  <rect x="0" y="0" width="50" height="50"/>
</clipPath>
<g id="surface143" clip-path="url(#clip47)">
<path style=" stroke:none;fill-rule:evenodd;fill:rgb(99.607843%,74.509804%,0%);fill-opacity:1;" d="M 12.84375 34.914062 C 13.234375 34.894531 13.625 34.914062 14.015625 34.960938 C 14.28125 35.0625 14.507812 35.207031 14.695312 35.398438 C 14.664062 39.054688 14.699219 42.699219 14.796875 46.335938 C 14.554688 46.507812 14.296875 46.652344 14.015625 46.777344 C 12.972656 46.828125 11.929688 46.84375 10.890625 46.828125 C 10.890625 46.304688 10.890625 45.785156 10.890625 45.265625 C 11.804688 45.300781 12.71875 45.253906 13.625 45.117188 C 13.773438 45 13.886719 44.851562 13.964844 44.679688 C 14.03125 42.140625 14.03125 39.601562 13.964844 37.0625 C 13.847656 36.765625 13.636719 36.601562 13.328125 36.570312 C 13.191406 36.480469 13.027344 36.445312 12.84375 36.476562 C 12.84375 35.953125 12.84375 35.433594 12.84375 34.914062 Z M 12.84375 34.914062 "/>
</g>
<mask id="mask47">
  <g filter="url(#alpha)">
<rect x="0" y="0" width="50" height="50" style="fill:rgb(0%,0%,0%);fill-opacity:0.952941;stroke:none;"/>
  </g>
</mask>
<clipPath id="clip48">
  <rect x="0" y="0" width="50" height="50"/>
</clipPath>
<g id="surface146" clip-path="url(#clip48)">
<path style=" stroke:none;fill-rule:evenodd;fill:rgb(100%,86.27451%,0%);fill-opacity:1;" d="M 4.734375 35.304688 C 4.832031 39.03125 4.867188 42.773438 4.835938 46.53125 C 4.246094 46.171875 3.871094 45.652344 3.710938 44.96875 C 3.644531 42.234375 3.644531 39.5 3.710938 36.765625 C 3.847656 36.125 4.191406 35.636719 4.734375 35.304688 Z M 4.734375 35.304688 "/>
</g>
<mask id="mask48">
  <g filter="url(#alpha)">
<rect x="0" y="0" width="50" height="50" style="fill:rgb(0%,0%,0%);fill-opacity:0.92549;stroke:none;"/>
  </g>
</mask>
<clipPath id="clip49">
  <rect x="0" y="0" width="50" height="50"/>
</clipPath>
<g id="surface149" clip-path="url(#clip49)">
<path style=" stroke:none;fill-rule:evenodd;fill:rgb(99.607843%,67.843137%,0%);fill-opacity:1;" d="M 20.460938 35.304688 C 20.527344 35.390625 20.625 35.421875 20.75 35.398438 C 20.75 35.921875 20.75 36.441406 20.75 36.960938 C 19.675781 36.980469 18.601562 36.960938 17.53125 36.914062 C 16.898438 36.742188 16.6875 36.335938 16.894531 35.695312 C 16.945312 35.515625 17.058594 35.398438 17.234375 35.351562 C 18.308594 35.304688 19.382812 35.285156 20.460938 35.304688 Z M 20.460938 35.304688 "/>
</g>
<mask id="mask49">
  <g filter="url(#alpha)">
<rect x="0" y="0" width="50" height="50" style="fill:rgb(0%,0%,0%);fill-opacity:0.933333;stroke:none;"/>
  </g>
</mask>
<clipPath id="clip50">
  <rect x="0" y="0" width="50" height="50"/>
</clipPath>
<g id="surface152" clip-path="url(#clip50)">
<path style=" stroke:none;fill-rule:evenodd;fill:rgb(99.607843%,64.705882%,0%);fill-opacity:1;" d="M 20.460938 35.304688 C 21.207031 35.304688 21.957031 35.304688 22.703125 35.304688 C 22.703125 35.824219 22.703125 36.34375 22.703125 36.867188 C 22.832031 36.84375 22.929688 36.875 23 36.960938 C 22.25 36.960938 21.5 36.960938 20.75 36.960938 C 20.75 36.441406 20.75 35.921875 20.75 35.398438 C 20.625 35.421875 20.527344 35.390625 20.460938 35.304688 Z M 20.460938 35.304688 "/>
</g>
<mask id="mask50">
  <g filter="url(#alpha)">
<rect x="0" y="0" width="50" height="50" style="fill:rgb(0%,0%,0%);fill-opacity:0.92549;stroke:none;"/>
  </g>
</mask>
<clipPath id="clip51">
  <rect x="0" y="0" width="50" height="50"/>
</clipPath>
<g id="surface155" clip-path="url(#clip51)">
<path style=" stroke:none;fill-rule:evenodd;fill:rgb(99.607843%,62.352941%,0%);fill-opacity:1;" d="M 22.703125 35.304688 C 23.355469 35.304688 24.007812 35.304688 24.65625 35.304688 C 24.65625 35.824219 24.65625 36.34375 24.65625 36.867188 C 25.003906 36.835938 25.328125 36.867188 25.632812 36.960938 C 24.757812 36.960938 23.875 36.960938 23 36.960938 C 22.929688 36.875 22.832031 36.84375 22.703125 36.867188 C 22.703125 36.34375 22.703125 35.824219 22.703125 35.304688 Z M 22.703125 35.304688 "/>
</g>
<mask id="mask51">
  <g filter="url(#alpha)">
<rect x="0" y="0" width="50" height="50" style="fill:rgb(0%,0%,0%);fill-opacity:0.941176;stroke:none;"/>
  </g>
</mask>
<clipPath id="clip52">
  <rect x="0" y="0" width="50" height="50"/>
</clipPath>
<g id="surface158" clip-path="url(#clip52)">
<path style=" stroke:none;fill-rule:evenodd;fill:rgb(99.607843%,59.607843%,0%);fill-opacity:1;" d="M 24.65625 35.304688 C 25.40625 35.304688 26.15625 35.304688 26.90625 35.304688 C 26.90625 35.824219 26.90625 36.34375 26.90625 36.867188 C 27.21875 36.835938 27.511719 36.867188 27.78125 36.960938 C 27.066406 36.960938 26.351562 36.960938 25.632812 36.960938 C 25.328125 36.867188 25.003906 36.835938 24.65625 36.867188 C 24.65625 36.34375 24.65625 35.824219 24.65625 35.304688 Z M 24.65625 35.304688 "/>
</g>
<mask id="mask52">
  <g filter="url(#alpha)">
<rect x="0" y="0" width="50" height="50" style="fill:rgb(0%,0%,0%);fill-opacity:0.92549;stroke:none;"/>
  </g>
</mask>
<clipPath id="clip53">
  <rect x="0" y="0" width="50" height="50"/>
</clipPath>
<g id="surface161" clip-path="url(#clip53)">
<path style=" stroke:none;fill-rule:evenodd;fill:rgb(99.607843%,55.686275%,0%);fill-opacity:1;" d="M 26.90625 35.304688 C 28.171875 35.304688 29.445312 35.304688 30.710938 35.304688 C 30.710938 35.824219 30.710938 36.34375 30.710938 36.867188 C 30.585938 36.84375 30.488281 36.875 30.421875 36.960938 C 29.539062 36.960938 28.664062 36.960938 27.78125 36.960938 C 27.511719 36.867188 27.21875 36.835938 26.90625 36.867188 C 26.90625 36.34375 26.90625 35.824219 26.90625 35.304688 Z M 26.90625 35.304688 "/>
</g>
<mask id="mask53">
  <g filter="url(#alpha)">
<rect x="0" y="0" width="50" height="50" style="fill:rgb(0%,0%,0%);fill-opacity:0.933333;stroke:none;"/>
  </g>
</mask>
<clipPath id="clip54">
  <rect x="0" y="0" width="50" height="50"/>
</clipPath>
<g id="surface164" clip-path="url(#clip54)">
<path style=" stroke:none;fill-rule:evenodd;fill:rgb(99.607843%,50.980392%,0%);fill-opacity:1;" d="M 30.710938 35.304688 C 32.078125 35.304688 33.445312 35.304688 34.8125 35.304688 C 34.8125 35.824219 34.8125 36.34375 34.8125 36.867188 C 34.96875 36.839844 35.101562 36.871094 35.203125 36.960938 C 33.609375 36.960938 32.015625 36.960938 30.421875 36.960938 C 30.488281 36.875 30.585938 36.84375 30.710938 36.867188 C 30.710938 36.34375 30.710938 35.824219 30.710938 35.304688 Z M 30.710938 35.304688 "/>
</g>
<mask id="mask54">
  <g filter="url(#alpha)">
<rect x="0" y="0" width="50" height="50" style="fill:rgb(0%,0%,0%);fill-opacity:0.933333;stroke:none;"/>
  </g>
</mask>
<clipPath id="clip55">
  <rect x="0" y="0" width="50" height="50"/>
</clipPath>
<g id="surface167" clip-path="url(#clip55)">
<path style=" stroke:none;fill-rule:evenodd;fill:rgb(99.215686%,47.45098%,0%);fill-opacity:1;" d="M 34.8125 35.304688 C 35.464844 35.304688 36.117188 35.304688 36.765625 35.304688 C 36.765625 35.824219 36.765625 36.34375 36.765625 36.867188 C 37.015625 36.835938 37.246094 36.867188 37.453125 36.960938 C 36.703125 36.960938 35.953125 36.960938 35.203125 36.960938 C 35.101562 36.871094 34.96875 36.839844 34.8125 36.867188 C 34.8125 36.34375 34.8125 35.824219 34.8125 35.304688 Z M 34.8125 35.304688 "/>
</g>
<mask id="mask55">
  <g filter="url(#alpha)">
<rect x="0" y="0" width="50" height="50" style="fill:rgb(0%,0%,0%);fill-opacity:0.92549;stroke:none;"/>
  </g>
</mask>
<clipPath id="clip56">
  <rect x="0" y="0" width="50" height="50"/>
</clipPath>
<g id="surface170" clip-path="url(#clip56)">
<path style=" stroke:none;fill-rule:evenodd;fill:rgb(99.215686%,44.313725%,0%);fill-opacity:1;" d="M 36.765625 35.304688 C 38.039062 35.304688 39.304688 35.304688 40.578125 35.304688 C 40.578125 35.824219 40.578125 36.34375 40.578125 36.867188 C 40.359375 36.835938 40.164062 36.867188 39.992188 36.960938 C 39.144531 36.960938 38.296875 36.960938 37.453125 36.960938 C 37.246094 36.867188 37.015625 36.835938 36.765625 36.867188 C 36.765625 36.34375 36.765625 35.824219 36.765625 35.304688 Z M 36.765625 35.304688 "/>
</g>
<mask id="mask56">
  <g filter="url(#alpha)">
<rect x="0" y="0" width="50" height="50" style="fill:rgb(0%,0%,0%);fill-opacity:0.941176;stroke:none;"/>
  </g>
</mask>
<clipPath id="clip57">
  <rect x="0" y="0" width="50" height="50"/>
</clipPath>
<g id="surface173" clip-path="url(#clip57)">
<path style=" stroke:none;fill-rule:evenodd;fill:rgb(99.215686%,40.392157%,0%);fill-opacity:1;" d="M 40.578125 35.304688 C 41.324219 35.304688 42.074219 35.304688 42.820312 35.304688 C 42.820312 35.824219 42.820312 36.34375 42.820312 36.867188 C 42.605469 36.835938 42.410156 36.867188 42.234375 36.960938 C 41.488281 36.960938 40.738281 36.960938 39.992188 36.960938 C 40.164062 36.867188 40.359375 36.835938 40.578125 36.867188 C 40.578125 36.34375 40.578125 35.824219 40.578125 35.304688 Z M 40.578125 35.304688 "/>
</g>
<mask id="mask57">
  <g filter="url(#alpha)">
<rect x="0" y="0" width="50" height="50" style="fill:rgb(0%,0%,0%);fill-opacity:0.929412;stroke:none;"/>
  </g>
</mask>
<clipPath id="clip58">
  <rect x="0" y="0" width="50" height="50"/>
</clipPath>
<g id="surface176" clip-path="url(#clip58)">
<path style=" stroke:none;fill-rule:evenodd;fill:rgb(99.215686%,37.254902%,0%);fill-opacity:1;" d="M 42.820312 35.304688 C 43.800781 35.285156 44.777344 35.304688 45.75 35.351562 C 46.363281 35.792969 46.394531 36.28125 45.851562 36.816406 C 45.75 36.847656 45.65625 36.882812 45.554688 36.914062 C 44.449219 36.960938 43.34375 36.980469 42.234375 36.960938 C 42.410156 36.867188 42.605469 36.835938 42.820312 36.867188 C 42.820312 36.34375 42.820312 35.824219 42.820312 35.304688 Z M 42.820312 35.304688 "/>
</g>
<mask id="mask58">
  <g filter="url(#alpha)">
<rect x="0" y="0" width="50" height="50" style="fill:rgb(0%,0%,0%);fill-opacity:0.945098;stroke:none;"/>
  </g>
</mask>
<clipPath id="clip59">
  <rect x="0" y="0" width="50" height="50"/>
</clipPath>
<g id="surface179" clip-path="url(#clip59)">
<path style=" stroke:none;fill-rule:evenodd;fill:rgb(99.607843%,72.941176%,0%);fill-opacity:1;" d="M 14.695312 35.398438 C 15.207031 35.703125 15.519531 36.160156 15.625 36.765625 C 15.691406 39.5 15.691406 42.234375 15.625 44.96875 C 15.519531 45.539062 15.242188 45.996094 14.796875 46.335938 C 14.699219 42.699219 14.664062 39.054688 14.695312 35.398438 Z M 14.695312 35.398438 "/>
</g>
<mask id="mask59">
  <g filter="url(#alpha)">
<rect x="0" y="0" width="50" height="50" style="fill:rgb(0%,0%,0%);fill-opacity:0.964706;stroke:none;"/>
  </g>
</mask>
<clipPath id="clip60">
  <rect x="0" y="0" width="50" height="50"/>
</clipPath>
<g id="surface182" clip-path="url(#clip60)">
<path style=" stroke:none;fill-rule:evenodd;fill:rgb(99.215686%,46.27451%,0%);fill-opacity:1;" d="M 34.8125 40.085938 C 35.824219 40.070312 36.832031 40.085938 37.84375 40.136719 C 38.136719 40.285156 38.265625 40.53125 38.234375 40.867188 C 38.265625 41.207031 38.136719 41.453125 37.84375 41.601562 C 36.832031 41.648438 35.824219 41.667969 34.8125 41.648438 C 34.8125 41.128906 34.8125 40.609375 34.8125 40.085938 Z M 34.8125 40.085938 "/>
</g>
<mask id="mask60">
  <g filter="url(#alpha)">
<rect x="0" y="0" width="50" height="50" style="fill:rgb(0%,0%,0%);fill-opacity:0.921569;stroke:none;"/>
  </g>
</mask>
<clipPath id="clip61">
  <rect x="0" y="0" width="50" height="50"/>
</clipPath>
<g id="surface185" clip-path="url(#clip61)">
<path style=" stroke:none;fill-rule:evenodd;fill:rgb(99.607843%,68.627451%,0%);fill-opacity:1;" d="M 19.484375 44.773438 C 19.886719 44.871094 20.308594 44.902344 20.75 44.875 C 20.75 45.394531 20.75 45.914062 20.75 46.4375 C 19.578125 46.453125 18.40625 46.4375 17.234375 46.386719 C 16.941406 46.238281 16.8125 45.992188 16.84375 45.65625 C 16.808594 45.160156 17.035156 44.882812 17.53125 44.824219 C 18.179688 44.773438 18.832031 44.757812 19.484375 44.773438 Z M 19.484375 44.773438 "/>
</g>
<mask id="mask61">
  <g filter="url(#alpha)">
<rect x="0" y="0" width="50" height="50" style="fill:rgb(0%,0%,0%);fill-opacity:0.870588;stroke:none;"/>
  </g>
</mask>
<clipPath id="clip62">
  <rect x="0" y="0" width="50" height="50"/>
</clipPath>
<g id="surface188" clip-path="url(#clip62)">
<path style=" stroke:none;fill-rule:evenodd;fill:rgb(99.607843%,63.921569%,0%);fill-opacity:1;" d="M 19.484375 44.773438 C 21.078125 44.773438 22.671875 44.773438 24.265625 44.773438 C 24.371094 44.867188 24.503906 44.898438 24.65625 44.875 C 24.65625 45.394531 24.65625 45.914062 24.65625 46.4375 C 23.355469 46.4375 22.054688 46.4375 20.75 46.4375 C 20.75 45.914062 20.75 45.394531 20.75 44.875 C 20.308594 44.902344 19.886719 44.871094 19.484375 44.773438 Z M 19.484375 44.773438 "/>
</g>
<mask id="mask62">
  <g filter="url(#alpha)">
<rect x="0" y="0" width="50" height="50" style="fill:rgb(0%,0%,0%);fill-opacity:0.886275;stroke:none;"/>
  </g>
</mask>
<clipPath id="clip63">
  <rect x="0" y="0" width="50" height="50"/>
</clipPath>
<g id="surface191" clip-path="url(#clip63)">
<path style=" stroke:none;fill-rule:evenodd;fill:rgb(99.607843%,59.607843%,0%);fill-opacity:1;" d="M 24.265625 44.773438 C 25.894531 44.773438 27.523438 44.773438 29.148438 44.773438 C 29.148438 44.808594 29.148438 44.839844 29.148438 44.875 C 28.402344 44.875 27.652344 44.875 26.90625 44.875 C 26.90625 45.394531 26.90625 45.914062 26.90625 46.4375 C 26.15625 46.4375 25.40625 46.4375 24.65625 46.4375 C 24.65625 45.914062 24.65625 45.394531 24.65625 44.875 C 24.503906 44.898438 24.371094 44.867188 24.265625 44.773438 Z M 24.265625 44.773438 "/>
</g>
<mask id="mask63">
  <g filter="url(#alpha)">
<rect x="0" y="0" width="50" height="50" style="fill:rgb(0%,0%,0%);fill-opacity:0.901961;stroke:none;"/>
  </g>
</mask>
<clipPath id="clip64">
  <rect x="0" y="0" width="50" height="50"/>
</clipPath>
<g id="surface194" clip-path="url(#clip64)">
<path style=" stroke:none;fill-rule:evenodd;fill:rgb(99.607843%,52.941176%,0%);fill-opacity:1;" d="M 29.148438 44.875 C 29.148438 44.839844 29.148438 44.808594 29.148438 44.773438 C 30.160156 44.757812 31.167969 44.773438 32.179688 44.824219 C 32.765625 44.988281 32.976562 45.363281 32.8125 45.945312 C 32.734375 46.121094 32.621094 46.269531 32.46875 46.386719 C 31.886719 46.433594 31.300781 46.453125 30.710938 46.4375 C 30.710938 45.914062 30.710938 45.394531 30.710938 44.875 C 30.191406 44.875 29.671875 44.875 29.148438 44.875 Z M 29.148438 44.875 "/>
</g>
<mask id="mask64">
  <g filter="url(#alpha)">
<rect x="0" y="0" width="50" height="50" style="fill:rgb(0%,0%,0%);fill-opacity:0.996078;stroke:none;"/>
  </g>
</mask>
<clipPath id="clip65">
  <rect x="0" y="0" width="50" height="50"/>
</clipPath>
<g id="surface197" clip-path="url(#clip65)">
<path style=" stroke:none;fill-rule:evenodd;fill:rgb(99.607843%,55.686275%,0%);fill-opacity:1;" d="M 29.148438 44.875 C 29.671875 44.875 30.191406 44.875 30.710938 44.875 C 30.710938 45.394531 30.710938 45.914062 30.710938 46.4375 C 29.445312 46.4375 28.171875 46.4375 26.90625 46.4375 C 26.90625 45.914062 26.90625 45.394531 26.90625 44.875 C 27.652344 44.875 28.402344 44.875 29.148438 44.875 Z M 29.148438 44.875 "/>
</g>
</defs>
<g id="surface1">
<use xlink:href="#surface5" mask="url(#mask0)"/>
<path style=" stroke:none;fill-rule:evenodd;fill:rgb(100%,80.392157%,0%);fill-opacity:1;" d="M 6.789062 3.078125 C 8.15625 3.078125 9.523438 3.078125 10.890625 3.078125 C 10.890625 3.597656 10.890625 4.117188 10.890625 4.640625 C 9.523438 4.640625 8.15625 4.640625 6.789062 4.640625 C 6.789062 4.117188 6.789062 3.597656 6.789062 3.078125 Z M 6.789062 3.078125 "/>
<use xlink:href="#surface8" mask="url(#mask1)"/>
<use xlink:href="#surface11" mask="url(#mask2)"/>
<use xlink:href="#surface14" mask="url(#mask3)"/>
<use xlink:href="#surface17" mask="url(#mask4)"/>
<use xlink:href="#surface20" mask="url(#mask5)"/>
<use xlink:href="#surface23" mask="url(#mask6)"/>
<use xlink:href="#surface26" mask="url(#mask7)"/>
<use xlink:href="#surface29" mask="url(#mask8)"/>
<use xlink:href="#surface32" mask="url(#mask9)"/>
<use xlink:href="#surface35" mask="url(#mask10)"/>
<use xlink:href="#surface38" mask="url(#mask11)"/>
<use xlink:href="#surface41" mask="url(#mask12)"/>
<path style=" stroke:none;fill-rule:evenodd;fill:rgb(99.607843%,67.843137%,0%);fill-opacity:1;" d="M 20.75 8.25 C 20.75 8.773438 20.75 9.292969 20.75 9.8125 C 19.578125 9.832031 18.40625 9.8125 17.234375 9.765625 C 16.941406 9.617188 16.8125 9.371094 16.84375 9.03125 C 16.8125 8.695312 16.941406 8.449219 17.234375 8.300781 C 18.40625 8.253906 19.578125 8.234375 20.75 8.25 Z M 20.75 8.25 "/>
<path style=" stroke:none;fill-rule:evenodd;fill:rgb(99.607843%,63.137255%,0%);fill-opacity:1;" d="M 20.75 8.25 C 22.054688 8.25 23.355469 8.25 24.65625 8.25 C 24.65625 8.773438 24.65625 9.292969 24.65625 9.8125 C 23.355469 9.8125 22.054688 9.8125 20.75 9.8125 C 20.75 9.292969 20.75 8.773438 20.75 8.25 Z M 20.75 8.25 "/>
<path style=" stroke:none;fill-rule:evenodd;fill:rgb(99.607843%,59.607843%,0%);fill-opacity:1;" d="M 24.65625 8.25 C 25.40625 8.25 26.15625 8.25 26.90625 8.25 C 26.90625 8.773438 26.90625 9.292969 26.90625 9.8125 C 26.15625 9.8125 25.40625 9.8125 24.65625 9.8125 C 24.65625 9.292969 24.65625 8.773438 24.65625 8.25 Z M 24.65625 8.25 "/>
<path style=" stroke:none;fill-rule:evenodd;fill:rgb(99.607843%,55.686275%,0%);fill-opacity:1;" d="M 26.90625 8.25 C 28.171875 8.25 29.445312 8.25 30.710938 8.25 C 30.710938 8.773438 30.710938 9.292969 30.710938 9.8125 C 29.445312 9.8125 28.171875 9.8125 26.90625 9.8125 C 26.90625 9.292969 26.90625 8.773438 26.90625 8.25 Z M 26.90625 8.25 "/>
<path style=" stroke:none;fill-rule:evenodd;fill:rgb(99.607843%,50.980392%,0%);fill-opacity:1;" d="M 30.710938 8.25 C 32.078125 8.25 33.445312 8.25 34.8125 8.25 C 34.8125 8.773438 34.8125 9.292969 34.8125 9.8125 C 33.445312 9.8125 32.078125 9.8125 30.710938 9.8125 C 30.710938 9.292969 30.710938 8.773438 30.710938 8.25 Z M 30.710938 8.25 "/>
<use xlink:href="#surface44" mask="url(#mask13)"/>
<use xlink:href="#surface47" mask="url(#mask14)"/>
<use xlink:href="#surface50" mask="url(#mask15)"/>
<use xlink:href="#surface53" mask="url(#mask16)"/>
<use xlink:href="#surface56" mask="url(#mask17)"/>
<use xlink:href="#surface59" mask="url(#mask18)"/>
<use xlink:href="#surface62" mask="url(#mask19)"/>
<use xlink:href="#surface65" mask="url(#mask20)"/>
<use xlink:href="#surface68" mask="url(#mask21)"/>
<use xlink:href="#surface71" mask="url(#mask22)"/>
<use xlink:href="#surface74" mask="url(#mask23)"/>
<path style=" stroke:none;fill-rule:evenodd;fill:rgb(100%,80.392157%,0%);fill-opacity:1;" d="M 6.789062 18.992188 C 8.15625 18.992188 9.523438 18.992188 10.890625 18.992188 C 10.890625 19.515625 10.890625 20.035156 10.890625 20.554688 C 9.523438 20.554688 8.15625 20.554688 6.789062 20.554688 C 6.789062 20.035156 6.789062 19.515625 6.789062 18.992188 Z M 6.789062 18.992188 "/>
<use xlink:href="#surface77" mask="url(#mask24)"/>
<use xlink:href="#surface80" mask="url(#mask25)"/>
<use xlink:href="#surface83" mask="url(#mask26)"/>
<use xlink:href="#surface86" mask="url(#mask27)"/>
<use xlink:href="#surface89" mask="url(#mask28)"/>
<use xlink:href="#surface92" mask="url(#mask29)"/>
<use xlink:href="#surface95" mask="url(#mask30)"/>
<use xlink:href="#surface98" mask="url(#mask31)"/>
<use xlink:href="#surface101" mask="url(#mask32)"/>
<use xlink:href="#surface104" mask="url(#mask33)"/>
<use xlink:href="#surface107" mask="url(#mask34)"/>
<use xlink:href="#surface110" mask="url(#mask35)"/>
<path style=" stroke:none;fill-rule:evenodd;fill:rgb(99.607843%,67.843137%,0%);fill-opacity:1;" d="M 20.75 24.171875 C 20.75 24.691406 20.75 25.210938 20.75 25.734375 C 19.578125 25.75 18.40625 25.734375 17.234375 25.683594 C 16.941406 25.535156 16.8125 25.289062 16.84375 24.953125 C 16.8125 24.613281 16.941406 24.367188 17.234375 24.21875 C 18.40625 24.171875 19.578125 24.152344 20.75 24.171875 Z M 20.75 24.171875 "/>
<path style=" stroke:none;fill-rule:evenodd;fill:rgb(99.607843%,63.137255%,0%);fill-opacity:1;" d="M 20.75 24.171875 C 22.054688 24.171875 23.355469 24.171875 24.65625 24.171875 C 24.65625 24.691406 24.65625 25.210938 24.65625 25.734375 C 23.355469 25.734375 22.054688 25.734375 20.75 25.734375 C 20.75 25.210938 20.75 24.691406 20.75 24.171875 Z M 20.75 24.171875 "/>
<path style=" stroke:none;fill-rule:evenodd;fill:rgb(99.607843%,59.607843%,0%);fill-opacity:1;" d="M 24.65625 24.171875 C 25.40625 24.171875 26.15625 24.171875 26.90625 24.171875 C 26.90625 24.691406 26.90625 25.210938 26.90625 25.734375 C 26.15625 25.734375 25.40625 25.734375 24.65625 25.734375 C 24.65625 25.210938 24.65625 24.691406 24.65625 24.171875 Z M 24.65625 24.171875 "/>
<path style=" stroke:none;fill-rule:evenodd;fill:rgb(99.607843%,55.686275%,0%);fill-opacity:1;" d="M 26.90625 24.171875 C 28.171875 24.171875 29.445312 24.171875 30.710938 24.171875 C 30.710938 24.691406 30.710938 25.210938 30.710938 25.734375 C 29.445312 25.734375 28.171875 25.734375 26.90625 25.734375 C 26.90625 25.210938 26.90625 24.691406 26.90625 24.171875 Z M 26.90625 24.171875 "/>
<path style=" stroke:none;fill-rule:evenodd;fill:rgb(99.607843%,50.980392%,0%);fill-opacity:1;" d="M 30.710938 24.171875 C 32.078125 24.171875 33.445312 24.171875 34.8125 24.171875 C 34.8125 24.691406 34.8125 25.210938 34.8125 25.734375 C 33.445312 25.734375 32.078125 25.734375 30.710938 25.734375 C 30.710938 25.210938 30.710938 24.691406 30.710938 24.171875 Z M 30.710938 24.171875 "/>
<use xlink:href="#surface113" mask="url(#mask36)"/>
<use xlink:href="#surface116" mask="url(#mask37)"/>
<use xlink:href="#surface119" mask="url(#mask38)"/>
<use xlink:href="#surface122" mask="url(#mask39)"/>
<use xlink:href="#surface125" mask="url(#mask40)"/>
<use xlink:href="#surface128" mask="url(#mask41)"/>
<path style=" stroke:none;fill-rule:evenodd;fill:rgb(100%,80.392157%,0%);fill-opacity:1;" d="M 6.789062 29.34375 C 8.15625 29.34375 9.523438 29.34375 10.890625 29.34375 C 10.890625 29.867188 10.890625 30.386719 10.890625 30.90625 C 9.523438 30.90625 8.15625 30.90625 6.789062 30.90625 C 6.789062 30.386719 6.789062 29.867188 6.789062 29.34375 Z M 6.789062 29.34375 "/>
<use xlink:href="#surface131" mask="url(#mask42)"/>
<use xlink:href="#surface134" mask="url(#mask43)"/>
<use xlink:href="#surface137" mask="url(#mask44)"/>
<use xlink:href="#surface140" mask="url(#mask45)"/>
<use xlink:href="#surface143" mask="url(#mask46)"/>
<use xlink:href="#surface146" mask="url(#mask47)"/>
<use xlink:href="#surface149" mask="url(#mask48)"/>
<use xlink:href="#surface152" mask="url(#mask49)"/>
<use xlink:href="#surface155" mask="url(#mask50)"/>
<use xlink:href="#surface158" mask="url(#mask51)"/>
<use xlink:href="#surface161" mask="url(#mask52)"/>
<use xlink:href="#surface164" mask="url(#mask53)"/>
<use xlink:href="#surface167" mask="url(#mask54)"/>
<use xlink:href="#surface170" mask="url(#mask55)"/>
<use xlink:href="#surface173" mask="url(#mask56)"/>
<use xlink:href="#surface176" mask="url(#mask57)"/>
<use xlink:href="#surface179" mask="url(#mask58)"/>
<path style=" stroke:none;fill-rule:evenodd;fill:rgb(99.607843%,67.843137%,0%);fill-opacity:1;" d="M 20.75 40.085938 C 20.75 40.609375 20.75 41.128906 20.75 41.648438 C 19.578125 41.667969 18.40625 41.648438 17.234375 41.601562 C 16.941406 41.453125 16.8125 41.207031 16.84375 40.867188 C 16.8125 40.53125 16.941406 40.285156 17.234375 40.136719 C 18.40625 40.085938 19.578125 40.070312 20.75 40.085938 Z M 20.75 40.085938 "/>
<path style=" stroke:none;fill-rule:evenodd;fill:rgb(99.607843%,63.137255%,0%);fill-opacity:1;" d="M 20.75 40.085938 C 22.054688 40.085938 23.355469 40.085938 24.65625 40.085938 C 24.65625 40.609375 24.65625 41.128906 24.65625 41.648438 C 23.355469 41.648438 22.054688 41.648438 20.75 41.648438 C 20.75 41.128906 20.75 40.609375 20.75 40.085938 Z M 20.75 40.085938 "/>
<path style=" stroke:none;fill-rule:evenodd;fill:rgb(99.607843%,59.607843%,0%);fill-opacity:1;" d="M 24.65625 40.085938 C 25.40625 40.085938 26.15625 40.085938 26.90625 40.085938 C 26.90625 40.609375 26.90625 41.128906 26.90625 41.648438 C 26.15625 41.648438 25.40625 41.648438 24.65625 41.648438 C 24.65625 41.128906 24.65625 40.609375 24.65625 40.085938 Z M 24.65625 40.085938 "/>
<path style=" stroke:none;fill-rule:evenodd;fill:rgb(99.607843%,55.686275%,0%);fill-opacity:1;" d="M 26.90625 40.085938 C 28.171875 40.085938 29.445312 40.085938 30.710938 40.085938 C 30.710938 40.609375 30.710938 41.128906 30.710938 41.648438 C 29.445312 41.648438 28.171875 41.648438 26.90625 41.648438 C 26.90625 41.128906 26.90625 40.609375 26.90625 40.085938 Z M 26.90625 40.085938 "/>
<path style=" stroke:none;fill-rule:evenodd;fill:rgb(99.607843%,50.980392%,0%);fill-opacity:1;" d="M 30.710938 40.085938 C 32.078125 40.085938 33.445312 40.085938 34.8125 40.085938 C 34.8125 40.609375 34.8125 41.128906 34.8125 41.648438 C 33.445312 41.648438 32.078125 41.648438 30.710938 41.648438 C 30.710938 41.128906 30.710938 40.609375 30.710938 40.085938 Z M 30.710938 40.085938 "/>
<use xlink:href="#surface182" mask="url(#mask59)"/>
<use xlink:href="#surface185" mask="url(#mask60)"/>
<use xlink:href="#surface188" mask="url(#mask61)"/>
<use xlink:href="#surface191" mask="url(#mask62)"/>
<use xlink:href="#surface194" mask="url(#mask63)"/>
<use xlink:href="#surface197" mask="url(#mask64)"/>
<path style=" stroke:none;fill-rule:evenodd;fill:rgb(100%,80.392157%,0%);fill-opacity:1;" d="M 6.789062 45.265625 C 8.15625 45.265625 9.523438 45.265625 10.890625 45.265625 C 10.890625 45.785156 10.890625 46.304688 10.890625 46.828125 C 9.523438 46.828125 8.15625 46.828125 6.789062 46.828125 C 6.789062 46.304688 6.789062 45.785156 6.789062 45.265625 Z M 6.789062 45.265625 "/>
</g>
</svg>
