<?xml version="1.0" encoding="UTF-8"?>
<svg xmlns="http://www.w3.org/2000/svg" xmlns:xlink="http://www.w3.org/1999/xlink" width="50px" height="50px" viewBox="0 0 50 50" version="1.1">
<defs>
<filter id="alpha" filterUnits="objectBoundingBox" x="0%" y="0%" width="100%" height="100%">
  <feColorMatrix type="matrix" in="SourceGraphic" values="0 0 0 0 1 0 0 0 0 1 0 0 0 0 1 0 0 0 1 0"/>
</filter>
<mask id="mask0">
  <g filter="url(#alpha)">
<rect x="0" y="0" width="50" height="50" style="fill:rgb(0%,0%,0%);fill-opacity:0.94902;stroke:none;"/>
  </g>
</mask>
<clipPath id="clip1">
  <rect x="0" y="0" width="50" height="50"/>
</clipPath>
<g id="surface5" clip-path="url(#clip1)">
<path style=" stroke:none;fill-rule:evenodd;fill:rgb(99.607843%,62.745098%,0%);fill-opacity:1;" d="M 24.65625 9.617188 C 24.65625 10.171875 24.65625 10.726562 24.65625 11.28125 C 23.734375 11.496094 23.050781 12.015625 22.609375 12.84375 C 22.609375 12.027344 22.609375 11.214844 22.609375 10.398438 C 23.207031 9.949219 23.890625 9.691406 24.65625 9.617188 Z M 24.65625 9.617188 "/>
</g>
<mask id="mask1">
  <g filter="url(#alpha)">
<rect x="0" y="0" width="50" height="50" style="fill:rgb(0%,0%,0%);fill-opacity:0.945098;stroke:none;"/>
  </g>
</mask>
<clipPath id="clip2">
  <rect x="0" y="0" width="50" height="50"/>
</clipPath>
<g id="surface8" clip-path="url(#clip2)">
<path style=" stroke:none;fill-rule:evenodd;fill:rgb(99.607843%,60%,0%);fill-opacity:1;" d="M 24.65625 9.617188 C 25.507812 9.582031 26.289062 9.777344 27 10.203125 C 26.90625 10.871094 26.871094 11.554688 26.90625 12.257812 C 26.316406 11.589844 25.570312 11.261719 24.65625 11.28125 C 24.65625 10.726562 24.65625 10.171875 24.65625 9.617188 Z M 24.65625 9.617188 "/>
</g>
<mask id="mask2">
  <g filter="url(#alpha)">
<rect x="0" y="0" width="50" height="50" style="fill:rgb(0%,0%,0%);fill-opacity:0.972549;stroke:none;"/>
  </g>
</mask>
<clipPath id="clip3">
  <rect x="0" y="0" width="50" height="50"/>
</clipPath>
<g id="surface11" clip-path="url(#clip3)">
<path style=" stroke:none;fill-rule:evenodd;fill:rgb(99.607843%,57.254902%,0%);fill-opacity:1;" d="M 27 10.203125 C 28.785156 11.332031 29.402344 12.925781 28.859375 14.992188 C 29.179688 15.136719 29.503906 15.28125 29.835938 15.429688 C 30.160156 15.761719 30.210938 16.136719 29.980469 16.554688 C 29.621094 16.832031 29.214844 16.914062 28.757812 16.796875 C 28.144531 16.664062 27.523438 16.550781 26.90625 16.453125 C 26.871094 15.914062 26.90625 15.394531 27 14.890625 C 27.292969 14.585938 27.425781 14.210938 27.390625 13.769531 C 27.375 13.214844 27.210938 12.707031 26.90625 12.257812 C 26.871094 11.554688 26.90625 10.871094 27 10.203125 Z M 27 10.203125 "/>
</g>
<mask id="mask3">
  <g filter="url(#alpha)">
<rect x="0" y="0" width="50" height="50" style="fill:rgb(0%,0%,0%);fill-opacity:0.960784;stroke:none;"/>
  </g>
</mask>
<clipPath id="clip4">
  <rect x="0" y="0" width="50" height="50"/>
</clipPath>
<g id="surface14" clip-path="url(#clip4)">
<path style=" stroke:none;fill-rule:evenodd;fill:rgb(99.607843%,64.705882%,0%);fill-opacity:1;" d="M 22.609375 10.398438 C 22.609375 11.214844 22.609375 12.027344 22.609375 12.84375 C 22.445312 13.476562 22.480469 14.09375 22.703125 14.695312 C 22.609375 15.296875 22.574219 15.914062 22.609375 16.554688 C 21.957031 16.648438 21.304688 16.75 20.65625 16.84375 C 20.683594 16.285156 20.648438 15.730469 20.554688 15.1875 C 20.769531 15.222656 20.929688 15.15625 21.046875 14.992188 C 20.515625 13.089844 21.039062 11.558594 22.609375 10.398438 Z M 22.609375 10.398438 "/>
</g>
<mask id="mask4">
  <g filter="url(#alpha)">
<rect x="0" y="0" width="50" height="50" style="fill:rgb(0%,0%,0%);fill-opacity:0.960784;stroke:none;"/>
  </g>
</mask>
<clipPath id="clip5">
  <rect x="0" y="0" width="50" height="50"/>
</clipPath>
<g id="surface17" clip-path="url(#clip5)">
<path style=" stroke:none;fill-rule:evenodd;fill:rgb(99.607843%,62.352941%,0%);fill-opacity:1;" d="M 22.703125 14.695312 C 22.734375 14.773438 22.78125 14.839844 22.851562 14.890625 C 23.445312 14.796875 24.046875 14.765625 24.65625 14.796875 C 24.65625 15.316406 24.65625 15.835938 24.65625 16.359375 C 23.96875 16.386719 23.285156 16.453125 22.609375 16.554688 C 22.574219 15.914062 22.609375 15.296875 22.703125 14.695312 Z M 22.703125 14.695312 "/>
</g>
<mask id="mask5">
  <g filter="url(#alpha)">
<rect x="0" y="0" width="50" height="50" style="fill:rgb(0%,0%,0%);fill-opacity:0.972549;stroke:none;"/>
  </g>
</mask>
<clipPath id="clip6">
  <rect x="0" y="0" width="50" height="50"/>
</clipPath>
<g id="surface20" clip-path="url(#clip6)">
<path style=" stroke:none;fill-rule:evenodd;fill:rgb(99.607843%,59.607843%,0%);fill-opacity:1;" d="M 24.65625 14.796875 C 25.457031 14.761719 26.238281 14.796875 27 14.890625 C 26.90625 15.394531 26.871094 15.914062 26.90625 16.453125 C 26.15625 16.398438 25.40625 16.367188 24.65625 16.359375 C 24.65625 15.835938 24.65625 15.316406 24.65625 14.796875 Z M 24.65625 14.796875 "/>
</g>
<mask id="mask6">
  <g filter="url(#alpha)">
<rect x="0" y="0" width="50" height="50" style="fill:rgb(0%,0%,0%);fill-opacity:0.956863;stroke:none;"/>
  </g>
</mask>
<clipPath id="clip7">
  <rect x="0" y="0" width="50" height="50"/>
</clipPath>
<g id="surface23" clip-path="url(#clip7)">
<path style=" stroke:none;fill-rule:evenodd;fill:rgb(99.607843%,67.058824%,0%);fill-opacity:1;" d="M 20.554688 15.1875 C 20.648438 15.730469 20.683594 16.285156 20.65625 16.84375 C 20.023438 17.070312 19.371094 17.265625 18.703125 17.429688 C 18.703125 16.878906 18.703125 16.324219 18.703125 15.773438 C 19.296875 15.53125 19.917969 15.335938 20.554688 15.1875 Z M 20.554688 15.1875 "/>
</g>
<mask id="mask7">
  <g filter="url(#alpha)">
<rect x="0" y="0" width="50" height="50" style="fill:rgb(0%,0%,0%);fill-opacity:0.94902;stroke:none;"/>
  </g>
</mask>
<clipPath id="clip8">
  <rect x="0" y="0" width="50" height="50"/>
</clipPath>
<g id="surface26" clip-path="url(#clip8)">
<path style=" stroke:none;fill-rule:evenodd;fill:rgb(99.607843%,50.196078%,0%);fill-opacity:1;" d="M 34.8125 15.578125 C 34.882812 15.664062 34.980469 15.695312 35.109375 15.671875 C 35.109375 16.195312 35.109375 16.714844 35.109375 17.234375 C 34.519531 17.21875 33.933594 17.238281 33.351562 17.285156 C 33.203125 17.351562 33.074219 17.429688 32.960938 17.53125 C 32.894531 16.945312 32.828125 16.359375 32.765625 15.773438 C 32.871094 15.695312 33.003906 15.644531 33.15625 15.625 C 33.707031 15.578125 34.261719 15.558594 34.8125 15.578125 Z M 34.8125 15.578125 "/>
</g>
<mask id="mask8">
  <g filter="url(#alpha)">
<rect x="0" y="0" width="50" height="50" style="fill:rgb(0%,0%,0%);fill-opacity:0.933333;stroke:none;"/>
  </g>
</mask>
<clipPath id="clip9">
  <rect x="0" y="0" width="50" height="50"/>
</clipPath>
<g id="surface29" clip-path="url(#clip9)">
<path style=" stroke:none;fill-rule:evenodd;fill:rgb(99.215686%,47.45098%,0%);fill-opacity:1;" d="M 34.8125 15.578125 C 35.59375 15.578125 36.375 15.578125 37.15625 15.578125 C 37.15625 16.097656 37.15625 16.617188 37.15625 17.140625 C 37.285156 17.117188 37.382812 17.148438 37.453125 17.234375 C 36.671875 17.234375 35.890625 17.234375 35.109375 17.234375 C 35.109375 16.714844 35.109375 16.195312 35.109375 15.671875 C 34.980469 15.695312 34.882812 15.664062 34.8125 15.578125 Z M 34.8125 15.578125 "/>
</g>
<mask id="mask9">
  <g filter="url(#alpha)">
<rect x="0" y="0" width="50" height="50" style="fill:rgb(0%,0%,0%);fill-opacity:0.929412;stroke:none;"/>
  </g>
</mask>
<clipPath id="clip10">
  <rect x="0" y="0" width="50" height="50"/>
</clipPath>
<g id="surface32" clip-path="url(#clip10)">
<path style=" stroke:none;fill-rule:evenodd;fill:rgb(98.823529%,44.313725%,0%);fill-opacity:1;" d="M 37.15625 15.578125 C 38.460938 15.578125 39.761719 15.578125 41.0625 15.578125 C 41.0625 16.097656 41.0625 16.617188 41.0625 17.140625 C 40.9375 17.117188 40.839844 17.148438 40.773438 17.234375 C 39.664062 17.234375 38.558594 17.234375 37.453125 17.234375 C 37.382812 17.148438 37.285156 17.117188 37.15625 17.140625 C 37.15625 16.617188 37.15625 16.097656 37.15625 15.578125 Z M 37.15625 15.578125 "/>
</g>
<mask id="mask10">
  <g filter="url(#alpha)">
<rect x="0" y="0" width="50" height="50" style="fill:rgb(0%,0%,0%);fill-opacity:0.937255;stroke:none;"/>
  </g>
</mask>
<clipPath id="clip11">
  <rect x="0" y="0" width="50" height="50"/>
</clipPath>
<g id="surface35" clip-path="url(#clip11)">
<path style=" stroke:none;fill-rule:evenodd;fill:rgb(98.823529%,40%,0%);fill-opacity:1;" d="M 41.0625 15.578125 C 41.84375 15.578125 42.625 15.578125 43.40625 15.578125 C 43.40625 16.097656 43.40625 16.617188 43.40625 17.140625 C 43.535156 17.117188 43.632812 17.148438 43.703125 17.234375 C 42.726562 17.234375 41.75 17.234375 40.773438 17.234375 C 40.839844 17.148438 40.9375 17.117188 41.0625 17.140625 C 41.0625 16.617188 41.0625 16.097656 41.0625 15.578125 Z M 41.0625 15.578125 "/>
</g>
<mask id="mask11">
  <g filter="url(#alpha)">
<rect x="0" y="0" width="50" height="50" style="fill:rgb(0%,0%,0%);fill-opacity:0.952941;stroke:none;"/>
  </g>
</mask>
<clipPath id="clip12">
  <rect x="0" y="0" width="50" height="50"/>
</clipPath>
<g id="surface38" clip-path="url(#clip12)">
<path style=" stroke:none;fill-rule:evenodd;fill:rgb(99.215686%,37.254902%,0%);fill-opacity:1;" d="M 43.40625 15.578125 C 44.074219 15.535156 44.726562 15.597656 45.359375 15.773438 C 45.296875 20.882812 45.363281 25.960938 45.554688 31.007812 C 45.425781 31.132812 45.261719 31.214844 45.070312 31.25 C 44.613281 31.296875 44.15625 31.316406 43.703125 31.296875 C 43.632812 31.210938 43.535156 31.179688 43.40625 31.203125 C 43.40625 30.679688 43.40625 30.160156 43.40625 29.640625 C 43.863281 29.65625 44.320312 29.636719 44.773438 29.589844 C 45.058594 29.429688 45.203125 29.1875 45.214844 28.859375 C 45.28125 25.242188 45.28125 21.632812 45.214844 18.015625 C 45.207031 17.746094 45.09375 17.535156 44.875 17.382812 C 44.496094 17.25 44.105469 17.203125 43.703125 17.234375 C 43.632812 17.148438 43.535156 17.117188 43.40625 17.140625 C 43.40625 16.617188 43.40625 16.097656 43.40625 15.578125 Z M 43.40625 15.578125 "/>
</g>
<mask id="mask12">
  <g filter="url(#alpha)">
<rect x="0" y="0" width="50" height="50" style="fill:rgb(0%,0%,0%);fill-opacity:0.94902;stroke:none;"/>
  </g>
</mask>
<clipPath id="clip13">
  <rect x="0" y="0" width="50" height="50"/>
</clipPath>
<g id="surface41" clip-path="url(#clip13)">
<path style=" stroke:none;fill-rule:evenodd;fill:rgb(99.607843%,69.411765%,0%);fill-opacity:1;" d="M 18.703125 15.773438 C 18.703125 16.324219 18.703125 16.878906 18.703125 17.429688 C 17.90625 17.8125 17.089844 18.171875 16.257812 18.507812 C 16.320312 18.203125 16.351562 17.894531 16.359375 17.578125 C 16.355469 17.261719 16.289062 16.984375 16.164062 16.75 C 16.960938 16.316406 17.804688 15.992188 18.703125 15.773438 Z M 18.703125 15.773438 "/>
</g>
<mask id="mask13">
  <g filter="url(#alpha)">
<rect x="0" y="0" width="50" height="50" style="fill:rgb(0%,0%,0%);fill-opacity:0.988235;stroke:none;"/>
  </g>
</mask>
<clipPath id="clip14">
  <rect x="0" y="0" width="50" height="50"/>
</clipPath>
<g id="surface44" clip-path="url(#clip14)">
<path style=" stroke:none;fill-rule:evenodd;fill:rgb(99.607843%,52.54902%,0%);fill-opacity:1;" d="M 32.765625 15.773438 C 32.828125 16.359375 32.894531 16.945312 32.960938 17.53125 C 32.8125 17.902344 32.746094 18.292969 32.765625 18.703125 C 32.855469 19.246094 32.890625 19.800781 32.859375 20.359375 C 32.746094 23.175781 32.730469 26.007812 32.8125 28.859375 C 32.863281 29.054688 32.910156 29.25 32.960938 29.445312 C 32.863281 30.011719 32.828125 30.597656 32.859375 31.203125 C 32.054688 30.960938 31.515625 30.441406 31.25 29.640625 C 31.183594 25.539062 31.183594 21.4375 31.25 17.335938 C 31.445312 16.503906 31.953125 15.980469 32.765625 15.773438 Z M 32.765625 15.773438 "/>
</g>
<mask id="mask14">
  <g filter="url(#alpha)">
<rect x="0" y="0" width="50" height="50" style="fill:rgb(0%,0%,0%);fill-opacity:0.992157;stroke:none;"/>
  </g>
</mask>
<clipPath id="clip15">
  <rect x="0" y="0" width="50" height="50"/>
</clipPath>
<g id="surface47" clip-path="url(#clip15)">
<path style=" stroke:none;fill-rule:evenodd;fill:rgb(99.215686%,35.686275%,0%);fill-opacity:1;" d="M 45.359375 15.773438 C 46.117188 16.023438 46.589844 16.546875 46.777344 17.335938 C 46.84375 21.4375 46.84375 25.539062 46.777344 29.640625 C 46.589844 30.296875 46.183594 30.753906 45.554688 31.007812 C 45.363281 25.960938 45.296875 20.882812 45.359375 15.773438 Z M 45.359375 15.773438 "/>
</g>
<mask id="mask15">
  <g filter="url(#alpha)">
<rect x="0" y="0" width="50" height="50" style="fill:rgb(0%,0%,0%);fill-opacity:0.952941;stroke:none;"/>
  </g>
</mask>
<clipPath id="clip16">
  <rect x="0" y="0" width="50" height="50"/>
</clipPath>
<g id="surface50" clip-path="url(#clip16)">
<path style=" stroke:none;fill-rule:evenodd;fill:rgb(99.607843%,72.156863%,0%);fill-opacity:1;" d="M 16.164062 16.75 C 16.289062 16.984375 16.355469 17.261719 16.359375 17.578125 C 16.351562 17.894531 16.320312 18.203125 16.257812 18.507812 C 15.675781 18.863281 15.089844 19.21875 14.5 19.578125 C 14.40625 18.949219 14.371094 18.296875 14.40625 17.625 C 14.960938 17.28125 15.546875 16.988281 16.164062 16.75 Z M 16.164062 16.75 "/>
</g>
<mask id="mask16">
  <g filter="url(#alpha)">
<rect x="0" y="0" width="50" height="50" style="fill:rgb(0%,0%,0%);fill-opacity:0.956863;stroke:none;"/>
  </g>
</mask>
<clipPath id="clip17">
  <rect x="0" y="0" width="50" height="50"/>
</clipPath>
<g id="surface53" clip-path="url(#clip17)">
<path style=" stroke:none;fill-rule:evenodd;fill:rgb(99.607843%,74.509804%,0%);fill-opacity:1;" d="M 14.40625 17.625 C 14.371094 18.296875 14.40625 18.949219 14.5 19.578125 C 13.820312 20.097656 13.136719 20.617188 12.453125 21.140625 C 12.484375 20.441406 12.449219 19.757812 12.351562 19.09375 C 13.007812 18.570312 13.691406 18.082031 14.40625 17.625 Z M 14.40625 17.625 "/>
</g>
<mask id="mask17">
  <g filter="url(#alpha)">
<rect x="0" y="0" width="50" height="50" style="fill:rgb(0%,0%,0%);fill-opacity:0.945098;stroke:none;"/>
  </g>
</mask>
<clipPath id="clip18">
  <rect x="0" y="0" width="50" height="50"/>
</clipPath>
<g id="surface56" clip-path="url(#clip18)">
<path style=" stroke:none;fill-rule:evenodd;fill:rgb(99.607843%,50.196078%,0%);fill-opacity:1;" d="M 32.765625 18.703125 C 33.445312 18.703125 34.132812 18.703125 34.8125 18.703125 C 34.882812 18.789062 34.980469 18.820312 35.109375 18.796875 C 35.109375 19.320312 35.109375 19.839844 35.109375 20.359375 C 34.359375 20.359375 33.609375 20.359375 32.859375 20.359375 C 32.890625 19.800781 32.855469 19.246094 32.765625 18.703125 Z M 32.765625 18.703125 "/>
</g>
<mask id="mask18">
  <g filter="url(#alpha)">
<rect x="0" y="0" width="50" height="50" style="fill:rgb(0%,0%,0%);fill-opacity:0.933333;stroke:none;"/>
  </g>
</mask>
<clipPath id="clip19">
  <rect x="0" y="0" width="50" height="50"/>
</clipPath>
<g id="surface59" clip-path="url(#clip19)">
<path style=" stroke:none;fill-rule:evenodd;fill:rgb(99.215686%,47.45098%,0%);fill-opacity:1;" d="M 34.8125 18.703125 C 35.59375 18.703125 36.375 18.703125 37.15625 18.703125 C 37.15625 19.222656 37.15625 19.742188 37.15625 20.265625 C 37.285156 20.242188 37.382812 20.273438 37.453125 20.359375 C 36.671875 20.359375 35.890625 20.359375 35.109375 20.359375 C 35.109375 19.839844 35.109375 19.320312 35.109375 18.796875 C 34.980469 18.820312 34.882812 18.789062 34.8125 18.703125 Z M 34.8125 18.703125 "/>
</g>
<mask id="mask19">
  <g filter="url(#alpha)">
<rect x="0" y="0" width="50" height="50" style="fill:rgb(0%,0%,0%);fill-opacity:0.929412;stroke:none;"/>
  </g>
</mask>
<clipPath id="clip20">
  <rect x="0" y="0" width="50" height="50"/>
</clipPath>
<g id="surface62" clip-path="url(#clip20)">
<path style=" stroke:none;fill-rule:evenodd;fill:rgb(98.823529%,44.313725%,0%);fill-opacity:1;" d="M 37.15625 18.703125 C 38.460938 18.703125 39.761719 18.703125 41.0625 18.703125 C 41.0625 19.222656 41.0625 19.742188 41.0625 20.265625 C 40.9375 20.242188 40.839844 20.273438 40.773438 20.359375 C 39.664062 20.359375 38.558594 20.359375 37.453125 20.359375 C 37.382812 20.273438 37.285156 20.242188 37.15625 20.265625 C 37.15625 19.742188 37.15625 19.222656 37.15625 18.703125 Z M 37.15625 18.703125 "/>
</g>
<mask id="mask20">
  <g filter="url(#alpha)">
<rect x="0" y="0" width="50" height="50" style="fill:rgb(0%,0%,0%);fill-opacity:0.941176;stroke:none;"/>
  </g>
</mask>
<clipPath id="clip21">
  <rect x="0" y="0" width="50" height="50"/>
</clipPath>
<g id="surface65" clip-path="url(#clip21)">
<path style=" stroke:none;fill-rule:evenodd;fill:rgb(98.823529%,40%,0%);fill-opacity:1;" d="M 41.0625 18.703125 C 41.847656 18.683594 42.628906 18.703125 43.40625 18.75 C 43.992188 18.984375 44.171875 19.390625 43.945312 19.96875 C 43.832031 20.085938 43.71875 20.199219 43.601562 20.3125 C 42.660156 20.359375 41.714844 20.378906 40.773438 20.359375 C 40.839844 20.273438 40.9375 20.242188 41.0625 20.265625 C 41.0625 19.742188 41.0625 19.222656 41.0625 18.703125 Z M 41.0625 18.703125 "/>
</g>
<mask id="mask21">
  <g filter="url(#alpha)">
<rect x="0" y="0" width="50" height="50" style="fill:rgb(0%,0%,0%);fill-opacity:0.952941;stroke:none;"/>
  </g>
</mask>
<clipPath id="clip22">
  <rect x="0" y="0" width="50" height="50"/>
</clipPath>
<g id="surface68" clip-path="url(#clip22)">
<path style=" stroke:none;fill-rule:evenodd;fill:rgb(100%,76.862745%,0%);fill-opacity:1;" d="M 12.351562 19.09375 C 12.449219 19.757812 12.484375 20.441406 12.453125 21.140625 C 11.800781 21.726562 11.179688 22.347656 10.59375 23 C 10.5 22.265625 10.464844 21.519531 10.5 20.75 C 11.027344 20.09375 11.644531 19.539062 12.351562 19.09375 Z M 12.351562 19.09375 "/>
</g>
<mask id="mask22">
  <g filter="url(#alpha)">
<rect x="0" y="0" width="50" height="50" style="fill:rgb(0%,0%,0%);fill-opacity:0.945098;stroke:none;"/>
  </g>
</mask>
<clipPath id="clip23">
  <rect x="0" y="0" width="50" height="50"/>
</clipPath>
<g id="surface71" clip-path="url(#clip23)">
<path style=" stroke:none;fill-rule:evenodd;fill:rgb(100%,79.607843%,0%);fill-opacity:1;" d="M 10.5 20.75 C 10.464844 21.519531 10.5 22.265625 10.59375 23 C 9.765625 24.074219 8.984375 25.179688 8.25 26.320312 C 8.15625 25.390625 8.121094 24.449219 8.15625 23.484375 C 8.796875 22.460938 9.578125 21.550781 10.5 20.75 Z M 10.5 20.75 "/>
</g>
<mask id="mask23">
  <g filter="url(#alpha)">
<rect x="0" y="0" width="50" height="50" style="fill:rgb(0%,0%,0%);fill-opacity:0.952941;stroke:none;"/>
  </g>
</mask>
<clipPath id="clip24">
  <rect x="0" y="0" width="50" height="50"/>
</clipPath>
<g id="surface74" clip-path="url(#clip24)">
<path style=" stroke:none;fill-rule:evenodd;fill:rgb(100%,81.960784%,0%);fill-opacity:1;" d="M 8.15625 23.484375 C 8.121094 24.449219 8.15625 25.390625 8.25 26.320312 C 7.367188 28.03125 6.714844 29.824219 6.296875 31.6875 C 6.234375 30.125 6.167969 28.5625 6.101562 27 C 6.640625 25.730469 7.324219 24.558594 8.15625 23.484375 Z M 8.15625 23.484375 "/>
</g>
<mask id="mask24">
  <g filter="url(#alpha)">
<rect x="0" y="0" width="50" height="50" style="fill:rgb(0%,0%,0%);fill-opacity:0.960784;stroke:none;"/>
  </g>
</mask>
<clipPath id="clip25">
  <rect x="0" y="0" width="50" height="50"/>
</clipPath>
<g id="surface77" clip-path="url(#clip25)">
<path style=" stroke:none;fill-rule:evenodd;fill:rgb(100%,83.921569%,0%);fill-opacity:1;" d="M 6.101562 27 C 6.167969 28.5625 6.234375 30.125 6.296875 31.6875 C 6.171875 32.628906 6.074219 33.574219 6.007812 34.523438 C 6.722656 34.523438 7.4375 34.523438 8.15625 34.523438 C 8.15625 35.042969 8.15625 35.5625 8.15625 36.085938 C 8.308594 36.058594 8.441406 36.089844 8.546875 36.179688 C 7.699219 36.179688 6.851562 36.179688 6.007812 36.179688 C 5.988281 36.832031 6.007812 37.484375 6.054688 38.132812 C 6.121094 38.28125 6.199219 38.410156 6.296875 38.523438 C 6.203125 39.058594 6.167969 39.613281 6.203125 40.1875 C 5.417969 40.003906 4.847656 39.546875 4.492188 38.820312 C 4.355469 37.949219 4.304688 37.070312 4.34375 36.179688 C 3.105469 36.230469 2.78125 35.726562 3.367188 34.667969 C 3.679688 34.539062 4.007812 34.492188 4.34375 34.523438 C 4.484375 31.90625 5.070312 29.398438 6.101562 27 Z M 6.101562 27 "/>
</g>
<mask id="mask25">
  <g filter="url(#alpha)">
<rect x="0" y="0" width="50" height="50" style="fill:rgb(0%,0%,0%);fill-opacity:0.94902;stroke:none;"/>
  </g>
</mask>
<clipPath id="clip26">
  <rect x="0" y="0" width="50" height="50"/>
</clipPath>
<g id="surface80" clip-path="url(#clip26)">
<path style=" stroke:none;fill-rule:evenodd;fill:rgb(99.607843%,50.196078%,0%);fill-opacity:1;" d="M 32.960938 29.445312 C 33.554688 29.625 34.171875 29.691406 34.8125 29.640625 C 34.882812 29.726562 34.980469 29.757812 35.109375 29.734375 C 35.109375 30.257812 35.109375 30.777344 35.109375 31.296875 C 34.351562 31.328125 33.601562 31.296875 32.859375 31.203125 C 32.828125 30.597656 32.863281 30.011719 32.960938 29.445312 Z M 32.960938 29.445312 "/>
</g>
<mask id="mask26">
  <g filter="url(#alpha)">
<rect x="0" y="0" width="50" height="50" style="fill:rgb(0%,0%,0%);fill-opacity:0.933333;stroke:none;"/>
  </g>
</mask>
<clipPath id="clip27">
  <rect x="0" y="0" width="50" height="50"/>
</clipPath>
<g id="surface83" clip-path="url(#clip27)">
<path style=" stroke:none;fill-rule:evenodd;fill:rgb(99.215686%,47.45098%,0%);fill-opacity:1;" d="M 34.8125 29.640625 C 35.59375 29.640625 36.375 29.640625 37.15625 29.640625 C 37.15625 30.160156 37.15625 30.679688 37.15625 31.203125 C 37.285156 31.179688 37.382812 31.210938 37.453125 31.296875 C 36.671875 31.296875 35.890625 31.296875 35.109375 31.296875 C 35.109375 30.777344 35.109375 30.257812 35.109375 29.734375 C 34.980469 29.757812 34.882812 29.726562 34.8125 29.640625 Z M 34.8125 29.640625 "/>
</g>
<mask id="mask27">
  <g filter="url(#alpha)">
<rect x="0" y="0" width="50" height="50" style="fill:rgb(0%,0%,0%);fill-opacity:0.929412;stroke:none;"/>
  </g>
</mask>
<clipPath id="clip28">
  <rect x="0" y="0" width="50" height="50"/>
</clipPath>
<g id="surface86" clip-path="url(#clip28)">
<path style=" stroke:none;fill-rule:evenodd;fill:rgb(98.823529%,44.313725%,0%);fill-opacity:1;" d="M 37.15625 29.640625 C 38.460938 29.640625 39.761719 29.640625 41.0625 29.640625 C 41.0625 30.160156 41.0625 30.679688 41.0625 31.203125 C 40.9375 31.179688 40.839844 31.210938 40.773438 31.296875 C 39.664062 31.296875 38.558594 31.296875 37.453125 31.296875 C 37.382812 31.210938 37.285156 31.179688 37.15625 31.203125 C 37.15625 30.679688 37.15625 30.160156 37.15625 29.640625 Z M 37.15625 29.640625 "/>
</g>
<mask id="mask28">
  <g filter="url(#alpha)">
<rect x="0" y="0" width="50" height="50" style="fill:rgb(0%,0%,0%);fill-opacity:0.937255;stroke:none;"/>
  </g>
</mask>
<clipPath id="clip29">
  <rect x="0" y="0" width="50" height="50"/>
</clipPath>
<g id="surface89" clip-path="url(#clip29)">
<path style=" stroke:none;fill-rule:evenodd;fill:rgb(98.823529%,40%,0%);fill-opacity:1;" d="M 41.0625 29.640625 C 41.84375 29.640625 42.625 29.640625 43.40625 29.640625 C 43.40625 30.160156 43.40625 30.679688 43.40625 31.203125 C 43.535156 31.179688 43.632812 31.210938 43.703125 31.296875 C 42.726562 31.296875 41.75 31.296875 40.773438 31.296875 C 40.839844 31.210938 40.9375 31.179688 41.0625 31.203125 C 41.0625 30.679688 41.0625 30.160156 41.0625 29.640625 Z M 41.0625 29.640625 "/>
</g>
<mask id="mask29">
  <g filter="url(#alpha)">
<rect x="0" y="0" width="50" height="50" style="fill:rgb(0%,0%,0%);fill-opacity:0.964706;stroke:none;"/>
  </g>
</mask>
<clipPath id="clip30">
  <rect x="0" y="0" width="50" height="50"/>
</clipPath>
<g id="surface92" clip-path="url(#clip30)">
<path style=" stroke:none;fill-rule:evenodd;fill:rgb(99.215686%,37.254902%,0%);fill-opacity:1;" d="M 43.3125 40.28125 C 43.402344 39.738281 43.4375 39.183594 43.40625 38.625 C 43.601562 38.511719 43.746094 38.347656 43.847656 38.132812 C 43.898438 37.484375 43.914062 36.832031 43.898438 36.179688 C 43.734375 36.179688 43.570312 36.179688 43.40625 36.179688 C 43.40625 35.660156 43.40625 35.140625 43.40625 34.617188 C 43.535156 34.640625 43.632812 34.609375 43.703125 34.523438 C 43.8125 34.492188 43.878906 34.410156 43.898438 34.277344 C 43.769531 33.859375 43.800781 33.453125 43.992188 33.054688 C 44.4375 32.671875 44.875 32.671875 45.3125 33.054688 C 45.496094 33.527344 45.578125 34.015625 45.554688 34.523438 C 46.285156 34.363281 46.710938 34.640625 46.828125 35.351562 C 46.710938 36.0625 46.285156 36.339844 45.554688 36.179688 C 45.574219 36.964844 45.554688 37.746094 45.507812 38.523438 C 45.136719 39.5625 44.40625 40.148438 43.3125 40.28125 Z M 43.3125 40.28125 "/>
</g>
<mask id="mask30">
  <g filter="url(#alpha)">
<rect x="0" y="0" width="50" height="50" style="fill:rgb(0%,0%,0%);fill-opacity:0.941176;stroke:none;"/>
  </g>
</mask>
<clipPath id="clip31">
  <rect x="0" y="0" width="50" height="50"/>
</clipPath>
<g id="surface95" clip-path="url(#clip31)">
<path style=" stroke:none;fill-rule:evenodd;fill:rgb(100%,79.215686%,0%);fill-opacity:1;" d="M 8.15625 34.523438 C 9.03125 34.523438 9.914062 34.523438 10.789062 34.523438 C 10.722656 34.609375 10.625 34.640625 10.5 34.617188 C 10.5 35.140625 10.5 35.660156 10.5 36.179688 C 9.847656 36.179688 9.195312 36.179688 8.546875 36.179688 C 8.441406 36.089844 8.308594 36.058594 8.15625 36.085938 C 8.15625 35.5625 8.15625 35.042969 8.15625 34.523438 Z M 8.15625 34.523438 "/>
</g>
<mask id="mask31">
  <g filter="url(#alpha)">
<rect x="0" y="0" width="50" height="50" style="fill:rgb(0%,0%,0%);fill-opacity:0.933333;stroke:none;"/>
  </g>
</mask>
<clipPath id="clip32">
  <rect x="0" y="0" width="50" height="50"/>
</clipPath>
<g id="surface98" clip-path="url(#clip32)">
<path style=" stroke:none;fill-rule:evenodd;fill:rgb(99.607843%,75.294118%,0%);fill-opacity:1;" d="M 10.789062 34.523438 C 12.125 34.523438 13.460938 34.523438 14.796875 34.523438 C 14.691406 34.613281 14.558594 34.644531 14.40625 34.617188 C 14.40625 35.140625 14.40625 35.660156 14.40625 36.179688 C 13.101562 36.179688 11.800781 36.179688 10.5 36.179688 C 10.5 35.660156 10.5 35.140625 10.5 34.617188 C 10.625 34.640625 10.722656 34.609375 10.789062 34.523438 Z M 10.789062 34.523438 "/>
</g>
<mask id="mask32">
  <g filter="url(#alpha)">
<rect x="0" y="0" width="50" height="50" style="fill:rgb(0%,0%,0%);fill-opacity:0.941176;stroke:none;"/>
  </g>
</mask>
<clipPath id="clip33">
  <rect x="0" y="0" width="50" height="50"/>
</clipPath>
<g id="surface101" clip-path="url(#clip33)">
<path style=" stroke:none;fill-rule:evenodd;fill:rgb(99.607843%,70.588235%,0%);fill-opacity:1;" d="M 14.796875 34.523438 C 16.195312 34.523438 17.59375 34.523438 18.992188 34.523438 C 18.925781 34.609375 18.828125 34.640625 18.703125 34.617188 C 18.703125 35.140625 18.703125 35.660156 18.703125 36.179688 C 17.269531 36.179688 15.835938 36.179688 14.40625 36.179688 C 14.40625 35.660156 14.40625 35.140625 14.40625 34.617188 C 14.558594 34.644531 14.691406 34.613281 14.796875 34.523438 Z M 14.796875 34.523438 "/>
</g>
<mask id="mask33">
  <g filter="url(#alpha)">
<rect x="0" y="0" width="50" height="50" style="fill:rgb(0%,0%,0%);fill-opacity:0.933333;stroke:none;"/>
  </g>
</mask>
<clipPath id="clip34">
  <rect x="0" y="0" width="50" height="50"/>
</clipPath>
<g id="surface104" clip-path="url(#clip34)">
<path style=" stroke:none;fill-rule:evenodd;fill:rgb(99.607843%,65.490196%,0%);fill-opacity:1;" d="M 18.992188 34.523438 C 20.328125 34.523438 21.664062 34.523438 23 34.523438 C 22.894531 34.613281 22.761719 34.644531 22.609375 34.617188 C 22.609375 35.140625 22.609375 35.660156 22.609375 36.179688 C 21.304688 36.179688 20.003906 36.179688 18.703125 36.179688 C 18.703125 35.660156 18.703125 35.140625 18.703125 34.617188 C 18.828125 34.640625 18.925781 34.609375 18.992188 34.523438 Z M 18.992188 34.523438 "/>
</g>
<mask id="mask34">
  <g filter="url(#alpha)">
<rect x="0" y="0" width="50" height="50" style="fill:rgb(0%,0%,0%);fill-opacity:0.945098;stroke:none;"/>
  </g>
</mask>
<clipPath id="clip35">
  <rect x="0" y="0" width="50" height="50"/>
</clipPath>
<g id="surface107" clip-path="url(#clip35)">
<path style=" stroke:none;fill-rule:evenodd;fill:rgb(99.215686%,62.352941%,0%);fill-opacity:1;" d="M 23 34.523438 C 23.550781 34.523438 24.105469 34.523438 24.65625 34.523438 C 24.65625 35.042969 24.65625 35.5625 24.65625 36.085938 C 24.785156 36.0625 24.882812 36.09375 24.953125 36.179688 C 24.171875 36.179688 23.390625 36.179688 22.609375 36.179688 C 22.609375 35.660156 22.609375 35.140625 22.609375 34.617188 C 22.761719 34.644531 22.894531 34.613281 23 34.523438 Z M 23 34.523438 "/>
</g>
<mask id="mask35">
  <g filter="url(#alpha)">
<rect x="0" y="0" width="50" height="50" style="fill:rgb(0%,0%,0%);fill-opacity:0.937255;stroke:none;"/>
  </g>
</mask>
<clipPath id="clip36">
  <rect x="0" y="0" width="50" height="50"/>
</clipPath>
<g id="surface110" clip-path="url(#clip36)">
<path style=" stroke:none;fill-rule:evenodd;fill:rgb(99.607843%,59.607843%,0%);fill-opacity:1;" d="M 24.65625 34.523438 C 25.539062 34.523438 26.414062 34.523438 27.296875 34.523438 C 27.191406 34.613281 27.058594 34.644531 26.90625 34.617188 C 26.90625 35.140625 26.90625 35.660156 26.90625 36.179688 C 26.253906 36.179688 25.601562 36.179688 24.953125 36.179688 C 24.882812 36.09375 24.785156 36.0625 24.65625 36.085938 C 24.65625 35.5625 24.65625 35.042969 24.65625 34.523438 Z M 24.65625 34.523438 "/>
</g>
<mask id="mask36">
  <g filter="url(#alpha)">
<rect x="0" y="0" width="50" height="50" style="fill:rgb(0%,0%,0%);fill-opacity:0.933333;stroke:none;"/>
  </g>
</mask>
<clipPath id="clip37">
  <rect x="0" y="0" width="50" height="50"/>
</clipPath>
<g id="surface113" clip-path="url(#clip37)">
<path style=" stroke:none;fill-rule:evenodd;fill:rgb(99.607843%,55.686275%,0%);fill-opacity:1;" d="M 27.296875 34.523438 C 28.597656 34.523438 29.898438 34.523438 31.203125 34.523438 C 31.132812 34.609375 31.035156 34.640625 30.90625 34.617188 C 30.90625 35.140625 30.90625 35.660156 30.90625 36.179688 C 29.574219 36.179688 28.238281 36.179688 26.90625 36.179688 C 26.90625 35.660156 26.90625 35.140625 26.90625 34.617188 C 27.058594 34.644531 27.191406 34.613281 27.296875 34.523438 Z M 27.296875 34.523438 "/>
</g>
<mask id="mask37">
  <g filter="url(#alpha)">
<rect x="0" y="0" width="50" height="50" style="fill:rgb(0%,0%,0%);fill-opacity:0.937255;stroke:none;"/>
  </g>
</mask>
<clipPath id="clip38">
  <rect x="0" y="0" width="50" height="50"/>
</clipPath>
<g id="surface116" clip-path="url(#clip38)">
<path style=" stroke:none;fill-rule:evenodd;fill:rgb(99.607843%,50.980392%,0%);fill-opacity:1;" d="M 31.203125 34.523438 C 32.632812 34.523438 34.066406 34.523438 35.5 34.523438 C 35.394531 34.613281 35.261719 34.644531 35.109375 34.617188 C 35.109375 35.140625 35.109375 35.660156 35.109375 36.179688 C 33.707031 36.179688 32.308594 36.179688 30.90625 36.179688 C 30.90625 35.660156 30.90625 35.140625 30.90625 34.617188 C 31.035156 34.640625 31.132812 34.609375 31.203125 34.523438 Z M 31.203125 34.523438 "/>
</g>
<mask id="mask38">
  <g filter="url(#alpha)">
<rect x="0" y="0" width="50" height="50" style="fill:rgb(0%,0%,0%);fill-opacity:0.952941;stroke:none;"/>
  </g>
</mask>
<clipPath id="clip39">
  <rect x="0" y="0" width="50" height="50"/>
</clipPath>
<g id="surface119" clip-path="url(#clip39)">
<path style=" stroke:none;fill-rule:evenodd;fill:rgb(99.215686%,47.45098%,0%);fill-opacity:1;" d="M 35.5 34.523438 C 36.050781 34.523438 36.605469 34.523438 37.15625 34.523438 C 37.15625 35.042969 37.15625 35.5625 37.15625 36.085938 C 37.003906 36.058594 36.871094 36.089844 36.765625 36.179688 C 36.214844 36.179688 35.660156 36.179688 35.109375 36.179688 C 35.109375 35.660156 35.109375 35.140625 35.109375 34.617188 C 35.261719 34.644531 35.394531 34.613281 35.5 34.523438 Z M 35.5 34.523438 "/>
</g>
<mask id="mask39">
  <g filter="url(#alpha)">
<rect x="0" y="0" width="50" height="50" style="fill:rgb(0%,0%,0%);fill-opacity:0.933333;stroke:none;"/>
  </g>
</mask>
<clipPath id="clip40">
  <rect x="0" y="0" width="50" height="50"/>
</clipPath>
<g id="surface122" clip-path="url(#clip40)">
<path style=" stroke:none;fill-rule:evenodd;fill:rgb(99.215686%,44.313725%,0%);fill-opacity:1;" d="M 37.15625 34.523438 C 38.460938 34.523438 39.761719 34.523438 41.0625 34.523438 C 41.0625 35.042969 41.0625 35.5625 41.0625 36.085938 C 41.191406 36.0625 41.289062 36.09375 41.359375 36.179688 C 39.828125 36.179688 38.296875 36.179688 36.765625 36.179688 C 36.871094 36.089844 37.003906 36.058594 37.15625 36.085938 C 37.15625 35.5625 37.15625 35.042969 37.15625 34.523438 Z M 37.15625 34.523438 "/>
</g>
<mask id="mask40">
  <g filter="url(#alpha)">
<rect x="0" y="0" width="50" height="50" style="fill:rgb(0%,0%,0%);fill-opacity:0.941176;stroke:none;"/>
  </g>
</mask>
<clipPath id="clip41">
  <rect x="0" y="0" width="50" height="50"/>
</clipPath>
<g id="surface125" clip-path="url(#clip41)">
<path style=" stroke:none;fill-rule:evenodd;fill:rgb(99.215686%,40%,0%);fill-opacity:1;" d="M 41.0625 34.523438 C 41.945312 34.523438 42.820312 34.523438 43.703125 34.523438 C 43.632812 34.609375 43.535156 34.640625 43.40625 34.617188 C 43.40625 35.140625 43.40625 35.660156 43.40625 36.179688 C 42.726562 36.179688 42.039062 36.179688 41.359375 36.179688 C 41.289062 36.09375 41.191406 36.0625 41.0625 36.085938 C 41.0625 35.5625 41.0625 35.042969 41.0625 34.523438 Z M 41.0625 34.523438 "/>
</g>
<mask id="mask41">
  <g filter="url(#alpha)">
<rect x="0" y="0" width="50" height="50" style="fill:rgb(0%,0%,0%);fill-opacity:0.945098;stroke:none;"/>
  </g>
</mask>
<clipPath id="clip42">
  <rect x="0" y="0" width="50" height="50"/>
</clipPath>
<g id="surface128" clip-path="url(#clip42)">
<path style=" stroke:none;fill-rule:evenodd;fill:rgb(100%,81.960784%,0%);fill-opacity:1;" d="M 6.296875 38.523438 C 7.042969 38.617188 7.789062 38.648438 8.546875 38.625 C 8.441406 38.714844 8.308594 38.746094 8.15625 38.71875 C 8.15625 39.242188 8.15625 39.761719 8.15625 40.28125 C 7.496094 40.3125 6.84375 40.28125 6.203125 40.1875 C 6.167969 39.613281 6.203125 39.058594 6.296875 38.523438 Z M 6.296875 38.523438 "/>
</g>
<mask id="mask42">
  <g filter="url(#alpha)">
<rect x="0" y="0" width="50" height="50" style="fill:rgb(0%,0%,0%);fill-opacity:0.941176;stroke:none;"/>
  </g>
</mask>
<clipPath id="clip43">
  <rect x="0" y="0" width="50" height="50"/>
</clipPath>
<g id="surface131" clip-path="url(#clip43)">
<path style=" stroke:none;fill-rule:evenodd;fill:rgb(100%,79.215686%,0%);fill-opacity:1;" d="M 8.546875 38.625 C 9.195312 38.625 9.847656 38.625 10.5 38.625 C 10.5 39.144531 10.5 39.664062 10.5 40.1875 C 10.625 40.164062 10.722656 40.195312 10.789062 40.28125 C 9.914062 40.28125 9.03125 40.28125 8.15625 40.28125 C 8.15625 39.761719 8.15625 39.242188 8.15625 38.71875 C 8.308594 38.746094 8.441406 38.714844 8.546875 38.625 Z M 8.546875 38.625 "/>
</g>
<mask id="mask43">
  <g filter="url(#alpha)">
<rect x="0" y="0" width="50" height="50" style="fill:rgb(0%,0%,0%);fill-opacity:0.933333;stroke:none;"/>
  </g>
</mask>
<clipPath id="clip44">
  <rect x="0" y="0" width="50" height="50"/>
</clipPath>
<g id="surface134" clip-path="url(#clip44)">
<path style=" stroke:none;fill-rule:evenodd;fill:rgb(99.607843%,75.294118%,0%);fill-opacity:1;" d="M 10.5 38.625 C 11.800781 38.625 13.101562 38.625 14.40625 38.625 C 14.40625 39.144531 14.40625 39.664062 14.40625 40.1875 C 14.558594 40.160156 14.691406 40.191406 14.796875 40.28125 C 13.460938 40.28125 12.125 40.28125 10.789062 40.28125 C 10.722656 40.195312 10.625 40.164062 10.5 40.1875 C 10.5 39.664062 10.5 39.144531 10.5 38.625 Z M 10.5 38.625 "/>
</g>
<mask id="mask44">
  <g filter="url(#alpha)">
<rect x="0" y="0" width="50" height="50" style="fill:rgb(0%,0%,0%);fill-opacity:0.941176;stroke:none;"/>
  </g>
</mask>
<clipPath id="clip45">
  <rect x="0" y="0" width="50" height="50"/>
</clipPath>
<g id="surface137" clip-path="url(#clip45)">
<path style=" stroke:none;fill-rule:evenodd;fill:rgb(99.607843%,70.588235%,0%);fill-opacity:1;" d="M 14.40625 38.625 C 15.835938 38.625 17.269531 38.625 18.703125 38.625 C 18.703125 39.144531 18.703125 39.664062 18.703125 40.1875 C 18.828125 40.164062 18.925781 40.195312 18.992188 40.28125 C 17.59375 40.28125 16.195312 40.28125 14.796875 40.28125 C 14.691406 40.191406 14.558594 40.160156 14.40625 40.1875 C 14.40625 39.664062 14.40625 39.144531 14.40625 38.625 Z M 14.40625 38.625 "/>
</g>
<mask id="mask45">
  <g filter="url(#alpha)">
<rect x="0" y="0" width="50" height="50" style="fill:rgb(0%,0%,0%);fill-opacity:0.933333;stroke:none;"/>
  </g>
</mask>
<clipPath id="clip46">
  <rect x="0" y="0" width="50" height="50"/>
</clipPath>
<g id="surface140" clip-path="url(#clip46)">
<path style=" stroke:none;fill-rule:evenodd;fill:rgb(99.607843%,65.490196%,0%);fill-opacity:1;" d="M 18.703125 38.625 C 20.003906 38.625 21.304688 38.625 22.609375 38.625 C 22.609375 39.144531 22.609375 39.664062 22.609375 40.1875 C 22.761719 40.160156 22.894531 40.191406 23 40.28125 C 21.664062 40.28125 20.328125 40.28125 18.992188 40.28125 C 18.925781 40.195312 18.828125 40.164062 18.703125 40.1875 C 18.703125 39.664062 18.703125 39.144531 18.703125 38.625 Z M 18.703125 38.625 "/>
</g>
<mask id="mask46">
  <g filter="url(#alpha)">
<rect x="0" y="0" width="50" height="50" style="fill:rgb(0%,0%,0%);fill-opacity:0.945098;stroke:none;"/>
  </g>
</mask>
<clipPath id="clip47">
  <rect x="0" y="0" width="50" height="50"/>
</clipPath>
<g id="surface143" clip-path="url(#clip47)">
<path style=" stroke:none;fill-rule:evenodd;fill:rgb(99.215686%,62.352941%,0%);fill-opacity:1;" d="M 22.609375 38.625 C 23.390625 38.625 24.171875 38.625 24.953125 38.625 C 24.882812 38.710938 24.785156 38.742188 24.65625 38.71875 C 24.65625 39.242188 24.65625 39.761719 24.65625 40.28125 C 24.105469 40.28125 23.550781 40.28125 23 40.28125 C 22.894531 40.191406 22.761719 40.160156 22.609375 40.1875 C 22.609375 39.664062 22.609375 39.144531 22.609375 38.625 Z M 22.609375 38.625 "/>
</g>
<mask id="mask47">
  <g filter="url(#alpha)">
<rect x="0" y="0" width="50" height="50" style="fill:rgb(0%,0%,0%);fill-opacity:0.937255;stroke:none;"/>
  </g>
</mask>
<clipPath id="clip48">
  <rect x="0" y="0" width="50" height="50"/>
</clipPath>
<g id="surface146" clip-path="url(#clip48)">
<path style=" stroke:none;fill-rule:evenodd;fill:rgb(99.607843%,59.607843%,0%);fill-opacity:1;" d="M 24.953125 38.625 C 25.601562 38.625 26.253906 38.625 26.90625 38.625 C 26.90625 39.144531 26.90625 39.664062 26.90625 40.1875 C 27.058594 40.160156 27.191406 40.191406 27.296875 40.28125 C 26.414062 40.28125 25.539062 40.28125 24.65625 40.28125 C 24.65625 39.761719 24.65625 39.242188 24.65625 38.71875 C 24.785156 38.742188 24.882812 38.710938 24.953125 38.625 Z M 24.953125 38.625 "/>
</g>
<mask id="mask48">
  <g filter="url(#alpha)">
<rect x="0" y="0" width="50" height="50" style="fill:rgb(0%,0%,0%);fill-opacity:0.933333;stroke:none;"/>
  </g>
</mask>
<clipPath id="clip49">
  <rect x="0" y="0" width="50" height="50"/>
</clipPath>
<g id="surface149" clip-path="url(#clip49)">
<path style=" stroke:none;fill-rule:evenodd;fill:rgb(99.607843%,55.686275%,0%);fill-opacity:1;" d="M 26.90625 38.625 C 28.238281 38.625 29.574219 38.625 30.90625 38.625 C 30.90625 39.144531 30.90625 39.664062 30.90625 40.1875 C 31.035156 40.164062 31.132812 40.195312 31.203125 40.28125 C 29.898438 40.28125 28.597656 40.28125 27.296875 40.28125 C 27.191406 40.191406 27.058594 40.160156 26.90625 40.1875 C 26.90625 39.664062 26.90625 39.144531 26.90625 38.625 Z M 26.90625 38.625 "/>
</g>
<mask id="mask49">
  <g filter="url(#alpha)">
<rect x="0" y="0" width="50" height="50" style="fill:rgb(0%,0%,0%);fill-opacity:0.937255;stroke:none;"/>
  </g>
</mask>
<clipPath id="clip50">
  <rect x="0" y="0" width="50" height="50"/>
</clipPath>
<g id="surface152" clip-path="url(#clip50)">
<path style=" stroke:none;fill-rule:evenodd;fill:rgb(99.607843%,50.980392%,0%);fill-opacity:1;" d="M 30.90625 38.625 C 32.308594 38.625 33.707031 38.625 35.109375 38.625 C 35.109375 39.144531 35.109375 39.664062 35.109375 40.1875 C 35.261719 40.160156 35.394531 40.191406 35.5 40.28125 C 34.066406 40.28125 32.632812 40.28125 31.203125 40.28125 C 31.132812 40.195312 31.035156 40.164062 30.90625 40.1875 C 30.90625 39.664062 30.90625 39.144531 30.90625 38.625 Z M 30.90625 38.625 "/>
</g>
<mask id="mask50">
  <g filter="url(#alpha)">
<rect x="0" y="0" width="50" height="50" style="fill:rgb(0%,0%,0%);fill-opacity:0.952941;stroke:none;"/>
  </g>
</mask>
<clipPath id="clip51">
  <rect x="0" y="0" width="50" height="50"/>
</clipPath>
<g id="surface155" clip-path="url(#clip51)">
<path style=" stroke:none;fill-rule:evenodd;fill:rgb(99.215686%,47.45098%,0%);fill-opacity:1;" d="M 35.109375 38.625 C 35.660156 38.625 36.214844 38.625 36.765625 38.625 C 36.871094 38.714844 37.003906 38.746094 37.15625 38.71875 C 37.15625 39.242188 37.15625 39.761719 37.15625 40.28125 C 36.605469 40.28125 36.050781 40.28125 35.5 40.28125 C 35.394531 40.191406 35.261719 40.160156 35.109375 40.1875 C 35.109375 39.664062 35.109375 39.144531 35.109375 38.625 Z M 35.109375 38.625 "/>
</g>
<mask id="mask51">
  <g filter="url(#alpha)">
<rect x="0" y="0" width="50" height="50" style="fill:rgb(0%,0%,0%);fill-opacity:0.933333;stroke:none;"/>
  </g>
</mask>
<clipPath id="clip52">
  <rect x="0" y="0" width="50" height="50"/>
</clipPath>
<g id="surface158" clip-path="url(#clip52)">
<path style=" stroke:none;fill-rule:evenodd;fill:rgb(99.215686%,44.313725%,0%);fill-opacity:1;" d="M 36.765625 38.625 C 38.296875 38.625 39.828125 38.625 41.359375 38.625 C 41.289062 38.710938 41.191406 38.742188 41.0625 38.71875 C 41.0625 39.242188 41.0625 39.761719 41.0625 40.28125 C 39.761719 40.28125 38.460938 40.28125 37.15625 40.28125 C 37.15625 39.761719 37.15625 39.242188 37.15625 38.71875 C 37.003906 38.746094 36.871094 38.714844 36.765625 38.625 Z M 36.765625 38.625 "/>
</g>
<mask id="mask52">
  <g filter="url(#alpha)">
<rect x="0" y="0" width="50" height="50" style="fill:rgb(0%,0%,0%);fill-opacity:0.945098;stroke:none;"/>
  </g>
</mask>
<clipPath id="clip53">
  <rect x="0" y="0" width="50" height="50"/>
</clipPath>
<g id="surface161" clip-path="url(#clip53)">
<path style=" stroke:none;fill-rule:evenodd;fill:rgb(98.823529%,40%,0%);fill-opacity:1;" d="M 41.359375 38.625 C 42.039062 38.625 42.726562 38.625 43.40625 38.625 C 43.4375 39.183594 43.402344 39.738281 43.3125 40.28125 C 42.5625 40.28125 41.8125 40.28125 41.0625 40.28125 C 41.0625 39.761719 41.0625 39.242188 41.0625 38.71875 C 41.191406 38.742188 41.289062 38.710938 41.359375 38.625 Z M 41.359375 38.625 "/>
</g>
</defs>
<g id="surface1">
<use xlink:href="#surface5" mask="url(#mask0)"/>
<use xlink:href="#surface8" mask="url(#mask1)"/>
<use xlink:href="#surface11" mask="url(#mask2)"/>
<use xlink:href="#surface14" mask="url(#mask3)"/>
<use xlink:href="#surface17" mask="url(#mask4)"/>
<use xlink:href="#surface20" mask="url(#mask5)"/>
<use xlink:href="#surface23" mask="url(#mask6)"/>
<use xlink:href="#surface26" mask="url(#mask7)"/>
<use xlink:href="#surface29" mask="url(#mask8)"/>
<use xlink:href="#surface32" mask="url(#mask9)"/>
<use xlink:href="#surface35" mask="url(#mask10)"/>
<use xlink:href="#surface38" mask="url(#mask11)"/>
<use xlink:href="#surface41" mask="url(#mask12)"/>
<use xlink:href="#surface44" mask="url(#mask13)"/>
<use xlink:href="#surface47" mask="url(#mask14)"/>
<use xlink:href="#surface50" mask="url(#mask15)"/>
<use xlink:href="#surface53" mask="url(#mask16)"/>
<use xlink:href="#surface56" mask="url(#mask17)"/>
<use xlink:href="#surface59" mask="url(#mask18)"/>
<use xlink:href="#surface62" mask="url(#mask19)"/>
<use xlink:href="#surface65" mask="url(#mask20)"/>
<use xlink:href="#surface68" mask="url(#mask21)"/>
<use xlink:href="#surface71" mask="url(#mask22)"/>
<use xlink:href="#surface74" mask="url(#mask23)"/>
<use xlink:href="#surface77" mask="url(#mask24)"/>
<use xlink:href="#surface80" mask="url(#mask25)"/>
<use xlink:href="#surface83" mask="url(#mask26)"/>
<use xlink:href="#surface86" mask="url(#mask27)"/>
<use xlink:href="#surface89" mask="url(#mask28)"/>
<use xlink:href="#surface92" mask="url(#mask29)"/>
<use xlink:href="#surface95" mask="url(#mask30)"/>
<use xlink:href="#surface98" mask="url(#mask31)"/>
<use xlink:href="#surface101" mask="url(#mask32)"/>
<use xlink:href="#surface104" mask="url(#mask33)"/>
<use xlink:href="#surface107" mask="url(#mask34)"/>
<use xlink:href="#surface110" mask="url(#mask35)"/>
<use xlink:href="#surface113" mask="url(#mask36)"/>
<use xlink:href="#surface116" mask="url(#mask37)"/>
<use xlink:href="#surface119" mask="url(#mask38)"/>
<use xlink:href="#surface122" mask="url(#mask39)"/>
<use xlink:href="#surface125" mask="url(#mask40)"/>
<use xlink:href="#surface128" mask="url(#mask41)"/>
<use xlink:href="#surface131" mask="url(#mask42)"/>
<use xlink:href="#surface134" mask="url(#mask43)"/>
<use xlink:href="#surface137" mask="url(#mask44)"/>
<use xlink:href="#surface140" mask="url(#mask45)"/>
<use xlink:href="#surface143" mask="url(#mask46)"/>
<use xlink:href="#surface146" mask="url(#mask47)"/>
<use xlink:href="#surface149" mask="url(#mask48)"/>
<use xlink:href="#surface152" mask="url(#mask49)"/>
<use xlink:href="#surface155" mask="url(#mask50)"/>
<use xlink:href="#surface158" mask="url(#mask51)"/>
<use xlink:href="#surface161" mask="url(#mask52)"/>
</g>
</svg>
