<?xml version="1.0" encoding="UTF-8"?>
<svg xmlns="http://www.w3.org/2000/svg" xmlns:xlink="http://www.w3.org/1999/xlink" width="50px" height="50px" viewBox="0 0 50 50" version="1.1">
<defs>
<filter id="alpha" filterUnits="objectBoundingBox" x="0%" y="0%" width="100%" height="100%">
  <feColorMatrix type="matrix" in="SourceGraphic" values="0 0 0 0 1 0 0 0 0 1 0 0 0 0 1 0 0 0 1 0"/>
</filter>
<mask id="mask0">
  <g filter="url(#alpha)">
<rect x="0" y="0" width="50" height="50" style="fill:rgb(0%,0%,0%);fill-opacity:0.952941;stroke:none;"/>
  </g>
</mask>
<clipPath id="clip1">
  <rect x="0" y="0" width="50" height="50"/>
</clipPath>
<g id="surface5" clip-path="url(#clip1)">
<path style=" stroke:none;fill-rule:evenodd;fill:rgb(99.607843%,65.490196%,0%);fill-opacity:1;" d="M 22.703125 3.171875 C 22.757812 3.757812 22.691406 4.308594 22.507812 4.835938 C 21.289062 4.683594 20.082031 4.78125 18.898438 5.125 C 18.867188 4.566406 18.902344 4.011719 18.992188 3.46875 C 20.210938 3.097656 21.449219 3 22.703125 3.171875 Z M 22.703125 3.171875 "/>
</g>
<mask id="mask1">
  <g filter="url(#alpha)">
<rect x="0" y="0" width="50" height="50" style="fill:rgb(0%,0%,0%);fill-opacity:0.952941;stroke:none;"/>
  </g>
</mask>
<clipPath id="clip2">
  <rect x="0" y="0" width="50" height="50"/>
</clipPath>
<g id="surface8" clip-path="url(#clip2)">
<path style=" stroke:none;fill-rule:evenodd;fill:rgb(99.607843%,69.803922%,0%);fill-opacity:1;" d="M 18.992188 3.46875 C 18.902344 4.011719 18.867188 4.566406 18.898438 5.125 C 18.15625 5.429688 17.441406 5.789062 16.75 6.203125 C 16.75 5.550781 16.75 4.898438 16.75 4.25 C 17.453125 3.871094 18.203125 3.609375 18.992188 3.46875 Z M 18.992188 3.46875 "/>
</g>
<mask id="mask2">
  <g filter="url(#alpha)">
<rect x="0" y="0" width="50" height="50" style="fill:rgb(0%,0%,0%);fill-opacity:0.952941;stroke:none;"/>
  </g>
</mask>
<clipPath id="clip3">
  <rect x="0" y="0" width="50" height="50"/>
</clipPath>
<g id="surface11" clip-path="url(#clip3)">
<path style=" stroke:none;fill-rule:evenodd;fill:rgb(99.607843%,60.784314%,0%);fill-opacity:1;" d="M 22.703125 3.171875 C 24.183594 3.265625 25.550781 3.6875 26.804688 4.445312 C 26.804688 5.09375 26.804688 5.746094 26.804688 6.398438 C 25.519531 5.492188 24.085938 4.972656 22.507812 4.835938 C 22.691406 4.308594 22.757812 3.757812 22.703125 3.171875 Z M 22.703125 3.171875 "/>
</g>
<mask id="mask3">
  <g filter="url(#alpha)">
<rect x="0" y="0" width="50" height="50" style="fill:rgb(0%,0%,0%);fill-opacity:0.960784;stroke:none;"/>
  </g>
</mask>
<clipPath id="clip4">
  <rect x="0" y="0" width="50" height="50"/>
</clipPath>
<g id="surface14" clip-path="url(#clip4)">
<path style=" stroke:none;fill-rule:evenodd;fill:rgb(99.607843%,72.156863%,0%);fill-opacity:1;" d="M 16.75 4.25 C 16.75 4.898438 16.75 5.550781 16.75 6.203125 C 16.070312 6.75 15.417969 7.335938 14.796875 7.960938 C 14.796875 7.179688 14.796875 6.398438 14.796875 5.617188 C 15.375 5.066406 16.023438 4.609375 16.75 4.25 Z M 16.75 4.25 "/>
</g>
<mask id="mask4">
  <g filter="url(#alpha)">
<rect x="0" y="0" width="50" height="50" style="fill:rgb(0%,0%,0%);fill-opacity:0.956863;stroke:none;"/>
  </g>
</mask>
<clipPath id="clip5">
  <rect x="0" y="0" width="50" height="50"/>
</clipPath>
<g id="surface17" clip-path="url(#clip5)">
<path style=" stroke:none;fill-rule:evenodd;fill:rgb(99.607843%,57.254902%,0%);fill-opacity:1;" d="M 26.804688 4.445312 C 27.566406 4.789062 28.21875 5.277344 28.757812 5.90625 C 28.765625 6.71875 28.765625 7.5 28.757812 8.25 C 28.171875 7.566406 27.523438 6.949219 26.804688 6.398438 C 26.804688 5.746094 26.804688 5.09375 26.804688 4.445312 Z M 26.804688 4.445312 "/>
</g>
<mask id="mask5">
  <g filter="url(#alpha)">
<rect x="0" y="0" width="50" height="50" style="fill:rgb(0%,0%,0%);fill-opacity:0.94902;stroke:none;"/>
  </g>
</mask>
<clipPath id="clip6">
  <rect x="0" y="0" width="50" height="50"/>
</clipPath>
<g id="surface20" clip-path="url(#clip6)">
<path style=" stroke:none;fill-rule:evenodd;fill:rgb(99.607843%,54.901961%,0%);fill-opacity:1;" d="M 28.757812 5.90625 C 29.554688 6.605469 30.207031 7.421875 30.710938 8.351562 C 30.617188 11.816406 30.582031 15.300781 30.617188 18.796875 C 30.144531 19.691406 29.527344 20.472656 28.757812 21.140625 C 28.792969 20.375 28.757812 19.628906 28.664062 18.898438 C 30.964844 15.367188 30.996094 11.820312 28.757812 8.25 C 28.765625 7.5 28.765625 6.71875 28.757812 5.90625 Z M 28.757812 5.90625 "/>
</g>
<mask id="mask6">
  <g filter="url(#alpha)">
<rect x="0" y="0" width="50" height="50" style="fill:rgb(0%,0%,0%);fill-opacity:0.956863;stroke:none;"/>
  </g>
</mask>
<clipPath id="clip7">
  <rect x="0" y="0" width="50" height="50"/>
</clipPath>
<g id="surface23" clip-path="url(#clip7)">
<path style=" stroke:none;fill-rule:evenodd;fill:rgb(99.607843%,75.686275%,0%);fill-opacity:1;" d="M 14.796875 5.617188 C 14.796875 6.398438 14.796875 7.179688 14.796875 7.960938 C 12.167969 11.726562 12.199219 15.46875 14.890625 19.1875 C 14.828125 19.875 14.761719 20.554688 14.695312 21.242188 C 12.933594 19.765625 11.84375 17.875 11.425781 15.578125 C 10.808594 11.648438 11.933594 8.328125 14.796875 5.617188 Z M 14.796875 5.617188 "/>
</g>
<mask id="mask7">
  <g filter="url(#alpha)">
<rect x="0" y="0" width="50" height="50" style="fill:rgb(0%,0%,0%);fill-opacity:0.960784;stroke:none;"/>
  </g>
</mask>
<clipPath id="clip8">
  <rect x="0" y="0" width="50" height="50"/>
</clipPath>
<g id="surface26" clip-path="url(#clip8)">
<path style=" stroke:none;fill-rule:evenodd;fill:rgb(99.607843%,53.333333%,0%);fill-opacity:1;" d="M 30.710938 8.351562 C 32.097656 10.835938 32.441406 13.472656 31.738281 16.257812 C 31.492188 17.175781 31.117188 18.023438 30.617188 18.796875 C 30.582031 15.300781 30.617188 11.816406 30.710938 8.351562 Z M 30.710938 8.351562 "/>
</g>
<mask id="mask8">
  <g filter="url(#alpha)">
<rect x="0" y="0" width="50" height="50" style="fill:rgb(0%,0%,0%);fill-opacity:0.952941;stroke:none;"/>
  </g>
</mask>
<clipPath id="clip9">
  <rect x="0" y="0" width="50" height="50"/>
</clipPath>
<g id="surface29" clip-path="url(#clip9)">
<path style=" stroke:none;fill-rule:evenodd;fill:rgb(99.607843%,57.647059%,0%);fill-opacity:1;" d="M 28.664062 18.898438 C 28.757812 19.628906 28.792969 20.375 28.757812 21.140625 C 28.167969 21.703125 27.515625 22.191406 26.804688 22.609375 C 26.839844 21.96875 26.804688 21.351562 26.710938 20.75 C 27.421875 20.203125 28.074219 19.582031 28.664062 18.898438 Z M 28.664062 18.898438 "/>
</g>
<mask id="mask9">
  <g filter="url(#alpha)">
<rect x="0" y="0" width="50" height="50" style="fill:rgb(0%,0%,0%);fill-opacity:0.952941;stroke:none;"/>
  </g>
</mask>
<clipPath id="clip10">
  <rect x="0" y="0" width="50" height="50"/>
</clipPath>
<g id="surface32" clip-path="url(#clip10)">
<path style=" stroke:none;fill-rule:evenodd;fill:rgb(99.607843%,72.156863%,0%);fill-opacity:1;" d="M 14.890625 19.1875 C 15.484375 19.78125 16.101562 20.335938 16.75 20.851562 C 16.78125 21.453125 16.746094 22.039062 16.648438 22.609375 C 16.347656 22.488281 16.054688 22.339844 15.773438 22.167969 C 15.371094 21.902344 15.011719 21.59375 14.695312 21.242188 C 14.761719 20.554688 14.828125 19.875 14.890625 19.1875 Z M 14.890625 19.1875 "/>
</g>
<mask id="mask10">
  <g filter="url(#alpha)">
<rect x="0" y="0" width="50" height="50" style="fill:rgb(0%,0%,0%);fill-opacity:0.960784;stroke:none;"/>
  </g>
</mask>
<clipPath id="clip11">
  <rect x="0" y="0" width="50" height="50"/>
</clipPath>
<g id="surface35" clip-path="url(#clip11)">
<path style=" stroke:none;fill-rule:evenodd;fill:rgb(99.607843%,59.607843%,0%);fill-opacity:1;" d="M 26.710938 20.75 C 26.804688 21.351562 26.839844 21.96875 26.804688 22.609375 C 26.648438 22.6875 26.484375 22.769531 26.320312 22.851562 C 26.496094 22.925781 26.660156 23.007812 26.804688 23.09375 C 26.777344 23.65625 26.8125 24.210938 26.90625 24.757812 C 26.148438 24.542969 25.402344 24.347656 24.65625 24.171875 C 24.691406 23.371094 24.65625 22.589844 24.5625 21.828125 C 25.296875 21.523438 26.015625 21.164062 26.710938 20.75 Z M 26.710938 20.75 "/>
</g>
<mask id="mask11">
  <g filter="url(#alpha)">
<rect x="0" y="0" width="50" height="50" style="fill:rgb(0%,0%,0%);fill-opacity:0.968627;stroke:none;"/>
  </g>
</mask>
<clipPath id="clip12">
  <rect x="0" y="0" width="50" height="50"/>
</clipPath>
<g id="surface38" clip-path="url(#clip12)">
<path style=" stroke:none;fill-rule:evenodd;fill:rgb(99.607843%,69.803922%,0%);fill-opacity:1;" d="M 16.75 20.851562 C 17.4375 21.226562 18.152344 21.550781 18.898438 21.828125 C 18.863281 22.625 18.898438 23.40625 18.992188 24.171875 C 18.296875 24.359375 17.578125 24.523438 16.84375 24.65625 C 16.75 24.125 16.714844 23.570312 16.75 23 C 16.824219 22.921875 16.921875 22.875 17.039062 22.851562 C 16.886719 22.792969 16.757812 22.710938 16.648438 22.609375 C 16.746094 22.039062 16.78125 21.453125 16.75 20.851562 Z M 16.75 20.851562 "/>
</g>
<mask id="mask12">
  <g filter="url(#alpha)">
<rect x="0" y="0" width="50" height="50" style="fill:rgb(0%,0%,0%);fill-opacity:0.956863;stroke:none;"/>
  </g>
</mask>
<clipPath id="clip13">
  <rect x="0" y="0" width="50" height="50"/>
</clipPath>
<g id="surface41" clip-path="url(#clip13)">
<path style=" stroke:none;fill-rule:evenodd;fill:rgb(99.607843%,67.45098%,0%);fill-opacity:1;" d="M 18.898438 21.828125 C 19.558594 22.054688 20.242188 22.1875 20.945312 22.21875 C 20.882812 22.804688 20.816406 23.390625 20.75 23.976562 C 20.171875 24.066406 19.585938 24.128906 18.992188 24.171875 C 18.898438 23.40625 18.863281 22.625 18.898438 21.828125 Z M 18.898438 21.828125 "/>
</g>
<mask id="mask13">
  <g filter="url(#alpha)">
<rect x="0" y="0" width="50" height="50" style="fill:rgb(0%,0%,0%);fill-opacity:0.968627;stroke:none;"/>
  </g>
</mask>
<clipPath id="clip14">
  <rect x="0" y="0" width="50" height="50"/>
</clipPath>
<g id="surface44" clip-path="url(#clip14)">
<path style=" stroke:none;fill-rule:evenodd;fill:rgb(99.607843%,63.137255%,0%);fill-opacity:1;" d="M 24.5625 21.828125 C 24.65625 22.589844 24.691406 23.371094 24.65625 24.171875 C 23.359375 24.023438 22.058594 23.957031 20.75 23.976562 C 20.816406 23.390625 20.882812 22.804688 20.945312 22.21875 C 22.167969 22.304688 23.371094 22.175781 24.5625 21.828125 Z M 24.5625 21.828125 "/>
</g>
<mask id="mask14">
  <g filter="url(#alpha)">
<rect x="0" y="0" width="50" height="50" style="fill:rgb(0%,0%,0%);fill-opacity:0.952941;stroke:none;"/>
  </g>
</mask>
<clipPath id="clip15">
  <rect x="0" y="0" width="50" height="50"/>
</clipPath>
<g id="surface47" clip-path="url(#clip15)">
<path style=" stroke:none;fill-rule:evenodd;fill:rgb(99.607843%,73.72549%,0%);fill-opacity:1;" d="M 16.75 23 C 16.714844 23.570312 16.75 24.125 16.84375 24.65625 C 15.546875 25.128906 14.277344 25.683594 13.039062 26.320312 C 12.941406 25.71875 12.90625 25.101562 12.9375 24.460938 C 14.140625 23.800781 15.410156 23.3125 16.75 23 Z M 16.75 23 "/>
</g>
<mask id="mask15">
  <g filter="url(#alpha)">
<rect x="0" y="0" width="50" height="50" style="fill:rgb(0%,0%,0%);fill-opacity:0.94902;stroke:none;"/>
  </g>
</mask>
<clipPath id="clip16">
  <rect x="0" y="0" width="50" height="50"/>
</clipPath>
<g id="surface50" clip-path="url(#clip16)">
<path style=" stroke:none;fill-rule:evenodd;fill:rgb(99.607843%,55.686275%,0%);fill-opacity:1;" d="M 26.804688 23.09375 C 28.164062 23.429688 29.433594 23.949219 30.617188 24.65625 C 30.617188 25.277344 30.617188 25.894531 30.617188 26.515625 C 29.457031 25.769531 28.21875 25.183594 26.90625 24.757812 C 26.8125 24.210938 26.777344 23.65625 26.804688 23.09375 Z M 26.804688 23.09375 "/>
</g>
<mask id="mask16">
  <g filter="url(#alpha)">
<rect x="0" y="0" width="50" height="50" style="fill:rgb(0%,0%,0%);fill-opacity:0.94902;stroke:none;"/>
  </g>
</mask>
<clipPath id="clip17">
  <rect x="0" y="0" width="50" height="50"/>
</clipPath>
<g id="surface53" clip-path="url(#clip17)">
<path style=" stroke:none;fill-rule:evenodd;fill:rgb(100%,77.254902%,0%);fill-opacity:1;" d="M 12.9375 24.460938 C 12.90625 25.101562 12.941406 25.71875 13.039062 26.320312 C 12.355469 26.773438 11.671875 27.230469 10.984375 27.6875 C 11.019531 27.015625 10.984375 26.363281 10.890625 25.734375 C 11.519531 25.238281 12.203125 24.8125 12.9375 24.460938 Z M 12.9375 24.460938 "/>
</g>
<mask id="mask17">
  <g filter="url(#alpha)">
<rect x="0" y="0" width="50" height="50" style="fill:rgb(0%,0%,0%);fill-opacity:0.960784;stroke:none;"/>
  </g>
</mask>
<clipPath id="clip18">
  <rect x="0" y="0" width="50" height="50"/>
</clipPath>
<g id="surface56" clip-path="url(#clip18)">
<path style=" stroke:none;fill-rule:evenodd;fill:rgb(99.607843%,52.941176%,0%);fill-opacity:1;" d="M 30.617188 24.65625 C 31.347656 25.007812 32.03125 25.429688 32.664062 25.929688 C 32.601562 26.578125 32.535156 27.230469 32.46875 27.882812 C 31.871094 27.402344 31.25 26.945312 30.617188 26.515625 C 30.617188 25.894531 30.617188 25.277344 30.617188 24.65625 Z M 30.617188 24.65625 "/>
</g>
<mask id="mask18">
  <g filter="url(#alpha)">
<rect x="0" y="0" width="50" height="50" style="fill:rgb(0%,0%,0%);fill-opacity:0.94902;stroke:none;"/>
  </g>
</mask>
<clipPath id="clip19">
  <rect x="0" y="0" width="50" height="50"/>
</clipPath>
<g id="surface59" clip-path="url(#clip19)">
<path style=" stroke:none;fill-rule:evenodd;fill:rgb(99.607843%,49.803922%,0%);fill-opacity:1;" d="M 34.8125 25.4375 C 34.8125 25.960938 34.8125 26.480469 34.8125 27 C 34.96875 26.976562 35.101562 27.007812 35.203125 27.101562 C 35.011719 27.078125 34.832031 27.109375 34.667969 27.195312 C 34.691406 28.621094 33.992188 29.4375 32.570312 29.640625 C 32.601562 29.066406 32.566406 28.511719 32.46875 27.976562 C 32.46875 27.945312 32.46875 27.914062 32.46875 27.882812 C 32.535156 27.230469 32.601562 26.578125 32.664062 25.929688 C 32.828125 26.074219 33.007812 26.203125 33.203125 26.320312 C 33.609375 25.78125 34.148438 25.488281 34.8125 25.4375 Z M 34.8125 25.4375 "/>
</g>
<mask id="mask19">
  <g filter="url(#alpha)">
<rect x="0" y="0" width="50" height="50" style="fill:rgb(0%,0%,0%);fill-opacity:0.945098;stroke:none;"/>
  </g>
</mask>
<clipPath id="clip20">
  <rect x="0" y="0" width="50" height="50"/>
</clipPath>
<g id="surface62" clip-path="url(#clip20)">
<path style=" stroke:none;fill-rule:evenodd;fill:rgb(99.215686%,47.058824%,0%);fill-opacity:1;" d="M 34.8125 25.4375 C 35.304688 25.421875 35.792969 25.441406 36.28125 25.488281 C 36.472656 25.523438 36.636719 25.605469 36.765625 25.734375 C 36.703125 26.804688 36.636719 27.882812 36.570312 28.953125 C 36.171875 28.449219 35.976562 27.863281 35.984375 27.195312 C 35.734375 27.101562 35.472656 27.070312 35.203125 27.101562 C 35.101562 27.007812 34.96875 26.976562 34.8125 27 C 34.8125 26.480469 34.8125 25.960938 34.8125 25.4375 Z M 34.8125 25.4375 "/>
</g>
<mask id="mask20">
  <g filter="url(#alpha)">
<rect x="0" y="0" width="50" height="50" style="fill:rgb(0%,0%,0%);fill-opacity:0.952941;stroke:none;"/>
  </g>
</mask>
<clipPath id="clip21">
  <rect x="0" y="0" width="50" height="50"/>
</clipPath>
<g id="surface65" clip-path="url(#clip21)">
<path style=" stroke:none;fill-rule:evenodd;fill:rgb(100%,79.607843%,0%);fill-opacity:1;" d="M 10.890625 25.734375 C 10.984375 26.363281 11.019531 27.015625 10.984375 27.6875 C 10.242188 28.398438 9.492188 29.113281 8.742188 29.835938 C 8.742188 29.054688 8.742188 28.273438 8.742188 27.492188 C 9.421875 26.859375 10.136719 26.273438 10.890625 25.734375 Z M 10.890625 25.734375 "/>
</g>
<mask id="mask21">
  <g filter="url(#alpha)">
<rect x="0" y="0" width="50" height="50" style="fill:rgb(0%,0%,0%);fill-opacity:0.956863;stroke:none;"/>
  </g>
</mask>
<clipPath id="clip22">
  <rect x="0" y="0" width="50" height="50"/>
</clipPath>
<g id="surface68" clip-path="url(#clip22)">
<path style=" stroke:none;fill-rule:evenodd;fill:rgb(99.215686%,44.313725%,0%);fill-opacity:1;" d="M 36.765625 25.734375 C 37.535156 26.191406 37.859375 26.875 37.742188 27.78125 C 38.355469 27.933594 38.941406 28.160156 39.5 28.46875 C 39.746094 28.199219 40.039062 28.003906 40.382812 27.882812 C 40.441406 28.542969 40.507812 29.191406 40.578125 29.835938 C 40.304688 30.042969 39.996094 30.171875 39.648438 30.226562 C 38.777344 29.960938 37.914062 29.652344 37.0625 29.296875 C 36.878906 29.195312 36.71875 29.082031 36.570312 28.953125 C 36.636719 27.882812 36.703125 26.804688 36.765625 25.734375 Z M 36.765625 25.734375 "/>
</g>
<mask id="mask22">
  <g filter="url(#alpha)">
<rect x="0" y="0" width="50" height="50" style="fill:rgb(0%,0%,0%);fill-opacity:0.94902;stroke:none;"/>
  </g>
</mask>
<clipPath id="clip23">
  <rect x="0" y="0" width="50" height="50"/>
</clipPath>
<g id="surface71" clip-path="url(#clip23)">
<path style=" stroke:none;fill-rule:evenodd;fill:rgb(99.215686%,39.607843%,0%);fill-opacity:1;" d="M 42.820312 28.46875 C 42.726562 30.632812 42.691406 32.8125 42.726562 35.007812 C 42.597656 34.933594 42.484375 34.835938 42.382812 34.71875 C 42.058594 33.9375 41.730469 33.15625 41.40625 32.375 C 41.191406 31.566406 41.421875 30.914062 42.089844 30.421875 C 42.023438 29.894531 41.730469 29.539062 41.210938 29.34375 C 40.984375 29.492188 40.773438 29.652344 40.578125 29.835938 C 40.507812 29.191406 40.441406 28.542969 40.382812 27.882812 C 41.335938 27.515625 42.148438 27.710938 42.820312 28.46875 Z M 42.820312 28.46875 "/>
</g>
<mask id="mask23">
  <g filter="url(#alpha)">
<rect x="0" y="0" width="50" height="50" style="fill:rgb(0%,0%,0%);fill-opacity:0.964706;stroke:none;"/>
  </g>
</mask>
<clipPath id="clip24">
  <rect x="0" y="0" width="50" height="50"/>
</clipPath>
<g id="surface74" clip-path="url(#clip24)">
<path style=" stroke:none;fill-rule:evenodd;fill:rgb(99.607843%,57.254902%,0%);fill-opacity:1;" d="M 28.664062 27.882812 C 28.726562 28.5 28.792969 29.117188 28.859375 29.734375 C 28.71875 29.875 28.621094 30.035156 28.5625 30.226562 C 28.832031 30.589844 29.074219 30.980469 29.296875 31.398438 C 29.375 31.828125 29.339844 32.25 29.199219 32.664062 C 28.878906 33.339844 28.585938 34.023438 28.320312 34.71875 C 27.941406 35.222656 27.4375 35.453125 26.804688 35.398438 C 26.777344 34.839844 26.8125 34.285156 26.90625 33.742188 C 27.125 33.121094 27.382812 32.519531 27.6875 31.933594 C 26.828125 31.089844 26.679688 30.128906 27.246094 29.054688 C 27.652344 28.566406 28.121094 28.175781 28.664062 27.882812 Z M 28.664062 27.882812 "/>
</g>
<mask id="mask24">
  <g filter="url(#alpha)">
<rect x="0" y="0" width="50" height="50" style="fill:rgb(0%,0%,0%);fill-opacity:0.952941;stroke:none;"/>
  </g>
</mask>
<clipPath id="clip25">
  <rect x="0" y="0" width="50" height="50"/>
</clipPath>
<g id="surface77" clip-path="url(#clip25)">
<path style=" stroke:none;fill-rule:evenodd;fill:rgb(99.607843%,53.333333%,0%);fill-opacity:1;" d="M 32.46875 27.976562 C 32.566406 28.511719 32.601562 29.066406 32.570312 29.640625 C 31.789062 30.203125 30.972656 30.285156 30.125 29.882812 C 29.9375 29.644531 29.710938 29.464844 29.445312 29.34375 C 29.222656 29.4375 29.027344 29.566406 28.859375 29.734375 C 28.792969 29.117188 28.726562 28.5 28.664062 27.882812 C 29.609375 27.519531 30.441406 27.714844 31.152344 28.46875 C 31.566406 28.234375 32.007812 28.070312 32.46875 27.976562 Z M 32.46875 27.976562 "/>
</g>
<mask id="mask25">
  <g filter="url(#alpha)">
<rect x="0" y="0" width="50" height="50" style="fill:rgb(0%,0%,0%);fill-opacity:0.945098;stroke:none;"/>
  </g>
</mask>
<clipPath id="clip26">
  <rect x="0" y="0" width="50" height="50"/>
</clipPath>
<g id="surface80" clip-path="url(#clip26)">
<path style=" stroke:none;fill-rule:evenodd;fill:rgb(99.215686%,37.647059%,0%);fill-opacity:1;" d="M 42.820312 28.46875 C 43.863281 29.292969 44.074219 30.300781 43.457031 31.492188 C 43.292969 31.640625 43.144531 31.804688 43.015625 31.984375 C 43.355469 32.527344 43.582031 33.113281 43.703125 33.742188 C 45.300781 33.726562 46.113281 34.523438 46.140625 36.132812 C 46.128906 37.757812 45.316406 38.585938 43.703125 38.625 C 43.550781 39.234375 43.324219 39.820312 43.015625 40.382812 C 43.917969 41.296875 44.03125 42.304688 43.359375 43.40625 C 43.160156 43.625 42.949219 43.820312 42.726562 43.992188 C 42.726562 41.75 42.726562 39.5 42.726562 37.257812 C 43.121094 36.964844 43.5625 36.867188 44.042969 36.960938 C 44.367188 36.808594 44.511719 36.546875 44.484375 36.179688 C 44.488281 35.933594 44.421875 35.703125 44.289062 35.5 C 43.933594 35.421875 43.578125 35.375 43.210938 35.351562 C 43.007812 35.285156 42.847656 35.167969 42.726562 35.007812 C 42.691406 32.8125 42.726562 30.632812 42.820312 28.46875 Z M 42.820312 28.46875 "/>
</g>
<mask id="mask26">
  <g filter="url(#alpha)">
<rect x="0" y="0" width="50" height="50" style="fill:rgb(0%,0%,0%);fill-opacity:0.956863;stroke:none;"/>
  </g>
</mask>
<clipPath id="clip27">
  <rect x="0" y="0" width="50" height="50"/>
</clipPath>
<g id="surface83" clip-path="url(#clip27)">
<path style=" stroke:none;fill-rule:evenodd;fill:rgb(100%,83.529412%,0%);fill-opacity:1;" d="M 8.742188 27.492188 C 8.742188 28.273438 8.742188 29.054688 8.742188 29.835938 C 7.101562 31.792969 5.996094 34.023438 5.421875 36.523438 C 5.714844 38.460938 6.820312 39.617188 8.742188 39.992188 C 8.742188 40.542969 8.742188 41.097656 8.742188 41.648438 C 7.140625 41.550781 5.871094 40.867188 4.929688 39.601562 C 4.929688 37.351562 4.929688 35.109375 4.929688 32.859375 C 5.859375 30.828125 7.128906 29.035156 8.742188 27.492188 Z M 8.742188 27.492188 "/>
</g>
<mask id="mask27">
  <g filter="url(#alpha)">
<rect x="0" y="0" width="50" height="50" style="fill:rgb(0%,0%,0%);fill-opacity:0.952941;stroke:none;"/>
  </g>
</mask>
<clipPath id="clip28">
  <rect x="0" y="0" width="50" height="50"/>
</clipPath>
<g id="surface86" clip-path="url(#clip28)">
<path style=" stroke:none;fill-rule:evenodd;fill:rgb(99.607843%,50.196078%,0%);fill-opacity:1;" d="M 34.8125 30.421875 C 34.8125 30.972656 34.8125 31.527344 34.8125 32.078125 C 33.980469 32.21875 33.234375 32.546875 32.570312 33.054688 C 32.570312 32.40625 32.570312 31.753906 32.570312 31.101562 C 33.253906 30.703125 34.003906 30.472656 34.8125 30.421875 Z M 34.8125 30.421875 "/>
</g>
<mask id="mask28">
  <g filter="url(#alpha)">
<rect x="0" y="0" width="50" height="50" style="fill:rgb(0%,0%,0%);fill-opacity:0.945098;stroke:none;"/>
  </g>
</mask>
<clipPath id="clip29">
  <rect x="0" y="0" width="50" height="50"/>
</clipPath>
<g id="surface89" clip-path="url(#clip29)">
<path style=" stroke:none;fill-rule:evenodd;fill:rgb(99.215686%,45.882353%,0%);fill-opacity:1;" d="M 34.8125 30.421875 C 36.273438 30.265625 37.574219 30.625 38.71875 31.492188 C 38.625 32.160156 38.589844 32.84375 38.625 33.546875 C 37.601562 32.433594 36.332031 31.945312 34.8125 32.078125 C 34.8125 31.527344 34.8125 30.972656 34.8125 30.421875 Z M 34.8125 30.421875 "/>
</g>
<mask id="mask29">
  <g filter="url(#alpha)">
<rect x="0" y="0" width="50" height="50" style="fill:rgb(0%,0%,0%);fill-opacity:0.952941;stroke:none;"/>
  </g>
</mask>
<clipPath id="clip30">
  <rect x="0" y="0" width="50" height="50"/>
</clipPath>
<g id="surface92" clip-path="url(#clip30)">
<path style=" stroke:none;fill-rule:evenodd;fill:rgb(99.607843%,53.333333%,0%);fill-opacity:1;" d="M 32.570312 31.101562 C 32.570312 31.753906 32.570312 32.40625 32.570312 33.054688 C 31.304688 34.402344 30.960938 35.964844 31.542969 37.742188 C 31.792969 38.332031 32.132812 38.855469 32.570312 39.304688 C 32.570312 39.957031 32.570312 40.609375 32.570312 41.257812 C 30.035156 39.695312 29.105469 37.449219 29.785156 34.523438 C 30.230469 32.984375 31.160156 31.847656 32.570312 31.101562 Z M 32.570312 31.101562 "/>
</g>
<mask id="mask30">
  <g filter="url(#alpha)">
<rect x="0" y="0" width="50" height="50" style="fill:rgb(0%,0%,0%);fill-opacity:0.956863;stroke:none;"/>
  </g>
</mask>
<clipPath id="clip31">
  <rect x="0" y="0" width="50" height="50"/>
</clipPath>
<g id="surface95" clip-path="url(#clip31)">
<path style=" stroke:none;fill-rule:evenodd;fill:rgb(99.215686%,42.352941%,0%);fill-opacity:1;" d="M 38.71875 31.492188 C 40.796875 33.085938 41.53125 35.171875 40.917969 37.742188 C 40.546875 39.105469 39.78125 40.179688 38.625 40.96875 C 38.65625 40.234375 38.621094 39.515625 38.523438 38.820312 C 39.660156 37.085938 39.691406 35.328125 38.625 33.546875 C 38.589844 32.84375 38.625 32.160156 38.71875 31.492188 Z M 38.71875 31.492188 "/>
</g>
<mask id="mask31">
  <g filter="url(#alpha)">
<rect x="0" y="0" width="50" height="50" style="fill:rgb(0%,0%,0%);fill-opacity:0.94902;stroke:none;"/>
  </g>
</mask>
<clipPath id="clip32">
  <rect x="0" y="0" width="50" height="50"/>
</clipPath>
<g id="surface98" clip-path="url(#clip32)">
<path style=" stroke:none;fill-rule:evenodd;fill:rgb(100%,86.27451%,0%);fill-opacity:1;" d="M 4.929688 32.859375 C 4.929688 35.109375 4.929688 37.351562 4.929688 39.601562 C 4.179688 38.710938 3.789062 37.667969 3.757812 36.476562 C 3.878906 35.171875 4.269531 33.96875 4.929688 32.859375 Z M 4.929688 32.859375 "/>
</g>
<mask id="mask32">
  <g filter="url(#alpha)">
<rect x="0" y="0" width="50" height="50" style="fill:rgb(0%,0%,0%);fill-opacity:0.945098;stroke:none;"/>
  </g>
</mask>
<clipPath id="clip33">
  <rect x="0" y="0" width="50" height="50"/>
</clipPath>
<g id="surface101" clip-path="url(#clip33)">
<path style=" stroke:none;fill-rule:evenodd;fill:rgb(99.607843%,59.607843%,0%);fill-opacity:1;" d="M 26.90625 33.742188 C 26.8125 34.285156 26.777344 34.839844 26.804688 35.398438 C 26.347656 35.421875 26.152344 35.667969 26.21875 36.132812 C 26.167969 36.597656 26.363281 36.875 26.804688 36.960938 C 26.835938 37.523438 26.800781 38.078125 26.710938 38.625 C 25.25 38.472656 24.53125 37.660156 24.5625 36.179688 C 24.546875 34.597656 25.328125 33.785156 26.90625 33.742188 Z M 26.90625 33.742188 "/>
</g>
<mask id="mask33">
  <g filter="url(#alpha)">
<rect x="0" y="0" width="50" height="50" style="fill:rgb(0%,0%,0%);fill-opacity:0.968627;stroke:none;"/>
  </g>
</mask>
<clipPath id="clip34">
  <rect x="0" y="0" width="50" height="50"/>
</clipPath>
<g id="surface104" clip-path="url(#clip34)">
<path style=" stroke:none;fill-rule:evenodd;fill:rgb(99.607843%,57.647059%,0%);fill-opacity:1;" d="M 26.804688 36.960938 C 27.3125 36.886719 27.75 37.015625 28.125 37.351562 C 28.550781 38.179688 28.941406 39.027344 29.296875 39.890625 C 29.375 40.324219 29.339844 40.746094 29.199219 41.164062 C 28.964844 41.445312 28.753906 41.738281 28.5625 42.039062 C 28.632812 42.203125 28.695312 42.367188 28.757812 42.53125 C 28.757812 43.179688 28.757812 43.832031 28.757812 44.484375 C 27.480469 43.976562 26.863281 43.03125 26.90625 41.648438 C 26.15625 41.648438 25.40625 41.648438 24.65625 41.648438 C 24.65625 41.128906 24.65625 40.609375 24.65625 40.085938 C 24.53125 40.109375 24.433594 40.078125 24.367188 39.992188 C 25.40625 40.007812 26.449219 39.992188 27.492188 39.941406 C 27.257812 39.527344 27.097656 39.085938 27 38.625 C 26.90625 38.625 26.804688 38.625 26.710938 38.625 C 26.800781 38.078125 26.835938 37.523438 26.804688 36.960938 Z M 26.804688 36.960938 "/>
</g>
<mask id="mask34">
  <g filter="url(#alpha)">
<rect x="0" y="0" width="50" height="50" style="fill:rgb(0%,0%,0%);fill-opacity:0.952941;stroke:none;"/>
  </g>
</mask>
<clipPath id="clip35">
  <rect x="0" y="0" width="50" height="50"/>
</clipPath>
<g id="surface107" clip-path="url(#clip35)">
<path style=" stroke:none;fill-rule:evenodd;fill:rgb(99.215686%,39.607843%,0%);fill-opacity:1;" d="M 42.726562 37.257812 C 42.726562 39.5 42.726562 41.75 42.726562 43.992188 C 42.5 44.265625 42.207031 44.445312 41.84375 44.53125 C 41.382812 44.605469 40.925781 44.589844 40.476562 44.484375 C 40.476562 43.796875 40.476562 43.117188 40.476562 42.429688 C 40.738281 42.578125 40.980469 42.738281 41.210938 42.921875 C 41.554688 42.773438 41.847656 42.542969 42.089844 42.234375 C 42.15625 42.105469 42.15625 41.976562 42.089844 41.84375 C 41.421875 41.355469 41.195312 40.703125 41.40625 39.890625 C 41.738281 39.066406 42.09375 38.253906 42.480469 37.453125 C 42.550781 37.363281 42.632812 37.300781 42.726562 37.257812 Z M 42.726562 37.257812 "/>
</g>
<mask id="mask35">
  <g filter="url(#alpha)">
<rect x="0" y="0" width="50" height="50" style="fill:rgb(0%,0%,0%);fill-opacity:0.94902;stroke:none;"/>
  </g>
</mask>
<clipPath id="clip36">
  <rect x="0" y="0" width="50" height="50"/>
</clipPath>
<g id="surface110" clip-path="url(#clip36)">
<path style=" stroke:none;fill-rule:evenodd;fill:rgb(99.607843%,50.196078%,0%);fill-opacity:1;" d="M 32.570312 39.304688 C 33.230469 39.816406 33.980469 40.140625 34.8125 40.28125 C 34.8125 40.804688 34.8125 41.324219 34.8125 41.84375 C 34.019531 41.816406 33.269531 41.621094 32.570312 41.257812 C 32.570312 40.609375 32.570312 39.957031 32.570312 39.304688 Z M 32.570312 39.304688 "/>
</g>
<mask id="mask36">
  <g filter="url(#alpha)">
<rect x="0" y="0" width="50" height="50" style="fill:rgb(0%,0%,0%);fill-opacity:0.870588;stroke:none;"/>
  </g>
</mask>
<clipPath id="clip37">
  <rect x="0" y="0" width="50" height="50"/>
</clipPath>
<g id="surface113" clip-path="url(#clip37)">
<path style=" stroke:none;fill-rule:evenodd;fill:rgb(100%,77.647059%,0%);fill-opacity:1;" d="M 8.742188 39.992188 C 10.757812 39.992188 12.777344 39.992188 14.796875 39.992188 C 14.796875 40.023438 14.796875 40.054688 14.796875 40.085938 C 14.175781 40.085938 13.558594 40.085938 12.9375 40.085938 C 12.9375 40.609375 12.9375 41.128906 12.9375 41.648438 C 11.539062 41.648438 10.140625 41.648438 8.742188 41.648438 C 8.742188 41.097656 8.742188 40.542969 8.742188 39.992188 Z M 8.742188 39.992188 "/>
</g>
<mask id="mask37">
  <g filter="url(#alpha)">
<rect x="0" y="0" width="50" height="50" style="fill:rgb(0%,0%,0%);fill-opacity:0.882353;stroke:none;"/>
  </g>
</mask>
<clipPath id="clip38">
  <rect x="0" y="0" width="50" height="50"/>
</clipPath>
<g id="surface116" clip-path="url(#clip38)">
<path style=" stroke:none;fill-rule:evenodd;fill:rgb(99.607843%,69.019608%,0%);fill-opacity:1;" d="M 14.796875 40.085938 C 14.796875 40.054688 14.796875 40.023438 14.796875 39.992188 C 16.390625 39.992188 17.984375 39.992188 19.578125 39.992188 C 19.984375 40.085938 20.40625 40.117188 20.851562 40.085938 C 20.851562 40.609375 20.851562 41.128906 20.851562 41.648438 C 19.484375 41.648438 18.117188 41.648438 16.75 41.648438 C 16.75 41.128906 16.75 40.609375 16.75 40.085938 C 16.097656 40.085938 15.445312 40.085938 14.796875 40.085938 Z M 14.796875 40.085938 "/>
</g>
<mask id="mask38">
  <g filter="url(#alpha)">
<rect x="0" y="0" width="50" height="50" style="fill:rgb(0%,0%,0%);fill-opacity:0.996078;stroke:none;"/>
  </g>
</mask>
<clipPath id="clip39">
  <rect x="0" y="0" width="50" height="50"/>
</clipPath>
<g id="surface119" clip-path="url(#clip39)">
<path style=" stroke:none;fill-rule:evenodd;fill:rgb(99.607843%,72.941176%,0%);fill-opacity:1;" d="M 14.796875 40.085938 C 15.445312 40.085938 16.097656 40.085938 16.75 40.085938 C 16.75 40.609375 16.75 41.128906 16.75 41.648438 C 15.476562 41.648438 14.210938 41.648438 12.9375 41.648438 C 12.9375 41.128906 12.9375 40.609375 12.9375 40.085938 C 13.558594 40.085938 14.175781 40.085938 14.796875 40.085938 Z M 14.796875 40.085938 "/>
</g>
<mask id="mask39">
  <g filter="url(#alpha)">
<rect x="0" y="0" width="50" height="50" style="fill:rgb(0%,0%,0%);fill-opacity:0.996078;stroke:none;"/>
  </g>
</mask>
<clipPath id="clip40">
  <rect x="0" y="0" width="50" height="50"/>
</clipPath>
<g id="surface122" clip-path="url(#clip40)">
<path style=" stroke:none;fill-rule:evenodd;fill:rgb(99.607843%,63.137255%,0%);fill-opacity:1;" d="M 19.578125 39.992188 C 21.175781 39.992188 22.769531 39.992188 24.367188 39.992188 C 24.433594 40.078125 24.53125 40.109375 24.65625 40.085938 C 24.65625 40.609375 24.65625 41.128906 24.65625 41.648438 C 23.390625 41.648438 22.117188 41.648438 20.851562 41.648438 C 20.851562 41.128906 20.851562 40.609375 20.851562 40.085938 C 20.40625 40.117188 19.984375 40.085938 19.578125 39.992188 Z M 19.578125 39.992188 "/>
</g>
<mask id="mask40">
  <g filter="url(#alpha)">
<rect x="0" y="0" width="50" height="50" style="fill:rgb(0%,0%,0%);fill-opacity:0.952941;stroke:none;"/>
  </g>
</mask>
<clipPath id="clip41">
  <rect x="0" y="0" width="50" height="50"/>
</clipPath>
<g id="surface125" clip-path="url(#clip41)">
<path style=" stroke:none;fill-rule:evenodd;fill:rgb(99.215686%,46.666667%,0%);fill-opacity:1;" d="M 38.523438 38.820312 C 38.621094 39.515625 38.65625 40.234375 38.625 40.96875 C 37.453125 41.707031 36.183594 42 34.8125 41.84375 C 34.8125 41.324219 34.8125 40.804688 34.8125 40.28125 C 36.304688 40.382812 37.539062 39.894531 38.523438 38.820312 Z M 38.523438 38.820312 "/>
</g>
<mask id="mask41">
  <g filter="url(#alpha)">
<rect x="0" y="0" width="50" height="50" style="fill:rgb(0%,0%,0%);fill-opacity:0.960784;stroke:none;"/>
  </g>
</mask>
<clipPath id="clip42">
  <rect x="0" y="0" width="50" height="50"/>
</clipPath>
<g id="surface128" clip-path="url(#clip42)">
<path style=" stroke:none;fill-rule:evenodd;fill:rgb(99.607843%,54.509804%,0%);fill-opacity:1;" d="M 32.664062 42.726562 C 32.601562 43.277344 32.535156 43.832031 32.46875 44.382812 C 32.003906 44.257812 31.5625 44.0625 31.152344 43.796875 C 30.484375 44.535156 29.6875 44.765625 28.757812 44.484375 C 28.757812 43.832031 28.757812 43.179688 28.757812 42.53125 C 28.988281 42.65625 29.214844 42.789062 29.445312 42.921875 C 29.746094 42.730469 30.039062 42.519531 30.320312 42.285156 C 31.175781 42.058594 31.957031 42.207031 32.664062 42.726562 Z M 32.664062 42.726562 "/>
</g>
<mask id="mask42">
  <g filter="url(#alpha)">
<rect x="0" y="0" width="50" height="50" style="fill:rgb(0%,0%,0%);fill-opacity:0.956863;stroke:none;"/>
  </g>
</mask>
<clipPath id="clip43">
  <rect x="0" y="0" width="50" height="50"/>
</clipPath>
<g id="surface131" clip-path="url(#clip43)">
<path style=" stroke:none;fill-rule:evenodd;fill:rgb(99.215686%,44.313725%,0%);fill-opacity:1;" d="M 40.476562 42.429688 C 40.476562 43.117188 40.476562 43.796875 40.476562 44.484375 C 40.105469 44.355469 39.796875 44.125 39.550781 43.796875 C 39.019531 44.136719 38.453125 44.382812 37.84375 44.53125 C 37.820312 45.230469 37.59375 45.847656 37.15625 46.386719 C 37.003906 46.492188 36.839844 46.574219 36.671875 46.632812 C 36.703125 45.539062 36.667969 44.464844 36.570312 43.40625 C 36.675781 43.273438 36.808594 43.160156 36.960938 43.066406 C 37.691406 42.816406 38.40625 42.539062 39.109375 42.234375 C 39.609375 42.074219 40.066406 42.140625 40.476562 42.429688 Z M 40.476562 42.429688 "/>
</g>
<mask id="mask43">
  <g filter="url(#alpha)">
<rect x="0" y="0" width="50" height="50" style="fill:rgb(0%,0%,0%);fill-opacity:0.945098;stroke:none;"/>
  </g>
</mask>
<clipPath id="clip44">
  <rect x="0" y="0" width="50" height="50"/>
</clipPath>
<g id="surface134" clip-path="url(#clip44)">
<path style=" stroke:none;fill-rule:evenodd;fill:rgb(99.607843%,49.803922%,0%);fill-opacity:1;" d="M 32.664062 42.726562 C 33.460938 42.835938 34.066406 43.226562 34.472656 43.898438 C 34.546875 44.371094 34.660156 44.828125 34.8125 45.265625 C 34.785156 45.824219 34.820312 46.378906 34.914062 46.921875 C 33.550781 46.746094 32.867188 45.964844 32.859375 44.578125 C 32.710938 44.53125 32.582031 44.464844 32.46875 44.382812 C 32.535156 43.832031 32.601562 43.277344 32.664062 42.726562 Z M 32.664062 42.726562 "/>
</g>
<mask id="mask44">
  <g filter="url(#alpha)">
<rect x="0" y="0" width="50" height="50" style="fill:rgb(0%,0%,0%);fill-opacity:0.941176;stroke:none;"/>
  </g>
</mask>
<clipPath id="clip45">
  <rect x="0" y="0" width="50" height="50"/>
</clipPath>
<g id="surface137" clip-path="url(#clip45)">
<path style=" stroke:none;fill-rule:evenodd;fill:rgb(99.215686%,47.45098%,0%);fill-opacity:1;" d="M 36.570312 43.40625 C 36.667969 44.464844 36.703125 45.539062 36.671875 46.632812 C 36.539062 46.757812 36.375 46.839844 36.179688 46.875 C 35.757812 46.921875 35.335938 46.941406 34.914062 46.921875 C 34.820312 46.378906 34.785156 45.824219 34.8125 45.265625 C 35.175781 45.28125 35.53125 45.261719 35.890625 45.214844 C 35.9375 45.164062 35.984375 45.117188 36.035156 45.070312 C 35.992188 44.429688 36.171875 43.875 36.570312 43.40625 Z M 36.570312 43.40625 "/>
</g>
</defs>
<g id="surface1">
<use xlink:href="#surface5" mask="url(#mask0)"/>
<use xlink:href="#surface8" mask="url(#mask1)"/>
<use xlink:href="#surface11" mask="url(#mask2)"/>
<use xlink:href="#surface14" mask="url(#mask3)"/>
<use xlink:href="#surface17" mask="url(#mask4)"/>
<use xlink:href="#surface20" mask="url(#mask5)"/>
<use xlink:href="#surface23" mask="url(#mask6)"/>
<use xlink:href="#surface26" mask="url(#mask7)"/>
<use xlink:href="#surface29" mask="url(#mask8)"/>
<use xlink:href="#surface32" mask="url(#mask9)"/>
<use xlink:href="#surface35" mask="url(#mask10)"/>
<use xlink:href="#surface38" mask="url(#mask11)"/>
<use xlink:href="#surface41" mask="url(#mask12)"/>
<use xlink:href="#surface44" mask="url(#mask13)"/>
<use xlink:href="#surface47" mask="url(#mask14)"/>
<use xlink:href="#surface50" mask="url(#mask15)"/>
<use xlink:href="#surface53" mask="url(#mask16)"/>
<use xlink:href="#surface56" mask="url(#mask17)"/>
<use xlink:href="#surface59" mask="url(#mask18)"/>
<use xlink:href="#surface62" mask="url(#mask19)"/>
<use xlink:href="#surface65" mask="url(#mask20)"/>
<use xlink:href="#surface68" mask="url(#mask21)"/>
<use xlink:href="#surface71" mask="url(#mask22)"/>
<use xlink:href="#surface74" mask="url(#mask23)"/>
<use xlink:href="#surface77" mask="url(#mask24)"/>
<use xlink:href="#surface80" mask="url(#mask25)"/>
<use xlink:href="#surface83" mask="url(#mask26)"/>
<use xlink:href="#surface86" mask="url(#mask27)"/>
<use xlink:href="#surface89" mask="url(#mask28)"/>
<use xlink:href="#surface92" mask="url(#mask29)"/>
<use xlink:href="#surface95" mask="url(#mask30)"/>
<use xlink:href="#surface98" mask="url(#mask31)"/>
<use xlink:href="#surface101" mask="url(#mask32)"/>
<use xlink:href="#surface104" mask="url(#mask33)"/>
<use xlink:href="#surface107" mask="url(#mask34)"/>
<use xlink:href="#surface110" mask="url(#mask35)"/>
<use xlink:href="#surface113" mask="url(#mask36)"/>
<use xlink:href="#surface116" mask="url(#mask37)"/>
<use xlink:href="#surface119" mask="url(#mask38)"/>
<use xlink:href="#surface122" mask="url(#mask39)"/>
<use xlink:href="#surface125" mask="url(#mask40)"/>
<use xlink:href="#surface128" mask="url(#mask41)"/>
<use xlink:href="#surface131" mask="url(#mask42)"/>
<use xlink:href="#surface134" mask="url(#mask43)"/>
<use xlink:href="#surface137" mask="url(#mask44)"/>
</g>
</svg>
