<?xml version="1.0" encoding="UTF-8"?>
<svg xmlns="http://www.w3.org/2000/svg" xmlns:xlink="http://www.w3.org/1999/xlink" width="50px" height="50px" viewBox="0 0 50 50" version="1.1">
<defs>
<filter id="alpha" filterUnits="objectBoundingBox" x="0%" y="0%" width="100%" height="100%">
  <feColorMatrix type="matrix" in="SourceGraphic" values="0 0 0 0 1 0 0 0 0 1 0 0 0 0 1 0 0 0 1 0"/>
</filter>
<mask id="mask0">
  <g filter="url(#alpha)">
<rect x="0" y="0" width="50" height="50" style="fill:rgb(0%,0%,0%);fill-opacity:0.941176;stroke:none;"/>
  </g>
</mask>
<clipPath id="clip1">
  <rect x="0" y="0" width="50" height="50"/>
</clipPath>
<g id="surface5" clip-path="url(#clip1)">
<path style=" stroke:none;fill-rule:evenodd;fill:rgb(99.607843%,67.843137%,0%);fill-opacity:1;" d="M 20.65625 4.054688 C 20.65625 4.605469 20.65625 5.160156 20.65625 5.710938 C 19.21875 5.445312 17.785156 5.414062 16.359375 5.617188 C 16.328125 5.054688 16.363281 4.5 16.453125 3.953125 C 17.859375 3.816406 19.257812 3.847656 20.65625 4.054688 Z M 20.65625 4.054688 "/>
</g>
<mask id="mask1">
  <g filter="url(#alpha)">
<rect x="0" y="0" width="50" height="50" style="fill:rgb(0%,0%,0%);fill-opacity:0.952941;stroke:none;"/>
  </g>
</mask>
<clipPath id="clip2">
  <rect x="0" y="0" width="50" height="50"/>
</clipPath>
<g id="surface8" clip-path="url(#clip2)">
<path style=" stroke:none;fill-rule:evenodd;fill:rgb(99.607843%,73.72549%,0%);fill-opacity:1;" d="M 16.453125 3.953125 C 16.363281 4.5 16.328125 5.054688 16.359375 5.617188 C 15.078125 5.789062 13.84375 6.113281 12.648438 6.59375 C 12.484375 6.09375 12.386719 5.574219 12.351562 5.03125 C 13.65625 4.476562 15.023438 4.117188 16.453125 3.953125 Z M 16.453125 3.953125 "/>
</g>
<mask id="mask2">
  <g filter="url(#alpha)">
<rect x="0" y="0" width="50" height="50" style="fill:rgb(0%,0%,0%);fill-opacity:0.956863;stroke:none;"/>
  </g>
</mask>
<clipPath id="clip3">
  <rect x="0" y="0" width="50" height="50"/>
</clipPath>
<g id="surface11" clip-path="url(#clip3)">
<path style=" stroke:none;fill-rule:evenodd;fill:rgb(99.607843%,63.137255%,0%);fill-opacity:1;" d="M 20.65625 4.054688 C 22.066406 4.261719 23.402344 4.6875 24.65625 5.320312 C 24.691406 5.925781 24.65625 6.511719 24.5625 7.078125 C 23.320312 6.449219 22.019531 5.992188 20.65625 5.710938 C 20.65625 5.160156 20.65625 4.605469 20.65625 4.054688 Z M 20.65625 4.054688 "/>
</g>
<mask id="mask3">
  <g filter="url(#alpha)">
<rect x="0" y="0" width="50" height="50" style="fill:rgb(0%,0%,0%);fill-opacity:0.94902;stroke:none;"/>
  </g>
</mask>
<clipPath id="clip4">
  <rect x="0" y="0" width="50" height="50"/>
</clipPath>
<g id="surface14" clip-path="url(#clip4)">
<path style=" stroke:none;fill-rule:evenodd;fill:rgb(100%,76.862745%,0%);fill-opacity:1;" d="M 12.351562 5.03125 C 12.386719 5.574219 12.484375 6.09375 12.648438 6.59375 C 11.902344 6.964844 11.183594 7.386719 10.5 7.859375 C 10.527344 7.203125 10.492188 6.550781 10.398438 5.90625 C 11.027344 5.5625 11.679688 5.269531 12.351562 5.03125 Z M 12.351562 5.03125 "/>
</g>
<mask id="mask4">
  <g filter="url(#alpha)">
<rect x="0" y="0" width="50" height="50" style="fill:rgb(0%,0%,0%);fill-opacity:0.94902;stroke:none;"/>
  </g>
</mask>
<clipPath id="clip5">
  <rect x="0" y="0" width="50" height="50"/>
</clipPath>
<g id="surface17" clip-path="url(#clip5)">
<path style=" stroke:none;fill-rule:evenodd;fill:rgb(99.607843%,60%,0%);fill-opacity:1;" d="M 24.65625 5.320312 C 25.515625 5.660156 26.296875 6.117188 27 6.6875 C 26.90625 7.355469 26.871094 8.039062 26.90625 8.742188 C 26.152344 8.136719 25.371094 7.585938 24.5625 7.078125 C 24.65625 6.511719 24.691406 5.925781 24.65625 5.320312 Z M 24.65625 5.320312 "/>
</g>
<mask id="mask5">
  <g filter="url(#alpha)">
<rect x="0" y="0" width="50" height="50" style="fill:rgb(0%,0%,0%);fill-opacity:0.952941;stroke:none;"/>
  </g>
</mask>
<clipPath id="clip6">
  <rect x="0" y="0" width="50" height="50"/>
</clipPath>
<g id="surface20" clip-path="url(#clip6)">
<path style=" stroke:none;fill-rule:evenodd;fill:rgb(100%,79.607843%,0%);fill-opacity:1;" d="M 10.398438 5.90625 C 10.492188 6.550781 10.527344 7.203125 10.5 7.859375 C 9.652344 8.476562 8.871094 9.160156 8.15625 9.914062 C 8.1875 9.144531 8.152344 8.398438 8.054688 7.664062 C 8.765625 6.984375 9.546875 6.398438 10.398438 5.90625 Z M 10.398438 5.90625 "/>
</g>
<mask id="mask6">
  <g filter="url(#alpha)">
<rect x="0" y="0" width="50" height="50" style="fill:rgb(0%,0%,0%);fill-opacity:0.956863;stroke:none;"/>
  </g>
</mask>
<clipPath id="clip7">
  <rect x="0" y="0" width="50" height="50"/>
</clipPath>
<g id="surface23" clip-path="url(#clip7)">
<path style=" stroke:none;fill-rule:evenodd;fill:rgb(99.607843%,57.647059%,0%);fill-opacity:1;" d="M 27 6.6875 C 27.679688 7.140625 28.296875 7.660156 28.859375 8.25 C 28.890625 9.082031 28.855469 9.898438 28.757812 10.695312 C 28.210938 9.980469 27.589844 9.328125 26.90625 8.742188 C 26.871094 8.039062 26.90625 7.355469 27 6.6875 Z M 27 6.6875 "/>
</g>
<mask id="mask7">
  <g filter="url(#alpha)">
<rect x="0" y="0" width="50" height="50" style="fill:rgb(0%,0%,0%);fill-opacity:0.960784;stroke:none;"/>
  </g>
</mask>
<clipPath id="clip8">
  <rect x="0" y="0" width="50" height="50"/>
</clipPath>
<g id="surface26" clip-path="url(#clip8)">
<path style=" stroke:none;fill-rule:evenodd;fill:rgb(100%,81.960784%,0%);fill-opacity:1;" d="M 8.054688 7.664062 C 8.152344 8.398438 8.1875 9.144531 8.15625 9.914062 C 7.421875 10.710938 6.804688 11.589844 6.296875 12.546875 C 6.203125 11.589844 6.167969 10.613281 6.203125 9.617188 C 6.683594 8.84375 7.304688 8.191406 8.054688 7.664062 Z M 8.054688 7.664062 "/>
</g>
<mask id="mask8">
  <g filter="url(#alpha)">
<rect x="0" y="0" width="50" height="50" style="fill:rgb(0%,0%,0%);fill-opacity:0.945098;stroke:none;"/>
  </g>
</mask>
<clipPath id="clip9">
  <rect x="0" y="0" width="50" height="50"/>
</clipPath>
<g id="surface29" clip-path="url(#clip9)">
<path style=" stroke:none;fill-rule:evenodd;fill:rgb(99.607843%,71.372549%,0%);fill-opacity:1;" d="M 18.703125 7.960938 C 18.730469 8.519531 18.695312 9.074219 18.601562 9.617188 C 16.945312 9.472656 15.578125 10.023438 14.5 11.28125 C 14.4375 10.59375 14.371094 9.914062 14.304688 9.226562 C 15.582031 8.21875 17.046875 7.792969 18.703125 7.960938 Z M 18.703125 7.960938 "/>
</g>
<mask id="mask9">
  <g filter="url(#alpha)">
<rect x="0" y="0" width="50" height="50" style="fill:rgb(0%,0%,0%);fill-opacity:0.952941;stroke:none;"/>
  </g>
</mask>
<clipPath id="clip10">
  <rect x="0" y="0" width="50" height="50"/>
</clipPath>
<g id="surface32" clip-path="url(#clip10)">
<path style=" stroke:none;fill-rule:evenodd;fill:rgb(99.607843%,54.901961%,0%);fill-opacity:1;" d="M 28.859375 8.25 C 29.71875 9.082031 30.4375 10.027344 31.007812 11.085938 C 30.941406 12.257812 30.875 13.429688 30.8125 14.601562 C 30.332031 13.183594 29.648438 11.882812 28.757812 10.695312 C 28.855469 9.898438 28.890625 9.082031 28.859375 8.25 Z M 28.859375 8.25 "/>
</g>
<mask id="mask10">
  <g filter="url(#alpha)">
<rect x="0" y="0" width="50" height="50" style="fill:rgb(0%,0%,0%);fill-opacity:0.956863;stroke:none;"/>
  </g>
</mask>
<clipPath id="clip11">
  <rect x="0" y="0" width="50" height="50"/>
</clipPath>
<g id="surface35" clip-path="url(#clip11)">
<path style=" stroke:none;fill-rule:evenodd;fill:rgb(99.607843%,65.490196%,0%);fill-opacity:1;" d="M 18.703125 7.960938 C 20.289062 8.117188 21.625 8.769531 22.703125 9.914062 C 22.640625 10.824219 22.574219 11.734375 22.507812 12.648438 C 21.785156 10.914062 20.484375 9.90625 18.601562 9.617188 C 18.695312 9.074219 18.730469 8.519531 18.703125 7.960938 Z M 18.703125 7.960938 "/>
</g>
<mask id="mask11">
  <g filter="url(#alpha)">
<rect x="0" y="0" width="50" height="50" style="fill:rgb(0%,0%,0%);fill-opacity:0.956863;stroke:none;"/>
  </g>
</mask>
<clipPath id="clip12">
  <rect x="0" y="0" width="50" height="50"/>
</clipPath>
<g id="surface38" clip-path="url(#clip12)">
<path style=" stroke:none;fill-rule:evenodd;fill:rgb(99.607843%,74.901961%,0%);fill-opacity:1;" d="M 14.304688 9.226562 C 14.371094 9.914062 14.4375 10.59375 14.5 11.28125 C 13.933594 12.0625 13.605469 12.941406 13.523438 13.914062 C 13.433594 14.636719 13.726562 14.960938 14.40625 14.890625 C 14.40625 15.445312 14.40625 16 14.40625 16.554688 C 12.6875 16.558594 11.839844 15.679688 11.867188 13.914062 C 11.960938 11.964844 12.777344 10.402344 14.304688 9.226562 Z M 14.304688 9.226562 "/>
</g>
<mask id="mask12">
  <g filter="url(#alpha)">
<rect x="0" y="0" width="50" height="50" style="fill:rgb(0%,0%,0%);fill-opacity:0.952941;stroke:none;"/>
  </g>
</mask>
<clipPath id="clip13">
  <rect x="0" y="0" width="50" height="50"/>
</clipPath>
<g id="surface41" clip-path="url(#clip13)">
<path style=" stroke:none;fill-rule:evenodd;fill:rgb(100%,85.098039%,0%);fill-opacity:1;" d="M 6.203125 9.617188 C 6.167969 10.613281 6.203125 11.589844 6.296875 12.546875 C 5.234375 14.527344 4.695312 16.640625 4.6875 18.898438 C 4.480469 19.691406 4.007812 19.90625 3.273438 19.53125 C 2.933594 15.84375 3.910156 12.539062 6.203125 9.617188 Z M 6.203125 9.617188 "/>
</g>
<mask id="mask13">
  <g filter="url(#alpha)">
<rect x="0" y="0" width="50" height="50" style="fill:rgb(0%,0%,0%);fill-opacity:0.960784;stroke:none;"/>
  </g>
</mask>
<clipPath id="clip14">
  <rect x="0" y="0" width="50" height="50"/>
</clipPath>
<g id="surface44" clip-path="url(#clip14)">
<path style=" stroke:none;fill-rule:evenodd;fill:rgb(99.607843%,62.745098%,0%);fill-opacity:1;" d="M 22.703125 9.914062 C 23.820312 11.074219 24.40625 12.472656 24.460938 14.109375 C 24.429688 15.867188 23.8125 17.367188 22.609375 18.601562 C 22.601562 17.59375 22.601562 16.550781 22.609375 15.476562 C 22.851562 14.527344 22.816406 13.582031 22.507812 12.648438 C 22.574219 11.734375 22.640625 10.824219 22.703125 9.914062 Z M 22.703125 9.914062 "/>
</g>
<mask id="mask14">
  <g filter="url(#alpha)">
<rect x="0" y="0" width="50" height="50" style="fill:rgb(0%,0%,0%);fill-opacity:0.937255;stroke:none;"/>
  </g>
</mask>
<clipPath id="clip15">
  <rect x="0" y="0" width="50" height="50"/>
</clipPath>
<g id="surface47" clip-path="url(#clip15)">
<path style=" stroke:none;fill-rule:evenodd;fill:rgb(99.607843%,69.803922%,0%);fill-opacity:1;" d="M 18.703125 11.085938 C 18.703125 11.671875 18.703125 12.257812 18.703125 12.84375 C 17.78125 12.5625 17.113281 12.855469 16.699219 13.71875 C 16.644531 14.144531 16.578125 14.570312 16.503906 14.992188 C 16.476562 15.078125 16.429688 15.144531 16.359375 15.1875 C 16.328125 13.972656 16.359375 12.769531 16.453125 11.570312 C 17.132812 11.136719 17.878906 10.976562 18.703125 11.085938 Z M 18.703125 11.085938 "/>
</g>
<mask id="mask15">
  <g filter="url(#alpha)">
<rect x="0" y="0" width="50" height="50" style="fill:rgb(0%,0%,0%);fill-opacity:0.956863;stroke:none;"/>
  </g>
</mask>
<clipPath id="clip16">
  <rect x="0" y="0" width="50" height="50"/>
</clipPath>
<g id="surface50" clip-path="url(#clip16)">
<path style=" stroke:none;fill-rule:evenodd;fill:rgb(99.607843%,66.666667%,0%);fill-opacity:1;" d="M 18.703125 11.085938 C 20.371094 11.472656 21.25 12.53125 21.335938 14.257812 C 21.191406 15.832031 20.378906 16.890625 18.898438 17.429688 C 18.707031 16.886719 18.640625 16.300781 18.703125 15.671875 C 19.585938 15.128906 19.832031 14.382812 19.433594 13.429688 C 19.230469 13.175781 18.984375 12.980469 18.703125 12.84375 C 18.703125 12.257812 18.703125 11.671875 18.703125 11.085938 Z M 18.703125 11.085938 "/>
</g>
<mask id="mask16">
  <g filter="url(#alpha)">
<rect x="0" y="0" width="50" height="50" style="fill:rgb(0%,0%,0%);fill-opacity:0.968627;stroke:none;"/>
  </g>
</mask>
<clipPath id="clip17">
  <rect x="0" y="0" width="50" height="50"/>
</clipPath>
<g id="surface53" clip-path="url(#clip17)">
<path style=" stroke:none;fill-rule:evenodd;fill:rgb(99.607843%,52.54902%,0%);fill-opacity:1;" d="M 31.007812 11.085938 C 31.699219 12.210938 32.234375 13.414062 32.617188 14.695312 C 32.683594 14.769531 32.765625 14.804688 32.859375 14.796875 C 32.828125 17.15625 32.863281 19.5 32.960938 21.828125 C 32.613281 23.613281 31.960938 25.273438 31.007812 26.804688 C 30.910156 25.652344 30.875 24.480469 30.90625 23.289062 C 31.566406 21.078125 31.714844 18.832031 31.347656 16.554688 C 31.230469 15.882812 31.050781 15.230469 30.8125 14.601562 C 30.875 13.429688 30.941406 12.257812 31.007812 11.085938 Z M 31.007812 11.085938 "/>
</g>
<mask id="mask17">
  <g filter="url(#alpha)">
<rect x="0" y="0" width="50" height="50" style="fill:rgb(0%,0%,0%);fill-opacity:0.964706;stroke:none;"/>
  </g>
</mask>
<clipPath id="clip18">
  <rect x="0" y="0" width="50" height="50"/>
</clipPath>
<g id="surface56" clip-path="url(#clip18)">
<path style=" stroke:none;fill-rule:evenodd;fill:rgb(99.607843%,72.156863%,0%);fill-opacity:1;" d="M 16.453125 11.570312 C 16.359375 12.769531 16.328125 13.972656 16.359375 15.1875 C 16.003906 16.058594 15.355469 16.511719 14.40625 16.554688 C 14.40625 16 14.40625 15.445312 14.40625 14.890625 C 14.585938 14.859375 14.734375 14.761719 14.84375 14.601562 C 14.875 13.527344 15.25 12.597656 15.96875 11.816406 C 16.121094 11.710938 16.285156 11.628906 16.453125 11.570312 Z M 16.453125 11.570312 "/>
</g>
<mask id="mask18">
  <g filter="url(#alpha)">
<rect x="0" y="0" width="50" height="50" style="fill:rgb(0%,0%,0%);fill-opacity:0.929412;stroke:none;"/>
  </g>
</mask>
<clipPath id="clip19">
  <rect x="0" y="0" width="50" height="50"/>
</clipPath>
<g id="surface59" clip-path="url(#clip19)">
<path style=" stroke:none;fill-rule:evenodd;fill:rgb(99.607843%,50.588235%,0%);fill-opacity:1;" d="M 32.859375 14.796875 C 33.632812 14.855469 34.382812 14.984375 35.109375 15.1875 C 35.109375 15.738281 35.109375 16.292969 35.109375 16.84375 C 34.441406 16.695312 33.773438 16.566406 33.105469 16.453125 C 33.121094 17.300781 33.171875 18.148438 33.25 18.992188 C 33.203125 19.945312 33.105469 20.890625 32.960938 21.828125 C 32.863281 19.5 32.828125 17.15625 32.859375 14.796875 Z M 32.859375 14.796875 "/>
</g>
<mask id="mask19">
  <g filter="url(#alpha)">
<rect x="0" y="0" width="50" height="50" style="fill:rgb(0%,0%,0%);fill-opacity:0.952941;stroke:none;"/>
  </g>
</mask>
<clipPath id="clip20">
  <rect x="0" y="0" width="50" height="50"/>
</clipPath>
<g id="surface62" clip-path="url(#clip20)">
<path style=" stroke:none;fill-rule:evenodd;fill:rgb(99.607843%,64.705882%,0%);fill-opacity:1;" d="M 22.609375 15.476562 C 22.601562 16.550781 22.601562 17.59375 22.609375 18.601562 C 22.058594 19.203125 21.410156 19.660156 20.65625 19.96875 C 20.6875 19.367188 20.652344 18.78125 20.554688 18.210938 C 21.539062 17.523438 22.21875 16.613281 22.609375 15.476562 Z M 22.609375 15.476562 "/>
</g>
<mask id="mask20">
  <g filter="url(#alpha)">
<rect x="0" y="0" width="50" height="50" style="fill:rgb(0%,0%,0%);fill-opacity:0.960784;stroke:none;"/>
  </g>
</mask>
<clipPath id="clip21">
  <rect x="0" y="0" width="50" height="50"/>
</clipPath>
<g id="surface65" clip-path="url(#clip21)">
<path style=" stroke:none;fill-rule:evenodd;fill:rgb(99.607843%,69.803922%,0%);fill-opacity:1;" d="M 18.703125 15.671875 C 18.640625 16.300781 18.707031 16.886719 18.898438 17.429688 C 17.515625 18.59375 17.09375 20.042969 17.625 21.777344 C 17.996094 22.082031 18.355469 22.066406 18.703125 21.726562 C 18.667969 22.332031 18.703125 22.917969 18.796875 23.484375 C 16.730469 23.765625 15.6875 22.835938 15.671875 20.703125 C 15.707031 18.847656 16.421875 17.316406 17.820312 16.113281 C 18.089844 15.914062 18.382812 15.769531 18.703125 15.671875 Z M 18.703125 15.671875 "/>
</g>
<mask id="mask21">
  <g filter="url(#alpha)">
<rect x="0" y="0" width="50" height="50" style="fill:rgb(0%,0%,0%);fill-opacity:0.952941;stroke:none;"/>
  </g>
</mask>
<clipPath id="clip22">
  <rect x="0" y="0" width="50" height="50"/>
</clipPath>
<g id="surface68" clip-path="url(#clip22)">
<path style=" stroke:none;fill-rule:evenodd;fill:rgb(99.215686%,45.882353%,0%);fill-opacity:1;" d="M 35.109375 15.1875 C 36.519531 15.460938 37.855469 15.949219 39.109375 16.648438 C 39.144531 17.289062 39.109375 17.90625 39.015625 18.507812 C 37.785156 17.792969 36.484375 17.242188 35.109375 16.84375 C 35.109375 16.292969 35.109375 15.738281 35.109375 15.1875 Z M 35.109375 15.1875 "/>
</g>
<mask id="mask22">
  <g filter="url(#alpha)">
<rect x="0" y="0" width="50" height="50" style="fill:rgb(0%,0%,0%);fill-opacity:0.94902;stroke:none;"/>
  </g>
</mask>
<clipPath id="clip23">
  <rect x="0" y="0" width="50" height="50"/>
</clipPath>
<g id="surface71" clip-path="url(#clip23)">
<path style=" stroke:none;fill-rule:evenodd;fill:rgb(99.215686%,42.745098%,0%);fill-opacity:1;" d="M 39.109375 16.648438 C 39.851562 17.066406 40.535156 17.554688 41.164062 18.117188 C 41.066406 18.78125 41.03125 19.464844 41.0625 20.164062 C 40.40625 19.574219 39.722656 19.019531 39.015625 18.507812 C 39.109375 17.90625 39.144531 17.289062 39.109375 16.648438 Z M 39.109375 16.648438 "/>
</g>
<mask id="mask23">
  <g filter="url(#alpha)">
<rect x="0" y="0" width="50" height="50" style="fill:rgb(0%,0%,0%);fill-opacity:0.952941;stroke:none;"/>
  </g>
</mask>
<clipPath id="clip24">
  <rect x="0" y="0" width="50" height="50"/>
</clipPath>
<g id="surface74" clip-path="url(#clip24)">
<path style=" stroke:none;fill-rule:evenodd;fill:rgb(99.215686%,40%,0%);fill-opacity:1;" d="M 41.164062 18.117188 C 42.035156 18.695312 42.785156 19.410156 43.40625 20.265625 C 43.40625 21.207031 43.40625 22.152344 43.40625 23.09375 C 42.742188 22.035156 41.960938 21.058594 41.0625 20.164062 C 41.03125 19.464844 41.066406 18.78125 41.164062 18.117188 Z M 41.164062 18.117188 "/>
</g>
<mask id="mask24">
  <g filter="url(#alpha)">
<rect x="0" y="0" width="50" height="50" style="fill:rgb(0%,0%,0%);fill-opacity:0.956863;stroke:none;"/>
  </g>
</mask>
<clipPath id="clip25">
  <rect x="0" y="0" width="50" height="50"/>
</clipPath>
<g id="surface77" clip-path="url(#clip25)">
<path style=" stroke:none;fill-rule:evenodd;fill:rgb(99.607843%,67.058824%,0%);fill-opacity:1;" d="M 20.554688 18.210938 C 20.652344 18.78125 20.6875 19.367188 20.65625 19.96875 C 20.585938 20.652344 20.503906 21.335938 20.410156 22.023438 C 20.164062 22.839844 19.625 23.328125 18.796875 23.484375 C 18.703125 22.917969 18.667969 22.332031 18.703125 21.726562 C 18.863281 21.09375 18.945312 20.441406 18.945312 19.773438 C 19.210938 18.972656 19.75 18.453125 20.554688 18.210938 Z M 20.554688 18.210938 "/>
</g>
<mask id="mask25">
  <g filter="url(#alpha)">
<rect x="0" y="0" width="50" height="50" style="fill:rgb(0%,0%,0%);fill-opacity:0.988235;stroke:none;"/>
  </g>
</mask>
<clipPath id="clip26">
  <rect x="0" y="0" width="50" height="50"/>
</clipPath>
<g id="surface80" clip-path="url(#clip26)">
<path style=" stroke:none;fill-rule:evenodd;fill:rgb(100%,86.27451%,0%);fill-opacity:1;" d="M 4.25 22.117188 C 4.25 26.382812 4.25 30.648438 4.25 34.914062 C 3.652344 34.691406 3.28125 34.269531 3.125 33.640625 C 3.058594 29.898438 3.058594 26.15625 3.125 22.414062 C 3.171875 22.234375 3.289062 22.117188 3.46875 22.070312 C 3.746094 21.992188 4.007812 22.007812 4.25 22.117188 Z M 4.25 22.117188 "/>
</g>
<mask id="mask26">
  <g filter="url(#alpha)">
<rect x="0" y="0" width="50" height="50" style="fill:rgb(0%,0%,0%);fill-opacity:0.976471;stroke:none;"/>
  </g>
</mask>
<clipPath id="clip27">
  <rect x="0" y="0" width="50" height="50"/>
</clipPath>
<g id="surface83" clip-path="url(#clip27)">
<path style=" stroke:none;fill-rule:evenodd;fill:rgb(100%,83.921569%,0%);fill-opacity:1;" d="M 4.25 22.117188 C 4.34375 22.109375 4.425781 22.144531 4.492188 22.21875 C 4.585938 22.402344 4.652344 22.597656 4.6875 22.804688 C 4.71875 26.285156 4.753906 29.769531 4.785156 33.25 C 4.960938 33.4375 5.171875 33.484375 5.421875 33.398438 C 5.667969 33.167969 5.894531 32.921875 6.101562 32.664062 C 6.144531 33.390625 6.242188 34.105469 6.398438 34.8125 C 5.6875 35.164062 4.972656 35.195312 4.25 34.914062 C 4.25 30.648438 4.25 26.382812 4.25 22.117188 Z M 4.25 22.117188 "/>
</g>
<mask id="mask27">
  <g filter="url(#alpha)">
<rect x="0" y="0" width="50" height="50" style="fill:rgb(0%,0%,0%);fill-opacity:0.945098;stroke:none;"/>
  </g>
</mask>
<clipPath id="clip28">
  <rect x="0" y="0" width="50" height="50"/>
</clipPath>
<g id="surface86" clip-path="url(#clip28)">
<path style=" stroke:none;fill-rule:evenodd;fill:rgb(99.607843%,54.901961%,0%);fill-opacity:1;" d="M 30.90625 23.289062 C 30.875 24.480469 30.910156 25.652344 31.007812 26.804688 C 30.460938 27.765625 29.777344 28.609375 28.953125 29.34375 C 28.890625 28.597656 28.824219 27.847656 28.757812 27.101562 C 29.652344 25.929688 30.371094 24.660156 30.90625 23.289062 Z M 30.90625 23.289062 "/>
</g>
<mask id="mask28">
  <g filter="url(#alpha)">
<rect x="0" y="0" width="50" height="50" style="fill:rgb(0%,0%,0%);fill-opacity:0.988235;stroke:none;"/>
  </g>
</mask>
<clipPath id="clip29">
  <rect x="0" y="0" width="50" height="50"/>
</clipPath>
<g id="surface89" clip-path="url(#clip29)">
<path style=" stroke:none;fill-rule:evenodd;fill:rgb(99.215686%,36.078431%,0%);fill-opacity:1;" d="M 43.40625 20.265625 C 45.328125 22.542969 46.449219 25.179688 46.777344 28.171875 C 46.84375 33.675781 46.84375 39.175781 46.777344 44.679688 C 46.191406 45.808594 45.265625 46.246094 43.992188 45.996094 C 43.726562 45.894531 43.5 45.75 43.3125 45.554688 C 43.40625 44.792969 43.441406 44.011719 43.40625 43.210938 C 43.753906 43.546875 44.082031 43.902344 44.382812 44.289062 C 44.65625 44.4375 44.902344 44.40625 45.117188 44.1875 C 45.183594 38.882812 45.183594 33.578125 45.117188 28.273438 C 44.886719 26.425781 44.316406 24.703125 43.40625 23.09375 C 43.40625 22.152344 43.40625 21.207031 43.40625 20.265625 Z M 43.40625 20.265625 "/>
</g>
<mask id="mask29">
  <g filter="url(#alpha)">
<rect x="0" y="0" width="50" height="50" style="fill:rgb(0%,0%,0%);fill-opacity:0.964706;stroke:none;"/>
  </g>
</mask>
<clipPath id="clip30">
  <rect x="0" y="0" width="50" height="50"/>
</clipPath>
<g id="surface92" clip-path="url(#clip30)">
<path style=" stroke:none;fill-rule:evenodd;fill:rgb(99.607843%,69.803922%,0%);fill-opacity:1;" d="M 18.507812 25.148438 C 18.625 25.429688 18.691406 25.738281 18.703125 26.074219 C 18.699219 26.371094 18.667969 26.644531 18.601562 26.90625 C 17.960938 26.640625 17.570312 26.835938 17.429688 27.492188 C 17.539062 28.125 17.894531 28.355469 18.507812 28.171875 C 18.695312 28.683594 18.761719 29.238281 18.703125 29.835938 C 16.941406 30.027344 15.964844 29.246094 15.773438 27.492188 C 15.929688 25.835938 16.839844 25.054688 18.507812 25.148438 Z M 18.507812 25.148438 "/>
</g>
<mask id="mask30">
  <g filter="url(#alpha)">
<rect x="0" y="0" width="50" height="50" style="fill:rgb(0%,0%,0%);fill-opacity:0.952941;stroke:none;"/>
  </g>
</mask>
<clipPath id="clip31">
  <rect x="0" y="0" width="50" height="50"/>
</clipPath>
<g id="surface95" clip-path="url(#clip31)">
<path style=" stroke:none;fill-rule:evenodd;fill:rgb(99.607843%,67.45098%,0%);fill-opacity:1;" d="M 18.507812 25.148438 C 20.074219 25.542969 20.707031 26.550781 20.410156 28.171875 C 20.175781 29.074219 19.605469 29.628906 18.703125 29.835938 C 18.761719 29.238281 18.695312 28.683594 18.507812 28.171875 C 18.851562 27.777344 18.886719 27.351562 18.601562 26.90625 C 18.667969 26.644531 18.699219 26.371094 18.703125 26.074219 C 18.691406 25.738281 18.625 25.429688 18.507812 25.148438 Z M 18.507812 25.148438 "/>
</g>
<mask id="mask31">
  <g filter="url(#alpha)">
<rect x="0" y="0" width="50" height="50" style="fill:rgb(0%,0%,0%);fill-opacity:0.956863;stroke:none;"/>
  </g>
</mask>
<clipPath id="clip32">
  <rect x="0" y="0" width="50" height="50"/>
</clipPath>
<g id="surface98" clip-path="url(#clip32)">
<path style=" stroke:none;fill-rule:evenodd;fill:rgb(99.607843%,57.647059%,0%);fill-opacity:1;" d="M 28.757812 27.101562 C 28.824219 27.847656 28.890625 28.597656 28.953125 29.34375 C 28.332031 30 27.648438 30.585938 26.90625 31.101562 C 26.9375 30.433594 26.902344 29.78125 26.804688 29.148438 C 27.527344 28.527344 28.175781 27.84375 28.757812 27.101562 Z M 28.757812 27.101562 "/>
</g>
<mask id="mask32">
  <g filter="url(#alpha)">
<rect x="0" y="0" width="50" height="50" style="fill:rgb(0%,0%,0%);fill-opacity:0.956863;stroke:none;"/>
  </g>
</mask>
<clipPath id="clip33">
  <rect x="0" y="0" width="50" height="50"/>
</clipPath>
<g id="surface101" clip-path="url(#clip33)">
<path style=" stroke:none;fill-rule:evenodd;fill:rgb(99.607843%,59.607843%,0%);fill-opacity:1;" d="M 26.804688 29.148438 C 26.902344 29.78125 26.9375 30.433594 26.90625 31.101562 C 26.253906 31.625 25.539062 32.046875 24.757812 32.375 C 24.660156 31.804688 24.625 31.21875 24.65625 30.617188 C 25.371094 30.128906 26.089844 29.640625 26.804688 29.148438 Z M 26.804688 29.148438 "/>
</g>
<mask id="mask33">
  <g filter="url(#alpha)">
<rect x="0" y="0" width="50" height="50" style="fill:rgb(0%,0%,0%);fill-opacity:0.94902;stroke:none;"/>
  </g>
</mask>
<clipPath id="clip34">
  <rect x="0" y="0" width="50" height="50"/>
</clipPath>
<g id="surface104" clip-path="url(#clip34)">
<path style=" stroke:none;fill-rule:evenodd;fill:rgb(100%,79.607843%,0%);fill-opacity:1;" d="M 10.59375 30.03125 C 10.503906 30.640625 10.46875 31.257812 10.5 31.882812 C 10.179688 31.757812 9.886719 31.578125 9.617188 31.347656 C 9.523438 31.28125 9.421875 31.28125 9.328125 31.347656 C 9 31.820312 8.644531 32.261719 8.25 32.664062 C 8.15625 31.871094 8.121094 31.054688 8.15625 30.226562 C 8.394531 29.742188 8.769531 29.414062 9.277344 29.25 C 9.777344 29.40625 10.21875 29.667969 10.59375 30.03125 Z M 10.59375 30.03125 "/>
</g>
<mask id="mask34">
  <g filter="url(#alpha)">
<rect x="0" y="0" width="50" height="50" style="fill:rgb(0%,0%,0%);fill-opacity:0.956863;stroke:none;"/>
  </g>
</mask>
<clipPath id="clip35">
  <rect x="0" y="0" width="50" height="50"/>
</clipPath>
<g id="surface107" clip-path="url(#clip35)">
<path style=" stroke:none;fill-rule:evenodd;fill:rgb(100%,81.960784%,0%);fill-opacity:1;" d="M 8.15625 30.226562 C 8.121094 31.054688 8.15625 31.871094 8.25 32.664062 C 7.703125 33.441406 7.085938 34.160156 6.398438 34.8125 C 6.242188 34.105469 6.144531 33.390625 6.101562 32.664062 C 6.753906 31.820312 7.4375 31.007812 8.15625 30.226562 Z M 8.15625 30.226562 "/>
</g>
<mask id="mask35">
  <g filter="url(#alpha)">
<rect x="0" y="0" width="50" height="50" style="fill:rgb(0%,0%,0%);fill-opacity:0.952941;stroke:none;"/>
  </g>
</mask>
<clipPath id="clip36">
  <rect x="0" y="0" width="50" height="50"/>
</clipPath>
<g id="surface110" clip-path="url(#clip36)">
<path style=" stroke:none;fill-rule:evenodd;fill:rgb(99.607843%,75.294118%,0%);fill-opacity:1;" d="M 10.59375 30.03125 C 11.78125 30.832031 13.050781 31.453125 14.40625 31.882812 C 14.40625 32.4375 14.40625 32.992188 14.40625 33.546875 C 12.996094 33.21875 11.695312 32.664062 10.5 31.882812 C 10.46875 31.257812 10.503906 30.640625 10.59375 30.03125 Z M 10.59375 30.03125 "/>
</g>
<mask id="mask36">
  <g filter="url(#alpha)">
<rect x="0" y="0" width="50" height="50" style="fill:rgb(0%,0%,0%);fill-opacity:0.952941;stroke:none;"/>
  </g>
</mask>
<clipPath id="clip37">
  <rect x="0" y="0" width="50" height="50"/>
</clipPath>
<g id="surface113" clip-path="url(#clip37)">
<path style=" stroke:none;fill-rule:evenodd;fill:rgb(99.607843%,63.921569%,0%);fill-opacity:1;" d="M 24.65625 30.617188 C 24.625 31.21875 24.660156 31.804688 24.757812 32.375 C 23.46875 33.039062 22.101562 33.496094 20.65625 33.742188 C 20.65625 33.1875 20.65625 32.632812 20.65625 32.078125 C 22.050781 31.765625 23.386719 31.277344 24.65625 30.617188 Z M 24.65625 30.617188 "/>
</g>
<mask id="mask37">
  <g filter="url(#alpha)">
<rect x="0" y="0" width="50" height="50" style="fill:rgb(0%,0%,0%);fill-opacity:0.94902;stroke:none;"/>
  </g>
</mask>
<clipPath id="clip38">
  <rect x="0" y="0" width="50" height="50"/>
</clipPath>
<g id="surface116" clip-path="url(#clip38)">
<path style=" stroke:none;fill-rule:evenodd;fill:rgb(99.607843%,67.058824%,0%);fill-opacity:1;" d="M 20.65625 32.078125 C 20.65625 32.632812 20.65625 33.1875 20.65625 33.742188 C 20.007812 33.859375 19.355469 33.957031 18.703125 34.03125 C 18.703125 33.480469 18.703125 32.925781 18.703125 32.375 C 19.339844 32.277344 19.988281 32.179688 20.65625 32.078125 Z M 20.65625 32.078125 "/>
</g>
<mask id="mask38">
  <g filter="url(#alpha)">
<rect x="0" y="0" width="50" height="50" style="fill:rgb(0%,0%,0%);fill-opacity:0.952941;stroke:none;"/>
  </g>
</mask>
<clipPath id="clip39">
  <rect x="0" y="0" width="50" height="50"/>
</clipPath>
<g id="surface119" clip-path="url(#clip39)">
<path style=" stroke:none;fill-rule:evenodd;fill:rgb(99.607843%,70.588235%,0%);fill-opacity:1;" d="M 14.40625 31.882812 C 15.816406 32.214844 17.25 32.378906 18.703125 32.375 C 18.703125 32.925781 18.703125 33.480469 18.703125 34.03125 C 17.242188 34.058594 15.808594 33.894531 14.40625 33.546875 C 14.40625 32.992188 14.40625 32.4375 14.40625 31.882812 Z M 14.40625 31.882812 "/>
</g>
<mask id="mask39">
  <g filter="url(#alpha)">
<rect x="0" y="0" width="50" height="50" style="fill:rgb(0%,0%,0%);fill-opacity:0.941176;stroke:none;"/>
  </g>
</mask>
<clipPath id="clip40">
  <rect x="0" y="0" width="50" height="50"/>
</clipPath>
<g id="surface122" clip-path="url(#clip40)">
<path style=" stroke:none;fill-rule:evenodd;fill:rgb(99.607843%,67.058824%,0%);fill-opacity:1;" d="M 20.75 37.546875 C 20.6875 38.328125 20.621094 39.109375 20.554688 39.890625 C 19.722656 39.058594 19.074219 38.097656 18.601562 37.011719 C 18.871094 36.152344 19.375 35.972656 20.117188 36.476562 C 20.328125 36.835938 20.542969 37.195312 20.75 37.546875 Z M 20.75 37.546875 "/>
</g>
<mask id="mask40">
  <g filter="url(#alpha)">
<rect x="0" y="0" width="50" height="50" style="fill:rgb(0%,0%,0%);fill-opacity:0.952941;stroke:none;"/>
  </g>
</mask>
<clipPath id="clip41">
  <rect x="0" y="0" width="50" height="50"/>
</clipPath>
<g id="surface125" clip-path="url(#clip41)">
<path style=" stroke:none;fill-rule:evenodd;fill:rgb(99.607843%,65.098039%,0%);fill-opacity:1;" d="M 20.75 37.546875 C 21.292969 38.320312 21.914062 39.035156 22.609375 39.695312 C 22.609375 40.414062 22.609375 41.128906 22.609375 41.84375 C 21.863281 41.261719 21.179688 40.613281 20.554688 39.890625 C 20.621094 39.109375 20.6875 38.328125 20.75 37.546875 Z M 20.75 37.546875 "/>
</g>
<mask id="mask41">
  <g filter="url(#alpha)">
<rect x="0" y="0" width="50" height="50" style="fill:rgb(0%,0%,0%);fill-opacity:0.952941;stroke:none;"/>
  </g>
</mask>
<clipPath id="clip42">
  <rect x="0" y="0" width="50" height="50"/>
</clipPath>
<g id="surface128" clip-path="url(#clip42)">
<path style=" stroke:none;fill-rule:evenodd;fill:rgb(99.607843%,62.352941%,0%);fill-opacity:1;" d="M 22.609375 39.695312 C 23.277344 40.242188 23.960938 40.765625 24.65625 41.257812 C 24.65625 41.878906 24.65625 42.496094 24.65625 43.117188 C 23.929688 42.765625 23.246094 42.34375 22.609375 41.84375 C 22.609375 41.128906 22.609375 40.414062 22.609375 39.695312 Z M 22.609375 39.695312 "/>
</g>
<mask id="mask42">
  <g filter="url(#alpha)">
<rect x="0" y="0" width="50" height="50" style="fill:rgb(0%,0%,0%);fill-opacity:0.952941;stroke:none;"/>
  </g>
</mask>
<clipPath id="clip43">
  <rect x="0" y="0" width="50" height="50"/>
</clipPath>
<g id="surface131" clip-path="url(#clip43)">
<path style=" stroke:none;fill-rule:evenodd;fill:rgb(99.215686%,43.529412%,0%);fill-opacity:1;" d="M 41.0625 40.382812 C 41.0625 41.195312 41.0625 42.007812 41.0625 42.820312 C 40.832031 42.640625 40.621094 42.445312 40.429688 42.234375 C 39.425781 42.957031 38.335938 43.511719 37.15625 43.898438 C 37.15625 43.34375 37.15625 42.789062 37.15625 42.234375 C 38.292969 41.667969 39.367188 41 40.382812 40.234375 C 40.644531 40.152344 40.875 40.203125 41.0625 40.382812 Z M 41.0625 40.382812 "/>
</g>
<mask id="mask43">
  <g filter="url(#alpha)">
<rect x="0" y="0" width="50" height="50" style="fill:rgb(0%,0%,0%);fill-opacity:0.952941;stroke:none;"/>
  </g>
</mask>
<clipPath id="clip44">
  <rect x="0" y="0" width="50" height="50"/>
</clipPath>
<g id="surface134" clip-path="url(#clip44)">
<path style=" stroke:none;fill-rule:evenodd;fill:rgb(99.215686%,40%,0%);fill-opacity:1;" d="M 41.0625 40.382812 C 41.917969 41.265625 42.699219 42.210938 43.40625 43.210938 C 43.441406 44.011719 43.40625 44.792969 43.3125 45.554688 C 42.488281 44.703125 41.738281 43.792969 41.0625 42.820312 C 41.0625 42.007812 41.0625 41.195312 41.0625 40.382812 Z M 41.0625 40.382812 "/>
</g>
<mask id="mask44">
  <g filter="url(#alpha)">
<rect x="0" y="0" width="50" height="50" style="fill:rgb(0%,0%,0%);fill-opacity:0.956863;stroke:none;"/>
  </g>
</mask>
<clipPath id="clip45">
  <rect x="0" y="0" width="50" height="50"/>
</clipPath>
<g id="surface137" clip-path="url(#clip45)">
<path style=" stroke:none;fill-rule:evenodd;fill:rgb(99.607843%,60%,0%);fill-opacity:1;" d="M 24.65625 41.257812 C 25.390625 41.644531 26.140625 42 26.90625 42.335938 C 26.933594 42.929688 26.898438 43.515625 26.804688 44.09375 C 26.058594 43.820312 25.34375 43.496094 24.65625 43.117188 C 24.65625 42.496094 24.65625 41.878906 24.65625 41.257812 Z M 24.65625 41.257812 "/>
</g>
<mask id="mask45">
  <g filter="url(#alpha)">
<rect x="0" y="0" width="50" height="50" style="fill:rgb(0%,0%,0%);fill-opacity:0.960784;stroke:none;"/>
  </g>
</mask>
<clipPath id="clip46">
  <rect x="0" y="0" width="50" height="50"/>
</clipPath>
<g id="surface140" clip-path="url(#clip46)">
<path style=" stroke:none;fill-rule:evenodd;fill:rgb(99.607843%,55.686275%,0%);fill-opacity:1;" d="M 26.90625 42.335938 C 28.195312 42.8125 29.53125 43.105469 30.90625 43.210938 C 30.90625 43.765625 30.90625 44.320312 30.90625 44.875 C 29.496094 44.824219 28.128906 44.566406 26.804688 44.09375 C 26.898438 43.515625 26.933594 42.929688 26.90625 42.335938 Z M 26.90625 42.335938 "/>
</g>
<mask id="mask46">
  <g filter="url(#alpha)">
<rect x="0" y="0" width="50" height="50" style="fill:rgb(0%,0%,0%);fill-opacity:0.945098;stroke:none;"/>
  </g>
</mask>
<clipPath id="clip47">
  <rect x="0" y="0" width="50" height="50"/>
</clipPath>
<g id="surface143" clip-path="url(#clip47)">
<path style=" stroke:none;fill-rule:evenodd;fill:rgb(99.215686%,49.019608%,0%);fill-opacity:1;" d="M 37.15625 42.234375 C 37.15625 42.789062 37.15625 43.34375 37.15625 43.898438 C 35.828125 44.46875 34.429688 44.792969 32.960938 44.875 C 32.828125 44.320312 32.828125 43.765625 32.960938 43.210938 C 34.40625 43.085938 35.808594 42.761719 37.15625 42.234375 Z M 37.15625 42.234375 "/>
</g>
<mask id="mask47">
  <g filter="url(#alpha)">
<rect x="0" y="0" width="50" height="50" style="fill:rgb(0%,0%,0%);fill-opacity:0.933333;stroke:none;"/>
  </g>
</mask>
<clipPath id="clip48">
  <rect x="0" y="0" width="50" height="50"/>
</clipPath>
<g id="surface146" clip-path="url(#clip48)">
<path style=" stroke:none;fill-rule:evenodd;fill:rgb(99.607843%,52.54902%,0%);fill-opacity:1;" d="M 30.90625 43.210938 C 31.59375 43.210938 32.273438 43.210938 32.960938 43.210938 C 32.828125 43.765625 32.828125 44.320312 32.960938 44.875 C 32.273438 44.992188 31.589844 44.992188 30.90625 44.875 C 30.90625 44.320312 30.90625 43.765625 30.90625 43.210938 Z M 30.90625 43.210938 "/>
</g>
</defs>
<g id="surface1">
<use xlink:href="#surface5" mask="url(#mask0)"/>
<use xlink:href="#surface8" mask="url(#mask1)"/>
<use xlink:href="#surface11" mask="url(#mask2)"/>
<use xlink:href="#surface14" mask="url(#mask3)"/>
<use xlink:href="#surface17" mask="url(#mask4)"/>
<use xlink:href="#surface20" mask="url(#mask5)"/>
<use xlink:href="#surface23" mask="url(#mask6)"/>
<use xlink:href="#surface26" mask="url(#mask7)"/>
<use xlink:href="#surface29" mask="url(#mask8)"/>
<use xlink:href="#surface32" mask="url(#mask9)"/>
<use xlink:href="#surface35" mask="url(#mask10)"/>
<use xlink:href="#surface38" mask="url(#mask11)"/>
<use xlink:href="#surface41" mask="url(#mask12)"/>
<use xlink:href="#surface44" mask="url(#mask13)"/>
<use xlink:href="#surface47" mask="url(#mask14)"/>
<use xlink:href="#surface50" mask="url(#mask15)"/>
<use xlink:href="#surface53" mask="url(#mask16)"/>
<use xlink:href="#surface56" mask="url(#mask17)"/>
<use xlink:href="#surface59" mask="url(#mask18)"/>
<use xlink:href="#surface62" mask="url(#mask19)"/>
<use xlink:href="#surface65" mask="url(#mask20)"/>
<use xlink:href="#surface68" mask="url(#mask21)"/>
<use xlink:href="#surface71" mask="url(#mask22)"/>
<use xlink:href="#surface74" mask="url(#mask23)"/>
<use xlink:href="#surface77" mask="url(#mask24)"/>
<use xlink:href="#surface80" mask="url(#mask25)"/>
<use xlink:href="#surface83" mask="url(#mask26)"/>
<use xlink:href="#surface86" mask="url(#mask27)"/>
<use xlink:href="#surface89" mask="url(#mask28)"/>
<use xlink:href="#surface92" mask="url(#mask29)"/>
<use xlink:href="#surface95" mask="url(#mask30)"/>
<use xlink:href="#surface98" mask="url(#mask31)"/>
<use xlink:href="#surface101" mask="url(#mask32)"/>
<use xlink:href="#surface104" mask="url(#mask33)"/>
<use xlink:href="#surface107" mask="url(#mask34)"/>
<use xlink:href="#surface110" mask="url(#mask35)"/>
<use xlink:href="#surface113" mask="url(#mask36)"/>
<use xlink:href="#surface116" mask="url(#mask37)"/>
<use xlink:href="#surface119" mask="url(#mask38)"/>
<use xlink:href="#surface122" mask="url(#mask39)"/>
<use xlink:href="#surface125" mask="url(#mask40)"/>
<use xlink:href="#surface128" mask="url(#mask41)"/>
<use xlink:href="#surface131" mask="url(#mask42)"/>
<use xlink:href="#surface134" mask="url(#mask43)"/>
<use xlink:href="#surface137" mask="url(#mask44)"/>
<use xlink:href="#surface140" mask="url(#mask45)"/>
<use xlink:href="#surface143" mask="url(#mask46)"/>
<use xlink:href="#surface146" mask="url(#mask47)"/>
</g>
</svg>
